<svg version="1.1" xmlns="http://www.w3.org/2000/svg" xmlns:xlink="http://www.w3.org/1999/xlink" width="731.86101" height="58.49906" viewBox="0,0,731.86101,58.49906"><g transform="translate(-295.93884,-92.6661)"><g data-paper-data="{&quot;isPaintingLayer&quot;:true}" fill="#000000" fill-rule="nonzero" stroke="none" stroke-width="1" stroke-linecap="butt" stroke-linejoin="miter" stroke-miterlimit="10" stroke-dasharray="" stroke-dashoffset="0" style="mix-blend-mode: normal"><g><path d="M496.98001,103.92834c1.73523,5.5913 2.44218,20.05155 1.34962,27.12101c-1.86377,12.21088 -6.36251,17.41657 -15.55281,18.05925c-12.33942,0.89975 -17.73791,-6.10544 -18.38059,-23.97189c-0.57841,-14.20318 1.54243,-22.81507 6.87665,-28.02076c1.86377,-1.7995 3.9846,-3.21339 5.52703,-3.66326c9.89724,-2.57071 17.28804,1.22109 20.18009,10.47565zM476.60712,99.75093c-4.69155,2.82778 -7.26226,10.15431 -7.19799,20.56569c0,15.10293 4.17741,23.13641 12.01808,23.13641c8.99749,0 12.72502,-7.3908 12.21088,-24.03615c-0.38561,-12.27515 -2.44218,-17.3523 -8.03347,-20.24435c-2.1851,-1.09255 -6.68385,-0.83548 -8.99749,0.57841z"/><path d="M486.24729,101.35763c4.11314,2.69925 6.68385,12.21088 6.04117,22.81507c-0.44987,7.64787 -1.86377,12.27515 -4.62728,15.29573c-2.05657,2.24937 -2.37791,2.37791 -6.10544,2.37791c-3.72753,0 -4.04887,-0.12854 -6.10544,-2.37791c-2.89205,-3.14912 -4.24167,-7.7764 -4.62728,-16.25975c-0.51414,-11.3754 1.60669,-18.959 6.23398,-22.04385c2.63498,-1.7995 6.36251,-1.67096 9.19029,0.1928zM480.14185,105.53503c-2.37791,1.41389 -3.40619,6.23398 -3.40619,16.06695c0.06427,9.7687 0.70695,13.11063 2.89205,15.10293c1.09255,0.96402 1.54243,1.02828 2.95632,0.44987c2.95632,-1.34962 3.72753,-4.56301 3.7918,-15.23147c0,-10.34711 -1.02828,-15.03866 -3.53473,-16.38829c-1.41389,-0.77121 -1.34962,-0.77121 -2.69925,0z"/><path d="M572.88027,92.68147c0.32134,0 3.02059,1.92803 6.04117,4.30594l5.52703,4.37021l-1.7995,1.22109c-4.82008,3.47046 -7.90494,8.74042 -6.81239,11.69674c0.1928,0.70695 2.24937,3.7918 4.49875,6.94092c3.66326,5.07716 4.04887,5.9769 4.04887,8.80469c0,6.29824 -4.43448,14.20318 -10.86126,19.02327l-2.76352,2.12084l-1.9923,-1.41389c-1.15682,-0.77121 -3.599,-2.69925 -5.52703,-4.30594l-3.40619,-2.89205l1.7995,-1.28536c6.55531,-4.75582 9.70444,-9.51163 8.93322,-13.43197c-0.25707,-1.15682 -1.73523,-4.11314 -3.27766,-6.68385c-4.11314,-6.55531 -4.94862,-8.86896 -4.43448,-12.01808c0.64268,-3.85607 3.72753,-9.96151 6.74812,-13.43197c1.47816,-1.67096 2.95632,-3.02059 3.27766,-3.02059zM574.2299,101.03629c-0.96402,0 -2.63498,2.1851 -4.04887,5.39849c-2.05657,4.75582 -1.54243,8.03347 2.69925,15.29573c3.08485,5.33423 3.40619,6.36251 3.40619,9.51163c-0.06427,4.24167 -1.22109,6.68385 -4.69155,9.83297c-1.47816,1.34962 -2.31364,2.50644 -1.92803,2.76352c1.22109,0.70695 6.68385,-5.65557 7.5836,-8.93322c1.28536,-4.49875 0.57841,-7.3908 -3.21339,-13.75331c-3.21339,-5.20569 -3.47046,-5.9769 -3.47046,-9.64017c0,-3.40619 0.25707,-4.37021 2.12084,-6.87665c1.09255,-1.67096 2.05657,-3.14912 2.05657,-3.27766c0,-0.1928 -0.25707,-0.32134 -0.51414,-0.32134z"/><path d="M791.3265,103.92834c1.73523,5.5913 2.44218,20.05155 1.34962,27.12101c-1.86377,12.21088 -6.36251,17.41657 -15.55281,18.05925c-12.33942,0.89975 -17.73791,-6.10544 -18.38059,-23.97189c-0.57841,-14.20318 1.54243,-22.81507 6.87665,-28.02076c1.86377,-1.7995 3.9846,-3.21339 5.52703,-3.66326c9.89724,-2.57071 17.28804,1.22109 20.18009,10.47565zM770.95361,99.75093c-4.69155,2.82778 -7.26226,10.15431 -7.19799,20.56569c0,15.10293 4.17741,23.13641 12.01808,23.13641c8.99749,0 12.72502,-7.3908 12.21088,-24.03615c-0.38561,-12.27515 -2.44218,-17.3523 -8.03347,-20.24435c-2.1851,-1.09255 -6.68385,-0.83548 -8.99749,0.57841z"/><path d="M780.59378,101.35763c4.11314,2.69925 6.68385,12.21088 6.04117,22.81507c-0.44987,7.64787 -1.86377,12.27515 -4.62728,15.29573c-2.05657,2.24937 -2.37791,2.37791 -6.10544,2.37791c-3.72753,0 -4.04887,-0.12854 -6.10544,-2.37791c-2.89205,-3.14912 -4.24167,-7.7764 -4.62728,-16.25975c-0.51414,-11.3754 1.60669,-18.959 6.23398,-22.04385c2.63498,-1.7995 6.36251,-1.67096 9.19029,0.1928zM774.48834,105.53503c-2.37791,1.41389 -3.40619,6.23398 -3.40619,16.06695c0.06427,9.7687 0.70695,13.11063 2.89205,15.10293c1.09255,0.96402 1.54243,1.02828 2.95632,0.44987c2.95632,-1.34962 3.72753,-4.56301 3.7918,-15.23147c0,-10.34711 -1.02828,-15.03866 -3.53473,-16.38829c-1.41389,-0.77121 -1.34962,-0.77121 -2.69925,0z"/><path d="M868.7692,96.98742c0.57841,5.84837 3.34193,24.03615 3.72753,24.35749c0.1928,0.25707 2.1851,-7.90494 3.53473,-14.84586c0.38561,-1.86377 0.83548,-2.57071 1.60669,-2.50644c0.57841,0 2.95632,0.06427 5.20569,0.12854l4.04887,0.12854l0.44987,3.02059c0.1928,1.60669 1.15682,5.5913 2.12084,8.80469l1.7995,5.84837l0.83548,-4.49875c0.44987,-2.50644 1.47816,-8.80469 2.31364,-14.01038c0.83548,-5.20569 1.60669,-9.5759 1.73523,-9.70444c0.12854,-0.12854 2.12084,0.12854 4.43448,0.64268c2.31364,0.44987 5.07716,0.89975 6.16971,0.89975h1.9923l-1.54243,6.23398c-1.54243,6.55531 -6.29824,29.94879 -8.22628,40.74578l-1.09255,6.16971l-6.10544,0.44987c-3.40619,0.25707 -6.23398,0.32134 -6.36251,0.1928c-0.12854,-0.12854 -0.96402,-4.69155 -1.92803,-10.15431c-0.89975,-5.46276 -1.86377,-10.28285 -2.12084,-10.79699c-0.51414,-0.89975 -2.05657,4.17741 -4.56301,15.03866l-1.34962,5.7841l-4.94862,-0.1928c-2.69925,-0.12854 -5.07716,-0.38561 -5.20569,-0.44987c-0.12854,-0.12854 -1.02828,-5.26996 -2.05657,-11.3754c-0.96402,-6.10544 -3.27766,-17.73791 -5.07716,-25.83565c-1.73523,-8.09774 -3.21339,-15.03866 -3.21339,-15.48854c0,-0.51414 1.54243,-0.96402 4.17741,-1.28536c2.24937,-0.1928 4.94862,-0.64268 5.91264,-0.96402c3.14912,-0.89975 3.21339,-0.83548 3.72753,3.66326zM862.53522,99.10825c-0.38561,0 -0.51414,0.57841 -0.25707,1.41389c0.38561,1.60669 7.06946,35.86143 7.7764,39.9103c0.1928,1.34962 0.64268,2.37791 0.96402,2.24937c0.38561,-0.12854 2.69925,-6.29824 5.20569,-13.68904c2.50644,-7.45506 4.82008,-13.75331 5.07716,-14.01038c0.64268,-0.70695 2.12084,3.27766 6.55531,17.1595c1.86377,5.84837 3.66326,10.66845 4.04887,10.66845c0.38561,0 1.22109,-2.50644 1.7995,-5.5913c0.64268,-3.08485 2.89205,-12.85356 4.94862,-21.65825c2.12084,-8.86896 3.66326,-16.19548 3.47046,-16.38829c-0.77121,-0.77121 -1.60669,1.9923 -4.69155,15.68134c-1.86377,8.09774 -3.85607,16.9667 -4.43448,19.53741l-1.09255,4.82008l-4.82008,-13.62477c-2.63498,-7.51933 -5.07716,-13.62477 -5.46276,-13.62477c-0.38561,0 -2.57071,5.14142 -4.82008,11.3754c-2.24937,6.29824 -4.43448,12.27515 -4.82008,13.3677l-0.77121,1.92803l-0.38561,-1.92803c-0.1928,-1.09255 -1.73523,-8.86896 -3.34193,-17.3523c-1.67096,-8.48335 -3.27766,-16.51682 -3.599,-17.86645c-0.32134,-1.28536 -0.96402,-2.37791 -1.34962,-2.37791z"/><path d="M307.45429,93.58122c1.15682,0.1928 5.01289,0.38561 8.61188,0.38561h6.61958l0.38561,3.66326c0.89975,7.64787 5.01289,32.3267 6.81239,41.25992c1.09255,5.07716 1.86377,9.3831 1.73523,9.44737c-0.06427,0.12854 -3.02059,0.25707 -6.55531,0.38561l-6.42678,0.1928l-0.1928,-3.85607c-0.25707,-6.94092 -0.12854,-6.74812 -5.52703,-6.74812h-4.69155l-0.44987,2.95632c-0.1928,1.67096 -0.38561,3.7918 -0.38561,4.75582c0,1.73523 0,1.73523 -5.5913,2.12084c-3.14912,0.1928 -5.71983,0.25707 -5.84837,0.12854c-0.12854,-0.06427 0.83548,-5.33423 2.05657,-11.63247c2.57071,-13.04636 4.30594,-23.52201 5.84837,-34.319c0.57841,-4.04887 1.15682,-7.7764 1.34962,-8.29055c0.1928,-0.57841 0.89975,-0.77121 2.24937,-0.44987zM318.25128,99.75093h-4.43448c-4.11314,0 -4.49875,0.12854 -4.82008,1.41389c-0.12854,0.83548 -1.34962,7.3908 -2.57071,14.65306c-1.28536,7.26226 -3.02059,16.51682 -3.92034,20.56569c-1.73523,8.41908 -1.73523,8.35481 -0.96402,8.35481c0.32134,0 1.15682,-2.37791 1.7995,-5.33423l1.22109,-5.26996l8.29055,-0.44987c4.62728,-0.1928 8.54762,-0.1928 8.74042,0c0.1928,0.25707 0.77121,2.69925 1.22109,5.39849c0.57841,3.53473 1.09255,5.01289 1.73523,5.01289c0.51414,0 0.77121,-0.25707 0.57841,-0.51414c-0.51414,-0.83548 -2.76352,-14.52452 -4.56301,-27.76369c-0.89975,-6.55531 -1.7995,-12.85356 -1.9923,-14.01038z"/><path d="M313.8168,101.03629c1.7995,0 3.21339,0.06427 3.21339,0.12854c0,0.12854 1.02828,7.00519 2.1851,15.29573c1.22109,8.29055 2.12084,15.23147 1.9923,15.29573c-0.51414,0.51414 -15.61707,0.83548 -15.87414,0.32134c-0.25707,-0.38561 3.599,-23.07214 5.01289,-29.62745c0.25707,-1.22109 0.70695,-1.41389 3.47046,-1.41389zM312.98132,110.35512c-0.44987,1.54243 -3.02059,15.55281 -3.02059,16.83816c0,0.57841 0.96402,0.83548 3.27766,0.83548h3.27766l-0.44987,-3.72753c-0.83548,-7.06946 -2.63498,-15.29573 -3.08485,-13.94611z"/><path d="M434.96159,95.05938c0.1928,1.02828 1.60669,5.71983 3.14912,10.47565l2.69925,8.67615l1.67096,-3.21339c1.92803,-3.85607 4.75582,-11.1826 5.65557,-14.91013l0.64268,-2.63498l5.65557,1.9923c3.08485,1.09255 5.71983,2.05657 5.91264,2.1851c0.12854,0.1928 -0.25707,1.22109 -0.89975,2.31364c-0.64268,1.15682 -3.9846,7.51933 -7.3908,14.26745l-6.16971,12.21088l0.1928,8.67615c0.12854,4.75582 0.32134,9.70444 0.32134,10.92552l0.12854,2.24937l-5.91264,0.1928l-5.91264,0.1928l0.38561,-10.47565l0.32134,-10.47565l-2.57071,-7.06946c-1.41389,-3.92034 -4.30594,-10.92552 -6.49105,-15.68134c-2.76352,-6.10544 -3.72753,-8.80469 -3.21339,-9.12603c0.44987,-0.25707 2.37791,-0.64268 4.30594,-0.89975c1.92803,-0.25707 4.17741,-0.70695 4.88435,-0.96402c2.05657,-0.83548 2.24937,-0.77121 2.63498,1.09255zM430.20577,99.23679c-1.15682,-0.38561 -0.77121,0.57841 4.62728,13.68904l4.56301,10.92552l0.1928,9.7687c0.32134,12.91783 1.47816,12.98209 1.47816,0.12854v-9.70444l2.1851,-3.66326c4.37021,-7.32653 10.15431,-19.47314 9.51163,-20.11582c-0.38561,-0.38561 -1.28536,0.89975 -2.63498,3.66326c-1.09255,2.37791 -1.9923,4.49875 -1.9923,4.62728c0,0.77121 -7.3908,13.68904 -7.7764,13.68904c-0.51414,0 -3.599,-7.19799 -7.00519,-16.32402c-1.28536,-3.53473 -2.69925,-6.55531 -3.14912,-6.68385z"/><path d="M729.30808,95.05938c0.1928,1.02828 1.60669,5.71983 3.14912,10.47565l2.69925,8.67615l1.67096,-3.21339c1.92803,-3.85607 4.75582,-11.1826 5.65557,-14.91013l0.64268,-2.63498l5.65557,1.9923c3.08485,1.09255 5.71983,2.05657 5.91264,2.1851c0.12854,0.1928 -0.25707,1.22109 -0.89975,2.31364c-0.64268,1.15682 -3.9846,7.51933 -7.3908,14.26745l-6.16971,12.21088l0.1928,8.67615c0.12854,4.75582 0.32134,9.70444 0.32134,10.92552l0.12854,2.24937l-5.91264,0.1928l-5.91264,0.1928l0.38561,-10.47565l0.32134,-10.47565l-2.57071,-7.06946c-1.41389,-3.92034 -4.30594,-10.92552 -6.49105,-15.68134c-2.76352,-6.10544 -3.72753,-8.80469 -3.21339,-9.12603c0.44987,-0.25707 2.37791,-0.64268 4.30594,-0.89975c1.92803,-0.25707 4.17741,-0.70695 4.88435,-0.96402c2.05657,-0.83548 2.24937,-0.77121 2.63498,1.09255zM724.55227,99.23679c-1.15682,-0.38561 -0.77121,0.57841 4.62728,13.68904l4.56301,10.92552l0.1928,9.7687c0.32134,12.91783 1.47816,12.98209 1.47816,0.12854v-9.70444l2.1851,-3.66326c4.37021,-7.32653 10.15431,-19.47314 9.51163,-20.11582c-0.38561,-0.38561 -1.28536,0.89975 -2.63498,3.66326c-1.09255,2.37791 -1.9923,4.49875 -1.9923,4.62728c0,0.77121 -7.3908,13.68904 -7.7764,13.68904c-0.51414,0 -3.599,-7.19799 -7.00519,-16.32402c-1.28536,-3.53473 -2.69925,-6.55531 -3.14912,-6.68385z"/><path d="M922.49707,93.58122c1.15682,0.1928 5.01289,0.38561 8.61188,0.38561h6.61958l0.38561,3.66326c0.89975,7.64787 5.01289,32.3267 6.81239,41.25992c1.09255,5.07716 1.86377,9.3831 1.73523,9.44737c-0.06427,0.12854 -3.02059,0.25707 -6.55531,0.38561l-6.42678,0.1928l-0.1928,-3.85607c-0.25707,-6.94092 -0.12854,-6.74812 -5.52703,-6.74812h-4.69155l-0.44987,2.95632c-0.1928,1.67096 -0.38561,3.7918 -0.38561,4.75582c0,1.73523 0,1.73523 -5.5913,2.12084c-3.14912,0.1928 -5.71983,0.25707 -5.84837,0.12854c-0.12854,-0.06427 0.83548,-5.33423 2.05657,-11.63247c2.57071,-13.04636 4.30594,-23.52201 5.84837,-34.319c0.57841,-4.04887 1.15682,-7.7764 1.34962,-8.29055c0.1928,-0.57841 0.89975,-0.77121 2.24937,-0.44987zM933.29406,99.75093h-4.43448c-4.11314,0 -4.49875,0.12854 -4.82008,1.41389c-0.12854,0.83548 -1.34962,7.3908 -2.57071,14.65306c-1.28536,7.26226 -3.02059,16.51682 -3.92034,20.56569c-1.73523,8.41908 -1.73523,8.35481 -0.96402,8.35481c0.32134,0 1.15682,-2.37791 1.7995,-5.33423l1.22109,-5.26996l8.29055,-0.44987c4.62728,-0.1928 8.54762,-0.1928 8.74042,0c0.1928,0.25707 0.77121,2.69925 1.22109,5.39849c0.57841,3.53473 1.09255,5.01289 1.73523,5.01289c0.51414,0 0.77121,-0.25707 0.57841,-0.51414c-0.51414,-0.83548 -2.76352,-14.52452 -4.56301,-27.76369c-0.89975,-6.55531 -1.7995,-12.85356 -1.9923,-14.01038z"/><path d="M928.85958,101.03629c1.7995,0 3.21339,0.06427 3.21339,0.12854c0,0.12854 1.02828,7.00519 2.1851,15.29573c1.22109,8.29055 2.12084,15.23147 1.9923,15.29573c-0.51414,0.51414 -15.61707,0.83548 -15.87414,0.32134c-0.25707,-0.38561 3.599,-23.07214 5.01289,-29.62745c0.25707,-1.22109 0.70695,-1.41389 3.47046,-1.41389zM928.0241,110.35512c-0.44987,1.54243 -3.02059,15.55281 -3.02059,16.83816c0,0.57841 0.96402,0.83548 3.27766,0.83548h3.27766l-0.44987,-3.72753c-0.83548,-7.06946 -2.63498,-15.29573 -3.08485,-13.94611z"/><path d="M965.36369,93.70976c0.06427,0.06427 1.09255,2.95632 2.31364,6.49105c1.22109,3.53473 3.599,9.70444 5.26996,13.75331c3.14912,7.32653 3.14912,7.32653 3.47046,4.75582c0.1928,-1.41389 0.1928,-7.51933 -0.06427,-13.49624c-0.1928,-6.04117 -0.32134,-10.98979 -0.32134,-10.98979c0.06427,-0.06427 2.69925,-0.25707 5.91264,-0.32134l5.7841,-0.25707v22.17239c0,12.21088 0.25707,24.35749 0.51414,27.05674l0.44987,4.88435l-5.33423,1.02828c-6.29824,1.28536 -6.94092,1.34962 -6.94092,0.38561c0,-1.92803 -10.34711,-25.32151 -12.53222,-28.3421c-1.02828,-1.41389 -1.02828,-1.02828 -0.70695,7.19799c0.25707,4.75582 0.57841,11.1826 0.77121,14.20318l0.38561,5.52703l-4.43448,0.44987c-2.37791,0.25707 -5.14142,0.57841 -6.10544,0.77121l-1.7995,0.38561v-27.69942v-27.63515l6.61958,-0.1928c3.599,-0.12854 6.61958,-0.1928 6.74812,-0.12854zM957.33021,101.03629c0.25707,1.15682 0.44987,10.86126 0.44987,21.59398c0,12.59649 0.25707,19.53741 0.64268,19.53741c0.38561,0 0.64268,-7.00519 0.64268,-19.73021v-19.79448l1.54243,2.24937c2.12084,3.21339 12.66076,22.17239 16.9667,30.65574c1.9923,3.9846 3.85607,7.26226 4.04887,7.26226c0.70695,0 1.22109,-9.25456 1.28536,-22.81507c0.06427,-18.57339 0,-20.88703 -0.70695,-20.88703c-0.38561,0 -0.64268,4.37021 -0.64268,11.69674c0,6.49105 -0.1928,15.42427 -0.44987,19.92302l-0.38561,8.16201l-6.94092,-12.72502c-3.7918,-7.00519 -8.74042,-15.87414 -10.98979,-19.66594c-4.24167,-7.32653 -6.16971,-9.25456 -5.46276,-5.46276z"/><path d="M1027.51064,93.64549l0.1928,3.02059c0.12854,1.73523 0.12854,4.62728 0,6.42678l-0.1928,3.40619l-5.26996,-0.25707l-5.33423,-0.1928v20.9513v20.9513h-3.66326c-2.05657,0 -4.82008,0.1928 -6.10544,0.38561l-2.44218,0.44987v-21.40118v-21.40118l-5.52703,0.44987l-5.5913,0.44987l0.44987,-3.02059c0.1928,-1.67096 0.38561,-4.56301 0.38561,-6.42678v-3.47046l16.58109,-0.12854zM1006.17374,99.94373c-5.33423,-0.25707 -7.26226,-0.1928 -7.26226,0.32134c0,0.51414 1.86377,0.77121 5.7841,0.77121h5.7841v20.56569c0,13.30343 0.25707,20.56569 0.64268,20.56569c0.38561,0 0.64268,-7.32653 0.64268,-20.62996v-20.69423l6.10544,0.44987c3.9846,0.25707 6.10544,0.1928 6.10544,-0.25707c0,-0.38561 -2.12084,-0.64268 -5.26996,-0.64268c-2.95632,0 -8.61188,-0.1928 -12.53222,-0.44987z"/><path d="M347.42886,94.0311c8.74042,-0.06427 9.7687,0.25707 13.88184,4.75582c6.81239,7.3908 7.64787,17.22377 1.9923,23.65055l-2.44218,2.69925l2.76352,8.99749c1.47816,4.94862 3.02059,9.7687 3.40619,10.73272c0.70695,1.67096 0.70695,1.73523 -4.11314,3.34193c-4.43448,1.47816 -4.88435,1.54243 -5.20569,0.51414c-1.15682,-3.40619 -6.16971,-15.29573 -6.55531,-15.74561c-0.25707,-0.25707 -0.96402,-0.32134 -1.54243,-0.06427c-0.96402,0.32134 -1.09255,1.47816 -1.09255,7.64787v7.26226l-4.94862,0.25707c-2.76352,0.1928 -5.20569,0.12854 -5.46276,-0.06427c-0.25707,-0.1928 -0.51414,-12.33942 -0.64268,-26.86394c-0.1928,-26.02846 -0.1928,-26.47833 1.09255,-26.7354c0.70695,-0.12854 4.69155,-0.32134 8.86896,-0.38561zM349.09982,98.78691c-7.00519,-0.44987 -6.36251,-2.63498 -6.36251,21.91532c0,13.3677 0.25707,21.46544 0.64268,21.46544c0.32134,0 0.70695,-2.76352 0.77121,-6.16971l0.1928,-6.16971l3.53473,-1.15682c1.92803,-0.64268 4.04887,-1.34962 4.62728,-1.60669c0.96402,-0.38561 1.47816,0.32134 2.95632,3.599c1.02828,2.24937 2.50644,6.04117 3.34193,8.41908c1.41389,4.04887 2.57071,5.5913 2.57071,3.47046c0,-1.02828 -2.37791,-7.51933 -4.75582,-12.85356l-1.67096,-3.72753l2.57071,-2.57071c6.49105,-6.49105 5.5913,-18.50912 -1.67096,-22.7508c-1.86377,-1.09255 -3.9846,-1.67096 -6.74812,-1.86377z"/><path d="M354.88392,101.74323c3.34193,1.86377 5.20569,4.94862 5.65557,9.19029c0.51414,4.94862 -0.96402,8.54762 -4.88435,12.08235c-2.69925,2.44218 -8.29055,5.01289 -10.86126,5.01289c-1.15682,0 -1.09255,-27.37808 0.06427,-27.89222c1.47816,-0.70695 7.71214,0.32134 10.02578,1.60669zM348.97128,105.34223c-0.64268,0.57841 -0.57841,16.90243 0.06427,16.90243c0.70695,0 4.94862,-4.56301 5.84837,-6.23398c0.89975,-1.73523 0.89975,-5.65557 0.06427,-7.26226c-0.32134,-0.64268 -1.60669,-1.7995 -2.82778,-2.50644c-2.37791,-1.47816 -2.57071,-1.54243 -3.14912,-0.89975z"/><path d="M388.68878,93.96683h13.49624l-0.32134,5.5913l-0.32134,5.65557l-8.16201,-0.25707l-8.22628,-0.1928v5.5913v5.52703l7.26226,-0.12854c5.01289,-0.06427 7.19799,0.12854 7.13373,0.64268c-0.06427,0.38561 -0.12854,3.02059 -0.12854,5.84837l-0.12854,5.14142h-7.00519c-7.96921,0 -7.7764,-0.1928 -7.7764,6.36251v3.47046l8.35481,-0.32134l8.35481,-0.38561v5.01289c0,2.76352 0.1928,5.46276 0.38561,6.04117c0.32134,0.89975 -1.15682,1.02828 -13.94611,1.02828h-14.39599l0.25707,-26.79967c0.12854,-19.21607 0.38561,-26.99247 0.96402,-27.31381c0.38561,-0.25707 6.81239,-0.51414 14.20318,-0.51414zM387.91757,99.10825h-9.51163v22.17239c0,18.18779 0.12854,22.10812 0.83548,21.85105c0.51414,-0.1928 4.88435,-0.32134 9.83297,-0.32134c5.52703,0 8.93322,-0.25707 8.93322,-0.64268c0,-0.38561 -3.40619,-0.64268 -8.99749,-0.64268h-9.06176l0.1928,-9.83297l0.1928,-9.7687l7.5836,0.12854c6.23398,0.12854 7.51933,0 7.51933,-0.77121c0,-0.77121 -1.34962,-0.96402 -7.71214,-0.96402h-7.71214v-8.93322c0,-4.94862 -0.1928,-9.3831 -0.38561,-9.96151c-0.32134,-0.89975 0.64268,-1.02828 8.67615,-1.02828c5.5913,0 9.06176,-0.25707 9.06176,-0.64268c0,-0.38561 -3.599,-0.64268 -9.44737,-0.64268z"/><path d="M505.20629,93.90256l6.29824,0.44987c3.53473,0.1928 6.49105,0.57841 6.68385,0.70695c0.1928,0.1928 0.32134,9.06176 0.32134,19.79448l-0.06427,19.47314l3.47046,0.44987c1.92803,0.25707 3.66326,0.25707 3.85607,0c0.25707,-0.25707 0.44987,-9.51163 0.38561,-20.62996l-0.06427,-20.18009h6.74812h6.74812l-0.44987,5.5913c-0.1928,3.14912 -0.57841,15.29573 -0.83548,27.05674l-0.38561,21.33691l-1.54243,0.32134c-0.77121,0.1928 -2.24937,0.44987 -3.21339,0.64268c-1.02828,0.1928 -2.31364,0.51414 -2.95632,0.70695c-0.83548,0.25707 -1.28536,-0.1928 -1.7995,-1.67096c-0.38561,-1.09255 -0.89975,-1.86377 -1.15682,-1.7995c-0.1928,0.12854 -1.73523,0.89975 -3.40619,1.7995l-3.08485,1.54243l-3.9846,-1.92803c-2.1851,-1.02828 -5.33423,-2.95632 -7.00519,-4.24167l-3.02059,-2.37791l-0.38561,-21.07984c-0.1928,-11.5682 -0.51414,-22.17239 -0.77121,-23.52201zM512.40428,98.46557c-0.38561,-0.64268 -0.64268,5.52703 -0.64268,17.99498c0,16.77389 0.12854,19.21607 1.15682,21.20837c2.24937,4.56301 9.5759,5.91264 16.06695,2.89205l3.34193,-1.54243v1.86377c0,1.09255 0.32134,1.92803 0.64268,1.92803c0.38561,0 0.64268,-7.71214 0.64268,-21.85105c0,-14.13891 -0.25707,-21.85105 -0.64268,-21.85105c-0.38561,0 -0.64268,6.74812 -0.64268,18.89473v18.959l-1.73523,1.22109c-5.71983,3.9846 -14.46025,3.34193 -16.70963,-1.15682c-0.57841,-1.15682 -0.83548,-6.55531 -0.83548,-19.60168c0,-10.47565 -0.25707,-18.38059 -0.64268,-18.959z"/><path d="M590.03978,93.90256l6.29824,0.44987c3.53473,0.1928 6.49105,0.57841 6.68385,0.70695c0.1928,0.1928 0.32134,9.06176 0.32134,19.79448l-0.06427,19.47314l3.47046,0.44987c1.92803,0.25707 3.66326,0.25707 3.85607,0c0.25707,-0.25707 0.44987,-9.51163 0.38561,-20.62996l-0.06427,-20.18009h6.74812h6.74812l-0.44987,5.5913c-0.1928,3.14912 -0.57841,15.29573 -0.83548,27.05674l-0.38561,21.33691l-1.54243,0.32134c-0.77121,0.1928 -2.24937,0.44987 -3.21339,0.64268c-1.02828,0.1928 -2.31364,0.51414 -2.95632,0.70695c-0.83548,0.25707 -1.28536,-0.1928 -1.7995,-1.67096c-0.38561,-1.09255 -0.89975,-1.86377 -1.15682,-1.7995c-0.1928,0.12854 -1.73523,0.89975 -3.40619,1.7995l-3.08485,1.54243l-3.9846,-1.92803c-2.1851,-1.02828 -5.33423,-2.95632 -7.00519,-4.24167l-3.02059,-2.37791l-0.38561,-21.07984c-0.1928,-11.5682 -0.51414,-22.17239 -0.77121,-23.52201zM597.23777,98.46557c-0.38561,-0.64268 -0.64268,5.52703 -0.64268,17.99498c0,16.77389 0.12854,19.21607 1.15682,21.20837c2.24937,4.56301 9.5759,5.91264 16.06695,2.89205l3.34193,-1.54243v1.86377c0,1.09255 0.32134,1.92803 0.64268,1.92803c0.38561,0 0.64268,-7.71214 0.64268,-21.85105c0,-14.13891 -0.25707,-21.85105 -0.64268,-21.85105c-0.38561,0 -0.64268,6.74812 -0.64268,18.89473v18.959l-1.73523,1.22109c-5.71983,3.9846 -14.46025,3.34193 -16.70963,-1.15682c-0.57841,-1.15682 -0.83548,-6.55531 -0.83548,-19.60168c0,-10.47565 -0.25707,-18.38059 -0.64268,-18.959z"/><path d="M641.77535,94.0311c8.74042,-0.06427 9.7687,0.25707 13.88184,4.75582c6.81239,7.3908 7.64787,17.22377 1.9923,23.65055l-2.44218,2.69925l2.76352,8.99749c1.47816,4.94862 3.02059,9.7687 3.40619,10.73272c0.70695,1.67096 0.70695,1.73523 -4.11314,3.34193c-4.43448,1.47816 -4.88435,1.54243 -5.20569,0.51414c-1.15682,-3.40619 -6.16971,-15.29573 -6.55531,-15.74561c-0.25707,-0.25707 -0.96402,-0.32134 -1.54243,-0.06427c-0.96402,0.32134 -1.09255,1.47816 -1.09255,7.64787v7.26226l-4.94862,0.25707c-2.76352,0.1928 -5.20569,0.12854 -5.46276,-0.06427c-0.25707,-0.1928 -0.51414,-12.33942 -0.64268,-26.86394c-0.1928,-26.02846 -0.1928,-26.47833 1.09255,-26.7354c0.70695,-0.12854 4.69155,-0.32134 8.86896,-0.38561zM643.44631,98.78691c-7.00519,-0.44987 -6.36251,-2.63498 -6.36251,21.91532c0,13.3677 0.25707,21.46544 0.64268,21.46544c0.32134,0 0.70695,-2.76352 0.77121,-6.16971l0.1928,-6.16971l3.53473,-1.15682c1.92803,-0.64268 4.04887,-1.34962 4.62728,-1.60669c0.96402,-0.38561 1.47816,0.32134 2.95632,3.599c1.02828,2.24937 2.50644,6.04117 3.34193,8.41908c1.41389,4.04887 2.57071,5.5913 2.57071,3.47046c0,-1.02828 -2.37791,-7.51933 -4.75582,-12.85356l-1.67096,-3.72753l2.57071,-2.57071c6.49105,-6.49105 5.5913,-18.50912 -1.67096,-22.7508c-1.86377,-1.09255 -3.9846,-1.67096 -6.74812,-1.86377z"/><path d="M649.23041,101.74323c3.34193,1.86377 5.20569,4.94862 5.65557,9.19029c0.51414,4.94862 -0.96402,8.54762 -4.88435,12.08235c-2.69925,2.44218 -8.29055,5.01289 -10.86126,5.01289c-1.15682,0 -1.09255,-27.37808 0.06427,-27.89222c1.47816,-0.70695 7.71214,0.32134 10.02578,1.60669zM643.31778,105.34223c-0.64268,0.57841 -0.57841,16.90243 0.06427,16.90243c0.70695,0 4.94862,-4.56301 5.84837,-6.23398c0.89975,-1.73523 0.89975,-5.65557 0.06427,-7.26226c-0.32134,-0.64268 -1.60669,-1.7995 -2.82778,-2.50644c-2.37791,-1.47816 -2.57071,-1.54243 -3.14912,-0.89975z"/><path d="M683.03527,93.96683h13.49624l-0.32134,5.5913l-0.32134,5.65557l-8.16201,-0.25707l-8.22628,-0.1928v5.5913v5.52703l7.26226,-0.12854c5.01289,-0.06427 7.19799,0.12854 7.13373,0.64268c-0.06427,0.38561 -0.12854,3.02059 -0.12854,5.84837l-0.12854,5.14142h-7.00519c-7.96921,0 -7.7764,-0.1928 -7.7764,6.36251v3.47046l8.35481,-0.32134l8.35481,-0.38561v5.01289c0,2.76352 0.1928,5.46276 0.38561,6.04117c0.32134,0.89975 -1.15682,1.02828 -13.94611,1.02828h-14.39599l0.25707,-26.79967c0.12854,-19.21607 0.38561,-26.99247 0.96402,-27.31381c0.38561,-0.25707 6.81239,-0.51414 14.20318,-0.51414zM682.26406,99.10825h-9.51163v22.17239c0,18.18779 0.12854,22.10812 0.83548,21.85105c0.51414,-0.1928 4.88435,-0.32134 9.83297,-0.32134c5.52703,0 8.93322,-0.25707 8.93322,-0.64268c0,-0.38561 -3.40619,-0.64268 -8.99749,-0.64268h-9.06176l0.1928,-9.83297l0.1928,-9.7687l7.5836,0.12854c6.23398,0.12854 7.51933,0 7.51933,-0.77121c0,-0.77121 -1.34962,-0.96402 -7.71214,-0.96402h-7.71214v-8.93322c0,-4.94862 -0.1928,-9.3831 -0.38561,-9.96151c-0.32134,-0.89975 0.64268,-1.02828 8.67615,-1.02828c5.5913,0 9.06176,-0.25707 9.06176,-0.64268c0,-0.38561 -3.599,-0.64268 -9.44737,-0.64268z"/><path d="M799.55278,93.90256l6.29824,0.44987c3.53473,0.1928 6.49105,0.57841 6.68385,0.70695c0.1928,0.1928 0.32134,9.06176 0.32134,19.79448l-0.06427,19.47314l3.47046,0.44987c1.92803,0.25707 3.66326,0.25707 3.85607,0c0.25707,-0.25707 0.44987,-9.51163 0.38561,-20.62996l-0.06427,-20.18009h6.74812h6.74812l-0.44987,5.5913c-0.1928,3.14912 -0.57841,15.29573 -0.83548,27.05674l-0.38561,21.33691l-1.54243,0.32134c-0.77121,0.1928 -2.24937,0.44987 -3.21339,0.64268c-1.02828,0.1928 -2.31364,0.51414 -2.95632,0.70695c-0.83548,0.25707 -1.28536,-0.1928 -1.7995,-1.67096c-0.38561,-1.09255 -0.89975,-1.86377 -1.15682,-1.7995c-0.1928,0.12854 -1.73523,0.89975 -3.40619,1.7995l-3.08485,1.54243l-3.9846,-1.92803c-2.1851,-1.02828 -5.33423,-2.95632 -7.00519,-4.24167l-3.02059,-2.37791l-0.38561,-21.07984c-0.1928,-11.5682 -0.51414,-22.17239 -0.77121,-23.52201zM806.75077,98.46557c-0.38561,-0.64268 -0.64268,5.52703 -0.64268,17.99498c0,16.77389 0.12854,19.21607 1.15682,21.20837c2.24937,4.56301 9.5759,5.91264 16.06695,2.89205l3.34193,-1.54243v1.86377c0,1.09255 0.32134,1.92803 0.64268,1.92803c0.38561,0 0.64268,-7.71214 0.64268,-21.85105c0,-14.13891 -0.25707,-21.85105 -0.64268,-21.85105c-0.38561,0 -0.64268,6.74812 -0.64268,18.89473v18.959l-1.73523,1.22109c-5.71983,3.9846 -14.46025,3.34193 -16.70963,-1.15682c-0.57841,-1.15682 -0.83548,-6.55531 -0.83548,-19.60168c0,-10.47565 -0.25707,-18.38059 -0.64268,-18.959z"/></g></g></g></svg>