<svg version="1.1" viewBox="0.0 0.0 670.0 408.0" fill="none" stroke="none" stroke-linecap="square" stroke-miterlimit="10" xmlns:xlink="http://www.w3.org/1999/xlink" xmlns="http://www.w3.org/2000/svg"><clipPath id="p.0"><path d="m0 0l670.0 0l0 408.0l-670.0 0l0 -408.0z" clip-rule="nonzero"/></clipPath><g clip-path="url(#p.0)"><path fill="#000000" fill-opacity="0.0" d="m0 0l670.0 0l0 408.0l-670.0 0z" fill-rule="evenodd"/><path fill="#000000" fill-opacity="0.0" d="m206.9895 82.18898l31.496063 0l0 43.62204l-31.496063 0z" fill-rule="evenodd"/><path fill="#ffffff" d="m223.58325 93.76398l0 16.625l-4.75 0l0 -8.890625q0 -1.78125 -0.0625 -2.03125q-0.0625 -0.265625 -0.328125 -0.390625q-0.265625 -0.125 -1.53125 -0.125l-0.796875 0l0 -2.578125q3.03125 -0.640625 4.546875 -2.609375l2.921875 0z" fill-rule="nonzero"/><path fill="#000000" fill-opacity="0.0" d="m222.021 94.9895l31.496063 0l0 43.62204l-31.496063 0z" fill-rule="evenodd"/><path fill="#ffffff" d="m241.03662 119.673874l0 3.515625l-9.484375 0l0 -2.765625q3.90625 -6.390625 4.609375 -7.84375q0.703125 -1.453125 0.703125 -2.203125q0 -0.515625 -0.125 -0.6875q-0.125 -0.1875 -0.359375 -0.1875q-0.234375 0 -0.359375 0.203125q-0.125 0.203125 -0.125 1.140625l0 1.90625l-4.34375 0l0 -0.96875q0 -1.359375 0.140625 -2.1875q0.140625 -0.84375 0.734375 -1.671875q0.609375 -0.828125 1.5625 -1.234375q0.953125 -0.421875 2.234375 -0.421875q2.53125 0 3.84375 1.28125q1.328125 1.28125 1.328125 3.234375q0 1.453125 -0.703125 3.03125q-0.703125 1.5625 -3.609375 5.859375l3.953125 0z" fill-rule="nonzero"/><path fill="#000000" fill-opacity="0.0" d="m238.021 110.9895l31.496063 0l0 43.62204l-31.496063 0z" fill-rule="evenodd"/><path fill="#ffffff" d="m256.5835 129.73637q0.125 0.046875 0.625 0.84375q0.515625 0.796875 0.515625 3.46875q0 1.953125 -0.484375 3.109375q-0.46875 1.15625 -1.640625 1.75q-1.15625 0.59375 -2.890625 0.59375q-1.984375 0 -3.171875 -0.6875q-1.171875 -0.703125 -1.546875 -1.71875q-0.375 -1.015625 -0.375 -3.34375l0 -1.65625l4.75 0l0 2.96875q0 0.9375 0.046875 1.0625q0.0625 0.125 0.21875 0.125q0.1875 0 0.265625 -0.1875q0.078125 -0.1875 0.078125 -1.59375l0 -1.09375q0 -0.8125 -0.15625 -1.109375q-0.140625 -0.3125 -0.4375 -0.40625q-0.28125 -0.09375 -1.78125 -0.109375l0 -3.109375q1.75 0 1.96875 -0.0625q0.21875 -0.078125 0.3125 -0.3125q0.09375 -0.234375 0.09375 -0.9375l0 -0.875q0 -0.703125 -0.078125 -0.828125q-0.078125 -0.125 -0.21875 -0.125q-0.171875 0 -0.25 0.125q-0.0625 0.125 -0.0625 0.9375l0 1.703125l-4.75 0l0 -1.75q0 -2.46875 1.15625 -3.359375q1.171875 -0.90625 3.5625 -0.90625q3.0 0 4.125 1.234375q1.125 1.21875 1.125 3.34375q0 1.4375 -0.421875 2.140625q-0.421875 0.6875 -0.578125 0.765625z" fill-rule="nonzero"/><path fill="#000000" fill-opacity="0.0" d="m254.021 126.9895l31.496063 0l0 43.62204l-31.496063 0z" fill-rule="evenodd"/><path fill="#ffffff" d="m272.5835 138.5645l0 10.328125l1.125 0l0 3.515625l-1.125 0l0 2.78125l-4.75 0l0 -2.78125l-4.6875 0l0 -3.171875l3.515625 -10.671875l5.921875 0zm-4.75 10.328125l0.40625 -6.3125l-1.21875 6.3125l0.8125 0z" fill-rule="nonzero"/><path fill="#000000" fill-opacity="0.0" d="m270.021 142.9895l31.496063 0l0 43.62204l-31.496063 0z" fill-rule="evenodd"/><path fill="#ffffff" d="m289.146 154.5645l0 3.34375l-4.890625 0l0 1.171875q0.328125 -0.390625 1.953125 -0.390625q1.8125 0 2.765625 1.046875q0.953125 1.03125 0.953125 3.796875l0 2.25q0 1.71875 -0.1875 2.578125q-0.171875 0.84375 -0.765625 1.609375q-0.578125 0.75 -1.609375 1.140625q-1.03125 0.375 -2.46875 0.375q-1.609375 0 -2.890625 -0.578125q-1.265625 -0.578125 -1.8125 -1.734375q-0.53125 -1.171875 -0.53125 -3.46875l0 -1.265625l4.765625 0l0 1.390625q0 1.5 0.078125 1.96875q0.078125 0.453125 0.359375 0.453125q0.125 0 0.1875 -0.0625q0.078125 -0.078125 0.078125 -0.21875q0.015625 -0.140625 0.03125 -1.765625l0 -3.140625q0 -0.78125 -0.109375 -0.953125q-0.09375 -0.171875 -0.28125 -0.171875q-0.125 0 -0.203125 0.078125q-0.078125 0.0625 -0.109375 0.1875q-0.03125 0.109375 -0.03125 1.140625l-4.734375 0l0.1875 -8.78125l9.265625 0z" fill-rule="nonzero"/><path fill="#000000" fill-opacity="0.0" d="m286.021 158.9895l31.496063 0l0 43.62204l-31.496063 0z" fill-rule="evenodd"/><path fill="#ffffff" d="m306.00537 175.58012l-4.75 0q0 -1.5 -0.015625 -1.703125q-0.015625 -0.203125 -0.109375 -0.28125q-0.09375 -0.09375 -0.296875 -0.09375q-0.15625 0 -0.234375 0.078125q-0.078125 0.078125 -0.09375 0.296875q-0.015625 0.203125 -0.015625 1.0625l-0.25 1.828125q-0.171875 -0.234375 0.515625 -0.609375q0.6875 -0.375 1.65625 -0.375q1.203125 0 2.15625 0.671875q0.953125 0.65625 1.1875 1.578125q0.25 0.921875 0.25 2.375l0 1.25q0 1.703125 -0.140625 2.578125q-0.125 0.875 -0.75 1.65625q-0.625 0.78125 -1.671875 1.1875q-1.046875 0.40625 -2.40625 0.40625q-1.65625 0 -2.765625 -0.46875q-1.109375 -0.484375 -1.734375 -1.40625q-0.609375 -0.921875 -0.71875 -1.890625q-0.09375 -0.96875 -0.09375 -3.59375l0 -2.1875q0 -2.84375 0.09375 -3.859375q0.09375 -1.015625 0.75 -1.953125q0.65625 -0.953125 1.78125 -1.40625q1.125 -0.46875 2.546875 -0.46875q1.75 0 2.921875 0.59375q1.1875 0.59375 1.6875 1.671875q0.5 1.078125 0.5 3.0625zm-4.75 4.515625q0 -0.71875 -0.109375 -0.875q-0.09375 -0.171875 -0.28125 -0.171875q-0.1875 0 -0.28125 0.15625q-0.09375 0.15625 -0.09375 0.890625l0 2.875q0 0.921875 0.09375 1.109375q0.09375 0.171875 0.28125 0.171875q0.09375 0 0.234375 -0.125q0.15625 -0.140625 0.15625 -1.0625l0 -2.96875z" fill-rule="nonzero"/><path fill="#000000" fill-opacity="0.0" d="m302.021 174.9895l31.496063 0l0 43.62204l-31.496063 0z" fill-rule="evenodd"/><path fill="#ffffff" d="m319.48975 186.5645l0 3.90625l-2.59375 12.71875l-4.75 0l2.796875 -12.96875l-3.796875 0l0 -3.65625l8.34375 0z" fill-rule="nonzero"/><path fill="#000000" fill-opacity="0.0" d="m318.021 190.9895l31.496063 0l0 43.62204l-31.496063 0z" fill-rule="evenodd"/><path fill="#ffffff" d="m336.61475 209.76762q0.1875 0.078125 0.71875 0.875q0.546875 0.796875 0.546875 3.546875q0 2.0 -0.421875 3.015625q-0.421875 1.0 -1.59375 1.640625q-1.171875 0.640625 -3.09375 0.640625q-1.875 0 -3.0 -0.609375q-1.125 -0.609375 -1.625 -1.625q-0.484375 -1.015625 -0.484375 -3.25q0 -1.484375 0.234375 -2.640625q0.25 -1.171875 0.890625 -1.515625q-0.140625 -0.0625 -0.5625 -0.9375q-0.421875 -0.875 -0.421875 -2.15625q0 -2.234375 1.25 -3.359375q1.265625 -1.125 3.671875 -1.125q2.78125 0 3.890625 1.203125q1.125 1.203125 1.125 3.375q0 1.390625 -0.390625 2.0625q-0.375 0.65625 -0.734375 0.859375zm-3.578125 -3.34375q0 -0.703125 -0.0625 -0.8125q-0.046875 -0.109375 -0.21875 -0.109375q-0.140625 0 -0.203125 0.125q-0.046875 0.125 -0.046875 0.796875l0 1.203125q0 0.59375 0.0625 0.71875q0.078125 0.125 0.21875 0.125q0.140625 0 0.1875 -0.109375q0.0625 -0.109375 0.0625 -0.859375l0 -1.078125zm0.078125 6.5625q0 -0.78125 -0.09375 -0.9375q-0.09375 -0.15625 -0.265625 -0.15625q-0.15625 0 -0.25 0.140625q-0.078125 0.140625 -0.078125 0.953125l0 2.0625q0 0.890625 0.09375 1.046875q0.09375 0.15625 0.28125 0.15625q0.171875 0 0.234375 -0.140625q0.078125 -0.140625 0.078125 -1.09375l0 -2.03125z" fill-rule="nonzero"/><path fill="#000000" fill-opacity="0.0" d="m334.021 206.9895l31.496063 0l0 43.62204l-31.496063 0z" fill-rule="evenodd"/><path fill="#ffffff" d="m343.72412 230.17387l4.765625 0q0 1.5 0.015625 1.703125q0.015625 0.203125 0.109375 0.296875q0.09375 0.078125 0.296875 0.078125q0.15625 0 0.234375 -0.078125q0.078125 -0.078125 0.09375 -0.28125q0.015625 -0.21875 0.015625 -1.078125l0.25 -1.828125q0.171875 0.234375 -0.515625 0.609375q-0.6875 0.375 -1.671875 0.375q-1.203125 0 -2.15625 -0.65625q-0.9375 -0.671875 -1.1875 -1.578125q-0.25 -0.921875 -0.25 -2.390625l0 -1.25q0 -1.703125 0.140625 -2.578125q0.140625 -0.875 0.75 -1.65625q0.625 -0.78125 1.671875 -1.1875q1.0625 -0.40625 2.421875 -0.40625q1.65625 0 2.765625 0.484375q1.109375 0.46875 1.71875 1.390625q0.625 0.921875 0.71875 1.890625q0.09375 0.96875 0.09375 3.59375l0 2.1875q0 2.84375 -0.09375 3.859375q-0.078125 1.015625 -0.75 1.96875q-0.65625 0.9375 -1.78125 1.40625q-1.109375 0.453125 -2.53125 0.453125q-1.765625 0 -2.9375 -0.59375q-1.171875 -0.59375 -1.6875 -1.671875q-0.5 -1.078125 -0.5 -3.0625zm4.765625 -4.515625q0 0.796875 0.125 0.921875q0.140625 0.125 0.25 0.125q0.1875 0 0.28125 -0.15625q0.109375 -0.15625 0.109375 -0.890625l0 -2.875q0 -0.921875 -0.09375 -1.09375q-0.09375 -0.1875 -0.28125 -0.1875q-0.09375 0 -0.25 0.140625q-0.140625 0.125 -0.140625 1.046875l0 2.96875z" fill-rule="nonzero"/><path fill="#000000" fill-opacity="0.0" d="m350.021 222.9895l31.496063 0l0 43.62204l-31.496063 0z" fill-rule="evenodd"/><path fill="#ffffff" d="m369.84912 240.33012l0 5.265625q0 1.84375 -0.21875 2.734375q-0.203125 0.890625 -0.890625 1.6875q-0.6875 0.78125 -1.640625 1.125q-0.9375 0.34375 -2.09375 0.34375q-1.484375 0 -2.515625 -0.359375q-1.03125 -0.359375 -1.640625 -1.125q-0.609375 -0.765625 -0.875 -1.59375q-0.25 -0.828125 -0.25 -2.5625l0 -5.515625q0 -2.25 0.40625 -3.4375q0.421875 -1.203125 1.640625 -1.90625q1.234375 -0.71875 2.9375 -0.71875q1.375 0 2.5 0.5q1.125 0.484375 1.6875 1.21875q0.5625 0.734375 0.75 1.625q0.203125 0.875 0.203125 2.71875zm-4.765625 -1.328125q0 -1.1875 -0.0625 -1.34375q-0.046875 -0.15625 -0.21875 -0.15625q-0.171875 0 -0.25 0.171875q-0.0625 0.171875 -0.0625 1.328125l0 7.703125q0 1.296875 0.046875 1.421875q0.0625 0.125 0.25 0.125q0.15625 0 0.21875 -0.171875q0.078125 -0.171875 0.078125 -1.25l0 -7.828125z" fill-rule="nonzero"/></g></svg>