<svg version="1.1" xmlns="http://www.w3.org/2000/svg" xmlns:xlink="http://www.w3.org/1999/xlink" width="687.54834" height="75.56876" viewBox="0,0,687.54834,75.56876"><g transform="translate(-148.8551,-214.65533)"><g data-paper-data="{&quot;isPaintingLayer&quot;:true}" fill="#000000" fill-rule="nonzero" stroke="none" stroke-width="1" stroke-linecap="square" stroke-linejoin="miter" stroke-miterlimit="10" stroke-dasharray="" stroke-dashoffset="0" style="mix-blend-mode: normal"><path d="M166.9801,215.35846c0.53125,0 0.99479,0.19792 1.39063,0.59375c0.39583,0.38542 0.59375,0.84375 0.59375,1.375v1.76563c0,0.53125 -0.19792,0.99479 -0.59375,1.39063c-0.39583,0.39583 -0.85937,0.59375 -1.39062,0.59375h-4.21875c-0.20833,0 -0.3125,0.10417 -0.3125,0.3125v17.29688c0,0.53125 -0.19271,0.99479 -0.57812,1.39063c-0.375,0.38542 -0.82812,0.57813 -1.35937,0.57813h-3.1875c-0.53125,0 -0.98958,-0.19271 -1.375,-0.57812c-0.38542,-0.39583 -0.57812,-0.85937 -0.57812,-1.39062v-17.29687c0,-0.20833 -0.10417,-0.3125 -0.3125,-0.3125h-4.21875c-0.53125,0 -0.99479,-0.19792 -1.39062,-0.59375c-0.39583,-0.39583 -0.59375,-0.85937 -0.59375,-1.39062v-1.76562c0,-0.53125 0.19792,-0.98958 0.59375,-1.375c0.39583,-0.39583 0.85938,-0.59375 1.39063,-0.59375zM184.76712,222.28034c2.14583,0 3.66146,0.61979 4.54688,1.85938c0.89583,1.23958 1.34375,3.51042 1.34375,6.8125v7.73438c0,0.53125 -0.19792,0.99479 -0.59375,1.39063c-0.38542,0.38542 -0.84375,0.57813 -1.375,0.57813h-2.46875c-0.53125,0 -0.99479,-0.19271 -1.39062,-0.57812c-0.38542,-0.39583 -0.57812,-0.85937 -0.57812,-1.39062v-7.04687c0,-1.70833 -0.14583,-2.82812 -0.4375,-3.35937c-0.29167,-0.53125 -0.83854,-0.79687 -1.64062,-0.79687c-0.65625,0 -1.25521,0.25521 -1.79687,0.76563c-0.54167,0.51042 -0.8125,1.0625 -0.8125,1.65625v8.78125c0,0.53125 -0.19792,0.99479 -0.59375,1.39063c-0.38542,0.38542 -0.84375,0.57813 -1.375,0.57813h-2.64062c-0.53125,0 -0.99479,-0.19271 -1.39062,-0.57812c-0.38542,-0.39583 -0.57812,-0.85937 -0.57812,-1.39062v-22.04687c0,-0.53125 0.19271,-0.99479 0.57813,-1.39062c0.39583,-0.39583 0.85938,-0.59375 1.39063,-0.59375h2.64063c0.53125,0 0.98958,0.19792 1.375,0.59375c0.39583,0.39583 0.59375,0.85938 0.59375,1.39063v7.6875c0,0.03125 0.01042,0.04688 0.03125,0.04688c0.03125,0 0.05729,-0.01562 0.07813,-0.04687c1.63542,-1.36458 3.33333,-2.04687 5.09375,-2.04687zM200.49601,222.63971c0.53125,0 0.99479,0.19792 1.39063,0.59375c0.39583,0.38542 0.59375,0.84375 0.59375,1.375v14.07813c0,0.53125 -0.19792,0.99479 -0.59375,1.39063c-0.39583,0.38542 -0.85937,0.57813 -1.39062,0.57813h-2.96875c-0.53125,0 -0.99479,-0.19271 -1.39062,-0.57812c-0.39583,-0.39583 -0.59375,-0.85937 -0.59375,-1.39062v-14.07812c0,-0.53125 0.19792,-0.98958 0.59375,-1.375c0.39583,-0.39583 0.85938,-0.59375 1.39063,-0.59375zM200.49601,214.65534c0.53125,0 0.99479,0.19792 1.39063,0.59375c0.39583,0.39583 0.59375,0.85938 0.59375,1.39063v0.90625c0,0.53125 -0.19792,0.99479 -0.59375,1.39063c-0.39583,0.38542 -0.85937,0.57813 -1.39062,0.57813h-2.96875c-0.53125,0 -0.99479,-0.19271 -1.39062,-0.57812c-0.39583,-0.39583 -0.59375,-0.85937 -0.59375,-1.39062v-0.90625c0,-0.53125 0.19792,-0.99479 0.59375,-1.39062c0.39583,-0.39583 0.85938,-0.59375 1.39063,-0.59375zM215.33647,229.04596c2.63542,0.34375 4.50521,1.01042 5.60938,2c1.11458,0.97917 1.67188,2.39063 1.67188,4.23438c0,1.82292 -0.66146,3.23438 -1.98437,4.23438c-1.3125,0.98958 -3.25,1.48438 -5.8125,1.48438c-1.89583,0 -3.80208,-0.18229 -5.71875,-0.54687c-0.5625,-0.11458 -1.02083,-0.40104 -1.375,-0.85937c-0.35417,-0.46875 -0.53125,-1.00521 -0.53125,-1.60937v-0.89062c0,-0.48958 0.19271,-0.86979 0.57813,-1.14062c0.39583,-0.28125 0.82292,-0.36458 1.28125,-0.25c1.73958,0.41667 3.36979,0.625 4.89063,0.625c1.27083,0 1.90625,-0.36979 1.90625,-1.10937c0,-0.34375 -0.10417,-0.59896 -0.3125,-0.76562c-0.20833,-0.16667 -0.625,-0.29167 -1.25,-0.375c-2.5625,-0.41667 -4.41667,-1.13542 -5.5625,-2.15625c-1.14583,-1.02083 -1.71875,-2.38542 -1.71875,-4.09375c0,-1.75 0.67708,-3.10937 2.03125,-4.07812c1.35417,-0.97917 3.39583,-1.46875 6.125,-1.46875c1.80208,0 3.46354,0.11979 4.98438,0.35938c0.58333,0.09375 1.05208,0.35938 1.40625,0.79688c0.35417,0.4375 0.53125,0.94271 0.53125,1.51563v0.73438c0,0.47917 -0.20312,0.875 -0.60937,1.1875c-0.39583,0.3125 -0.83854,0.42188 -1.32812,0.32813c-1.40625,-0.27083 -2.84896,-0.40625 -4.32812,-0.40625c-0.76042,0 -1.29167,0.08333 -1.59375,0.25c-0.30208,0.15625 -0.45312,0.41667 -0.45312,0.78125c0,0.69792 0.52083,1.10417 1.5625,1.21875zM246.6645,233.37409v-0.20312c0,-0.20833 -0.10417,-0.3125 -0.3125,-0.3125h-1.07812c-2.3125,0 -3.46875,0.69271 -3.46875,2.07813c0,1.04167 0.57813,1.5625 1.73438,1.5625c0.90625,0 1.65104,-0.28125 2.23438,-0.84375c0.59375,-0.57292 0.89063,-1.33333 0.89063,-2.28125zM244.58638,222.28034c3.05208,0 5.25521,0.55729 6.60938,1.67188c1.36458,1.10417 2.04688,2.85938 2.04688,5.26563v9.46875c0,0.53125 -0.19792,0.99479 -0.59375,1.39063c-0.38542,0.38542 -0.84375,0.57813 -1.375,0.57813h-2.1875c-0.55208,0 -1.02604,-0.1875 -1.42187,-0.5625c-0.39583,-0.38542 -0.60417,-0.85417 -0.625,-1.40625v-0.28125c0,-0.02083 -0.01042,-0.03125 -0.03125,-0.03125c-0.02083,0 -0.04167,0.01042 -0.0625,0.03125c-1.47917,1.72917 -3.30729,2.59375 -5.48437,2.59375c-1.61458,0 -2.94271,-0.51042 -3.98437,-1.53125c-1.04167,-1.03125 -1.5625,-2.36979 -1.5625,-4.01562c0,-4.15625 3.11979,-6.23437 9.35938,-6.23437h1.07813c0.20833,0 0.3125,-0.10417 0.3125,-0.3125v-0.03125c0,-1.38542 -0.80729,-2.07812 -2.42187,-2.07812c-1.38542,0 -3.17708,0.20833 -5.375,0.625c-0.48958,0.09375 -0.93229,-0.01562 -1.32812,-0.32812c-0.38542,-0.3125 -0.57812,-0.72396 -0.57812,-1.23437v-0.5625c0,-0.57292 0.17708,-1.08854 0.53125,-1.54687c0.36458,-0.46875 0.82292,-0.75 1.375,-0.84375c2.28125,-0.41667 4.1875,-0.625 5.71875,-0.625zM269.88215,235.90534c0.51042,-0.09375 0.95833,0.01042 1.34375,0.3125c0.39583,0.30208 0.59375,0.70833 0.59375,1.21875v0.89063c0,0.58333 -0.18229,1.09375 -0.54687,1.53125c-0.35417,0.4375 -0.81771,0.70313 -1.39062,0.79688c-1.61458,0.22917 -2.98958,0.34375 -4.125,0.34375c-3.07292,0 -5.43229,-0.78125 -7.07812,-2.34375c-1.63542,-1.57292 -2.45312,-3.91146 -2.45312,-7.01562c0,-3.02083 0.79167,-5.33333 2.375,-6.9375c1.58333,-1.61458 3.85417,-2.42187 6.8125,-2.42187c1.13542,0 2.51042,0.11979 4.125,0.35938c0.57292,0.09375 1.03646,0.35938 1.39063,0.79688c0.36458,0.4375 0.54688,0.94271 0.54688,1.51563v0.90625c0,0.51042 -0.19792,0.91667 -0.59375,1.21875c-0.38542,0.29167 -0.83333,0.39583 -1.34375,0.3125c-0.94792,-0.16667 -1.91667,-0.25 -2.90625,-0.25c-1.1875,0 -2.0625,0.35938 -2.625,1.07813c-0.5625,0.70833 -0.84375,1.84896 -0.84375,3.42188c0,1.59375 0.30208,2.74479 0.90625,3.45313c0.61458,0.70833 1.58333,1.0625 2.90625,1.0625c0.98958,0 1.95833,-0.08333 2.90625,-0.25zM288.77044,223.32721c0.53125,0 0.98958,0.19792 1.375,0.59375c0.39583,0.38542 0.59375,0.84375 0.59375,1.375v0.5625c0,0.53125 -0.19792,0.99479 -0.59375,1.39063c-0.38542,0.38542 -0.84375,0.57813 -1.375,0.57813h-3.07814c-0.20833,0 -0.3125,0.10417 -0.3125,0.3125v4.89063c0,1.38542 0.11458,2.25521 0.34375,2.60938c0.22917,0.34375 0.75,0.51563 1.5625,0.51563c0.32292,0 0.71355,-0.03646 1.17189,-0.10937c0.48958,-0.07292 0.93229,0.04688 1.32813,0.35938c0.40625,0.3125 0.60938,0.71354 0.60938,1.20313v0.89063c0,0.58333 -0.18229,1.09896 -0.54687,1.54688c-0.35417,0.44792 -0.80729,0.70833 -1.35937,0.78125c-0.80209,0.11458 -1.78127,0.17188 -2.93752,0.17188c-2.47917,0 -4.22917,-0.53125 -5.25,-1.59375c-1.01042,-1.0625 -1.51562,-2.95833 -1.51562,-5.6875v-5.57812c0,-0.20833 -0.10417,-0.3125 -0.3125,-0.3125h-1.34375c-0.53125,0 -0.99479,-0.19271 -1.39062,-0.57812c-0.39583,-0.39583 -0.59375,-0.85937 -0.59375,-1.39062v-0.5625c0,-0.53125 0.19792,-0.98958 0.59375,-1.375c0.39583,-0.39583 0.85938,-0.59375 1.39063,-0.59375h1.34375c0.20833,0 0.3125,-0.10417 0.3125,-0.3125v-4.29687c0,-0.53125 0.19792,-0.98958 0.59375,-1.375c0.39583,-0.39583 0.85938,-0.59375 1.39063,-0.59375h2.625c0.53125,0 0.99479,0.19792 1.39063,0.59375c0.39583,0.38542 0.59375,0.84375 0.59375,1.375v4.29688c0,0.20833 0.10417,0.3125 0.3125,0.3125zM300.75668,222.63971c0.53125,0 0.99479,0.19792 1.39063,0.59375c0.39583,0.38542 0.59375,0.84375 0.59375,1.375v14.07813c0,0.53125 -0.19792,0.99479 -0.59375,1.39063c-0.39583,0.38542 -0.85937,0.57813 -1.39062,0.57813h-2.96875c-0.53125,0 -0.99479,-0.19271 -1.39062,-0.57812c-0.39583,-0.39583 -0.59375,-0.85937 -0.59375,-1.39062v-14.07812c0,-0.53125 0.19792,-0.98958 0.59375,-1.375c0.39583,-0.39583 0.85938,-0.59375 1.39063,-0.59375zM300.75668,214.65534c0.53125,0 0.99479,0.19792 1.39063,0.59375c0.39583,0.39583 0.59375,0.85938 0.59375,1.39063v0.90625c0,0.53125 -0.19792,0.99479 -0.59375,1.39063c-0.39583,0.38542 -0.85937,0.57813 -1.39062,0.57813h-2.96875c-0.53125,0 -0.99479,-0.19271 -1.39062,-0.57812c-0.39583,-0.39583 -0.59375,-0.85937 -0.59375,-1.39062v-0.90625c0,-0.53125 0.19792,-0.99479 0.59375,-1.39062c0.39583,-0.39583 0.85938,-0.59375 1.39063,-0.59375zM313.83151,235.40534c0.4375,0.72917 1.14063,1.09375 2.10938,1.09375c0.96875,0 1.67188,-0.36458 2.10938,-1.09375c0.4375,-0.72917 0.65625,-1.97917 0.65625,-3.75c0,-1.78125 -0.21875,-3.03646 -0.65625,-3.76562c-0.4375,-0.72917 -1.14062,-1.09375 -2.10937,-1.09375c-0.96875,0 -1.67187,0.36458 -2.10937,1.09375c-0.4375,0.72917 -0.65625,1.98438 -0.65625,3.76563c0,1.77083 0.21875,3.02083 0.65625,3.75zM309.03463,224.76471c1.64583,-1.65625 3.94792,-2.48437 6.90625,-2.48437c2.95833,0 5.25521,0.82813 6.89063,2.48438c1.64583,1.65625 2.46875,3.95313 2.46875,6.89063c0,2.92708 -0.82292,5.21875 -2.46875,6.875c-1.63542,1.64583 -3.93229,2.46875 -6.89062,2.46875c-2.95833,0 -5.26042,-0.82292 -6.90625,-2.46875c-1.63542,-1.65625 -2.45312,-3.94792 -2.45312,-6.875c0,-2.9375 0.81771,-5.23437 2.45313,-6.89062zM334.93978,224.88971c1.42708,-1.73958 3.19271,-2.60937 5.29688,-2.60937c2.10417,0 3.60938,0.60417 4.51563,1.8125c0.91667,1.19792 1.375,3.25521 1.375,6.17188v8.42188c0,0.53125 -0.19792,0.99479 -0.59375,1.39063c-0.38542,0.38542 -0.84896,0.57813 -1.39062,0.57813h-2.45312c-0.53125,0 -0.99479,-0.19271 -1.39062,-0.57812c-0.38542,-0.39583 -0.57812,-0.85937 -0.57812,-1.39062v-8.42187c0,-1.0625 -0.15104,-1.79167 -0.45312,-2.1875c-0.30208,-0.39583 -0.84375,-0.59375 -1.625,-0.59375c-0.65625,0 -1.25521,0.25521 -1.79687,0.76563c-0.54167,0.51042 -0.8125,1.0625 -0.8125,1.65625v8.78125c0,0.53125 -0.19792,0.99479 -0.59375,1.39063c-0.38542,0.38542 -0.84375,0.57813 -1.375,0.57813h-2.64062c-0.53125,0 -0.99479,-0.19271 -1.39062,-0.57812c-0.38542,-0.39583 -0.57812,-0.85937 -0.57812,-1.39062v-14.07812c0,-0.53125 0.19271,-0.98958 0.57813,-1.375c0.39583,-0.39583 0.85938,-0.59375 1.39063,-0.59375h2.35938c0.55208,0 1.02604,0.19271 1.42188,0.57813c0.39583,0.375 0.60417,0.83854 0.625,1.39063v0.28125c0,0.02083 0.01042,0.03125 0.03125,0.03125c0.05208,0 0.07813,-0.01042 0.07813,-0.03125zM373.08859,235.90534c0.51042,-0.09375 0.95833,0.01042 1.34375,0.3125c0.39583,0.30208 0.59375,0.70833 0.59375,1.21875v0.89063c0,0.58333 -0.18229,1.09375 -0.54687,1.53125c-0.35417,0.4375 -0.81771,0.70313 -1.39062,0.79688c-1.61458,0.22917 -2.98958,0.34375 -4.125,0.34375c-3.07292,0 -5.43229,-0.78125 -7.07812,-2.34375c-1.63542,-1.57292 -2.45312,-3.91146 -2.45312,-7.01562c0,-3.02083 0.79167,-5.33333 2.375,-6.9375c1.58333,-1.61458 3.85417,-2.42187 6.8125,-2.42187c1.13542,0 2.51042,0.11979 4.125,0.35938c0.57292,0.09375 1.03646,0.35938 1.39063,0.79688c0.36458,0.4375 0.54688,0.94271 0.54688,1.51563v0.90625c0,0.51042 -0.19792,0.91667 -0.59375,1.21875c-0.38542,0.29167 -0.83333,0.39583 -1.34375,0.3125c-0.94792,-0.16667 -1.91667,-0.25 -2.90625,-0.25c-1.1875,0 -2.0625,0.35938 -2.625,1.07813c-0.5625,0.70833 -0.84375,1.84896 -0.84375,3.42188c0,1.59375 0.30208,2.74479 0.90625,3.45313c0.61458,0.70833 1.58333,1.0625 2.90625,1.0625c0.98958,0 1.95833,-0.08333 2.90625,-0.25zM389.10186,233.37409v-0.20312c0,-0.20833 -0.10417,-0.3125 -0.3125,-0.3125h-1.07812c-2.3125,0 -3.46875,0.69271 -3.46875,2.07813c0,1.04167 0.57813,1.5625 1.73438,1.5625c0.90625,0 1.65104,-0.28125 2.23438,-0.84375c0.59375,-0.57292 0.89063,-1.33333 0.89063,-2.28125zM387.02374,222.28034c3.05208,0 5.25521,0.55729 6.60938,1.67188c1.36458,1.10417 2.04688,2.85938 2.04688,5.26563v9.46875c0,0.53125 -0.19792,0.99479 -0.59375,1.39063c-0.38542,0.38542 -0.84375,0.57813 -1.375,0.57813h-2.1875c-0.55208,0 -1.02604,-0.1875 -1.42187,-0.5625c-0.39583,-0.38542 -0.60417,-0.85417 -0.625,-1.40625v-0.28125c0,-0.02083 -0.01042,-0.03125 -0.03125,-0.03125c-0.02083,0 -0.04167,0.01042 -0.0625,0.03125c-1.47917,1.72917 -3.30729,2.59375 -5.48437,2.59375c-1.61458,0 -2.94271,-0.51042 -3.98437,-1.53125c-1.04167,-1.03125 -1.5625,-2.36979 -1.5625,-4.01562c0,-4.15625 3.11979,-6.23437 9.35938,-6.23437h1.07813c0.20833,0 0.3125,-0.10417 0.3125,-0.3125v-0.03125c0,-1.38542 -0.80729,-2.07812 -2.42187,-2.07812c-1.38542,0 -3.17708,0.20833 -5.375,0.625c-0.48958,0.09375 -0.93229,-0.01562 -1.32812,-0.32812c-0.38542,-0.3125 -0.57812,-0.72396 -0.57812,-1.23437v-0.5625c0,-0.57292 0.17708,-1.08854 0.53125,-1.54687c0.36458,-0.46875 0.82292,-0.75 1.375,-0.84375c2.28125,-0.41667 4.1875,-0.625 5.71875,-0.625zM406.36639,224.88971c1.42708,-1.73958 3.19271,-2.60937 5.29688,-2.60937c2.10417,0 3.60938,0.60417 4.51563,1.8125c0.91667,1.19792 1.375,3.25521 1.375,6.17188v8.42188c0,0.53125 -0.19792,0.99479 -0.59375,1.39063c-0.38542,0.38542 -0.84896,0.57813 -1.39062,0.57813h-2.45312c-0.53125,0 -0.99479,-0.19271 -1.39062,-0.57812c-0.38542,-0.39583 -0.57812,-0.85937 -0.57812,-1.39062v-8.42187c0,-1.0625 -0.15104,-1.79167 -0.45312,-2.1875c-0.30208,-0.39583 -0.84375,-0.59375 -1.625,-0.59375c-0.65625,0 -1.25521,0.25521 -1.79687,0.76563c-0.54167,0.51042 -0.8125,1.0625 -0.8125,1.65625v8.78125c0,0.53125 -0.19792,0.99479 -0.59375,1.39063c-0.38542,0.38542 -0.84375,0.57813 -1.375,0.57813h-2.64062c-0.53125,0 -0.99479,-0.19271 -1.39062,-0.57812c-0.38542,-0.39583 -0.57812,-0.85937 -0.57812,-1.39062v-14.07812c0,-0.53125 0.19271,-0.98958 0.57813,-1.375c0.39583,-0.39583 0.85938,-0.59375 1.39063,-0.59375h2.35938c0.55208,0 1.02604,0.19271 1.42188,0.57813c0.39583,0.375 0.60417,0.83854 0.625,1.39063v0.28125c0,0.02083 0.01042,0.03125 0.03125,0.03125c0.05208,0 0.07813,-0.01042 0.07813,-0.03125zM428.23449,224.88971c1.42708,-1.73958 3.19271,-2.60937 5.29688,-2.60937c2.10417,0 3.60938,0.60417 4.51563,1.8125c0.91667,1.19792 1.375,3.25521 1.375,6.17188v8.42188c0,0.53125 -0.19792,0.99479 -0.59375,1.39063c-0.38542,0.38542 -0.84896,0.57813 -1.39062,0.57813h-2.45312c-0.53125,0 -0.99479,-0.19271 -1.39062,-0.57812c-0.38542,-0.39583 -0.57812,-0.85937 -0.57812,-1.39062v-8.42187c0,-1.0625 -0.15104,-1.79167 -0.45312,-2.1875c-0.30208,-0.39583 -0.84375,-0.59375 -1.625,-0.59375c-0.65625,0 -1.25521,0.25521 -1.79687,0.76563c-0.54167,0.51042 -0.8125,1.0625 -0.8125,1.65625v8.78125c0,0.53125 -0.19792,0.99479 -0.59375,1.39063c-0.38542,0.38542 -0.84375,0.57813 -1.375,0.57813h-2.64062c-0.53125,0 -0.99479,-0.19271 -1.39062,-0.57812c-0.38542,-0.39583 -0.57812,-0.85937 -0.57812,-1.39062v-14.07812c0,-0.53125 0.19271,-0.98958 0.57813,-1.375c0.39583,-0.39583 0.85938,-0.59375 1.39063,-0.59375h2.35938c0.55208,0 1.02604,0.19271 1.42188,0.57813c0.39583,0.375 0.60417,0.83854 0.625,1.39063v0.28125c0,0.02083 0.01042,0.03125 0.03125,0.03125c0.05208,0 0.07813,-0.01042 0.07813,-0.03125zM449.64947,235.40534c0.4375,0.72917 1.14063,1.09375 2.10938,1.09375c0.96875,0 1.67188,-0.36458 2.10938,-1.09375c0.4375,-0.72917 0.65625,-1.97917 0.65625,-3.75c0,-1.78125 -0.21875,-3.03646 -0.65625,-3.76562c-0.4375,-0.72917 -1.14062,-1.09375 -2.10937,-1.09375c-0.96875,0 -1.67187,0.36458 -2.10937,1.09375c-0.4375,0.72917 -0.65625,1.98438 -0.65625,3.76563c0,1.77083 0.21875,3.02083 0.65625,3.75zM444.8526,224.76471c1.64583,-1.65625 3.94792,-2.48437 6.90625,-2.48437c2.95833,0 5.25521,0.82813 6.89063,2.48438c1.64583,1.65625 2.46875,3.95313 2.46875,6.89063c0,2.92708 -0.82292,5.21875 -2.46875,6.875c-1.63542,1.64583 -3.93229,2.46875 -6.89062,2.46875c-2.95833,0 -5.26042,-0.82292 -6.90625,-2.46875c-1.63542,-1.65625 -2.45312,-3.94792 -2.45312,-6.875c0,-2.9375 0.81771,-5.23437 2.45313,-6.89062zM476.67669,223.32721c0.53125,0 0.98958,0.19792 1.375,0.59375c0.39583,0.38542 0.59375,0.84375 0.59375,1.375v0.5625c0,0.53125 -0.19792,0.99479 -0.59375,1.39063c-0.38542,0.38542 -0.84375,0.57813 -1.375,0.57813h-3.07812c-0.20833,0 -0.3125,0.10417 -0.3125,0.3125v4.89063c0,1.38542 0.11458,2.25521 0.34375,2.60938c0.22917,0.34375 0.75,0.51563 1.5625,0.51563c0.32292,0 0.71354,-0.03646 1.17188,-0.10937c0.48958,-0.07292 0.93229,0.04688 1.32813,0.35938c0.40625,0.3125 0.60938,0.71354 0.60938,1.20313v0.89063c0,0.58333 -0.18229,1.09896 -0.54687,1.54688c-0.35417,0.44792 -0.80729,0.70833 -1.35937,0.78125c-0.80208,0.11458 -1.78125,0.17188 -2.9375,0.17188c-2.47917,0 -4.22917,-0.53125 -5.25,-1.59375c-1.01042,-1.0625 -1.51562,-2.95833 -1.51562,-5.6875v-5.57812c0,-0.20833 -0.10417,-0.3125 -0.3125,-0.3125h-1.34375c-0.53125,0 -0.99479,-0.19271 -1.39062,-0.57812c-0.39583,-0.39583 -0.59375,-0.85937 -0.59375,-1.39062v-0.5625c0,-0.53125 0.19792,-0.98958 0.59375,-1.375c0.39583,-0.39583 0.85938,-0.59375 1.39063,-0.59375h1.34375c0.20833,0 0.3125,-0.10417 0.3125,-0.3125v-4.29687c0,-0.53125 0.19792,-0.98958 0.59375,-1.375c0.39583,-0.39583 0.85938,-0.59375 1.39063,-0.59375h2.625c0.53125,0 0.99479,0.19792 1.39063,0.59375c0.39583,0.38542 0.59375,0.84375 0.59375,1.375v4.29688c0,0.20833 0.10417,0.3125 0.3125,0.3125zM502.88113,236.15534c0.89583,0 1.60938,-0.375 2.14063,-1.125c0.53125,-0.76042 0.79688,-1.89062 0.79688,-3.39062c0,-3 -0.97917,-4.5 -2.9375,-4.5c-0.79167,0 -1.48437,0.26563 -2.07812,0.79688c-0.58333,0.53125 -0.875,1.13021 -0.875,1.79688v3.8125c0,0.67708 0.29167,1.28125 0.875,1.8125c0.59375,0.53125 1.28646,0.79688 2.07813,0.79688zM505.30301,222.28034c2.125,0 3.8125,0.80729 5.0625,2.42188c1.25,1.60417 1.875,3.91667 1.875,6.9375c0,2.95833 -0.65625,5.26042 -1.96875,6.90625c-1.30208,1.63542 -2.95833,2.45313 -4.96875,2.45313c-2.21875,0 -4.04167,-0.86458 -5.46875,-2.59375c-0.03125,-0.02083 -0.05729,-0.03125 -0.07812,-0.03125c-0.02083,0 -0.03125,0.01042 -0.03125,0.03125v0.28125c-0.02083,0.55208 -0.22917,1.02083 -0.625,1.40625c-0.39583,0.375 -0.86979,0.5625 -1.42187,0.5625h-2.1875c-0.53125,0 -0.99479,-0.19271 -1.39062,-0.57812c-0.38542,-0.39583 -0.57812,-0.85937 -0.57812,-1.39062v-22.04687c0,-0.53125 0.19271,-0.99479 0.57813,-1.39062c0.39583,-0.39583 0.85938,-0.59375 1.39063,-0.59375h2.64063c0.53125,0 0.98958,0.19792 1.375,0.59375c0.39583,0.39583 0.59375,0.85938 0.59375,1.39063v7.6875c0,0.03125 0.01042,0.04688 0.03125,0.04688c0.03125,0 0.05729,-0.01562 0.07813,-0.04687c1.55208,-1.36458 3.25,-2.04687 5.09375,-2.04687zM526.33309,229.90534c0.20833,0 0.3125,-0.10417 0.3125,-0.3125c-0.02083,-1.0625 -0.24479,-1.82292 -0.67187,-2.28125c-0.42708,-0.45833 -1.06771,-0.6875 -1.92187,-0.6875c-0.90625,0 -1.58333,0.22396 -2.03125,0.67188c-0.44792,0.44792 -0.72917,1.22917 -0.84375,2.34375c0,0.17708 0.09375,0.26563 0.28125,0.26563zM523.87997,222.28034c5.86458,0 8.80729,3.09896 8.82813,9.29688c0,0.55208 -0.20833,1.02083 -0.625,1.40625c-0.40625,0.375 -0.90104,0.5625 -1.48437,0.5625h-9.07812c-0.20833,0 -0.28646,0.10417 -0.23437,0.3125c0.19792,0.96875 0.65104,1.65104 1.35938,2.04688c0.70833,0.39583 1.8125,0.59375 3.3125,0.59375c0.94792,0 2.10417,-0.14062 3.46875,-0.42187c0.47917,-0.11458 0.91667,-0.01562 1.3125,0.29688c0.39583,0.3125 0.59375,0.72396 0.59375,1.23438v0.54688c0,0.58333 -0.18229,1.11458 -0.54687,1.59375c-0.35417,0.46875 -0.80729,0.75 -1.35937,0.84375c-1.41667,0.27083 -2.92187,0.40625 -4.51562,0.40625c-3.28125,0 -5.80729,-0.80208 -7.57812,-2.40625c-1.76042,-1.60417 -2.64062,-3.92187 -2.64062,-6.95312c0,-3 0.78646,-5.30729 2.35938,-6.92187c1.57292,-1.625 3.84896,-2.4375 6.82813,-2.4375zM561.71783,222.63971c0.53125,0 0.99479,0.19792 1.39063,0.59375c0.39583,0.38542 0.59375,0.84375 0.59375,1.375v14.07813c0,0.53125 -0.19792,0.99479 -0.59375,1.39063c-0.39583,0.38542 -0.85937,0.57813 -1.39062,0.57813h-2.35937c-0.55208,0 -1.02604,-0.1875 -1.42187,-0.5625c-0.38542,-0.38542 -0.58854,-0.85417 -0.60937,-1.40625v-0.28125c0,-0.02083 -0.01562,-0.03125 -0.04687,-0.03125c-0.04167,0 -0.0625,0.01042 -0.0625,0.03125c-1.4375,1.72917 -3.20312,2.59375 -5.29687,2.59375c-2.04167,0 -3.50521,-0.5625 -4.39062,-1.6875c-0.88542,-1.13542 -1.32812,-3.11458 -1.32812,-5.9375v-8.76562c0,-0.53125 0.19271,-0.98958 0.57813,-1.375c0.39583,-0.39583 0.85938,-0.59375 1.39063,-0.59375h2.46875c0.53125,0 0.98958,0.19792 1.375,0.59375c0.39583,0.38542 0.59375,0.84375 0.59375,1.375v8.42188c0,1.0625 0.14063,1.79167 0.42188,2.1875c0.29167,0.38542 0.78646,0.57813 1.48438,0.57813c0.64583,0 1.23958,-0.25 1.78125,-0.75c0.54167,-0.51042 0.8125,-1.06771 0.8125,-1.67187v-8.76562c0,-0.53125 0.19792,-0.98958 0.59375,-1.375c0.39583,-0.39583 0.85938,-0.59375 1.39063,-0.59375zM574.55334,224.88971c1.42708,-1.73958 3.19271,-2.60937 5.29688,-2.60937c2.10417,0 3.60938,0.60417 4.51563,1.8125c0.91667,1.19792 1.375,3.25521 1.375,6.17188v8.42188c0,0.53125 -0.19792,0.99479 -0.59375,1.39063c-0.38542,0.38542 -0.84896,0.57813 -1.39062,0.57813h-2.45312c-0.53125,0 -0.99479,-0.19271 -1.39062,-0.57812c-0.38542,-0.39583 -0.57812,-0.85937 -0.57812,-1.39062v-8.42187c0,-1.0625 -0.15104,-1.79167 -0.45312,-2.1875c-0.30208,-0.39583 -0.84375,-0.59375 -1.625,-0.59375c-0.65625,0 -1.25521,0.25521 -1.79687,0.76563c-0.54167,0.51042 -0.8125,1.0625 -0.8125,1.65625v8.78125c0,0.53125 -0.19792,0.99479 -0.59375,1.39063c-0.38542,0.38542 -0.84375,0.57813 -1.375,0.57813h-2.64062c-0.53125,0 -0.99479,-0.19271 -1.39062,-0.57812c-0.38542,-0.39583 -0.57812,-0.85937 -0.57812,-1.39062v-14.07812c0,-0.53125 0.19271,-0.98958 0.57813,-1.375c0.39583,-0.39583 0.85938,-0.59375 1.39063,-0.59375h2.35938c0.55208,0 1.02604,0.19271 1.42188,0.57813c0.39583,0.375 0.60417,0.83854 0.625,1.39063v0.28125c0,0.02083 0.01042,0.03125 0.03125,0.03125c0.05208,0 0.07813,-0.01042 0.07813,-0.03125zM601.20263,233.54596v-3.8125c0,-0.66667 -0.29687,-1.26562 -0.89062,-1.79687c-0.59375,-0.53125 -1.28125,-0.79687 -2.0625,-0.79687c-1.95833,0 -2.9375,1.5 -2.9375,4.5c0,1.5 0.26563,2.63021 0.79688,3.39063c0.53125,0.75 1.24479,1.125 2.14063,1.125c0.78125,0 1.46875,-0.26562 2.0625,-0.79687c0.59375,-0.53125 0.89063,-1.13542 0.89063,-1.8125zM605.62451,214.65534c0.54167,0 1.00521,0.19792 1.39063,0.59375c0.39583,0.39583 0.59375,0.85938 0.59375,1.39063v22.04688c0,0.53125 -0.19792,0.99479 -0.59375,1.39063c-0.38542,0.38542 -0.84896,0.57813 -1.39062,0.57813h-2.17187c-0.55208,0 -1.02604,-0.1875 -1.42187,-0.5625c-0.39583,-0.38542 -0.60417,-0.85417 -0.625,-1.40625v-0.28125c0,-0.02083 -0.01562,-0.03125 -0.04687,-0.03125c-0.02083,0 -0.04167,0.01042 -0.0625,0.03125c-1.40625,1.72917 -3.22917,2.59375 -5.46875,2.59375c-2.01042,0 -3.67187,-0.81771 -4.98437,-2.45312c-1.30208,-1.64583 -1.95312,-3.94792 -1.95312,-6.90625c0,-3.02083 0.625,-5.33333 1.875,-6.9375c1.25,-1.61458 2.9375,-2.42187 5.0625,-2.42187c1.84375,0 3.54167,0.68229 5.09375,2.04688c0.02083,0.03125 0.04167,0.04688 0.0625,0.04688c0.02083,0 0.03125,-0.01562 0.03125,-0.04687v-7.6875c0,-0.53125 0.19792,-0.99479 0.59375,-1.39062c0.39583,-0.39583 0.85938,-0.59375 1.39063,-0.59375zM618.18298,235.40534c0.4375,0.72917 1.14063,1.09375 2.10938,1.09375c0.96875,0 1.67188,-0.36458 2.10938,-1.09375c0.4375,-0.72917 0.65625,-1.97917 0.65625,-3.75c0,-1.78125 -0.21875,-3.03646 -0.65625,-3.76562c-0.4375,-0.72917 -1.14062,-1.09375 -2.10937,-1.09375c-0.96875,0 -1.67187,0.36458 -2.10937,1.09375c-0.4375,0.72917 -0.65625,1.98438 -0.65625,3.76563c0,1.77083 0.21875,3.02083 0.65625,3.75zM613.3861,224.76471c1.64583,-1.65625 3.94792,-2.48437 6.90625,-2.48437c2.95833,0 5.25521,0.82813 6.89063,2.48438c1.64583,1.65625 2.46875,3.95313 2.46875,6.89063c0,2.92708 -0.82292,5.21875 -2.46875,6.875c-1.63542,1.64583 -3.93229,2.46875 -6.89062,2.46875c-2.95833,0 -5.26042,-0.82292 -6.90625,-2.46875c-1.63542,-1.65625 -2.45312,-3.94792 -2.45312,-6.875c0,-2.9375 0.81771,-5.23437 2.45313,-6.89062zM639.29126,224.88971c1.42708,-1.73958 3.19271,-2.60937 5.29688,-2.60937c2.10417,0 3.60938,0.60417 4.51563,1.8125c0.91667,1.19792 1.375,3.25521 1.375,6.17188v8.42188c0,0.53125 -0.19792,0.99479 -0.59375,1.39063c-0.38542,0.38542 -0.84896,0.57813 -1.39062,0.57813h-2.45312c-0.53125,0 -0.99479,-0.19271 -1.39062,-0.57812c-0.38542,-0.39583 -0.57812,-0.85937 -0.57812,-1.39062v-8.42187c0,-1.0625 -0.15104,-1.79167 -0.45312,-2.1875c-0.30208,-0.39583 -0.84375,-0.59375 -1.625,-0.59375c-0.65625,0 -1.25521,0.25521 -1.79687,0.76563c-0.54167,0.51042 -0.8125,1.0625 -0.8125,1.65625v8.78125c0,0.53125 -0.19792,0.99479 -0.59375,1.39063c-0.38542,0.38542 -0.84375,0.57813 -1.375,0.57813h-2.64062c-0.53125,0 -0.99479,-0.19271 -1.39062,-0.57812c-0.38542,-0.39583 -0.57812,-0.85937 -0.57812,-1.39062v-14.07812c0,-0.53125 0.19271,-0.98958 0.57813,-1.375c0.39583,-0.39583 0.85938,-0.59375 1.39063,-0.59375h2.35938c0.55208,0 1.02604,0.19271 1.42188,0.57813c0.39583,0.375 0.60417,0.83854 0.625,1.39063v0.28125c0,0.02083 0.01042,0.03125 0.03125,0.03125c0.05208,0 0.07813,-0.01042 0.07813,-0.03125zM665.0968,229.90534c0.20833,0 0.3125,-0.10417 0.3125,-0.3125c-0.02083,-1.0625 -0.24479,-1.82292 -0.67187,-2.28125c-0.42708,-0.45833 -1.06771,-0.6875 -1.92187,-0.6875c-0.90625,0 -1.58333,0.22396 -2.03125,0.67188c-0.44792,0.44792 -0.72917,1.22917 -0.84375,2.34375c0,0.17708 0.09375,0.26563 0.28125,0.26563zM662.64367,222.28034c5.86458,0 8.80729,3.09896 8.82813,9.29688c0,0.55208 -0.20833,1.02083 -0.625,1.40625c-0.40625,0.375 -0.90104,0.5625 -1.48437,0.5625h-9.07812c-0.20833,0 -0.28646,0.10417 -0.23437,0.3125c0.19792,0.96875 0.65104,1.65104 1.35938,2.04688c0.70833,0.39583 1.8125,0.59375 3.3125,0.59375c0.94792,0 2.10417,-0.14062 3.46875,-0.42187c0.47917,-0.11458 0.91667,-0.01562 1.3125,0.29688c0.39583,0.3125 0.59375,0.72396 0.59375,1.23438v0.54688c0,0.58333 -0.18229,1.11458 -0.54687,1.59375c-0.35417,0.46875 -0.80729,0.75 -1.35937,0.84375c-1.41667,0.27083 -2.92187,0.40625 -4.51562,0.40625c-3.28125,0 -5.80729,-0.80208 -7.57812,-2.40625c-1.76042,-1.60417 -2.64062,-3.92187 -2.64062,-6.95312c0,-3 0.78646,-5.30729 2.35938,-6.92187c1.57292,-1.625 3.84896,-2.4375 6.82813,-2.4375zM695.01281,233.37409v-0.20312c0,-0.20833 -0.10417,-0.3125 -0.3125,-0.3125h-1.07812c-2.3125,0 -3.46875,0.69271 -3.46875,2.07813c0,1.04167 0.57813,1.5625 1.73438,1.5625c0.90625,0 1.65104,-0.28125 2.23438,-0.84375c0.59375,-0.57292 0.89063,-1.33333 0.89063,-2.28125zM692.93469,222.28034c3.05208,0 5.25521,0.55729 6.60938,1.67188c1.36458,1.10417 2.04688,2.85938 2.04688,5.26563v9.46875c0,0.53125 -0.19792,0.99479 -0.59375,1.39063c-0.38542,0.38542 -0.84375,0.57813 -1.375,0.57813h-2.1875c-0.55208,0 -1.02604,-0.1875 -1.42187,-0.5625c-0.39583,-0.38542 -0.60417,-0.85417 -0.625,-1.40625v-0.28125c0,-0.02083 -0.01042,-0.03125 -0.03125,-0.03125c-0.02083,0 -0.04167,0.01042 -0.0625,0.03125c-1.47917,1.72917 -3.30729,2.59375 -5.48437,2.59375c-1.61458,0 -2.94271,-0.51042 -3.98437,-1.53125c-1.04167,-1.03125 -1.5625,-2.36979 -1.5625,-4.01562c0,-4.15625 3.11979,-6.23437 9.35938,-6.23437h1.07813c0.20833,0 0.3125,-0.10417 0.3125,-0.3125v-0.03125c0,-1.38542 -0.80729,-2.07812 -2.42187,-2.07812c-1.38542,0 -3.17708,0.20833 -5.375,0.625c-0.48958,0.09375 -0.93229,-0.01562 -1.32812,-0.32812c-0.38542,-0.3125 -0.57812,-0.72396 -0.57812,-1.23437v-0.5625c0,-0.57292 0.17708,-1.08854 0.53125,-1.54687c0.36458,-0.46875 0.82292,-0.75 1.375,-0.84375c2.28125,-0.41667 4.1875,-0.625 5.71875,-0.625zM712.27734,224.88971c1.42708,-1.73958 3.19271,-2.60937 5.29688,-2.60937c2.10417,0 3.60938,0.60417 4.51563,1.8125c0.91667,1.19792 1.375,3.25521 1.375,6.17188v8.42188c0,0.53125 -0.19792,0.99479 -0.59375,1.39063c-0.38542,0.38542 -0.84896,0.57813 -1.39062,0.57813h-2.45312c-0.53125,0 -0.99479,-0.19271 -1.39062,-0.57812c-0.38542,-0.39583 -0.57812,-0.85937 -0.57812,-1.39062v-8.42187c0,-1.0625 -0.15104,-1.79167 -0.45312,-2.1875c-0.30208,-0.39583 -0.84375,-0.59375 -1.625,-0.59375c-0.65625,0 -1.25521,0.25521 -1.79687,0.76563c-0.54167,0.51042 -0.8125,1.0625 -0.8125,1.65625v8.78125c0,0.53125 -0.19792,0.99479 -0.59375,1.39063c-0.38542,0.38542 -0.84375,0.57813 -1.375,0.57813h-2.64062c-0.53125,0 -0.99479,-0.19271 -1.39062,-0.57812c-0.38542,-0.39583 -0.57812,-0.85937 -0.57812,-1.39062v-14.07812c0,-0.53125 0.19271,-0.98958 0.57813,-1.375c0.39583,-0.39583 0.85938,-0.59375 1.39063,-0.59375h2.35938c0.55208,0 1.02604,0.19271 1.42188,0.57813c0.39583,0.375 0.60417,0.83854 0.625,1.39063v0.28125c0,0.02083 0.01042,0.03125 0.03125,0.03125c0.05208,0 0.07813,-0.01042 0.07813,-0.03125zM738.92675,233.54596v-3.8125c0,-0.66667 -0.29687,-1.26562 -0.89062,-1.79687c-0.59375,-0.53125 -1.28125,-0.79687 -2.0625,-0.79687c-1.95833,0 -2.9375,1.5 -2.9375,4.5c0,1.5 0.26563,2.63021 0.79688,3.39063c0.53125,0.75 1.24479,1.125 2.14063,1.125c0.78125,0 1.46875,-0.26562 2.0625,-0.79687c0.59375,-0.53125 0.89063,-1.13542 0.89063,-1.8125zM743.34863,214.65534c0.54167,0 1.00521,0.19792 1.39063,0.59375c0.39583,0.39583 0.59375,0.85938 0.59375,1.39063v22.04688c0,0.53125 -0.19792,0.99479 -0.59375,1.39063c-0.38542,0.38542 -0.84896,0.57813 -1.39062,0.57813h-2.17187c-0.55208,0 -1.02604,-0.1875 -1.42187,-0.5625c-0.39583,-0.38542 -0.60417,-0.85417 -0.625,-1.40625v-0.28125c0,-0.02083 -0.01562,-0.03125 -0.04687,-0.03125c-0.02083,0 -0.04167,0.01042 -0.0625,0.03125c-1.40625,1.72917 -3.22917,2.59375 -5.46875,2.59375c-2.01042,0 -3.67187,-0.81771 -4.98437,-2.45312c-1.30208,-1.64583 -1.95312,-3.94792 -1.95312,-6.90625c0,-3.02083 0.625,-5.33333 1.875,-6.9375c1.25,-1.61458 2.9375,-2.42187 5.0625,-2.42187c1.84375,0 3.54167,0.68229 5.09375,2.04688c0.02083,0.03125 0.04167,0.04688 0.0625,0.04688c0.02083,0 0.03125,-0.01562 0.03125,-0.04687v-7.6875c0,-0.53125 0.19792,-0.99479 0.59375,-1.39062c0.39583,-0.39583 0.85938,-0.59375 1.39063,-0.59375zM776.25024,222.63971c0.48958,0 0.86458,0.19271 1.125,0.57813c0.27083,0.375 0.33333,0.79167 0.1875,1.25l-7.85937,21.96875c-0.20833,0.5625 -0.55729,1.01042 -1.04687,1.34375c-0.47917,0.33333 -1.01042,0.5 -1.59375,0.5h-2.96875c-0.48958,0 -0.86979,-0.19271 -1.14062,-0.57812c-0.26042,-0.375 -0.29687,-0.78125 -0.10937,-1.21875l2.28125,-5.54687c0.02083,-0.09375 0.03125,-0.1875 0.03125,-0.28125c0,-0.09375 -0.01042,-0.1875 -0.03125,-0.28125l-5.95312,-15.90625c-0.1875,-0.4375 -0.14583,-0.84896 0.125,-1.23437c0.28125,-0.39583 0.66667,-0.59375 1.15625,-0.59375h3.32813c0.55208,0 1.05208,0.1875 1.5,0.5625c0.44792,0.36458 0.72917,0.82292 0.84375,1.375l2.01563,10.15625c0,0.02083 0.01042,0.03125 0.03125,0.03125c0.03125,0 0.04688,-0.01042 0.04688,-0.03125l2.59375,-10.1875c0.13542,-0.5625 0.43229,-1.02083 0.89063,-1.375c0.46875,-0.35417 0.98958,-0.53125 1.5625,-0.53125zM785.53784,235.40534c0.4375,0.72917 1.14063,1.09375 2.10938,1.09375c0.96875,0 1.67188,-0.36458 2.10938,-1.09375c0.4375,-0.72917 0.65625,-1.97917 0.65625,-3.75c0,-1.78125 -0.21875,-3.03646 -0.65625,-3.76562c-0.4375,-0.72917 -1.14062,-1.09375 -2.10937,-1.09375c-0.96875,0 -1.67187,0.36458 -2.10937,1.09375c-0.4375,0.72917 -0.65625,1.98438 -0.65625,3.76563c0,1.77083 0.21875,3.02083 0.65625,3.75zM780.74096,224.76471c1.64583,-1.65625 3.94792,-2.48437 6.90625,-2.48437c2.95833,0 5.25521,0.82813 6.89063,2.48438c1.64583,1.65625 2.46875,3.95313 2.46875,6.89063c0,2.92708 -0.82292,5.21875 -2.46875,6.875c-1.63542,1.64583 -3.93229,2.46875 -6.89062,2.46875c-2.95833,0 -5.26042,-0.82292 -6.90625,-2.46875c-1.63542,-1.65625 -2.45312,-3.94792 -2.45312,-6.875c0,-2.9375 0.81771,-5.23437 2.45313,-6.89062zM815.50549,222.63971c0.53125,0 0.99479,0.19792 1.39063,0.59375c0.39583,0.38542 0.59375,0.84375 0.59375,1.375v14.07813c0,0.53125 -0.19792,0.99479 -0.59375,1.39063c-0.39583,0.38542 -0.85937,0.57813 -1.39062,0.57813h-2.35937c-0.55208,0 -1.02604,-0.1875 -1.42187,-0.5625c-0.38542,-0.38542 -0.58854,-0.85417 -0.60937,-1.40625v-0.28125c0,-0.02083 -0.01562,-0.03125 -0.04687,-0.03125c-0.04167,0 -0.0625,0.01042 -0.0625,0.03125c-1.4375,1.72917 -3.20312,2.59375 -5.29687,2.59375c-2.04167,0 -3.50521,-0.5625 -4.39062,-1.6875c-0.88542,-1.13542 -1.32812,-3.11458 -1.32812,-5.9375v-8.76562c0,-0.53125 0.19271,-0.98958 0.57813,-1.375c0.39583,-0.39583 0.85938,-0.59375 1.39063,-0.59375h2.46875c0.53125,0 0.98958,0.19792 1.375,0.59375c0.39583,0.38542 0.59375,0.84375 0.59375,1.375v8.42188c0,1.0625 0.14063,1.79167 0.42188,2.1875c0.29167,0.38542 0.78646,0.57813 1.48438,0.57813c0.64583,0 1.23958,-0.25 1.78125,-0.75c0.54167,-0.51042 0.8125,-1.06771 0.8125,-1.67187v-8.76562c0,-0.53125 0.19792,-0.98958 0.59375,-1.375c0.39583,-0.39583 0.85938,-0.59375 1.39063,-0.59375zM834.43469,222.70221c0.53125,-0.07292 0.98958,0.08854 1.375,0.48438c0.39583,0.39583 0.59375,0.86979 0.59375,1.42188v0.90625c0,0.53125 -0.1875,0.98958 -0.5625,1.375c-0.36458,0.375 -0.82292,0.59896 -1.375,0.67188c-1.78125,0.22917 -3.20312,0.89063 -4.26562,1.98438c-1.0625,1.09375 -1.59375,2.42708 -1.59375,4v5.14063c0,0.53125 -0.19792,0.99479 -0.59375,1.39063c-0.38542,0.38542 -0.84375,0.57813 -1.375,0.57813h-2.8125c-0.53125,0 -0.99479,-0.19271 -1.39062,-0.57812c-0.38542,-0.39583 -0.57812,-0.85937 -0.57812,-1.39062v-14.07812c0,-0.53125 0.19271,-0.98958 0.57813,-1.375c0.39583,-0.39583 0.85938,-0.59375 1.39063,-0.59375h2.64063c0.53125,0 0.98958,0.19792 1.375,0.59375c0.39583,0.38542 0.59375,0.84375 0.59375,1.375v1.45313c0,0.02083 0.01042,0.03125 0.03125,0.03125c0.03125,0 0.05729,-0.01042 0.07813,-0.03125c1.45833,-1.91667 3.42188,-3.03646 5.89063,-3.35937z"/><path d="M194.26877,277.75533c0.89583,0 1.60938,-0.375 2.14063,-1.125c0.53125,-0.76042 0.79688,-1.89062 0.79688,-3.39062c0,-3 -0.97917,-4.5 -2.9375,-4.5c-0.73958,0 -1.41667,0.27604 -2.03125,0.82813c-0.61458,0.55208 -0.92187,1.14063 -0.92187,1.76563v3.8125c0,0.625 0.30729,1.21875 0.92188,1.78125c0.61458,0.55208 1.29167,0.82813 2.03125,0.82813zM196.69065,263.88033c2.125,0 3.80729,0.80729 5.04688,2.42188c1.25,1.60417 1.875,3.91667 1.875,6.9375c0,2.95833 -0.65104,5.26042 -1.95312,6.90627c-1.30208,1.63542 -2.95833,2.45313 -4.96875,2.45313c-1.82292,0 -3.52083,-0.69271 -5.09375,-2.07812c-0.02083,-0.02083 -0.04687,-0.03125 -0.07812,-0.03125c-0.02083,0 -0.03125,0.01042 -0.03125,0.03125v7.39063c0,0.53125 -0.19792,0.98958 -0.59375,1.375c-0.38542,0.39583 -0.84375,0.59375 -1.375,0.59375h-2.64062c-0.53125,0 -0.99479,-0.19792 -1.39062,-0.59375c-0.38542,-0.38542 -0.57812,-0.84375 -0.57812,-1.375v-21.70314c0,-0.53125 0.19271,-0.98958 0.57813,-1.375c0.39583,-0.39583 0.85938,-0.59375 1.39063,-0.59375h2.35938c0.55208,0 1.02604,0.19271 1.42188,0.57813c0.39583,0.375 0.60417,0.83854 0.625,1.39063v0.28125c0,0.02083 0.01042,0.03125 0.03125,0.03125c0.02083,0 0.04688,-0.01042 0.07813,-0.03125c1.42708,-1.73958 3.19271,-2.60937 5.29688,-2.60937zM219.52892,264.3022c0.53125,-0.07292 0.98958,0.08854 1.375,0.48438c0.39583,0.39583 0.59375,0.86979 0.59375,1.42188v0.90625c0,0.53125 -0.1875,0.98958 -0.5625,1.375c-0.36458,0.375 -0.82292,0.59896 -1.375,0.67188c-1.78125,0.22917 -3.20312,0.89063 -4.26562,1.98438c-1.0625,1.09375 -1.59375,2.42708 -1.59375,4v5.14064c0,0.53125 -0.19792,0.99479 -0.59375,1.39063c-0.38542,0.38542 -0.84375,0.57813 -1.375,0.57813h-2.8125c-0.53125,0 -0.99479,-0.19271 -1.39062,-0.57812c-0.38542,-0.39583 -0.57812,-0.85937 -0.57812,-1.39062v-14.07814c0,-0.53125 0.19271,-0.98958 0.57813,-1.375c0.39583,-0.39583 0.85938,-0.59375 1.39063,-0.59375h2.64063c0.53125,0 0.98958,0.19792 1.375,0.59375c0.39583,0.38542 0.59375,0.84375 0.59375,1.375v1.45313c0,0.02083 0.01042,0.03125 0.03125,0.03125c0.03125,0 0.05729,-0.01042 0.07813,-0.03125c1.45833,-1.91667 3.42188,-3.03646 5.89063,-3.35937zM230.51792,277.00533c0.4375,0.72917 1.14063,1.09375 2.10938,1.09375c0.96875,0 1.67188,-0.36458 2.10938,-1.09375c0.4375,-0.72917 0.65625,-1.97917 0.65625,-3.75c0,-1.78125 -0.21875,-3.03646 -0.65625,-3.76562c-0.4375,-0.72917 -1.14062,-1.09375 -2.10937,-1.09375c-0.96875,0 -1.67187,0.36458 -2.10937,1.09375c-0.4375,0.72917 -0.65625,1.98438 -0.65625,3.76563c0,1.77083 0.21875,3.02083 0.65625,3.75zM225.72104,266.3647c1.64583,-1.65625 3.94792,-2.48437 6.90625,-2.48437c2.95833,0 5.25521,0.82813 6.89063,2.48438c1.64583,1.65625 2.46875,3.95313 2.46875,6.89063c0,2.92708 -0.82292,5.21876 -2.46875,6.87502c-1.63542,1.64583 -3.93229,2.46875 -6.89062,2.46875c-2.95833,0 -5.26042,-0.82292 -6.90625,-2.46875c-1.63542,-1.65626 -2.45312,-3.94793 -2.45312,-6.87502c0,-2.9375 0.81771,-5.23437 2.45313,-6.89062zM256.39473,274.45845v-2.95312c0,-0.80208 -0.26562,-1.46354 -0.79687,-1.98437c-0.53125,-0.52083 -1.1875,-0.78125 -1.96875,-0.78125c-1.84375,0 -2.76562,1.38542 -2.76562,4.15625c0,1.32292 0.24479,2.31771 0.73438,2.98438c0.5,0.66667 1.17708,1 2.03125,1c0.76042,0 1.41146,-0.23958 1.95313,-0.71875c0.54167,-0.48958 0.8125,-1.05729 0.8125,-1.70312zM260.83223,264.2397c0.53125,0 0.99479,0.19792 1.39063,0.59375c0.39583,0.38542 0.59375,0.84375 0.59375,1.375v14.31252c0,3.09375 -0.94271,5.48438 -2.82812,7.17188c-1.88542,1.6875 -4.52604,2.53125 -7.92187,2.53125c-1.3125,0 -2.63021,-0.10417 -3.95312,-0.3125c-0.55208,-0.09375 -1.01562,-0.36458 -1.39062,-0.8125c-0.36458,-0.44792 -0.54687,-0.96354 -0.54687,-1.54687v-1.42187c0,-0.47917 0.1875,-0.85417 0.5625,-1.125c0.38542,-0.26042 0.82292,-0.33333 1.3125,-0.21875c1.04167,0.28125 2.26563,0.42188 3.67188,0.42188c1.61458,0 2.79688,-0.35937 3.54688,-1.07812c0.75,-0.71875 1.125,-1.92187 1.125,-3.60937v-0.85939c0,-0.03125 -0.01042,-0.04687 -0.03125,-0.04687c-0.04167,0 -0.0625,0.01563 -0.0625,0.04688c-1.25,1.38543 -2.89062,2.07814 -4.92187,2.07814c-2.01042,0 -3.67187,-0.79167 -4.98437,-2.37502c-1.30208,-1.58333 -1.95312,-3.73958 -1.95312,-6.46875c0,-2.86458 0.63021,-5.08333 1.89063,-6.65625c1.26042,-1.57292 2.94271,-2.35937 5.04688,-2.35937c2.01042,0 3.71875,0.86979 5.125,2.60938c0.02083,0.02083 0.04167,0.03125 0.0625,0.03125c0.03125,0 0.04688,-0.01042 0.04688,-0.03125v-0.28125c0.02083,-0.55208 0.22396,-1.01562 0.60938,-1.39062c0.39583,-0.38542 0.875,-0.57812 1.4375,-0.57812h2.17188zM279.76144,264.3022c0.53125,-0.07292 0.98958,0.08854 1.375,0.48438c0.39583,0.39583 0.59375,0.86979 0.59375,1.42188v0.90625c0,0.53125 -0.1875,0.98958 -0.5625,1.375c-0.36458,0.375 -0.82292,0.59896 -1.375,0.67188c-1.78125,0.22917 -3.20312,0.89063 -4.26562,1.98438c-1.0625,1.09375 -1.59375,2.42708 -1.59375,4v5.14064c0,0.53125 -0.19792,0.99479 -0.59375,1.39063c-0.38542,0.38542 -0.84375,0.57813 -1.375,0.57813h-2.8125c-0.53125,0 -0.99479,-0.19271 -1.39062,-0.57812c-0.38542,-0.39583 -0.57812,-0.85937 -0.57812,-1.39062v-14.07814c0,-0.53125 0.19271,-0.98958 0.57813,-1.375c0.39583,-0.39583 0.85938,-0.59375 1.39063,-0.59375h2.64063c0.53125,0 0.98958,0.19792 1.375,0.59375c0.39583,0.38542 0.59375,0.84375 0.59375,1.375v1.45313c0,0.02083 0.01042,0.03125 0.03125,0.03125c0.03125,0 0.05729,-0.01042 0.07813,-0.03125c1.45833,-1.91667 3.42188,-3.03646 5.89063,-3.35937zM295.14108,271.50533c0.20833,0 0.3125,-0.10417 0.3125,-0.3125c-0.02083,-1.0625 -0.24479,-1.82292 -0.67187,-2.28125c-0.42708,-0.45833 -1.06771,-0.6875 -1.92187,-0.6875c-0.90625,0 -1.58333,0.22396 -2.03125,0.67188c-0.44792,0.44792 -0.72917,1.22917 -0.84375,2.34375c0,0.17708 0.09375,0.26563 0.28125,0.26563zM292.68796,263.88033c5.86458,0 8.80729,3.09896 8.82813,9.29688c0,0.55208 -0.20833,1.02083 -0.625,1.40625c-0.40625,0.375 -0.90104,0.5625 -1.48437,0.5625h-9.07812c-0.20833,0 -0.28646,0.10417 -0.23437,0.3125c0.19792,0.96875 0.65104,1.65104 1.35938,2.04688c0.70833,0.39583 1.8125,0.59375 3.3125,0.59375c0.94792,0 2.10417,-0.14062 3.46875,-0.42187c0.47917,-0.11458 0.91667,-0.01562 1.3125,0.29688c0.39583,0.3125 0.59375,0.72396 0.59375,1.23438v0.54688c0,0.58334 -0.18229,1.1146 -0.54687,1.59377c-0.35417,0.46875 -0.80729,0.75 -1.35937,0.84375c-1.41667,0.27083 -2.92187,0.40625 -4.51562,0.40625c-3.28125,0 -5.8073,-0.80208 -7.57814,-2.40625c-1.76042,-1.60418 -2.64062,-3.92189 -2.64062,-6.95314c0,-3 0.78646,-5.30729 2.35938,-6.92187c1.57293,-1.625 3.84897,-2.4375 6.82814,-2.4375zM312.65137,270.64595c2.63542,0.34375 4.50521,1.01042 5.60938,2c1.11458,0.97917 1.67188,2.39063 1.67188,4.23438c0,1.82292 -0.66146,3.23438 -1.98437,4.23439c-1.3125,0.98958 -3.25,1.48438 -5.8125,1.48438c-1.89583,0 -3.80208,-0.18229 -5.71875,-0.54687c-0.5625,-0.11458 -1.02083,-0.40104 -1.375,-0.85937c-0.35417,-0.46875 -0.53125,-1.00521 -0.53125,-1.60939v-0.89062c0,-0.48958 0.19271,-0.86979 0.57813,-1.14062c0.39583,-0.28125 0.82292,-0.36458 1.28125,-0.25c1.73958,0.41667 3.36979,0.625 4.89063,0.625c1.27083,0 1.90625,-0.36979 1.90625,-1.10937c0,-0.34375 -0.10417,-0.59896 -0.3125,-0.76562c-0.20833,-0.16667 -0.625,-0.29167 -1.25,-0.375c-2.5625,-0.41667 -4.41667,-1.13542 -5.5625,-2.15625c-1.14583,-1.02083 -1.71875,-2.38542 -1.71875,-4.09375c0,-1.75 0.67708,-3.10937 2.03125,-4.07812c1.35417,-0.97917 3.39583,-1.46875 6.125,-1.46875c1.80208,0 3.46354,0.11979 4.98438,0.35938c0.58333,0.09375 1.05208,0.35938 1.40625,0.79688c0.35417,0.4375 0.53125,0.94271 0.53125,1.51563v0.73438c0,0.47917 -0.20312,0.875 -0.60937,1.1875c-0.39583,0.3125 -0.83854,0.42188 -1.32812,0.32813c-1.40625,-0.27083 -2.84896,-0.40625 -4.32812,-0.40625c-0.76042,0 -1.29167,0.08333 -1.59375,0.25c-0.30208,0.15625 -0.45312,0.41667 -0.45312,0.78125c0,0.69792 0.52083,1.10417 1.5625,1.21875zM331.22702,270.64595c2.63542,0.34375 4.50521,1.01042 5.60938,2c1.11458,0.97917 1.67188,2.39063 1.67188,4.23438c0,1.82292 -0.66146,3.23438 -1.98437,4.23439c-1.3125,0.98958 -3.25,1.48438 -5.8125,1.48438c-1.89583,0 -3.80208,-0.18229 -5.71875,-0.54687c-0.5625,-0.11458 -1.02083,-0.40104 -1.375,-0.85937c-0.35417,-0.46875 -0.53125,-1.00521 -0.53125,-1.60939v-0.89062c0,-0.48958 0.19271,-0.86979 0.57813,-1.14062c0.39583,-0.28125 0.82292,-0.36458 1.28125,-0.25c1.73958,0.41667 3.36979,0.625 4.89063,0.625c1.27083,0 1.90625,-0.36979 1.90625,-1.10937c0,-0.34375 -0.10417,-0.59896 -0.3125,-0.76562c-0.20833,-0.16667 -0.625,-0.29167 -1.25,-0.375c-2.5625,-0.41667 -4.41667,-1.13542 -5.5625,-2.15625c-1.14583,-1.02083 -1.71875,-2.38542 -1.71875,-4.09375c0,-1.75 0.67708,-3.10937 2.03125,-4.07812c1.35417,-0.97917 3.39583,-1.46875 6.125,-1.46875c1.80208,0 3.46354,0.11979 4.98438,0.35938c0.58333,0.09375 1.05208,0.35938 1.40625,0.79688c0.35417,0.4375 0.53125,0.94271 0.53125,1.51563v0.73438c0,0.47917 -0.20312,0.875 -0.60937,1.1875c-0.39583,0.3125 -0.83854,0.42188 -1.32812,0.32813c-1.40625,-0.27083 -2.84896,-0.40625 -4.32812,-0.40625c-0.76042,0 -1.29167,0.08333 -1.59375,0.25c-0.30208,0.15625 -0.45312,0.41667 -0.45312,0.78125c0,0.69792 0.52083,1.10417 1.5625,1.21875zM376.41446,264.2397c0.51042,0 0.92188,0.19271 1.23438,0.57813c0.3125,0.375 0.42188,0.81771 0.32813,1.32813l-2.98437,14.20314c-0.11458,0.55208 -0.39583,1.01042 -0.84375,1.375c-0.44792,0.35417 -0.96354,0.53125 -1.54687,0.53125h-3.67187c-0.57292,0 -1.07292,-0.18229 -1.5,-0.54687c-0.42708,-0.375 -0.6875,-0.83854 -0.78125,-1.39062l-1.73437,-10.50002c0,-0.02083 -0.01042,-0.03125 -0.03125,-0.03125c-0.02083,0 -0.03125,0.01042 -0.03125,0.03125l-1.73437,10.50002c-0.09375,0.55208 -0.35417,1.01563 -0.78125,1.39063c-0.42708,0.36458 -0.93229,0.54688 -1.51562,0.54688h-3.67187c-0.57292,0 -1.08854,-0.17708 -1.54687,-0.53125c-0.44792,-0.36458 -0.72917,-0.82292 -0.84375,-1.375l-2.98437,-14.20314c-0.08333,-0.51042 0.02604,-0.95312 0.32813,-1.32812c0.3125,-0.38542 0.72396,-0.57812 1.23438,-0.57812h2.53125c0.55208,0 1.04167,0.1875 1.46875,0.5625c0.42708,0.36458 0.67708,0.82292 0.75,1.375l1.28125,10.84375c0,0.02083 0.01042,0.03125 0.03125,0.03125c0.03125,0 0.04688,-0.01042 0.04688,-0.03125l1.59375,-10.84375c0.08333,-0.55208 0.33333,-1.01042 0.75,-1.375c0.41667,-0.375 0.91667,-0.5625 1.5,-0.5625h3.32813c0.57292,0 1.06771,0.1875 1.48438,0.5625c0.41667,0.36458 0.67188,0.82292 0.76563,1.375l1.59375,10.84375c0,0.02083 0.01042,0.03125 0.03125,0.03125c0.02083,0 0.03125,-0.01042 0.03125,-0.03125l1.28125,-10.84375c0.07292,-0.55208 0.32292,-1.01042 0.75,-1.375c0.42708,-0.375 0.91667,-0.5625 1.46875,-0.5625zM386.87747,264.2397c0.53125,0 0.99479,0.19792 1.39063,0.59375c0.39583,0.38542 0.59375,0.84375 0.59375,1.375v14.07814c0,0.53125 -0.19792,0.99479 -0.59375,1.39063c-0.39583,0.38542 -0.85937,0.57813 -1.39062,0.57813h-2.96875c-0.53125,0 -0.99479,-0.19271 -1.39062,-0.57812c-0.39583,-0.39583 -0.59375,-0.85937 -0.59375,-1.39062v-14.07814c0,-0.53125 0.19792,-0.98958 0.59375,-1.375c0.39583,-0.39583 0.85938,-0.59375 1.39063,-0.59375zM386.87747,256.25533c0.53125,0 0.99479,0.19792 1.39063,0.59375c0.39583,0.39583 0.59375,0.85938 0.59375,1.39063v0.90625c0,0.53125 -0.19792,0.99479 -0.59375,1.39063c-0.39583,0.38542 -0.85937,0.57813 -1.39062,0.57813h-2.96875c-0.53125,0 -0.99479,-0.19271 -1.39062,-0.57812c-0.39583,-0.39583 -0.59375,-0.85937 -0.59375,-1.39062v-0.90625c0,-0.53125 0.19792,-0.99479 0.59375,-1.39062c0.39583,-0.39583 0.85938,-0.59375 1.39063,-0.59375zM398.86835,256.25533c0.53125,0 0.99479,0.19792 1.39063,0.59375c0.39583,0.39583 0.59375,0.85938 0.59375,1.39063v22.04689c0,0.53125 -0.19792,0.99479 -0.59375,1.39063c-0.39583,0.38542 -0.85937,0.57813 -1.39062,0.57813h-2.96875c-0.53125,0 -0.99479,-0.19271 -1.39062,-0.57812c-0.39583,-0.39583 -0.59375,-0.85937 -0.59375,-1.39062v-22.04689c0,-0.53125 0.19792,-0.99479 0.59375,-1.39062c0.39583,-0.39583 0.85938,-0.59375 1.39063,-0.59375zM410.85922,256.25533c0.53125,0 0.99479,0.19792 1.39063,0.59375c0.39583,0.39583 0.59375,0.85938 0.59375,1.39063v22.04689c0,0.53125 -0.19792,0.99479 -0.59375,1.39063c-0.39583,0.38542 -0.85937,0.57813 -1.39062,0.57813h-2.96875c-0.53125,0 -0.99479,-0.19271 -1.39062,-0.57812c-0.39583,-0.39583 -0.59375,-0.85937 -0.59375,-1.39062v-22.04689c0,-0.53125 0.19792,-0.99479 0.59375,-1.39062c0.39583,-0.39583 0.85938,-0.59375 1.39063,-0.59375zM437.76163,277.75533c0.89583,0 1.60938,-0.375 2.14063,-1.125c0.53125,-0.76042 0.79688,-1.89062 0.79688,-3.39062c0,-3 -0.97917,-4.5 -2.9375,-4.5c-0.79167,0 -1.48437,0.26563 -2.07812,0.79688c-0.58333,0.53125 -0.875,1.13021 -0.875,1.79688v3.8125c0,0.67708 0.29167,1.28125 0.875,1.8125c0.59375,0.53125 1.28646,0.79688 2.07813,0.79688zM440.1835,263.88033c2.125,0 3.8125,0.80729 5.0625,2.42188c1.25,1.60417 1.875,3.91667 1.875,6.9375c0,2.95833 -0.65625,5.26042 -1.96875,6.90627c-1.30208,1.63542 -2.95833,2.45313 -4.96875,2.45313c-2.21875,0 -4.04167,-0.86458 -5.46875,-2.59375c-0.03125,-0.02084 -0.05729,-0.03127 -0.07812,-0.03127c-0.02083,0 -0.03125,0.01042 -0.03125,0.03127v0.28125c-0.02083,0.55208 -0.22917,1.02083 -0.625,1.40625c-0.39583,0.375 -0.86979,0.5625 -1.42187,0.5625h-2.1875c-0.53125,0 -0.99479,-0.19271 -1.39062,-0.57812c-0.38542,-0.39583 -0.57812,-0.85937 -0.57812,-1.39062v-22.04689c0,-0.53125 0.19271,-0.99479 0.57813,-1.39062c0.39583,-0.39583 0.85938,-0.59375 1.39063,-0.59375h2.64063c0.53125,0 0.98958,0.19792 1.375,0.59375c0.39583,0.39583 0.59375,0.85938 0.59375,1.39063v7.6875c0,0.03125 0.01042,0.04688 0.03125,0.04688c0.03125,0 0.05729,-0.01562 0.07813,-0.04687c1.55208,-1.36458 3.25,-2.04687 5.09375,-2.04687zM461.21359,271.50533c0.20833,0 0.3125,-0.10417 0.3125,-0.3125c-0.02083,-1.0625 -0.24479,-1.82292 -0.67187,-2.28125c-0.42708,-0.45833 -1.06771,-0.6875 -1.92187,-0.6875c-0.90625,0 -1.58333,0.22396 -2.03125,0.67188c-0.44792,0.44792 -0.72917,1.22917 -0.84375,2.34375c0,0.17708 0.09375,0.26563 0.28125,0.26563zM458.76047,263.88033c5.86458,0 8.80729,3.09896 8.82813,9.29688c0,0.55208 -0.20833,1.02083 -0.625,1.40625c-0.40625,0.375 -0.90104,0.5625 -1.48437,0.5625h-9.07812c-0.20833,0 -0.28646,0.10417 -0.23437,0.3125c0.19792,0.96875 0.65104,1.65104 1.35938,2.04688c0.70833,0.39583 1.8125,0.59375 3.3125,0.59375c0.94792,0 2.10417,-0.14062 3.46875,-0.42187c0.47917,-0.11458 0.91667,-0.01562 1.3125,0.29688c0.39583,0.3125 0.59375,0.72396 0.59375,1.23438v0.54688c0,0.58334 -0.18229,1.1146 -0.54687,1.59377c-0.35417,0.46875 -0.80729,0.75 -1.35937,0.84375c-1.41667,0.27083 -2.92187,0.40625 -4.51562,0.40625c-3.28125,0 -5.80729,-0.80208 -7.57812,-2.40625c-1.76042,-1.60418 -2.64062,-3.92189 -2.64062,-6.95314c0,-3 0.78646,-5.30729 2.35938,-6.92187c1.57292,-1.625 3.84896,-2.4375 6.82813,-2.4375zM486.89523,256.25533c0.53125,0 0.99479,0.19792 1.39063,0.59375c0.39583,0.39583 0.59375,0.85938 0.59375,1.39063v22.04689c0,0.53125 -0.19792,0.99479 -0.59375,1.39063c-0.39583,0.38542 -0.85937,0.57813 -1.39062,0.57813h-2.96875c-0.53125,0 -0.99479,-0.19271 -1.39062,-0.57812c-0.39583,-0.39583 -0.59375,-0.85937 -0.59375,-1.39062v-22.04689c0,-0.53125 0.19792,-0.99479 0.59375,-1.39062c0.39583,-0.39583 0.85938,-0.59375 1.39063,-0.59375zM499.97006,277.00533c0.4375,0.72917 1.14063,1.09375 2.10938,1.09375c0.96875,0 1.67188,-0.36458 2.10938,-1.09375c0.4375,-0.72917 0.65625,-1.97917 0.65625,-3.75c0,-1.78125 -0.21875,-3.03646 -0.65625,-3.76562c-0.4375,-0.72917 -1.14062,-1.09375 -2.10937,-1.09375c-0.96875,0 -1.67187,0.36458 -2.10937,1.09375c-0.4375,0.72917 -0.65625,1.98438 -0.65625,3.76563c0,1.77083 0.21875,3.02083 0.65625,3.75zM495.17319,266.3647c1.64583,-1.65625 3.94792,-2.48437 6.90625,-2.48437c2.95833,0 5.25521,0.82813 6.89063,2.48438c1.64583,1.65625 2.46875,3.95313 2.46875,6.89063c0,2.92708 -0.82292,5.21876 -2.46875,6.87502c-1.63542,1.64583 -3.93229,2.46875 -6.89062,2.46875c-2.95833,0 -5.26042,-0.82292 -6.90625,-2.46875c-1.63542,-1.65626 -2.45312,-3.94793 -2.45312,-6.87502c0,-2.9375 0.81771,-5.23437 2.45313,-6.89062zM522.39084,270.64595c2.63542,0.34375 4.50521,1.01042 5.60938,2c1.11458,0.97917 1.67188,2.39063 1.67188,4.23438c0,1.82292 -0.66146,3.23438 -1.98437,4.23439c-1.3125,0.98958 -3.25,1.48438 -5.8125,1.48438c-1.89583,0 -3.80208,-0.18229 -5.71875,-0.54687c-0.5625,-0.11458 -1.02083,-0.40104 -1.375,-0.85937c-0.35417,-0.46875 -0.53125,-1.00521 -0.53125,-1.60939v-0.89062c0,-0.48958 0.19271,-0.86979 0.57813,-1.14062c0.39583,-0.28125 0.82292,-0.36458 1.28125,-0.25c1.73958,0.41667 3.36979,0.625 4.89063,0.625c1.27083,0 1.90625,-0.36979 1.90625,-1.10937c0,-0.34375 -0.10417,-0.59896 -0.3125,-0.76562c-0.20833,-0.16667 -0.625,-0.29167 -1.25,-0.375c-2.5625,-0.41667 -4.41667,-1.13542 -5.5625,-2.15625c-1.14583,-1.02083 -1.71875,-2.38542 -1.71875,-4.09375c0,-1.75 0.67708,-3.10937 2.03125,-4.07812c1.35417,-0.97917 3.39583,-1.46875 6.125,-1.46875c1.80208,0 3.46354,0.11979 4.98438,0.35938c0.58333,0.09375 1.05208,0.35938 1.40625,0.79688c0.35417,0.4375 0.53125,0.94271 0.53125,1.51563v0.73438c0,0.47917 -0.20312,0.875 -0.60937,1.1875c-0.39583,0.3125 -0.83854,0.42188 -1.32812,0.32813c-1.40625,-0.27083 -2.84896,-0.40625 -4.32812,-0.40625c-0.76042,0 -1.29167,0.08333 -1.59375,0.25c-0.30208,0.15625 -0.45312,0.41667 -0.45312,0.78125c0,0.69792 0.52083,1.10417 1.5625,1.21875zM545.573,264.9272c0.53125,0 0.98958,0.19792 1.375,0.59375c0.39583,0.38542 0.59375,0.84375 0.59375,1.375v0.5625c0,0.53125 -0.19792,0.99479 -0.59375,1.39063c-0.38542,0.38542 -0.84375,0.57813 -1.375,0.57813h-3.07816c-0.20833,0 -0.3125,0.10417 -0.3125,0.3125v4.89063c0,1.38542 0.11458,2.25521 0.34375,2.60938c0.22917,0.34375 0.75001,0.51563 1.56253,0.51563c0.32292,0 0.71354,-0.03646 1.17188,-0.10937c0.48958,-0.07292 0.93229,0.04688 1.32813,0.35938c0.40625,0.3125 0.60938,0.71354 0.60938,1.20313v0.89064c0,0.58333 -0.18229,1.09896 -0.54687,1.54688c-0.35417,0.44792 -0.80729,0.70833 -1.35937,0.78125c-0.80208,0.11458 -1.78126,0.17188 -2.93753,0.17188c-2.47917,0 -4.22917,-0.53125 -5.25,-1.59375c-1.01042,-1.06251 -1.51562,-2.95835 -1.51562,-5.68752v-5.57812c0,-0.20833 -0.10417,-0.3125 -0.3125,-0.3125h-1.34375c-0.53125,0 -0.99479,-0.19271 -1.39062,-0.57812c-0.39583,-0.39583 -0.59375,-0.85937 -0.59375,-1.39062v-0.5625c0,-0.53125 0.19792,-0.98958 0.59375,-1.375c0.39583,-0.39583 0.85938,-0.59375 1.39063,-0.59375h1.34375c0.20833,0 0.3125,-0.10417 0.3125,-0.3125v-4.29687c0,-0.53125 0.19792,-0.98958 0.59375,-1.375c0.39583,-0.39583 0.85938,-0.59375 1.39063,-0.59375h2.625c0.53125,0 0.99479,0.19792 1.39063,0.59375c0.39583,0.38542 0.59375,0.84375 0.59375,1.375v4.29688c0,0.20833 0.10417,0.3125 0.3125,0.3125h3.07816zM571.60559,277.75533c0.89583,0 1.60938,-0.375 2.14063,-1.125c0.53125,-0.76042 0.79688,-1.89062 0.79688,-3.39062c0,-3 -0.97917,-4.5 -2.9375,-4.5c-0.73958,0 -1.41667,0.27604 -2.03125,0.82813c-0.61458,0.55208 -0.92187,1.14063 -0.92187,1.76563v3.8125c0,0.625 0.30729,1.21875 0.92188,1.78125c0.61458,0.55208 1.29167,0.82813 2.03125,0.82813zM574.02747,263.88033c2.125,0 3.80729,0.80729 5.04688,2.42188c1.25,1.60417 1.875,3.91667 1.875,6.9375c0,2.95833 -0.65104,5.26042 -1.95312,6.90627c-1.30208,1.63542 -2.95833,2.45313 -4.96875,2.45313c-1.82292,0 -3.52083,-0.69271 -5.09375,-2.07812c-0.02083,-0.02083 -0.04687,-0.03125 -0.07812,-0.03125c-0.02083,0 -0.03125,0.01042 -0.03125,0.03125v7.39063c0,0.53125 -0.19792,0.98958 -0.59375,1.375c-0.38542,0.39583 -0.84375,0.59375 -1.375,0.59375h-2.64069c-0.53125,0 -0.99479,-0.19792 -1.39062,-0.59375c-0.38542,-0.38542 -0.57812,-0.84375 -0.57812,-1.375v-21.70314c0,-0.53125 0.19271,-0.98958 0.57813,-1.375c0.39583,-0.39583 0.85938,-0.59375 1.39063,-0.59375h2.35944c0.55208,0 1.02604,0.19271 1.42188,0.57813c0.39583,0.375 0.60417,0.83854 0.625,1.39063v0.28125c0,0.02083 0.01042,0.03125 0.03125,0.03125c0.02083,0 0.04688,-0.01042 0.07813,-0.03125c1.42708,-1.73958 3.19271,-2.60937 5.29688,-2.60937zM595.05616,271.50533c0.20833,0 0.3125,-0.10417 0.3125,-0.3125c-0.02083,-1.0625 -0.24479,-1.82292 -0.67187,-2.28125c-0.42708,-0.45833 -1.06771,-0.6875 -1.92187,-0.6875c-0.90625,0 -1.58333,0.22396 -2.03125,0.67188c-0.44792,0.44792 -0.72917,1.22917 -0.84375,2.34375c0,0.17708 0.09375,0.26563 0.28125,0.26563zM592.60303,263.88033c5.86458,0 8.80729,3.09896 8.82813,9.29688c0,0.55208 -0.20833,1.02083 -0.625,1.40625c-0.40625,0.375 -0.90104,0.5625 -1.48437,0.5625h-9.07812c-0.20833,0 -0.28646,0.10417 -0.23437,0.3125c0.19792,0.96875 0.65104,1.65104 1.35938,2.04688c0.70833,0.39583 1.8125,0.59375 3.3125,0.59375c0.94792,0 2.10417,-0.14062 3.46875,-0.42187c0.47917,-0.11458 0.91667,-0.01562 1.3125,0.29688c0.39583,0.3125 0.59375,0.72396 0.59375,1.23438v0.54688c0,0.58334 -0.18229,1.1146 -0.54687,1.59377c-0.35417,0.46875 -0.80729,0.75 -1.35937,0.84375c-1.41667,0.27083 -2.92187,0.40625 -4.51562,0.40625c-3.28125,0 -5.80729,-0.80208 -7.57812,-2.40625c-1.76042,-1.60418 -2.64062,-3.92189 -2.64062,-6.95314c0,-3 0.78646,-5.30729 2.35938,-6.92187c1.57292,-1.625 3.84896,-2.4375 6.82813,-2.4375zM617.34766,264.3022c0.53125,-0.07292 0.98958,0.08854 1.375,0.48438c0.39583,0.39583 0.59375,0.86979 0.59375,1.42188v0.90625c0,0.53125 -0.1875,0.98958 -0.5625,1.375c-0.36458,0.375 -0.82292,0.59896 -1.375,0.67188c-1.78125,0.22917 -3.20312,0.89063 -4.26562,1.98438c-1.0625,1.09375 -1.59375,2.42708 -1.59375,4v5.14064c0,0.53125 -0.19792,0.99479 -0.59375,1.39063c-0.38542,0.38542 -0.84375,0.57813 -1.375,0.57813h-2.8125c-0.53125,0 -0.99479,-0.19271 -1.39062,-0.57812c-0.38542,-0.39583 -0.57812,-0.85937 -0.57812,-1.39062v-14.07814c0,-0.53125 0.19271,-0.98958 0.57813,-1.375c0.39583,-0.39583 0.85938,-0.59375 1.39063,-0.59375h2.64063c0.53125,0 0.98958,0.19792 1.375,0.59375c0.39583,0.38542 0.59375,0.84375 0.59375,1.375v1.45313c0,0.02083 0.01042,0.03125 0.03125,0.03125c0.03125,0 0.05729,-0.01042 0.07813,-0.03125c1.45833,-1.91667 3.42188,-3.03646 5.89063,-3.35937zM643.6081,263.88033c1.98958,0 3.4375,0.54167 4.34375,1.625c0.91667,1.07292 1.375,2.84375 1.375,5.3125v9.46877c0,0.53125 -0.19792,0.99479 -0.59375,1.39063c-0.38542,0.38542 -0.84375,0.57813 -1.375,0.57813h-2.45312c-0.54167,0 -1.00521,-0.19271 -1.39062,-0.57812c-0.375,-0.39583 -0.5625,-0.85937 -0.5625,-1.39062v-9.46877c0,-0.78125 -0.11458,-1.3125 -0.34375,-1.59375c-0.22917,-0.28125 -0.64583,-0.42187 -1.25,-0.42187c-0.45833,0 -0.89062,0.15104 -1.29687,0.45313c-0.40625,0.30208 -0.60937,0.59375 -0.60937,0.875v10.15627c0,0.53125 -0.19792,0.99479 -0.59375,1.39063c-0.38542,0.38542 -0.84375,0.57813 -1.375,0.57813h-2.46875c-0.53125,0 -0.98958,-0.19271 -1.375,-0.57812c-0.375,-0.39583 -0.5625,-0.85937 -0.5625,-1.39062v-9.46877c0,-0.78125 -0.11458,-1.3125 -0.34375,-1.59375c-0.22917,-0.28125 -0.64583,-0.42187 -1.25,-0.42187c-0.45833,0 -0.89062,0.15104 -1.29687,0.45313c-0.40625,0.30208 -0.60937,0.59375 -0.60937,0.875v10.15627c0,0.53125 -0.19792,0.99479 -0.59375,1.39063c-0.38542,0.38542 -0.84375,0.57813 -1.375,0.57813h-2.64062c-0.53125,0 -0.99479,-0.19271 -1.39062,-0.57812c-0.38542,-0.39583 -0.57812,-0.85937 -0.57812,-1.39062v-14.07814c0,-0.53125 0.19271,-0.98958 0.57813,-1.375c0.39583,-0.39583 0.85938,-0.59375 1.39063,-0.59375h2.10938c0.5625,0 1.03646,0.19271 1.42188,0.57813c0.39583,0.375 0.61979,0.83854 0.67188,1.39063l0.03125,0.42188c0,0.02083 0.01042,0.03125 0.03125,0.03125c0.04167,0 0.0625,-0.01042 0.0625,-0.03125c0.625,-0.85417 1.36979,-1.52604 2.23438,-2.01562c0.875,-0.48958 1.72396,-0.73437 2.54688,-0.73437c1.07292,0 1.92708,0.1875 2.5625,0.5625c0.63542,0.36458 1.23958,1.03646 1.8125,2.01563c0,0.02083 0.01042,0.03125 0.03125,0.03125c0.05208,0 0.08854,-0.01042 0.10938,-0.03125c1.70833,-1.71875 3.38021,-2.57812 5.01563,-2.57812zM663.40589,274.97408v-0.20312c0,-0.20833 -0.10417,-0.3125 -0.3125,-0.3125h-1.07812c-2.3125,0 -3.46875,0.69271 -3.46875,2.07813c0,1.04167 0.57813,1.5625 1.73438,1.5625c0.90625,0 1.65104,-0.28125 2.23438,-0.84375c0.59375,-0.57292 0.89063,-1.33333 0.89063,-2.28125zM661.32776,263.88033c3.05208,0 5.25521,0.55729 6.60938,1.67188c1.36458,1.10417 2.04688,2.85938 2.04688,5.26563v9.46877c0,0.53125 -0.19792,0.99479 -0.59375,1.39063c-0.38542,0.38542 -0.84375,0.57813 -1.375,0.57813h-2.1875c-0.55208,0 -1.02604,-0.1875 -1.42187,-0.5625c-0.39583,-0.38542 -0.60417,-0.85417 -0.625,-1.40625v-0.28125c0,-0.02084 -0.01042,-0.03127 -0.03125,-0.03127c-0.02083,0 -0.04167,0.01042 -0.0625,0.03127c-1.47917,1.72917 -3.30729,2.59375 -5.48437,2.59375c-1.61458,0 -2.94271,-0.51042 -3.98437,-1.53125c-1.04167,-1.03126 -1.5625,-2.36981 -1.5625,-4.01564c0,-4.15625 3.11979,-6.23437 9.35938,-6.23437h1.07813c0.20833,0 0.3125,-0.10417 0.3125,-0.3125v-0.03125c0,-1.38542 -0.80729,-2.07812 -2.42187,-2.07812c-1.38542,0 -3.17708,0.20833 -5.375,0.625c-0.48958,0.09375 -0.93229,-0.01562 -1.32812,-0.32812c-0.38542,-0.3125 -0.57812,-0.72396 -0.57812,-1.23437v-0.5625c0,-0.57292 0.17708,-1.08854 0.53125,-1.54687c0.36458,-0.46875 0.82292,-0.75 1.375,-0.84375c2.28125,-0.41667 4.1875,-0.625 5.71875,-0.625zM680.67041,266.4897c1.42708,-1.73958 3.19271,-2.60937 5.29688,-2.60937c2.10417,0 3.60938,0.60417 4.51563,1.8125c0.91667,1.19792 1.375,3.25521 1.375,6.17188v8.42189c0,0.53125 -0.19792,0.99479 -0.59375,1.39063c-0.38542,0.38542 -0.84896,0.57813 -1.39062,0.57813h-2.45312c-0.53125,0 -0.99479,-0.19271 -1.39062,-0.57812c-0.38542,-0.39583 -0.57812,-0.85937 -0.57812,-1.39062v-8.42189c0,-1.0625 -0.15104,-1.79167 -0.45312,-2.1875c-0.30208,-0.39583 -0.84375,-0.59375 -1.625,-0.59375c-0.65625,0 -1.25521,0.25521 -1.79687,0.76563c-0.54167,0.51042 -0.8125,1.0625 -0.8125,1.65625v8.78127c0,0.53125 -0.19792,0.99479 -0.59375,1.39063c-0.38542,0.38542 -0.84375,0.57813 -1.375,0.57813h-2.64062c-0.53125,0 -0.99479,-0.19271 -1.39062,-0.57812c-0.38542,-0.39583 -0.57812,-0.85937 -0.57812,-1.39062v-14.07814c0,-0.53125 0.19271,-0.98958 0.57813,-1.375c0.39583,-0.39583 0.85938,-0.59375 1.39063,-0.59375h2.35938c0.55208,0 1.02604,0.19271 1.42188,0.57813c0.39583,0.375 0.60417,0.83854 0.625,1.39063v0.28125c0,0.02083 0.01042,0.03125 0.03125,0.03125c0.05208,0 0.07813,-0.01042 0.07813,-0.03125zM706.47602,271.50533c0.20833,0 0.3125,-0.10417 0.3125,-0.3125c-0.02083,-1.0625 -0.24479,-1.82292 -0.67187,-2.28125c-0.42708,-0.45833 -1.06771,-0.6875 -1.92187,-0.6875c-0.90625,0 -1.58333,0.22396 -2.03125,0.67188c-0.44792,0.44792 -0.72917,1.22917 -0.84375,2.34375c0,0.17708 0.09375,0.26563 0.28125,0.26563zM704.02289,263.88033c5.86458,0 8.80729,3.09896 8.82813,9.29688c0,0.55208 -0.20833,1.02083 -0.625,1.40625c-0.40625,0.375 -0.90104,0.5625 -1.48437,0.5625h-9.07812c-0.20833,0 -0.28646,0.10417 -0.23437,0.3125c0.19792,0.96875 0.65104,1.65104 1.35938,2.04688c0.70833,0.39583 1.8125,0.59375 3.3125,0.59375c0.94792,0 2.10417,-0.14062 3.46875,-0.42187c0.47917,-0.11458 0.91667,-0.01562 1.3125,0.29688c0.39583,0.3125 0.59375,0.72396 0.59375,1.23438v0.54688c0,0.58334 -0.18229,1.1146 -0.54687,1.59377c-0.35417,0.46875 -0.80729,0.75 -1.35937,0.84375c-1.41667,0.27083 -2.92187,0.40625 -4.51562,0.40625c-3.28125,0 -5.80729,-0.80208 -7.57812,-2.40625c-1.76042,-1.60418 -2.64062,-3.92189 -2.64062,-6.95314c0,-3 0.78646,-5.30729 2.35938,-6.92187c1.57292,-1.625 3.84896,-2.4375 6.82813,-2.4375zM722.67383,266.4897c1.42708,-1.73958 3.19271,-2.60937 5.29688,-2.60937c2.10417,0 3.60938,0.60417 4.51563,1.8125c0.91667,1.19792 1.375,3.25521 1.375,6.17188v8.42189c0,0.53125 -0.19792,0.99479 -0.59375,1.39063c-0.38542,0.38542 -0.84896,0.57813 -1.39062,0.57813h-2.45312c-0.53125,0 -0.99479,-0.19271 -1.39062,-0.57812c-0.38542,-0.39583 -0.57812,-0.85937 -0.57812,-1.39062v-8.42189c0,-1.0625 -0.15104,-1.79167 -0.45312,-2.1875c-0.30208,-0.39583 -0.84375,-0.59375 -1.625,-0.59375c-0.65625,0 -1.25521,0.25521 -1.79687,0.76563c-0.54167,0.51042 -0.8125,1.0625 -0.8125,1.65625v8.78127c0,0.53125 -0.19792,0.99479 -0.59375,1.39063c-0.38542,0.38542 -0.84375,0.57813 -1.375,0.57813h-2.64062c-0.53125,0 -0.99479,-0.19271 -1.39062,-0.57812c-0.38542,-0.39583 -0.57812,-0.85937 -0.57812,-1.39062v-14.07814c0,-0.53125 0.19271,-0.98958 0.57813,-1.375c0.39583,-0.39583 0.85938,-0.59375 1.39063,-0.59375h2.35938c0.55208,0 1.02604,0.19271 1.42188,0.57813c0.39583,0.375 0.60417,0.83854 0.625,1.39063v0.28125c0,0.02083 0.01042,0.03125 0.03125,0.03125c0.05208,0 0.07813,-0.01042 0.07813,-0.03125zM750.11426,264.9272c0.53125,0 0.98958,0.19792 1.375,0.59375c0.39583,0.38542 0.59375,0.84375 0.59375,1.375v0.5625c0,0.53125 -0.19792,0.99479 -0.59375,1.39063c-0.38542,0.38542 -0.84375,0.57813 -1.375,0.57813h-3.07812c-0.20833,0 -0.3125,0.10417 -0.3125,0.3125v4.89063c0,1.38542 0.11458,2.25521 0.34375,2.60938c0.22917,0.34375 0.75,0.51563 1.5625,0.51563c0.32292,0 0.71354,-0.03646 1.17188,-0.10937c0.48958,-0.07292 0.93229,0.04688 1.32813,0.35938c0.40625,0.3125 0.60938,0.71354 0.60938,1.20313v0.89064c0,0.58333 -0.18229,1.09896 -0.54687,1.54688c-0.35417,0.44792 -0.80729,0.70833 -1.35937,0.78125c-0.80208,0.11458 -1.78125,0.17188 -2.9375,0.17188c-2.47917,0 -4.22917,-0.53125 -5.25,-1.59375c-1.01042,-1.06251 -1.51562,-2.95835 -1.51562,-5.68752v-5.57812c0,-0.20833 -0.10417,-0.3125 -0.3125,-0.3125h-1.34375c-0.53125,0 -0.99479,-0.19271 -1.39062,-0.57812c-0.39583,-0.39583 -0.59375,-0.85937 -0.59375,-1.39062v-0.5625c0,-0.53125 0.19792,-0.98958 0.59375,-1.375c0.39583,-0.39583 0.85938,-0.59375 1.39063,-0.59375h1.34375c0.20833,0 0.3125,-0.10417 0.3125,-0.3125v-4.29687c0,-0.53125 0.19792,-0.98958 0.59375,-1.375c0.39583,-0.39583 0.85938,-0.59375 1.39063,-0.59375h2.625c0.53125,0 0.99479,0.19792 1.39063,0.59375c0.39583,0.38542 0.59375,0.84375 0.59375,1.375v4.29688c0,0.20833 0.10417,0.3125 0.3125,0.3125h3.07813zM762.10047,256.25533c0.53125,0 0.99479,0.19792 1.39063,0.59375c0.39583,0.39583 0.59375,0.85938 0.59375,1.39063v22.04689c0,0.53125 -0.19792,0.99479 -0.59375,1.39063c-0.39583,0.38542 -0.85937,0.57813 -1.39062,0.57813h-2.96875c-0.53125,0 -0.99479,-0.19271 -1.39062,-0.57812c-0.39583,-0.39583 -0.59375,-0.85937 -0.59375,-1.39062v-22.04689c0,-0.53125 0.19792,-0.99479 0.59375,-1.39062c0.39583,-0.39583 0.85938,-0.59375 1.39063,-0.59375zM785.19092,264.2397c0.48958,0 0.86458,0.19271 1.125,0.57813c0.27083,0.375 0.33333,0.79167 0.1875,1.25l-7.85937,21.96877c-0.20833,0.5625 -0.55729,1.01042 -1.04687,1.34375c-0.47917,0.33333 -1.01042,0.5 -1.59375,0.5h-2.96875c-0.48958,0 -0.86979,-0.19271 -1.14062,-0.57812c-0.26042,-0.375 -0.29687,-0.78125 -0.10937,-1.21875l2.28125,-5.54687c0.02083,-0.09375 0.03125,-0.1875 0.03125,-0.28125c0,-0.09375 -0.01042,-0.1875 -0.03125,-0.28125l-5.95312,-15.90627c-0.1875,-0.4375 -0.14583,-0.84896 0.125,-1.23437c0.28125,-0.39583 0.66667,-0.59375 1.15625,-0.59375h3.32813c0.55208,0 1.05208,0.1875 1.5,0.5625c0.44792,0.36458 0.72917,0.82292 0.84375,1.375l2.01563,10.15625c0,0.02083 0.01042,0.03125 0.03125,0.03125c0.03125,0 0.04688,-0.01042 0.04688,-0.03125l2.59375,-10.1875c0.13542,-0.5625 0.43229,-1.02083 0.89063,-1.375c0.46875,-0.35417 0.98958,-0.53125 1.5625,-0.53125zM796.97022,256.95845c0.53125,0 0.98438,0.19792 1.35938,0.59375c0.38542,0.38542 0.55208,0.84375 0.5,1.375l-0.82812,13.03125c-0.02083,0.55208 -0.23437,1.02083 -0.64062,1.40625c-0.40625,0.38542 -0.88542,0.57813 -1.4375,0.57813h-2.28125c-0.55208,0 -1.02604,-0.19271 -1.42187,-0.57812c-0.39583,-0.38542 -0.61458,-0.85417 -0.65625,-1.40625l-0.84375,-13.03125c-0.02083,-0.53125 0.15104,-0.98958 0.51563,-1.375c0.375,-0.39583 0.82813,-0.59375 1.35938,-0.59375zM796.26709,276.70845c0.53125,0 0.99479,0.19792 1.39063,0.59375c0.39583,0.39583 0.59375,0.85938 0.59375,1.39063v1.59377c0,0.53125 -0.19792,0.99479 -0.59375,1.39063c-0.39583,0.38542 -0.85937,0.57813 -1.39062,0.57813h-2.96875c-0.53125,0 -0.99479,-0.19271 -1.39062,-0.57812c-0.39583,-0.39583 -0.59375,-0.85937 -0.59375,-1.39062v-1.59377c0,-0.53125 0.19792,-0.99479 0.59375,-1.39062c0.39583,-0.39583 0.85938,-0.59375 1.39063,-0.59375z"/></g></g></svg>