<svg version="1.1" xmlns="http://www.w3.org/2000/svg" xmlns:xlink="http://www.w3.org/1999/xlink" width="1442.60101" height="1145.43683" viewBox="0,0,1442.60101,1145.43683"><g transform="translate(460.81792,924.02392)"><g data-paper-data="{&quot;isPaintingLayer&quot;:true}" fill="#000000" fill-rule="nonzero" stroke="none" stroke-width="1" stroke-linecap="butt" stroke-linejoin="miter" stroke-miterlimit="10" stroke-dasharray="" stroke-dashoffset="0" style="mix-blend-mode: normal"><path d="M-148,-906.5c2.7,8.7 3.8,31.2 2.1,42.2c-2.9,19 -9.9,27.1 -24.2,28.1c-19.2,1.4 -27.6,-9.5 -28.6,-37.3c-0.9,-22.1 2.4,-35.5 10.7,-43.6c2.9,-2.8 6.2,-5 8.6,-5.7c15.4,-4 26.9,1.9 31.4,16.3zM-179.7,-913c-7.3,4.4 -11.3,15.8 -11.2,32c0,23.5 6.5,36 18.7,36c14,0 19.8,-11.5 19,-37.4c-0.6,-19.1 -3.8,-27 -12.5,-31.5c-3.4,-1.7 -10.4,-1.3 -14,0.9z"/><path d="M-164.7,-910.5c6.4,4.2 10.4,19 9.4,35.5c-0.7,11.9 -2.9,19.1 -7.2,23.8c-3.2,3.5 -3.7,3.7 -9.5,3.7c-5.8,0 -6.3,-0.2 -9.5,-3.7c-4.5,-4.9 -6.6,-12.1 -7.2,-25.3c-0.8,-17.7 2.5,-29.5 9.7,-34.3c4.1,-2.8 9.9,-2.6 14.3,0.3zM-174.2,-904c-3.7,2.2 -5.3,9.7 -5.3,25c0.1,15.2 1.1,20.4 4.5,23.5c1.7,1.5 2.4,1.6 4.6,0.7c4.6,-2.1 5.8,-7.1 5.9,-23.7c0,-16.1 -1.6,-23.4 -5.5,-25.5c-2.2,-1.2 -2.1,-1.2 -4.2,0z"/><path d="M-29.9,-924c0.5,0 4.7,3 9.4,6.7l8.6,6.8l-2.8,1.9c-7.5,5.4 -12.3,13.6 -10.6,18.2c0.3,1.1 3.5,5.9 7,10.8c5.7,7.9 6.3,9.3 6.3,13.7c0,9.8 -6.9,22.1 -16.9,29.6l-4.3,3.3l-3.1,-2.2c-1.8,-1.2 -5.6,-4.2 -8.6,-6.7l-5.3,-4.5l2.8,-2c10.2,-7.4 15.1,-14.8 13.9,-20.9c-0.4,-1.8 -2.7,-6.4 -5.1,-10.4c-6.4,-10.2 -7.7,-13.8 -6.9,-18.7c1,-6 5.8,-15.5 10.5,-20.9c2.3,-2.6 4.6,-4.7 5.1,-4.7zM-27.8,-911c-1.5,0 -4.1,3.4 -6.3,8.4c-3.2,7.4 -2.4,12.5 4.2,23.8c4.8,8.3 5.3,9.9 5.3,14.8c-0.1,6.6 -1.9,10.4 -7.3,15.3c-2.3,2.1 -3.6,3.9 -3,4.3c1.9,1.1 10.4,-8.8 11.8,-13.9c2,-7 0.9,-11.5 -5,-21.4c-5,-8.1 -5.4,-9.3 -5.4,-15c0,-5.3 0.4,-6.8 3.3,-10.7c1.7,-2.6 3.2,-4.9 3.2,-5.1c0,-0.3 -0.4,-0.5 -0.8,-0.5z"/><path d="M310,-906.5c2.7,8.7 3.8,31.2 2.1,42.2c-2.9,19 -9.9,27.1 -24.2,28.1c-19.2,1.4 -27.6,-9.5 -28.6,-37.3c-0.9,-22.1 2.4,-35.5 10.7,-43.6c2.9,-2.8 6.2,-5 8.6,-5.7c15.4,-4 26.9,1.9 31.4,16.3zM278.3,-913c-7.3,4.4 -11.3,15.8 -11.2,32c0,23.5 6.5,36 18.7,36c14,0 19.8,-11.5 19,-37.4c-0.6,-19.1 -3.8,-27 -12.5,-31.5c-3.4,-1.7 -10.4,-1.3 -14,0.9z"/><path d="M293.3,-910.5c6.4,4.2 10.4,19 9.4,35.5c-0.7,11.9 -2.9,19.1 -7.2,23.8c-3.2,3.5 -3.7,3.7 -9.5,3.7c-5.8,0 -6.3,-0.2 -9.5,-3.7c-4.5,-4.9 -6.6,-12.1 -7.2,-25.3c-0.8,-17.7 2.5,-29.5 9.7,-34.3c4.1,-2.8 9.9,-2.6 14.3,0.3zM283.8,-904c-3.7,2.2 -5.3,9.7 -5.3,25c0.1,15.2 1.1,20.4 4.5,23.5c1.7,1.5 2.4,1.6 4.6,0.7c4.6,-2.1 5.8,-7.1 5.9,-23.7c0,-16.1 -1.6,-23.4 -5.5,-25.5c-2.2,-1.2 -2.1,-1.2 -4.2,0z"/><path d="M430.5,-917.3c0.9,9.1 5.2,37.4 5.8,37.9c0.3,0.4 3.4,-12.3 5.5,-23.1c0.6,-2.9 1.3,-4 2.5,-3.9c0.9,0 4.6,0.1 8.1,0.2l6.3,0.2l0.7,4.7c0.3,2.5 1.8,8.7 3.3,13.7l2.8,9.1l1.3,-7c0.7,-3.9 2.3,-13.7 3.6,-21.8c1.3,-8.1 2.5,-14.9 2.7,-15.1c0.2,-0.2 3.3,0.2 6.9,1c3.6,0.7 7.9,1.4 9.6,1.4h3.1l-2.4,9.7c-2.4,10.2 -9.8,46.6 -12.8,63.4l-1.7,9.6l-9.5,0.7c-5.3,0.4 -9.7,0.5 -9.9,0.3c-0.2,-0.2 -1.5,-7.3 -3,-15.8c-1.4,-8.5 -2.9,-16 -3.3,-16.8c-0.8,-1.4 -3.2,6.5 -7.1,23.4l-2.1,9l-7.7,-0.3c-4.2,-0.2 -7.9,-0.6 -8.1,-0.7c-0.2,-0.2 -1.6,-8.2 -3.2,-17.7c-1.5,-9.5 -5.1,-27.6 -7.9,-40.2c-2.7,-12.6 -5,-23.4 -5,-24.1c0,-0.8 2.4,-1.5 6.5,-2c3.5,-0.3 7.7,-1 9.2,-1.5c4.9,-1.4 5,-1.3 5.8,5.7zM420.8,-914c-0.6,0 -0.8,0.9 -0.4,2.2c0.6,2.5 11,55.8 12.1,62.1c0.3,2.1 1,3.7 1.5,3.5c0.6,-0.2 4.2,-9.8 8.1,-21.3c3.9,-11.6 7.5,-21.4 7.9,-21.8c1,-1.1 3.3,5.1 10.2,26.7c2.9,9.1 5.7,16.6 6.3,16.6c0.6,0 1.9,-3.9 2.8,-8.7c1,-4.8 4.5,-20 7.7,-33.7c3.3,-13.8 5.7,-25.2 5.4,-25.5c-1.2,-1.2 -2.5,3.1 -7.3,24.4c-2.9,12.6 -6,26.4 -6.9,30.4l-1.7,7.5l-7.5,-21.2c-4.1,-11.7 -7.9,-21.2 -8.5,-21.2c-0.6,0 -4,8 -7.5,17.7c-3.5,9.8 -6.9,19.1 -7.5,20.8l-1.2,3l-0.6,-3c-0.3,-1.7 -2.7,-13.8 -5.2,-27c-2.6,-13.2 -5.1,-25.7 -5.6,-27.8c-0.5,-2 -1.5,-3.7 -2.1,-3.7z"/><path d="M-442.9,-922.6c1.8,0.3 7.8,0.6 13.4,0.6h10.3l0.6,5.7c1.4,11.9 7.8,50.3 10.6,64.2c1.7,7.9 2.9,14.6 2.7,14.7c-0.1,0.2 -4.7,0.4 -10.2,0.6l-10,0.3l-0.3,-6c-0.4,-10.8 -0.2,-10.5 -8.6,-10.5h-7.3l-0.7,4.6c-0.3,2.6 -0.6,5.9 -0.6,7.4c0,2.7 0,2.7 -8.7,3.3c-4.9,0.3 -8.9,0.4 -9.1,0.2c-0.2,-0.1 1.3,-8.3 3.2,-18.1c4,-20.3 6.7,-36.6 9.1,-53.4c0.9,-6.3 1.8,-12.1 2.1,-12.9c0.3,-0.9 1.4,-1.2 3.5,-0.7zM-426.1,-913h-6.9c-6.4,0 -7,0.2 -7.5,2.2c-0.2,1.3 -2.1,11.5 -4,22.8c-2,11.3 -4.7,25.7 -6.1,32c-2.7,13.1 -2.7,13 -1.5,13c0.5,0 1.8,-3.7 2.8,-8.3l1.9,-8.2l12.9,-0.7c7.2,-0.3 13.3,-0.3 13.6,0c0.3,0.4 1.2,4.2 1.9,8.4c0.9,5.5 1.7,7.8 2.7,7.8c0.8,0 1.2,-0.4 0.9,-0.8c-0.8,-1.3 -4.3,-22.6 -7.1,-43.2c-1.4,-10.2 -2.8,-20 -3.1,-21.8z"/><path d="M-433,-911c2.8,0 5,0.1 5,0.2c0,0.2 1.6,10.9 3.4,23.8c1.9,12.9 3.3,23.7 3.1,23.8c-0.8,0.8 -24.3,1.3 -24.7,0.5c-0.4,-0.6 5.6,-35.9 7.8,-46.1c0.4,-1.9 1.1,-2.2 5.4,-2.2zM-434.3,-896.5c-0.7,2.4 -4.7,24.2 -4.7,26.2c0,0.9 1.5,1.3 5.1,1.3h5.1l-0.7,-5.8c-1.3,-11 -4.1,-23.8 -4.8,-21.7z"/><path d="M-244.5,-920.3c0.3,1.6 2.5,8.9 4.9,16.3l4.2,13.5l2.6,-5c3,-6 7.4,-17.4 8.8,-23.2l1,-4.1l8.8,3.1c4.8,1.7 8.9,3.2 9.2,3.4c0.2,0.3 -0.4,1.9 -1.4,3.6c-1,1.8 -6.2,11.7 -11.5,22.2l-9.6,19l0.3,13.5c0.2,7.4 0.5,15.1 0.5,17l0.2,3.5l-9.2,0.3l-9.2,0.3l0.6,-16.3l0.5,-16.3l-4,-11c-2.2,-6.1 -6.7,-17 -10.1,-24.4c-4.3,-9.5 -5.8,-13.7 -5,-14.2c0.7,-0.4 3.7,-1 6.7,-1.4c3,-0.4 6.5,-1.1 7.6,-1.5c3.2,-1.3 3.5,-1.2 4.1,1.7zM-251.9,-913.8c-1.8,-0.6 -1.2,0.9 7.2,21.3l7.1,17l0.3,15.2c0.5,20.1 2.3,20.2 2.3,0.2v-15.1l3.4,-5.7c6.8,-11.4 15.8,-30.3 14.8,-31.3c-0.6,-0.6 -2,1.4 -4.1,5.7c-1.7,3.7 -3.1,7 -3.1,7.2c0,1.2 -11.5,21.3 -12.1,21.3c-0.8,0 -5.6,-11.2 -10.9,-25.4c-2,-5.5 -4.2,-10.2 -4.9,-10.4z"/><path d="M213.5,-920.3c0.3,1.6 2.5,8.9 4.9,16.3l4.2,13.5l2.6,-5c3,-6 7.4,-17.4 8.8,-23.2l1,-4.1l8.8,3.1c4.8,1.7 8.9,3.2 9.2,3.4c0.2,0.3 -0.4,1.9 -1.4,3.6c-1,1.8 -6.2,11.7 -11.5,22.2l-9.6,19l0.3,13.5c0.2,7.4 0.5,15.1 0.5,17l0.2,3.5l-9.2,0.3l-9.2,0.3l0.6,-16.3l0.5,-16.3l-4,-11c-2.2,-6.1 -6.7,-17 -10.1,-24.4c-4.3,-9.5 -5.8,-13.7 -5,-14.2c0.7,-0.4 3.7,-1 6.7,-1.4c3,-0.4 6.5,-1.1 7.6,-1.5c3.2,-1.3 3.5,-1.2 4.1,1.7zM206.1,-913.8c-1.8,-0.6 -1.2,0.9 7.2,21.3l7.1,17l0.3,15.2c0.5,20.1 2.3,20.2 2.3,0.2v-15.1l3.4,-5.7c6.8,-11.4 15.8,-30.3 14.8,-31.3c-0.6,-0.6 -2,1.4 -4.1,5.7c-1.7,3.7 -3.1,7 -3.1,7.2c0,1.2 -11.5,21.3 -12.1,21.3c-0.8,0 -5.6,-11.2 -10.9,-25.4c-2,-5.5 -4.2,-10.2 -4.9,-10.4z"/><path d="M514.1,-922.6c1.8,0.3 7.8,0.6 13.4,0.6h10.3l0.6,5.7c1.4,11.9 7.8,50.3 10.6,64.2c1.7,7.9 2.9,14.6 2.7,14.7c-0.1,0.2 -4.7,0.4 -10.2,0.6l-10,0.3l-0.3,-6c-0.4,-10.8 -0.2,-10.5 -8.6,-10.5h-7.3l-0.7,4.6c-0.3,2.6 -0.6,5.9 -0.6,7.4c0,2.7 0,2.7 -8.7,3.3c-4.9,0.3 -8.9,0.4 -9.1,0.2c-0.2,-0.1 1.3,-8.3 3.2,-18.1c4,-20.3 6.7,-36.6 9.1,-53.4c0.9,-6.3 1.8,-12.1 2.1,-12.9c0.3,-0.9 1.4,-1.2 3.5,-0.7zM530.9,-913h-6.9c-6.4,0 -7,0.2 -7.5,2.2c-0.2,1.3 -2.1,11.5 -4,22.8c-2,11.3 -4.7,25.7 -6.1,32c-2.7,13.1 -2.7,13 -1.5,13c0.5,0 1.8,-3.7 2.8,-8.3l1.9,-8.2l12.9,-0.7c7.2,-0.3 13.3,-0.3 13.6,0c0.3,0.4 1.2,4.2 1.9,8.4c0.9,5.5 1.7,7.8 2.7,7.8c0.8,0 1.2,-0.4 0.9,-0.8c-0.8,-1.3 -4.3,-22.6 -7.1,-43.2c-1.4,-10.2 -2.8,-20 -3.1,-21.8z"/><path d="M524,-911c2.8,0 5,0.1 5,0.2c0,0.2 1.6,10.9 3.4,23.8c1.9,12.9 3.3,23.7 3.1,23.8c-0.8,0.8 -24.3,1.3 -24.7,0.5c-0.4,-0.6 5.6,-35.9 7.8,-46.1c0.4,-1.9 1.1,-2.2 5.4,-2.2zM522.7,-896.5c-0.7,2.4 -4.7,24.2 -4.7,26.2c0,0.9 1.5,1.3 5.1,1.3h5.1l-0.7,-5.8c-1.3,-11 -4.1,-23.8 -4.8,-21.7z"/><path d="M580.8,-922.4c0.1,0.1 1.7,4.6 3.6,10.1c1.9,5.5 5.6,15.1 8.2,21.4c4.9,11.4 4.9,11.4 5.4,7.4c0.3,-2.2 0.3,-11.7 -0.1,-21c-0.3,-9.4 -0.5,-17.1 -0.5,-17.1c0.1,-0.1 4.2,-0.4 9.2,-0.5l9,-0.4v34.5c0,19 0.4,37.9 0.8,42.1l0.7,7.6l-8.3,1.6c-9.8,2 -10.8,2.1 -10.8,0.6c0,-3 -16.1,-39.4 -19.5,-44.1c-1.6,-2.2 -1.6,-1.6 -1.1,11.2c0.4,7.4 0.9,17.4 1.2,22.1l0.6,8.6l-6.9,0.7c-3.7,0.4 -8,0.9 -9.5,1.2l-2.8,0.6v-43.1v-43l10.3,-0.3c5.6,-0.2 10.3,-0.3 10.5,-0.2zM568.3,-911c0.4,1.8 0.7,16.9 0.7,33.6c0,19.6 0.4,30.4 1,30.4c0.6,0 1,-10.9 1,-30.7v-30.8l2.4,3.5c3.3,5 19.7,34.5 26.4,47.7c3.1,6.2 6,11.3 6.3,11.3c1.1,0 1.9,-14.4 2,-35.5c0.1,-28.9 0,-32.5 -1.1,-32.5c-0.6,0 -1,6.8 -1,18.2c0,10.1 -0.3,24 -0.7,31l-0.6,12.7l-10.8,-19.8c-5.9,-10.9 -13.6,-24.7 -17.1,-30.6c-6.6,-11.4 -9.6,-14.4 -8.5,-8.5z"/><path d="M677.5,-922.5l0.3,4.7c0.2,2.7 0.2,7.2 0,10l-0.3,5.3l-8.2,-0.4l-8.3,-0.3v32.6v32.6h-5.7c-3.2,0 -7.5,0.3 -9.5,0.6l-3.8,0.7v-33.3v-33.3l-8.6,0.7l-8.7,0.7l0.7,-4.7c0.3,-2.6 0.6,-7.1 0.6,-10v-5.4l25.8,-0.2zM644.3,-912.7c-8.3,-0.4 -11.3,-0.3 -11.3,0.5c0,0.8 2.9,1.2 9,1.2h9v32c0,20.7 0.4,32 1,32c0.6,0 1,-11.4 1,-32.1v-32.2l9.5,0.7c6.2,0.4 9.5,0.3 9.5,-0.4c0,-0.6 -3.3,-1 -8.2,-1c-4.6,0 -13.4,-0.3 -19.5,-0.7z"/><path d="M-380.7,-921.9c13.6,-0.1 15.2,0.4 21.6,7.4c10.6,11.5 11.9,26.8 3.1,36.8l-3.8,4.2l4.3,14c2.3,7.7 4.7,15.2 5.3,16.7c1.1,2.6 1.1,2.7 -6.4,5.2c-6.9,2.3 -7.6,2.4 -8.1,0.8c-1.8,-5.3 -9.6,-23.8 -10.2,-24.5c-0.4,-0.4 -1.5,-0.5 -2.4,-0.1c-1.5,0.5 -1.7,2.3 -1.7,11.9v11.3l-7.7,0.4c-4.3,0.3 -8.1,0.2 -8.5,-0.1c-0.4,-0.3 -0.8,-19.2 -1,-41.8c-0.3,-40.5 -0.3,-41.2 1.7,-41.6c1.1,-0.2 7.3,-0.5 13.8,-0.6zM-378.1,-914.5c-10.9,-0.7 -9.9,-4.1 -9.9,34.1c0,20.8 0.4,33.4 1,33.4c0.5,0 1.1,-4.3 1.2,-9.6l0.3,-9.6l5.5,-1.8c3,-1 6.3,-2.1 7.2,-2.5c1.5,-0.6 2.3,0.5 4.6,5.6c1.6,3.5 3.9,9.4 5.2,13.1c2.2,6.3 4,8.7 4,5.4c0,-1.6 -3.7,-11.7 -7.4,-20l-2.6,-5.8l4,-4c10.1,-10.1 8.7,-28.8 -2.6,-35.4c-2.9,-1.7 -6.2,-2.6 -10.5,-2.9z"/><path d="M-369.1,-909.9c5.2,2.9 8.1,7.7 8.8,14.3c0.8,7.7 -1.5,13.3 -7.6,18.8c-4.2,3.8 -12.9,7.8 -16.9,7.8c-1.8,0 -1.7,-42.6 0.1,-43.4c2.3,-1.1 12,0.5 15.6,2.5zM-378.3,-904.3c-1,0.9 -0.9,26.3 0.1,26.3c1.1,0 7.7,-7.1 9.1,-9.7c1.4,-2.7 1.4,-8.8 0.1,-11.3c-0.5,-1 -2.5,-2.8 -4.4,-3.9c-3.7,-2.3 -4,-2.4 -4.9,-1.4z"/><path d="M-316.5,-922h21l-0.5,8.7l-0.5,8.8l-12.7,-0.4l-12.8,-0.3v8.7v8.6l11.3,-0.2c7.8,-0.1 11.2,0.2 11.1,1c-0.1,0.6 -0.2,4.7 -0.2,9.1l-0.2,8h-10.9c-12.4,0 -12.1,-0.3 -12.1,9.9v5.4l13,-0.5l13,-0.6v7.8c0,4.3 0.3,8.5 0.6,9.4c0.5,1.4 -1.8,1.6 -21.7,1.6h-22.4l0.4,-41.7c0.2,-29.9 0.6,-42 1.5,-42.5c0.6,-0.4 10.6,-0.8 22.1,-0.8zM-317.7,-914h-14.8v34.5c0,28.3 0.2,34.4 1.3,34c0.8,-0.3 7.6,-0.5 15.3,-0.5c8.6,0 13.9,-0.4 13.9,-1c0,-0.6 -5.3,-1 -14,-1h-14.1l0.3,-15.3l0.3,-15.2l11.8,0.2c9.7,0.2 11.7,0 11.7,-1.2c0,-1.2 -2.1,-1.5 -12,-1.5h-12v-13.9c0,-7.7 -0.3,-14.6 -0.6,-15.5c-0.5,-1.4 1,-1.6 13.5,-1.6c8.7,0 14.1,-0.4 14.1,-1c0,-0.6 -5.6,-1 -14.7,-1z"/><path d="M-135.2,-922.1l9.8,0.7c5.5,0.3 10.1,0.9 10.4,1.1c0.3,0.3 0.5,14.1 0.5,30.8l-0.1,30.3l5.4,0.7c3,0.4 5.7,0.4 6,0c0.4,-0.4 0.7,-14.8 0.6,-32.1l-0.1,-31.4h10.5h10.5l-0.7,8.7c-0.3,4.9 -0.9,23.8 -1.3,42.1l-0.6,33.2l-2.4,0.5c-1.2,0.3 -3.5,0.7 -5,1c-1.6,0.3 -3.6,0.8 -4.6,1.1c-1.3,0.4 -2,-0.3 -2.8,-2.6c-0.6,-1.7 -1.4,-2.9 -1.8,-2.8c-0.3,0.2 -2.7,1.4 -5.3,2.8l-4.8,2.4l-6.2,-3c-3.4,-1.6 -8.3,-4.6 -10.9,-6.6l-4.7,-3.7l-0.6,-32.8c-0.3,-18 -0.8,-34.5 -1.2,-36.6zM-124,-915c-0.6,-1 -1,8.6 -1,28c0,26.1 0.2,29.9 1.8,33c3.5,7.1 14.9,9.2 25,4.5l5.2,-2.4v2.9c0,1.7 0.5,3 1,3c0.6,0 1,-12 1,-34c0,-22 -0.4,-34 -1,-34c-0.6,0 -1,10.5 -1,29.4v29.5l-2.7,1.9c-8.9,6.2 -22.5,5.2 -26,-1.8c-0.9,-1.8 -1.3,-10.2 -1.3,-30.5c0,-16.3 -0.4,-28.6 -1,-29.5z"/><path d="M-3.2,-922.1l9.8,0.7c5.5,0.3 10.1,0.9 10.4,1.1c0.3,0.3 0.5,14.1 0.5,30.8l-0.1,30.3l5.4,0.7c3,0.4 5.7,0.4 6,0c0.4,-0.4 0.7,-14.8 0.6,-32.1l-0.1,-31.4h10.5h10.5l-0.7,8.7c-0.3,4.9 -0.9,23.8 -1.3,42.1l-0.6,33.2l-2.4,0.5c-1.2,0.3 -3.5,0.7 -5,1c-1.6,0.3 -3.6,0.8 -4.6,1.1c-1.3,0.4 -2,-0.3 -2.8,-2.6c-0.6,-1.7 -1.4,-2.9 -1.8,-2.8c-0.3,0.2 -2.7,1.4 -5.3,2.8l-4.8,2.4l-6.2,-3c-3.4,-1.6 -8.3,-4.6 -10.9,-6.6l-4.7,-3.7l-0.6,-32.8c-0.3,-18 -0.8,-34.5 -1.2,-36.6zM8,-915c-0.6,-1 -1,8.6 -1,28c0,26.1 0.2,29.9 1.8,33c3.5,7.1 14.9,9.2 25,4.5l5.2,-2.4v2.9c0,1.7 0.5,3 1,3c0.6,0 1,-12 1,-34c0,-22 -0.4,-34 -1,-34c-0.6,0 -1,10.5 -1,29.4v29.5l-2.7,1.9c-8.9,6.2 -22.5,5.2 -26,-1.8c-0.9,-1.8 -1.3,-10.2 -1.3,-30.5c0,-16.3 -0.4,-28.6 -1,-29.5z"/><path d="M77.3,-921.9c13.6,-0.1 15.2,0.4 21.6,7.4c10.6,11.5 11.9,26.8 3.1,36.8l-3.8,4.2l4.3,14c2.3,7.7 4.7,15.2 5.3,16.7c1.1,2.6 1.1,2.7 -6.4,5.2c-6.9,2.3 -7.6,2.4 -8.1,0.8c-1.8,-5.3 -9.6,-23.8 -10.2,-24.5c-0.4,-0.4 -1.5,-0.5 -2.4,-0.1c-1.5,0.5 -1.7,2.3 -1.7,11.9v11.3l-7.7,0.4c-4.3,0.3 -8.1,0.2 -8.5,-0.1c-0.4,-0.3 -0.8,-19.2 -1,-41.8c-0.3,-40.5 -0.3,-41.2 1.7,-41.6c1.1,-0.2 7.3,-0.5 13.8,-0.6zM79.9,-914.5c-10.9,-0.7 -9.9,-4.1 -9.9,34.1c0,20.8 0.4,33.4 1,33.4c0.5,0 1.1,-4.3 1.2,-9.6l0.3,-9.6l5.5,-1.8c3,-1 6.3,-2.1 7.2,-2.5c1.5,-0.6 2.3,0.5 4.6,5.6c1.6,3.5 3.9,9.4 5.2,13.1c2.2,6.3 4,8.7 4,5.4c0,-1.6 -3.7,-11.7 -7.4,-20l-2.6,-5.8l4,-4c10.1,-10.1 8.7,-28.8 -2.6,-35.4c-2.9,-1.7 -6.2,-2.6 -10.5,-2.9z"/><path d="M88.9,-909.9c5.2,2.9 8.1,7.7 8.8,14.3c0.8,7.7 -1.5,13.3 -7.6,18.8c-4.2,3.8 -12.9,7.8 -16.9,7.8c-1.8,0 -1.7,-42.6 0.1,-43.4c2.3,-1.1 12,0.5 15.6,2.5zM79.7,-904.3c-1,0.9 -0.9,26.3 0.1,26.3c1.1,0 7.7,-7.1 9.1,-9.7c1.4,-2.7 1.4,-8.8 0.1,-11.3c-0.5,-1 -2.5,-2.8 -4.4,-3.9c-3.7,-2.3 -4,-2.4 -4.9,-1.4z"/><path d="M141.5,-922h21l-0.5,8.7l-0.5,8.8l-12.7,-0.4l-12.8,-0.3v8.7v8.6l11.3,-0.2c7.8,-0.1 11.2,0.2 11.1,1c-0.1,0.6 -0.2,4.7 -0.2,9.1l-0.2,8h-10.9c-12.4,0 -12.1,-0.3 -12.1,9.9v5.4l13,-0.5l13,-0.6v7.8c0,4.3 0.3,8.5 0.6,9.4c0.5,1.4 -1.8,1.6 -21.7,1.6h-22.4l0.4,-41.7c0.2,-29.9 0.6,-42 1.5,-42.5c0.6,-0.4 10.6,-0.8 22.1,-0.8zM140.3,-914h-14.8v34.5c0,28.3 0.2,34.4 1.3,34c0.8,-0.3 7.6,-0.5 15.3,-0.5c8.6,0 13.9,-0.4 13.9,-1c0,-0.6 -5.3,-1 -14,-1h-14.1l0.3,-15.3l0.3,-15.2l11.8,0.2c9.7,0.2 11.7,0 11.7,-1.2c0,-1.2 -2.1,-1.5 -12,-1.5h-12v-13.9c0,-7.7 -0.3,-14.6 -0.6,-15.5c-0.5,-1.4 1,-1.6 13.5,-1.6c8.7,0 14.1,-0.4 14.1,-1c0,-0.6 -5.6,-1 -14.7,-1z"/><path d="M322.8,-922.1l9.8,0.7c5.5,0.3 10.1,0.9 10.4,1.1c0.3,0.3 0.5,14.1 0.5,30.8l-0.1,30.3l5.4,0.7c3,0.4 5.7,0.4 6,0c0.4,-0.4 0.7,-14.8 0.6,-32.1l-0.1,-31.4h10.5h10.5l-0.7,8.7c-0.3,4.9 -0.9,23.8 -1.3,42.1l-0.6,33.2l-2.4,0.5c-1.2,0.3 -3.5,0.7 -5,1c-1.6,0.3 -3.6,0.8 -4.6,1.1c-1.3,0.4 -2,-0.3 -2.8,-2.6c-0.6,-1.7 -1.4,-2.9 -1.8,-2.8c-0.3,0.2 -2.7,1.4 -5.3,2.8l-4.8,2.4l-6.2,-3c-3.4,-1.6 -8.3,-4.6 -10.9,-6.6l-4.7,-3.7l-0.6,-32.8c-0.3,-18 -0.8,-34.5 -1.2,-36.6zM334,-915c-0.6,-1 -1,8.6 -1,28c0,26.1 0.2,29.9 1.8,33c3.5,7.1 14.9,9.2 25,4.5l5.2,-2.4v2.9c0,1.7 0.5,3 1,3c0.6,0 1,-12 1,-34c0,-22 -0.4,-34 -1,-34c-0.6,0 -1,10.5 -1,29.4v29.5l-2.7,1.9c-8.9,6.2 -22.5,5.2 -26,-1.8c-0.9,-1.8 -1.3,-10.2 -1.3,-30.5c0,-16.3 -0.4,-28.6 -1,-29.5z"/><path d="M954.96697,197.41291h9.5h9.6l-0.3,9.7l-0.3,9.8l-9.2,0.3l-9.3,0.3v-10.1zM964.96697,203.41291c-0.5,0 -1,1.6 -1,3.5c0,1.9 0.5,3.5 1,3.5c0.6,0 1,-1.6 1,-3.5c0,-1.9 -0.4,-3.5 -1,-3.5z"/><g><path d="M960.96697,129.41291c0.4,0 3.4,1.9 6.7,4.3c10.6,7.8 14.9,14.8 14,22.5c-0.4,3.7 -1.4,5.3 -6.1,10.1c-4.7,4.8 -5.6,6.2 -5.6,9.2c0,2.1 0.8,4.7 2,6.2c1.1,1.4 2,2.8 2,3.1c0,0.3 -4.1,0.6 -9.2,0.6c-8,0 -9.5,-0.3 -11.5,-2.2c-3.7,-3.5 -3.1,-7.6 2.5,-14.9c3.8,-5.2 4.7,-7.1 4.7,-10.5c0,-5.1 -1.2,-6.6 -9.8,-12.1c-3.7,-2.4 -6.5,-4.8 -6.2,-5.3c0.3,-0.5 4,-3.2 8.1,-5.9c4.2,-2.8 7.9,-5.1 8.4,-5.1zM959.56697,139.31291c-0.4,0.5 1,1.9 3,3.2c4.7,2.9 7.4,7.4 7.4,12.5c0,3.5 -0.7,4.9 -5,9.8c-6.6,7.5 -8.1,13.6 -3.5,14.5c1.7,0.3 1.8,0.1 0.6,-1.2c-2,-2.5 -0.5,-6.9 4.5,-12.7c2.4,-2.8 4.7,-6.3 5,-7.6c1,-3.7 -0.4,-9 -3.2,-12.4c-3.4,-4 -8.1,-7.3 -8.8,-6.1z"/><path d="M117.96697,147.91291c2.7,8.7 3.8,31.2 2.1,42.2c-2.9,19 -9.9,27.1 -24.2,28.1c-19.2,1.4 -27.6,-9.5 -28.6,-37.3c-0.9,-22.1 2.4,-35.5 10.7,-43.6c2.9,-2.8 6.2,-5 8.6,-5.7c15.4,-4 26.9,1.9 31.4,16.3zM86.26697,141.41291c-7.3,4.4 -11.3,15.8 -11.2,32c0,23.5 6.5,36 18.7,36c14,0 19.8,-11.5 19,-37.4c-0.6,-19.1 -3.8,-27 -12.5,-31.5c-3.4,-1.7 -10.4,-1.3 -14,0.9z"/><path d="M101.26697,143.91291c6.4,4.2 10.4,19 9.4,35.5c-0.7,11.9 -2.9,19.1 -7.2,23.8c-3.2,3.5 -3.7,3.7 -9.5,3.7c-5.8,0 -6.3,-0.2 -9.5,-3.7c-4.5,-4.9 -6.6,-12.1 -7.2,-25.3c-0.8,-17.7 2.5,-29.5 9.7,-34.3c4.1,-2.8 9.9,-2.6 14.3,0.3zM91.76697,150.41291c-3.7,2.2 -5.3,9.7 -5.3,25c0.1,15.2 1.1,20.4 4.5,23.5c1.7,1.5 2.4,1.6 4.6,0.7c4.6,-2.1 5.8,-7.1 5.9,-23.7c0,-16.1 -1.6,-23.4 -5.5,-25.5c-2.2,-1.2 -2.1,-1.2 -4.2,0z"/><path d="M284.06697,130.41291c0.5,0 4.7,3 9.4,6.7l8.6,6.8l-2.8,1.9c-7.5,5.4 -12.3,13.6 -10.6,18.2c0.3,1.1 3.5,5.9 7,10.8c5.7,7.9 6.3,9.3 6.3,13.7c0,9.8 -6.9,22.1 -16.9,29.6l-4.3,3.3l-3.1,-2.2c-1.8,-1.2 -5.6,-4.2 -8.6,-6.7l-5.3,-4.5l2.8,-2c10.2,-7.4 15.1,-14.8 13.9,-20.9c-0.4,-1.8 -2.7,-6.4 -5.1,-10.4c-6.4,-10.2 -7.7,-13.8 -6.9,-18.7c1,-6 5.8,-15.5 10.5,-20.9c2.3,-2.6 4.6,-4.7 5.1,-4.7zM286.16697,143.41291c-1.5,0 -4.1,3.4 -6.3,8.4c-3.2,7.4 -2.4,12.5 4.2,23.8c4.8,8.3 5.3,9.9 5.3,14.8c-0.1,6.6 -1.9,10.4 -7.3,15.3c-2.3,2.1 -3.6,3.9 -3,4.3c1.9,1.1 10.4,-8.8 11.8,-13.9c2,-7 0.9,-11.5 -5,-21.4c-5,-8.1 -5.4,-9.3 -5.4,-15c0,-5.3 0.4,-6.8 3.3,-10.7c1.7,-2.6 3.2,-4.9 3.2,-5.1c0,-0.3 -0.4,-0.5 -0.8,-0.5z"/><path d="M562.96697,147.91291c2.7,8.7 3.8,31.2 2.1,42.2c-2.9,19 -9.9,27.1 -24.2,28.1c-19.2,1.4 -27.6,-9.5 -28.6,-37.3c-0.9,-22.1 2.4,-35.5 10.7,-43.6c2.9,-2.8 6.2,-5 8.6,-5.7c15.4,-4 26.9,1.9 31.4,16.3zM531.26697,141.41291c-7.3,4.4 -11.3,15.8 -11.2,32c0,23.5 6.5,36 18.7,36c14,0 19.8,-11.5 19,-37.4c-0.6,-19.1 -3.8,-27 -12.5,-31.5c-3.4,-1.7 -10.4,-1.3 -14,0.9z"/><path d="M546.26697,143.91291c6.4,4.2 10.4,19 9.4,35.5c-0.7,11.9 -2.9,19.1 -7.2,23.8c-3.2,3.5 -3.7,3.7 -9.5,3.7c-5.8,0 -6.3,-0.2 -9.5,-3.7c-4.5,-4.9 -6.6,-12.1 -7.2,-25.3c-0.8,-17.7 2.5,-29.5 9.7,-34.3c4.1,-2.8 9.9,-2.6 14.3,0.3zM536.76697,150.41291c-3.7,2.2 -5.3,9.7 -5.3,25c0.1,15.2 1.1,20.4 4.5,23.5c1.7,1.5 2.4,1.6 4.6,0.7c4.6,-2.1 5.8,-7.1 5.9,-23.7c0,-16.1 -1.6,-23.4 -5.5,-25.5c-2.2,-1.2 -2.1,-1.2 -4.2,0z"/><path d="M922.86697,130.61291c0.4,0.2 4.4,1.8 8.8,3.7l8.1,3.4l-4.4,9.6c-2.5,5.3 -6,12.2 -7.9,15.4c-1.9,3.2 -3.5,6.2 -3.5,6.6c0,1.7 8.3,20.1 13.5,29.8c3.1,5.8 5.5,10.7 5.3,10.9c-0.6,0.6 -15.2,6.5 -16.6,6.7c-0.8,0.1 -2.8,-3.8 -5.1,-9.8c-2.1,-5.5 -4.9,-12.6 -6.3,-15.8c-2.4,-5.6 -2.6,-5.8 -4.3,-4.1c-1.6,1.6 -1.7,3.1 -1,15.6l0.7,13.8h-9.5h-9.6l-0.1,-39.8c-0.1,-21.8 -0.2,-40.8 -0.3,-42.1c-0.2,-2.4 -0.1,-2.4 9.7,-2.8l9.9,-0.4l-0.6,13.8c-0.6,12.7 -0.5,13.6 0.9,11.8c2.1,-2.6 7.6,-14.6 9.8,-21.3c1,-2.9 2.1,-5.2 2.5,-5zM901.06697,140.41291c-0.6,0 -1.1,0.3 -1.3,0.7c-0.8,2.1 0.4,66.3 1.2,66.3c0.6,0 1,-4.8 1,-11.6v-11.5l5.3,-6.5c4.7,-5.8 5.3,-6.2 6.5,-4.6c0.8,0.9 4.8,8.8 9,17.4c6.7,14 9.2,18 9.2,14.9c0,-0.5 -4,-8.9 -8.9,-18.7l-9,-17.9l3.8,-6c5.7,-8.9 10.3,-18.4 9.9,-20.3c-0.2,-1 -1.7,1 -3.6,5c-3.3,6.8 -15,24.9 -19.6,30.3l-2.5,3l-0.1,-20.3c0,-11.9 -0.4,-20.2 -0.9,-20.2z"/><path d="M58.46697,131.91291l0.3,4.7c0.2,2.7 0.2,7.2 0,10l-0.3,5.3l-8.2,-0.4l-8.3,-0.3v32.6v32.6h-5.7c-3.2,0 -7.5,0.3 -9.5,0.6l-3.8,0.7v-33.3v-33.3l-8.6,0.7l-8.7,0.7l0.7,-4.7c0.3,-2.6 0.6,-7.1 0.6,-10v-5.4l25.8,-0.2zM25.26697,141.71291c-8.3,-0.4 -11.3,-0.3 -11.3,0.5c0,0.8 2.9,1.2 9,1.2h9v32c0,20.7 0.4,32 1,32c0.6,0 1,-11.4 1,-32.1v-32.2l9.5,0.7c6.2,0.4 9.5,0.3 9.5,-0.4c0,-0.6 -3.3,-1 -8.2,-1c-4.6,0 -13.4,-0.3 -19.5,-0.7z"/><path d="M415.46697,131.91291l0.3,4.7c0.2,2.7 0.2,7.2 0,10l-0.3,5.3l-8.2,-0.4l-8.3,-0.3v32.6v32.6h-5.7c-3.2,0 -7.5,0.3 -9.5,0.6l-3.8,0.7v-33.3v-33.3l-8.6,0.7l-8.7,0.7l0.7,-4.7c0.3,-2.6 0.6,-7.1 0.6,-10v-5.4l25.8,-0.2zM382.26697,141.71291c-8.3,-0.4 -11.3,-0.3 -11.3,0.5c0,0.8 2.9,1.2 9,1.2h9v32c0,20.7 0.4,32 1,32c0.6,0 1,-11.4 1,-32.1v-32.2l9.5,0.7c6.2,0.4 9.5,0.3 9.5,-0.4c0,-0.6 -3.3,-1 -8.2,-1c-4.6,0 -13.4,-0.3 -19.5,-0.7z"/><path d="M466.46697,134.11291c0.3,1.6 2.5,8.9 4.9,16.3l4.2,13.5l2.6,-5c3,-6 7.4,-17.4 8.8,-23.2l1,-4.1l8.8,3.1c4.8,1.7 8.9,3.2 9.2,3.4c0.2,0.3 -0.4,1.9 -1.4,3.6c-1,1.8 -6.2,11.7 -11.5,22.2l-9.6,19l0.3,13.5c0.2,7.4 0.5,15.1 0.5,17l0.2,3.5l-9.2,0.3l-9.2,0.3l0.6,-16.3l0.5,-16.3l-4,-11c-2.2,-6.1 -6.7,-17 -10.1,-24.4c-4.3,-9.5 -5.8,-13.7 -5,-14.2c0.7,-0.4 3.7,-1 6.7,-1.4c3,-0.4 6.5,-1.1 7.6,-1.5c3.2,-1.3 3.5,-1.2 4.1,1.7zM459.06697,140.61291c-1.8,-0.6 -1.2,0.9 7.2,21.3l7.1,17l0.3,15.2c0.5,20.1 2.3,20.2 2.3,0.2v-15.1l3.4,-5.7c6.8,-11.4 15.8,-30.3 14.8,-31.3c-0.6,-0.6 -2,1.4 -4.1,5.7c-1.7,3.7 -3.1,7 -3.1,7.2c0,1.2 -11.5,21.3 -12.1,21.3c-0.8,0 -5.6,-11.2 -10.9,-25.4c-2,-5.5 -4.2,-10.2 -4.9,-10.4z"/><path d="M789.06697,131.81291c1.8,0.3 7.8,0.6 13.4,0.6h10.3l0.6,5.7c1.4,11.9 7.8,50.3 10.6,64.2c1.7,7.9 2.9,14.6 2.7,14.7c-0.1,0.2 -4.7,0.4 -10.2,0.6l-10,0.3l-0.3,-6c-0.4,-10.8 -0.2,-10.5 -8.6,-10.5h-7.3l-0.7,4.6c-0.3,2.6 -0.6,5.9 -0.6,7.4c0,2.7 0,2.7 -8.7,3.3c-4.9,0.3 -8.9,0.4 -9.1,0.2c-0.2,-0.1 1.3,-8.3 3.2,-18.1c4,-20.3 6.7,-36.6 9.1,-53.4c0.9,-6.3 1.8,-12.1 2.1,-12.9c0.3,-0.9 1.4,-1.2 3.5,-0.7zM805.86697,141.41291h-6.9c-6.4,0 -7,0.2 -7.5,2.2c-0.2,1.3 -2.1,11.5 -4,22.8c-2,11.3 -4.7,25.7 -6.1,32c-2.7,13.1 -2.7,13 -1.5,13c0.5,0 1.8,-3.7 2.8,-8.3l1.9,-8.2l12.9,-0.7c7.2,-0.3 13.3,-0.3 13.6,0c0.3,0.4 1.2,4.2 1.9,8.4c0.9,5.5 1.7,7.8 2.7,7.8c0.8,0 1.2,-0.4 0.9,-0.8c-0.8,-1.3 -4.3,-22.6 -7.1,-43.2c-1.4,-10.2 -2.8,-20 -3.1,-21.8z"/><path d="M798.96697,143.41291c2.8,0 5,0.1 5,0.2c0,0.2 1.6,10.9 3.4,23.8c1.9,12.9 3.3,23.7 3.1,23.8c-0.8,0.8 -24.3,1.3 -24.7,0.5c-0.4,-0.6 5.6,-35.9 7.8,-46.1c0.4,-1.9 1.1,-2.2 5.4,-2.2zM797.66697,157.91291c-0.7,2.4 -4.7,24.2 -4.7,26.2c0,0.9 1.5,1.3 5.1,1.3h5.1l-0.7,-5.8c-1.3,-11 -4.1,-23.8 -4.8,-21.7z"/><path d="M174.26697,132.51291c13.6,-0.1 15.2,0.4 21.6,7.4c10.6,11.5 11.9,26.8 3.1,36.8l-3.8,4.2l4.3,14c2.3,7.7 4.7,15.2 5.3,16.7c1.1,2.6 1.1,2.7 -6.4,5.2c-6.9,2.3 -7.6,2.4 -8.1,0.8c-1.8,-5.3 -9.6,-23.8 -10.2,-24.5c-0.4,-0.4 -1.5,-0.5 -2.4,-0.1c-1.5,0.5 -1.7,2.3 -1.7,11.9v11.3l-7.7,0.4c-4.3,0.3 -8.1,0.2 -8.5,-0.1c-0.4,-0.3 -0.8,-19.2 -1,-41.8c-0.3,-40.5 -0.3,-41.2 1.7,-41.6c1.1,-0.2 7.3,-0.5 13.8,-0.6zM176.86697,139.91291c-10.9,-0.7 -9.9,-4.1 -9.9,34.1c0,20.8 0.4,33.4 1,33.4c0.5,0 1.1,-4.3 1.2,-9.6l0.3,-9.6l5.5,-1.8c3,-1 6.3,-2.1 7.2,-2.5c1.5,-0.6 2.3,0.5 4.6,5.6c1.6,3.5 3.9,9.4 5.2,13.1c2.2,6.3 4,8.7 4,5.4c0,-1.6 -3.7,-11.7 -7.4,-20l-2.6,-5.8l4,-4c10.1,-10.1 8.7,-28.8 -2.6,-35.4c-2.9,-1.7 -6.2,-2.6 -10.5,-2.9z"/><path d="M185.86697,144.51291c5.2,2.9 8.1,7.7 8.8,14.3c0.8,7.7 -1.5,13.3 -7.6,18.8c-4.2,3.8 -12.9,7.8 -16.9,7.8c-1.8,0 -1.7,-42.6 0.1,-43.4c2.3,-1.1 12,0.5 15.6,2.5zM176.66697,150.11291c-1,0.9 -0.9,26.3 0.1,26.3c1.1,0 7.7,-7.1 9.1,-9.7c1.4,-2.7 1.4,-8.8 0.1,-11.3c-0.5,-1 -2.5,-2.8 -4.4,-3.9c-3.7,-2.3 -4,-2.4 -4.9,-1.4z"/><path d="M237.46697,132.41291h21l-0.5,8.7l-0.5,8.8l-12.7,-0.4l-12.8,-0.3v8.7v8.6l11.3,-0.2c7.8,-0.1 11.2,0.2 11.1,1c-0.1,0.6 -0.2,4.7 -0.2,9.1l-0.2,8h-10.9c-12.4,0 -12.1,-0.3 -12.1,9.9v5.4l13,-0.5l13,-0.6v7.8c0,4.3 0.3,8.5 0.6,9.4c0.5,1.4 -1.8,1.6 -21.7,1.6h-22.4l0.4,-41.7c0.2,-29.9 0.6,-42 1.5,-42.5c0.6,-0.4 10.6,-0.8 22.1,-0.8zM236.26697,140.41291h-14.8v34.5c0,28.3 0.2,34.4 1.3,34c0.8,-0.3 7.6,-0.5 15.3,-0.5c8.6,0 13.9,-0.4 13.9,-1c0,-0.6 -5.3,-1 -14,-1h-14.1l0.3,-15.3l0.3,-15.2l11.8,0.2c9.7,0.2 11.7,0 11.7,-1.2c0,-1.2 -2.1,-1.5 -12,-1.5h-12v-13.9c0,-7.7 -0.3,-14.6 -0.6,-15.5c-0.5,-1.4 1,-1.6 13.5,-1.6c8.7,0 14.1,-0.4 14.1,-1c0,-0.6 -5.6,-1 -14.7,-1z"/><path d="M336.46697,132.41291h21l-0.5,8.7l-0.5,8.8l-12.7,-0.4l-12.8,-0.3v8.7v8.6l11.3,-0.2c7.8,-0.1 11.2,0.2 11.1,1c-0.1,0.6 -0.2,4.7 -0.2,9.1l-0.2,8h-10.9c-12.4,0 -12.1,-0.3 -12.1,9.9v5.4l13,-0.5l13,-0.6v7.8c0,4.3 0.3,8.5 0.6,9.4c0.5,1.4 -1.8,1.6 -21.7,1.6h-22.4l0.4,-41.7c0.2,-29.9 0.6,-42 1.5,-42.5c0.6,-0.4 10.6,-0.8 22.1,-0.8zM335.26697,140.41291h-14.8v34.5c0,28.3 0.2,34.4 1.3,34c0.8,-0.3 7.6,-0.5 15.3,-0.5c8.6,0 13.9,-0.4 13.9,-1c0,-0.6 -5.3,-1 -14,-1h-14.1l0.3,-15.3l0.3,-15.2l11.8,0.2c9.7,0.2 11.7,0 11.7,-1.2c0,-1.2 -2.1,-1.5 -12,-1.5h-12v-13.9c0,-7.7 -0.3,-14.6 -0.6,-15.5c-0.5,-1.4 1,-1.6 13.5,-1.6c8.7,0 14.1,-0.4 14.1,-1c0,-0.6 -5.6,-1 -14.7,-1z"/><path d="M575.76697,132.31291l9.8,0.7c5.5,0.3 10.1,0.9 10.4,1.1c0.3,0.3 0.5,14.1 0.5,30.8l-0.1,30.3l5.4,0.7c3,0.4 5.7,0.4 6,0c0.4,-0.4 0.7,-14.8 0.6,-32.1l-0.1,-31.4h10.5h10.5l-0.7,8.7c-0.3,4.9 -0.9,23.8 -1.3,42.1l-0.6,33.2l-2.4,0.5c-1.2,0.3 -3.5,0.7 -5,1c-1.6,0.3 -3.6,0.8 -4.6,1.1c-1.3,0.4 -2,-0.3 -2.8,-2.6c-0.6,-1.7 -1.4,-2.9 -1.8,-2.8c-0.3,0.2 -2.7,1.4 -5.3,2.8l-4.8,2.4l-6.2,-3c-3.4,-1.6 -8.3,-4.6 -10.9,-6.6l-4.7,-3.7l-0.6,-32.8c-0.3,-18 -0.8,-34.5 -1.2,-36.6zM586.96697,139.41291c-0.6,-1 -1,8.6 -1,28c0,26.1 0.2,29.9 1.8,33c3.5,7.1 14.9,9.2 25,4.5l5.2,-2.4v2.9c0,1.7 0.5,3 1,3c0.6,0 1,-12 1,-34c0,-22 -0.4,-34 -1,-34c-0.6,0 -1,10.5 -1,29.4v29.5l-2.7,1.9c-8.9,6.2 -22.5,5.2 -26,-1.8c-0.9,-1.8 -1.3,-10.2 -1.3,-30.5c0,-16.3 -0.4,-28.6 -1,-29.5z"/><path d="M656.26697,132.51291c13.6,-0.1 15.2,0.4 21.6,7.4c10.6,11.5 11.9,26.8 3.1,36.8l-3.8,4.2l4.3,14c2.3,7.7 4.7,15.2 5.3,16.7c1.1,2.6 1.1,2.7 -6.4,5.2c-6.9,2.3 -7.6,2.4 -8.1,0.8c-1.8,-5.3 -9.6,-23.8 -10.2,-24.5c-0.4,-0.4 -1.5,-0.5 -2.4,-0.1c-1.5,0.5 -1.7,2.3 -1.7,11.9v11.3l-7.7,0.4c-4.3,0.3 -8.1,0.2 -8.5,-0.1c-0.4,-0.3 -0.8,-19.2 -1,-41.8c-0.3,-40.5 -0.3,-41.2 1.7,-41.6c1.1,-0.2 7.3,-0.5 13.8,-0.6zM658.86697,139.91291c-10.9,-0.7 -9.9,-4.1 -9.9,34.1c0,20.8 0.4,33.4 1,33.4c0.5,0 1.1,-4.3 1.2,-9.6l0.3,-9.6l5.5,-1.8c3,-1 6.3,-2.1 7.2,-2.5c1.5,-0.6 2.3,0.5 4.6,5.6c1.6,3.5 3.9,9.4 5.2,13.1c2.2,6.3 4,8.7 4,5.4c0,-1.6 -3.7,-11.7 -7.4,-20l-2.6,-5.8l4,-4c10.1,-10.1 8.7,-28.8 -2.6,-35.4c-2.9,-1.7 -6.2,-2.6 -10.5,-2.9z"/><path d="M667.86697,144.51291c5.2,2.9 8.1,7.7 8.8,14.3c0.8,7.7 -1.5,13.3 -7.6,18.8c-4.2,3.8 -12.9,7.8 -16.9,7.8c-1.8,0 -1.7,-42.6 0.1,-43.4c2.3,-1.1 12,0.5 15.6,2.5zM658.66697,150.11291c-1,0.9 -0.9,26.3 0.1,26.3c1.1,0 7.7,-7.1 9.1,-9.7c1.4,-2.7 1.4,-8.8 0.1,-11.3c-0.5,-1 -2.5,-2.8 -4.4,-3.9c-3.7,-2.3 -4,-2.4 -4.9,-1.4z"/><path d="M851.26697,132.51291c13.6,-0.1 15.2,0.4 21.6,7.4c10.6,11.5 11.9,26.8 3.1,36.8l-3.8,4.2l4.3,14c2.3,7.7 4.7,15.2 5.3,16.7c1.1,2.6 1.1,2.7 -6.4,5.2c-6.9,2.3 -7.6,2.4 -8.1,0.8c-1.8,-5.3 -9.6,-23.8 -10.2,-24.5c-0.4,-0.4 -1.5,-0.5 -2.4,-0.1c-1.5,0.5 -1.7,2.3 -1.7,11.9v11.3l-7.7,0.4c-4.3,0.3 -8.1,0.2 -8.5,-0.1c-0.4,-0.3 -0.8,-19.2 -1,-41.8c-0.3,-40.5 -0.3,-41.2 1.7,-41.6c1.1,-0.2 7.3,-0.5 13.8,-0.6zM853.86697,139.91291c-10.9,-0.7 -9.9,-4.1 -9.9,34.1c0,20.8 0.4,33.4 1,33.4c0.5,0 1.1,-4.3 1.2,-9.6l0.3,-9.6l5.5,-1.8c3,-1 6.3,-2.1 7.2,-2.5c1.5,-0.6 2.3,0.5 4.6,5.6c1.6,3.5 3.9,9.4 5.2,13.1c2.2,6.3 4,8.7 4,5.4c0,-1.6 -3.7,-11.7 -7.4,-20l-2.6,-5.8l4,-4c10.1,-10.1 8.7,-28.8 -2.6,-35.4c-2.9,-1.7 -6.2,-2.6 -10.5,-2.9z"/><path d="M862.86697,144.51291c5.2,2.9 8.1,7.7 8.8,14.3c0.8,7.7 -1.5,13.3 -7.6,18.8c-4.2,3.8 -12.9,7.8 -16.9,7.8c-1.8,0 -1.7,-42.6 0.1,-43.4c2.3,-1.1 12,0.5 15.6,2.5zM853.66697,150.11291c-1,0.9 -0.9,26.3 0.1,26.3c1.1,0 7.7,-7.1 9.1,-9.7c1.4,-2.7 1.4,-8.8 0.1,-11.3c-0.5,-1 -2.5,-2.8 -4.4,-3.9c-3.7,-2.3 -4,-2.4 -4.9,-1.4z"/><path d="M721.96697,133.41291h12c10.1,0 12.7,0.3 16,2c15.1,7.7 19.8,23.1 13.4,43.2c-1.9,6 -7.9,11.4 -16.9,15.4l-6.7,2.9l0.7,9.7l0.6,9.7l-8.8,0.3c-4.8,0.2 -9.1,0.2 -9.5,0c-0.5,-0.2 -0.8,-19 -0.8,-41.8zM737.86697,140.71291l-6.9,-0.6v33.7c0,20.8 0.4,33.6 1,33.6c0.5,0 1,-3.7 1.2,-8.2l0.3,-8.2l3.8,-0.8c14,-2.9 22.9,-15.5 21.2,-30.1c-0.3,-3.4 -1.2,-7.2 -2,-8.6c-1.5,-3 -6,-7.3 -9.3,-9c-1.3,-0.7 -5.4,-1.5 -9.3,-1.8z"/><path d="M732.96697,142.41291h3.3c11.9,0 20.7,8.8 20.7,20.8c0,10.3 -6.9,20.6 -15.7,23.6c-8.9,3.1 -8.3,4.6 -8.3,-21.4zM740.76697,148.41291c-0.4,0 -0.8,7.5 -0.8,16.7v16.6l2.6,-2.4c3.7,-3.4 6.4,-9.6 6.4,-15.1c0,-5.8 -1.3,-9.5 -4.8,-13.1c-1.4,-1.5 -2.9,-2.7 -3.4,-2.7z"/></g></g></g></svg>