<svg version="1.1" xmlns="http://www.w3.org/2000/svg" xmlns:xlink="http://www.w3.org/1999/xlink" width="1536" height="1152" viewBox="0,0,1536,1152"><defs><clipPath id="clip-1"><rect x="-512" y="-384" transform="scale(0.5,0.5)" width="3072" height="2304" fill="none" fill-rule="nonzero" stroke-width="0.5" stroke-linecap="butt"/></clipPath></defs><g transform="translate(256,192)"><g clip-path="url(#clip-1)" data-paper-data="{&quot;isPaintingLayer&quot;:true}" stroke="none" stroke-linejoin="miter" stroke-miterlimit="10" stroke-dasharray="" stroke-dashoffset="0" style="mix-blend-mode: normal"><path d="M32,24h960v720h-960z" fill-opacity="0" fill="#000000" fill-rule="evenodd" stroke-width="1" stroke-linecap="square"/><path d="M287.80492,219.51907h6.95311l5.32813,32.65625h-5.14062l-0.9375,-6.48437v0.09375h-5.82812l-0.93748,6.39063h-4.75l5.3125,-32.65625zM293.41428,241.3472l-2.29687,-16.14062h-0.09375l-2.23437,16.14063zM302.54526,219.51907h7.60938c2.64583,0 4.57292,0.61458 5.78125,1.84375c1.21875,1.22917 1.82813,3.11979 1.82813,5.67188v2c0,3.38542 -1.11979,5.53125 -3.35937,6.4375v0.09375c1.23958,0.375 2.11458,1.14063 2.625,2.29688c0.52083,1.14583 0.78125,2.68229 0.78125,4.60938v5.73438c0,0.9375 0.03125,1.69271 0.09375,2.26563c0.0625,0.57292 0.21875,1.14063 0.46875,1.70313h-5.23437c-0.1875,-0.53125 -0.3125,-1.02604 -0.375,-1.48437c-0.0625,-0.46875 -0.09375,-1.3125 -0.09375,-2.53125v-5.96875c0,-1.48958 -0.23958,-2.53125 -0.71875,-3.125c-0.47917,-0.59375 -1.3125,-0.89062 -2.5,-0.89062h-1.76562v14h-5.14062zM309.54526,233.51907c1.03125,0 1.80208,-0.26562 2.3125,-0.79687c0.51042,-0.53125 0.76563,-1.41667 0.76563,-2.65625v-2.53125c0,-1.17708 -0.20833,-2.03125 -0.625,-2.5625c-0.41667,-0.53125 -1.07812,-0.79687 -1.98437,-0.79687h-2.32812v9.34375zM321.34769,219.51907h14v4.65625h-8.85937v8.64063h7.04688v4.65625h-7.04687v10.03125h8.85938v4.67188h-14zM350.46759,238.26907l-6.20312,-18.75h5.45313l3.5,11.98438h0.09375l3.5,-11.98437h5l-6.21875,18.75v13.90625h-5.125zM370.71323,252.64407c-2.52083,0 -4.44792,-0.71354 -5.78125,-2.14062c-1.33333,-1.4375 -2,-3.46354 -2,-6.07812v-17.17187c0,-2.60417 0.66667,-4.61979 2,-6.04687c1.33333,-1.4375 3.26042,-2.15625 5.78125,-2.15625c2.52083,0 4.44792,0.71875 5.78125,2.15625c1.34375,1.42708 2.01563,3.44271 2.01563,6.04688v17.17188c0,2.61458 -0.67187,4.64063 -2.01562,6.07813c-1.33333,1.42708 -3.26042,2.14063 -5.78125,2.14063zM370.71323,247.9722c1.77083,0 2.65625,-1.07292 2.65625,-3.21875v-17.8125c0,-2.14583 -0.88542,-3.21875 -2.65625,-3.21875c-1.77083,0 -2.65625,1.07292 -2.65625,3.21875v17.8125c0,2.14583 0.88542,3.21875 2.65625,3.21875zM389.42258,252.64407c-2.48958,0 -4.39062,-0.70833 -5.70312,-2.125c-1.30208,-1.41667 -1.95312,-3.44792 -1.95312,-6.09375v-24.90625h5.14063v25.28125c0,1.125 0.22396,1.9375 0.67188,2.4375c0.45833,0.48958 1.10417,0.73438 1.9375,0.73438c0.84375,0 1.48958,-0.24479 1.9375,-0.73437c0.44792,-0.5 0.67188,-1.3125 0.67188,-2.4375v-25.28125h4.95313v24.90625c0,2.64583 -0.65625,4.67708 -1.96875,6.09375c-1.30208,1.41667 -3.19792,2.125 -5.6875,2.125zM414.84644,252.64407c-2.47917,0 -4.35937,-0.70833 -5.64062,-2.125c-1.27083,-1.41667 -1.90625,-3.44792 -1.90625,-6.09375v-1.85937h4.84375v2.23438c0,2.11458 0.88542,3.17188 2.65625,3.17188c0.875,0 1.53646,-0.25521 1.98438,-0.76562c0.45833,-0.51042 0.6875,-1.34375 0.6875,-2.5c0,-1.36458 -0.3125,-2.56771 -0.9375,-3.60937c-0.625,-1.04167 -1.77604,-2.29687 -3.45312,-3.76562c-2.11458,-1.86458 -3.59375,-3.54687 -4.4375,-5.04687c-0.83333,-1.51042 -1.25,-3.21354 -1.25,-5.10937c0,-2.58333 0.65104,-4.58333 1.95313,-6c1.30208,-1.41667 3.19792,-2.125 5.6875,-2.125c2.45833,0 4.31771,0.70833 5.57813,2.125c1.26042,1.41667 1.89063,3.44271 1.89063,6.07813v1.35938h-4.84375v-1.67187c0,-1.125 -0.21875,-1.94271 -0.65625,-2.45312c-0.4375,-0.51042 -1.07812,-0.76562 -1.92187,-0.76562c-1.70833,0 -2.5625,1.04167 -2.5625,3.125c0,1.17708 0.31771,2.28125 0.95313,3.3125c0.64583,1.02083 1.80729,2.26042 3.48438,3.71875c2.14583,1.875 3.61979,3.57292 4.42188,5.09375c0.8125,1.52083 1.21875,3.30729 1.21875,5.35938c0,2.67708 -0.66146,4.73438 -1.98437,6.17188c-1.32292,1.42708 -3.24479,2.14063 -5.76562,2.14063zM432.99939,252.64407c-2.48958,0 -4.39062,-0.70833 -5.70312,-2.125c-1.30208,-1.41667 -1.95312,-3.44792 -1.95312,-6.09375v-24.90625h5.14063v25.28125c0,1.125 0.22396,1.9375 0.67188,2.4375c0.45833,0.48958 1.10417,0.73438 1.9375,0.73438c0.84375,0 1.48958,-0.24479 1.9375,-0.73437c0.44792,-0.5 0.67188,-1.3125 0.67188,-2.4375v-25.28125h4.95313v24.90625c0,2.64583 -0.65625,4.67708 -1.96875,6.09375c-1.30208,1.41667 -3.19792,2.125 -5.6875,2.125zM444.28641,219.51907h7.60938c2.64583,0 4.57292,0.61458 5.78125,1.84375c1.21875,1.22917 1.82813,3.11979 1.82813,5.67188v2c0,3.38542 -1.11979,5.53125 -3.35937,6.4375v0.09375c1.23958,0.375 2.11458,1.14063 2.625,2.29688c0.52083,1.14583 0.78125,2.68229 0.78125,4.60938v5.73438c0,0.9375 0.03125,1.69271 0.09375,2.26563c0.0625,0.57292 0.21875,1.14063 0.46875,1.70313h-5.23437c-0.1875,-0.53125 -0.3125,-1.02604 -0.375,-1.48437c-0.0625,-0.46875 -0.09375,-1.3125 -0.09375,-2.53125v-5.96875c0,-1.48958 -0.23958,-2.53125 -0.71875,-3.125c-0.47917,-0.59375 -1.3125,-0.89062 -2.5,-0.89062h-1.76562v14h-5.14062zM451.28641,233.51907c1.03125,0 1.80208,-0.26562 2.3125,-0.79687c0.51042,-0.53125 0.76563,-1.41667 0.76563,-2.65625v-2.53125c0,-1.17708 -0.20833,-2.03125 -0.625,-2.5625c-0.41667,-0.53125 -1.07812,-0.79687 -1.98437,-0.79687h-2.32812v9.34375zM463.08884,219.51907h14v4.65625h-8.85937v8.64063h7.04688v4.65625h-7.04687v10.03125h8.85938v4.67188h-14zM492.20874,238.26907l-6.20312,-18.75h5.45313l3.5,11.98438h0.09375l3.5,-11.98437h5l-6.21875,18.75v13.90625h-5.125zM512.45438,252.64407c-2.52083,0 -4.44792,-0.71354 -5.78125,-2.14062c-1.33333,-1.4375 -2,-3.46354 -2,-6.07812v-17.17187c0,-2.60417 0.66667,-4.61979 2,-6.04687c1.33333,-1.4375 3.26042,-2.15625 5.78125,-2.15625c2.52083,0 4.44792,0.71875 5.78125,2.15625c1.34375,1.42708 2.01563,3.44271 2.01563,6.04688v17.17188c0,2.61458 -0.67187,4.64063 -2.01562,6.07813c-1.33333,1.42708 -3.26042,2.14063 -5.78125,2.14063zM512.45438,247.9722c1.77083,0 2.65625,-1.07292 2.65625,-3.21875v-17.8125c0,-2.14583 -0.88542,-3.21875 -2.65625,-3.21875c-1.77083,0 -2.65625,1.07292 -2.65625,3.21875v17.8125c0,2.14583 0.88542,3.21875 2.65625,3.21875zM531.16373,252.64407c-2.48958,0 -4.39062,-0.70833 -5.70312,-2.125c-1.30208,-1.41667 -1.95312,-3.44792 -1.95312,-6.09375v-24.90625h5.14063v25.28125c0,1.125 0.22396,1.9375 0.67188,2.4375c0.45833,0.48958 1.10417,0.73438 1.9375,0.73438c0.84375,0 1.48958,-0.24479 1.9375,-0.73437c0.44792,-0.5 0.67188,-1.3125 0.67188,-2.4375v-25.28125h4.95313v24.90625c0,2.64583 -0.65625,4.67708 -1.96875,6.09375c-1.30208,1.41667 -3.19792,2.125 -5.6875,2.125zM548.71259,219.51907h4.9375l2.29688,25.09375h0.09375l2.42188,-25.09375h5.59375l2.42188,25.09375h0.09375l2.29688,-25.09375h4.42188l-3.3125,32.65625h-6.39062l-2.32812,-22.01562h-0.09375l-2.32812,22.01563h-6.8125zM579.21857,219.51907h6.95313l5.32813,32.65625h-5.14062l-0.9375,-6.48437v0.09375h-5.82812l-0.9375,6.39063h-4.75zM584.82794,241.3472l-2.29687,-16.14062h-0.09375l-2.23437,16.14063zM593.95893,219.51907h6.4375l5,19.54688h0.09375v-19.54687h4.57813v32.65625h-5.28125l-6.15625,-23.84375h-0.09375v23.84375h-4.57812zM617.89673,224.17532h-5.35937v-4.65625h15.85938v4.65625h-5.35937v28h-5.14062zM642.34455,224.17532h-5.35937v-4.65625h15.85938v4.65625h-5.35937v28h-5.14062zM662.54694,252.64407c-2.52083,0 -4.44792,-0.71354 -5.78125,-2.14062c-1.33333,-1.4375 -2,-3.46354 -2,-6.07812v-17.17187c0,-2.60417 0.66667,-4.61979 2,-6.04687c1.33333,-1.4375 3.26042,-2.15625 5.78125,-2.15625c2.52083,0 4.44792,0.71875 5.78125,2.15625c1.34375,1.42708 2.01563,3.44271 2.01563,6.04688v17.17188c0,2.61458 -0.67187,4.64063 -2.01562,6.07813c-1.33333,1.42708 -3.26042,2.14063 -5.78125,2.14063zM662.54694,247.9722c1.77083,0 2.65625,-1.07292 2.65625,-3.21875v-17.8125c0,-2.14583 -0.88542,-3.21875 -2.65625,-3.21875c-1.77083,0 -2.65625,1.07292 -2.65625,3.21875v17.8125c0,2.14583 0.88542,3.21875 2.65625,3.21875zM681.2525,219.51907h7.60938c2.64583,0 4.57292,0.61458 5.78125,1.84375c1.21875,1.22917 1.82813,3.11979 1.82813,5.67188v2c0,3.38542 -1.11979,5.53125 -3.35937,6.4375v0.09375c1.23958,0.375 2.11458,1.14063 2.625,2.29688c0.52083,1.14583 0.78125,2.68229 0.78125,4.60938v5.73438c0,0.9375 0.03125,1.69271 0.09375,2.26563c0.0625,0.57292 0.21875,1.14063 0.46875,1.70313h-5.23437c-0.1875,-0.53125 -0.3125,-1.02604 -0.375,-1.48437c-0.0625,-0.46875 -0.09375,-1.3125 -0.09375,-2.53125v-5.96875c0,-1.48958 -0.23958,-2.53125 -0.71875,-3.125c-0.47917,-0.59375 -1.3125,-0.89062 -2.5,-0.89062h-1.76562v14h-5.14062zM688.2525,233.51907c1.03125,0 1.80208,-0.26562 2.3125,-0.79687c0.51042,-0.53125 0.76563,-1.41667 0.76563,-2.65625v-2.53125c0,-1.17708 -0.20833,-2.03125 -0.625,-2.5625c-0.41667,-0.53125 -1.07812,-0.79687 -1.98437,-0.79687h-2.32812v9.34375zM700.05493,219.51907h14v4.65625h-8.85937v8.64063h7.04688v4.65625h-7.04687v10.03125h8.85938v4.67188h-14zM723.75629,252.64407c-2.47917,0 -4.35937,-0.70833 -5.64062,-2.125c-1.27083,-1.41667 -1.90625,-3.44792 -1.90625,-6.09375v-1.85937h4.84375v2.23438c0,2.11458 0.88542,3.17188 2.65625,3.17188c0.875,0 1.53646,-0.25521 1.98438,-0.76562c0.45833,-0.51042 0.6875,-1.34375 0.6875,-2.5c0,-1.36458 -0.3125,-2.56771 -0.9375,-3.60937c-0.625,-1.04167 -1.77604,-2.29687 -3.45312,-3.76562c-2.11458,-1.86458 -3.59375,-3.54687 -4.4375,-5.04687c-0.83333,-1.51042 -1.25,-3.21354 -1.25,-5.10937c0,-2.58333 0.65104,-4.58333 1.95313,-6c1.30208,-1.41667 3.19792,-2.125 5.6875,-2.125c2.45833,0 4.31771,0.70833 5.57813,2.125c1.26042,1.41667 1.89063,3.44271 1.89063,6.07813v1.35938h-4.84375v-1.67187c0,-1.125 -0.21875,-1.94271 -0.65625,-2.45312c-0.4375,-0.51042 -1.07812,-0.76562 -1.92187,-0.76562c-1.70833,0 -2.5625,1.04167 -2.5625,3.125c0,1.17708 0.31771,2.28125 0.95313,3.3125c0.64583,1.02083 1.80729,2.26042 3.48438,3.71875c2.14583,1.875 3.61979,3.57292 4.42188,5.09375c0.8125,1.52083 1.21875,3.30729 1.21875,5.35938c0,2.67708 -0.66146,4.73438 -1.98437,6.17188c-1.32292,1.42708 -3.24479,2.14063 -5.76562,2.14063zM734.44049,219.51907h14v4.65625h-8.85937v8.64063h7.04688v4.65625h-7.04687v10.03125h8.85938v4.67188h-14zM755.39234,224.17532h-5.35937v-4.65625h15.85938v4.65625h-5.35937v28h-5.14062z" fill="#000000" fill-rule="nonzero" stroke-width="1" stroke-linecap="square"/><path d="M445.3662,294.26907l-6.20312,-18.74998h5.45313l3.5,11.98436h0.09375l3.5,-11.98436h5l-6.21875,18.74998v13.90625h-5.125zM465.61187,308.64407c-2.52083,0 -4.44792,-0.71354 -5.78125,-2.14062c-1.33333,-1.4375 -2,-3.46354 -2,-6.07812v-17.17187c0,-2.60416 0.66667,-4.61978 2,-6.04686c1.33333,-1.4375 3.26042,-2.15625 5.78125,-2.15625c2.52083,0 4.44792,0.71875 5.78125,2.15625c1.34375,1.42708 2.01563,3.4427 2.01563,6.04686v17.17188c0,2.61458 -0.67187,4.64063 -2.01562,6.07813c-1.33333,1.42708 -3.26042,2.14063 -5.78125,2.14063zM465.61187,303.9722c1.77083,0 2.65625,-1.07292 2.65625,-3.21875v-17.8125c0,-2.14582 -0.88542,-3.21873 -2.65625,-3.21873c-1.77083,0 -2.65625,1.07291 -2.65625,3.21873v17.8125c0,2.14583 0.88542,3.21875 2.65625,3.21875zM484.32119,308.64407c-2.48958,0 -4.39062,-0.70833 -5.70312,-2.125c-1.30208,-1.41667 -1.95312,-3.44792 -1.95312,-6.09375v-24.90623h5.14063v25.28123c0,1.125 0.22396,1.9375 0.67188,2.4375c0.45833,0.48958 1.10417,0.73438 1.9375,0.73438c0.84375,0 1.48958,-0.24479 1.9375,-0.73437c0.44792,-0.5 0.67188,-1.3125 0.67188,-2.4375v-25.28123h4.95313v24.90623c0,2.64583 -0.65625,4.67708 -1.96875,6.09375c-1.30208,1.41667 -3.19792,2.125 -5.6875,2.125zM495.60821,275.51909h7.60938c2.64583,0 4.57292,0.61458 5.78125,1.84375c1.21875,1.22917 1.82813,3.11979 1.82813,5.67186v2c0,3.38542 -1.11979,5.53125 -3.35937,6.4375v0.09375c1.23958,0.375 2.11458,1.14063 2.625,2.29688c0.52083,1.14583 0.78125,2.68229 0.78125,4.60938v5.73438c0,0.9375 0.03125,1.69271 0.09375,2.26563c0.0625,0.57292 0.21875,1.14063 0.46875,1.70313h-5.23437c-0.1875,-0.53125 -0.3125,-1.02604 -0.375,-1.48437c-0.0625,-0.46875 -0.09375,-1.3125 -0.09375,-2.53125v-5.96875c0,-1.48958 -0.23958,-2.53125 -0.71875,-3.125c-0.47917,-0.59375 -1.3125,-0.89062 -2.5,-0.89062h-1.76562v14h-5.14062v-32.65623zM502.60821,289.51907c1.03125,0 1.80208,-0.26562 2.3125,-0.79687c0.51042,-0.53125 0.76563,-1.41667 0.76563,-2.65625v-2.53125c0,-1.17708 -0.20833,-2.03125 -0.625,-2.5625c-0.41667,-0.53125 -1.07812,-0.79687 -1.98437,-0.79687h-2.32812v9.34375zM521.8756,275.51909h7.5625c2.55208,0 4.46354,0.6875 5.73438,2.0625c1.28125,1.36458 1.92188,3.36458 1.92188,5.99998v3.21875c0,2.64583 -0.64062,4.65625 -1.92187,6.03125c-1.27083,1.36458 -3.18229,2.04688 -5.73437,2.04688h-2.42187v13.29688h-5.14062v-32.65623zM529.4381,290.20657c0.84375,0 1.47396,-0.22917 1.89063,-0.6875c0.41667,-0.46875 0.625,-1.26562 0.625,-2.39062v-3.875c0,-1.11458 -0.20833,-1.90625 -0.625,-2.375c-0.41667,-0.46875 -1.04687,-0.70312 -1.89062,-0.70312h-2.42187v10.03125zM542.2203,275.51909h6.95316l5.32813,32.65623h-5.14062l-0.9375,-6.48437v0.09375h-5.82816l-0.9375,6.39063h-4.75zM547.8297,297.3472l-2.29687,-16.14062h-0.09375l-2.23441,16.14063zM556.96068,275.51909h7.60938c2.64583,0 4.57292,0.61458 5.78125,1.84375c1.21875,1.22917 1.82813,3.11979 1.82813,5.67186v2c0,3.38542 -1.11979,5.53125 -3.35937,6.4375v0.09375c1.23958,0.375 2.11458,1.14063 2.625,2.29688c0.52083,1.14583 0.78125,2.68229 0.78125,4.60938v5.73438c0,0.9375 0.03125,1.69271 0.09375,2.26563c0.0625,0.57292 0.21875,1.14063 0.46875,1.70313h-5.23437c-0.1875,-0.53125 -0.3125,-1.02604 -0.375,-1.48437c-0.0625,-0.46875 -0.09375,-1.3125 -0.09375,-2.53125v-5.96875c0,-1.48958 -0.23958,-2.53125 -0.71875,-3.125c-0.47917,-0.59375 -1.3125,-0.89062 -2.5,-0.89062h-1.76562v14h-5.14062v-32.65623zM563.96068,289.51907c1.03125,0 1.80208,-0.26562 2.3125,-0.79687c0.51042,-0.53125 0.76563,-1.41667 0.76563,-2.65625v-2.53125c0,-1.17708 -0.20833,-2.03125 -0.625,-2.5625c-0.41667,-0.53125 -1.07812,-0.79687 -1.98437,-0.79687h-2.32812v9.34375zM575.76305,275.51909h5.14063v13.76561l6.53125,-13.76561h5.125l-6.10937,11.98436l6.20313,20.67188h-5.35937l-4.34375,-14.5625l-2.04687,4.15625v10.40625h-5.14062zM598.15892,297.58157c0,-1.14583 0.17708,-2.23958 0.53125,-3.28125c0.36458,-1.04167 1.03125,-2.25 2,-3.625c1.11458,-1.58333 1.875,-2.94792 2.28125,-4.09375c0.40625,-1.15625 0.60938,-2.36979 0.60938,-3.64062c0,-1.125 -0.21875,-1.94271 -0.65625,-2.45312c-0.4375,-0.51041 -1.07292,-0.76561 -1.90625,-0.76561c-0.84375,0 -1.48437,0.2552 -1.92187,0.76561c-0.4375,0.51042 -0.65625,1.32813 -0.65625,2.45313v3.54688h-4.84375v-3.23437c0,-2.63541 0.63542,-4.66144 1.90625,-6.07811c1.28125,-1.41667 3.14583,-2.125 5.59375,-2.125c2.48958,0 4.38021,0.70833 5.67188,2.125c1.29167,1.41667 1.9375,3.4427 1.9375,6.07811c0,1.4375 -0.25521,2.81771 -0.76562,4.14063c-0.51042,1.32292 -1.39062,2.80729 -2.64062,4.45313c-0.98958,1.33333 -1.68229,2.44792 -2.07812,3.34375c-0.38542,0.88542 -0.57812,1.74479 -0.57812,2.57813v1.78125h-4.48437zM597.92455,303.2222h4.95313v4.95313h-4.95312z" fill="#000000" fill-rule="nonzero" stroke-width="1" stroke-linecap="square"/></g></g></svg>