<svg version="1.1" viewBox="0.0 0.0 670.0 408.0" fill="none" stroke="none" stroke-linecap="square" stroke-miterlimit="10" xmlns:xlink="http://www.w3.org/1999/xlink" xmlns="http://www.w3.org/2000/svg"><clipPath id="p.0"><path d="m0 0l670.0 0l0 408.0l-670.0 0l0 -408.0z" clip-rule="nonzero"/></clipPath><g clip-path="url(#p.0)"><path fill="#000000" fill-opacity="0.0" d="m0 0l670.0 0l0 408.0l-670.0 0z" fill-rule="evenodd"/><path fill="#000000" fill-opacity="0.0" d="m206.9895 82.18898l31.496063 0l0 43.62204l-31.496063 0z" fill-rule="evenodd"/><path fill="#ffffff" d="m224.64575 95.79523q0.46875 0 0.796875 0.34375q0.34375 0.328125 0.34375 0.796875l0 12.3125q0 0.453125 -0.34375 0.796875q-0.328125 0.34375 -0.796875 0.34375l-1.921875 0q-0.453125 0 -0.796875 -0.34375q-0.34375 -0.34375 -0.34375 -0.796875l0 -9.0625l-0.015625 0l-2.84375 1.96875q-0.296875 0.1875 -0.625 0.03125q-0.3125 -0.171875 -0.3125 -0.53125l0 -2.125q0 -1.140625 0.9375 -1.78125l1.921875 -1.3125q0.921875 -0.640625 2.078125 -0.640625l1.921875 0z" fill-rule="nonzero"/><path fill="#000000" fill-opacity="0.0" d="m222.021 94.9895l31.496063 0l0 43.62204l-31.496063 0z" fill-rule="evenodd"/><path fill="#ffffff" d="m241.78662 119.986374q0.453125 0 0.796875 0.34375q0.34375 0.34375 0.34375 0.796875l0 0.921875q0 0.453125 -0.34375 0.796875q-0.34375 0.34375 -0.796875 0.34375l-8.125 0q-0.453125 0 -0.796875 -0.34375q-0.34375 -0.34375 -0.34375 -0.796875l0 -0.921875q0 -1.125 0.90625 -1.8125q3.296875 -2.53125 4.296875 -3.734375q1.0 -1.203125 1.0 -2.390625q0 -1.5 -1.703125 -1.5q-1.203125 0 -3.125 0.6875q-0.390625 0.125 -0.734375 -0.09375q-0.34375 -0.234375 -0.34375 -0.640625l0 -1.3125q0 -0.515625 0.296875 -0.921875q0.3125 -0.421875 0.78125 -0.53125q1.96875 -0.484375 3.71875 -0.484375q2.5 0 3.84375 1.171875q1.359375 1.171875 1.359375 3.21875q0 1.640625 -1.03125 3.125q-1.03125 1.484375 -4.046875 4.015625q-0.015625 0.03125 -0.015625 0.046875q0 0.015625 0.015625 0.015625l4.046875 0z" fill-rule="nonzero"/><path fill="#000000" fill-opacity="0.0" d="m238.021 110.9895l31.496063 0l0 43.62204l-31.496063 0z" fill-rule="evenodd"/><path fill="#ffffff" d="m255.021 130.59575q1.640625 0 2.671875 1.09375q1.03125 1.078125 1.03125 2.90625q0 2.328125 -1.453125 3.5625q-1.4375 1.234375 -4.15625 1.234375q-1.71875 0 -3.46875 -0.40625q-0.5 -0.09375 -0.8125 -0.5q-0.3125 -0.421875 -0.3125 -0.9375l0 -1.125q0 -0.421875 0.34375 -0.640625q0.34375 -0.234375 0.734375 -0.109375q1.765625 0.5625 3.125 0.5625q1.015625 0 1.546875 -0.40625q0.546875 -0.421875 0.546875 -1.140625q0 -0.84375 -0.65625 -1.15625q-0.640625 -0.328125 -2.59375 -0.34375q-0.46875 0 -0.8125 -0.34375q-0.328125 -0.34375 -0.328125 -0.796875l0 -0.3125q0 -1.140625 0.875 -1.859375l2.5 -2.03125q0.015625 -0.015625 0.015625 -0.03125q0 -0.03125 -0.015625 -0.03125l-4.234375 0q-0.46875 0 -0.8125 -0.328125q-0.328125 -0.34375 -0.328125 -0.8125l0 -0.90625q0 -0.46875 0.328125 -0.796875q0.34375 -0.34375 0.8125 -0.34375l7.8125 0q0.453125 0 0.796875 0.34375q0.34375 0.328125 0.34375 0.796875l0 0.90625q0 1.171875 -0.90625 1.828125l-2.78125 2.0625q-0.015625 0.015625 -0.015625 0.046875q0 0.015625 0.015625 0.015625l0.1875 0z" fill-rule="nonzero"/><path fill="#000000" fill-opacity="0.0" d="m254.021 126.9895l31.496063 0l0 43.62204l-31.496063 0z" fill-rule="evenodd"/><path fill="#ffffff" d="m269.61475 149.3145l0 -4.109375q0 -0.015625 -0.015625 -0.015625q-0.03125 0 -0.03125 0.015625l-2.921875 4.21875l-0.03125 0.03125l0 0.015625q0 0.015625 0.03125 0.015625l2.796875 0q0.171875 0 0.171875 -0.171875zm4.671875 0.171875q0.453125 0 0.796875 0.34375q0.34375 0.34375 0.34375 0.796875l0 0.828125q0 0.453125 -0.34375 0.796875q-0.34375 0.34375 -0.796875 0.34375l-0.703125 0q-0.15625 0 -0.15625 0.171875l0 1.28125q0 0.453125 -0.34375 0.796875q-0.34375 0.34375 -0.796875 0.34375l-1.53125 0q-0.453125 0 -0.796875 -0.34375q-0.34375 -0.34375 -0.34375 -0.796875l0 -1.28125q0 -0.171875 -0.171875 -0.171875l-5.078125 0q-0.46875 0 -0.8125 -0.34375q-0.328125 -0.34375 -0.328125 -0.796875l0 -0.828125q0 -1.125 0.65625 -2.0625l5.078125 -7.0625q0.65625 -0.90625 1.796875 -0.90625l1.53125 0q0.453125 0 0.796875 0.34375q0.34375 0.328125 0.34375 0.796875l0 7.578125q0 0.171875 0.15625 0.171875l0.703125 0z" fill-rule="nonzero"/><path fill="#000000" fill-opacity="0.0" d="m270.021 142.9895l31.496063 0l0 43.62204l-31.496063 0z" fill-rule="evenodd"/><path fill="#ffffff" d="m286.22412 161.59575q2.296875 0 3.546875 1.203125q1.25 1.1875 1.25 3.390625q0 2.59375 -1.59375 3.90625q-1.578125 1.296875 -4.8125 1.296875q-1.296875 0 -2.796875 -0.265625q-0.484375 -0.078125 -0.796875 -0.46875q-0.296875 -0.40625 -0.296875 -0.90625l0 -1.015625q0 -0.421875 0.328125 -0.6875q0.34375 -0.28125 0.765625 -0.171875q1.5625 0.359375 2.59375 0.359375q2.703125 0 2.703125 -2.046875q0 -1.59375 -1.703125 -1.59375q-0.1875 0 -0.46875 0.078125q-0.203125 0.0625 -0.640625 0.25q-0.421875 0.171875 -0.765625 0.265625q-0.34375 0.09375 -0.65625 0.09375l-1.125 0q-0.453125 0 -0.78125 -0.328125q-0.3125 -0.34375 -0.296875 -0.8125l0.28125 -6.40625q0.015625 -0.484375 0.359375 -0.8125q0.359375 -0.328125 0.84375 -0.328125l7.015625 0q0.453125 0 0.796875 0.34375q0.34375 0.328125 0.34375 0.796875l0 0.90625q0 0.46875 -0.34375 0.8125q-0.34375 0.328125 -0.796875 0.328125l-4.375 0q-0.1875 0 -0.1875 0.171875l-0.09375 1.921875q0 0.015625 0.015625 0.015625l0.046875 0q0.875 -0.296875 1.640625 -0.296875z" fill-rule="nonzero"/><path fill="#000000" fill-opacity="0.0" d="m286.021 158.9895l31.496063 0l0 43.62204l-31.496063 0z" fill-rule="evenodd"/><path fill="#ffffff" d="m301.61475 184.59575q0.953125 0 1.46875 -0.59375q0.53125 -0.59375 0.53125 -1.71875q0 -2.296875 -2.0 -2.296875q-0.9375 0 -1.46875 0.609375q-0.53125 0.59375 -0.53125 1.6875q0 1.09375 0.546875 1.703125q0.5625 0.609375 1.453125 0.609375zm0.8125 -7.203125q2.4375 0 3.71875 1.21875q1.28125 1.21875 1.28125 3.578125q0 2.4375 -1.546875 3.828125q-1.546875 1.375 -4.265625 1.375q-2.734375 0 -4.265625 -1.671875q-1.53125 -1.671875 -1.53125 -4.9375q0 -4.171875 1.734375 -6.28125q1.75 -2.109375 4.96875 -2.109375q1.09375 0 2.234375 0.171875q0.484375 0.078125 0.78125 0.46875q0.296875 0.390625 0.296875 0.890625l0 0.71875q0 0.40625 -0.328125 0.65625q-0.328125 0.25 -0.71875 0.15625q-1.078125 -0.265625 -2.0625 -0.265625q-2.71875 0 -3.125 2.859375q0 0.046875 0.015625 0.046875l0.046875 0q1.140625 -0.703125 2.765625 -0.703125z" fill-rule="nonzero"/><path fill="#000000" fill-opacity="0.0" d="m302.021 174.9895l31.496063 0l0 43.62204l-31.496063 0z" fill-rule="evenodd"/><path fill="#ffffff" d="m321.78662 188.59575q0.453125 0 0.796875 0.34375q0.34375 0.328125 0.34375 0.796875l0 0.90625q0 1.125 -0.5625 2.125q-2.359375 4.109375 -4.265625 9.359375q-0.171875 0.484375 -0.59375 0.78125q-0.421875 0.28125 -0.921875 0.28125l-2.015625 0q-0.40625 0 -0.65625 -0.34375q-0.234375 -0.34375 -0.078125 -0.71875q2.234375 -5.4375 5.265625 -10.203125q0.015625 -0.015625 0.015625 -0.09375q0 -0.046875 -0.046875 -0.046875l-5.609375 0q-0.453125 0 -0.796875 -0.328125q-0.34375 -0.34375 -0.34375 -0.8125l0 -0.90625q0 -0.46875 0.34375 -0.796875q0.34375 -0.34375 0.796875 -0.34375l8.328125 0z" fill-rule="nonzero"/><path fill="#000000" fill-opacity="0.0" d="m318.021 190.9895l31.496063 0l0 43.62204l-31.496063 0z" fill-rule="evenodd"/><path fill="#ffffff" d="m332.13037 216.1895q0.609375 0.5 1.484375 0.5q0.890625 0 1.5 -0.5q0.609375 -0.5 0.609375 -1.203125q0 -0.65625 -0.421875 -1.015625q-0.421875 -0.375 -1.984375 -0.9375q-0.171875 -0.0625 -0.3125 0.015625q-0.890625 0.5 -1.1875 0.921875q-0.296875 0.421875 -0.296875 1.015625q0 0.703125 0.609375 1.203125zm2.796875 -8.65625q-0.5 -0.4375 -1.3125 -0.4375q-0.796875 0 -1.296875 0.4375q-0.5 0.421875 -0.5 1.0625q0 0.53125 0.375 0.921875q0.390625 0.375 1.46875 0.765625q0.125 0.0625 0.296875 -0.015625q0.859375 -0.421875 1.15625 -0.78125q0.3125 -0.375 0.3125 -0.890625q0 -0.640625 -0.5 -1.0625zm1.859375 3.84375q2.828125 1.25 2.828125 3.8125q0 1.921875 -1.578125 3.0625q-1.578125 1.140625 -4.421875 1.140625q-2.828125 0 -4.421875 -1.140625q-1.578125 -1.140625 -1.578125 -3.0625q0 -1.015625 0.59375 -1.8125q0.609375 -0.8125 2.078125 -1.546875q0.015625 0 0.015625 -0.015625q0 -0.046875 -0.015625 -0.046875q-2.265625 -1.390625 -2.265625 -3.578125q0 -1.640625 1.484375 -2.71875q1.5 -1.078125 4.109375 -1.078125q2.625 0 4.109375 1.078125q1.5 1.078125 1.5 2.71875q0 1.78125 -2.46875 3.125q-0.015625 0 -0.015625 0.015625q0 0.046875 0.046875 0.046875z" fill-rule="nonzero"/><path fill="#000000" fill-opacity="0.0" d="m334.021 206.9895l31.496063 0l0 43.62204l-31.496063 0z" fill-rule="evenodd"/><path fill="#ffffff" d="m347.61475 225.28325q0 2.5 2.0 2.5q2.0 0 2.0 -2.5q0 -0.953125 -0.546875 -1.515625q-0.546875 -0.578125 -1.453125 -0.578125q-0.9375 0 -1.46875 0.5625q-0.53125 0.5625 -0.53125 1.53125zm2.0 -4.890625q2.75 0 4.28125 1.640625q1.53125 1.640625 1.53125 4.75q0 8.609375 -6.703125 8.609375q-1.015625 0 -2.421875 -0.203125q-0.484375 -0.078125 -0.796875 -0.453125q-0.296875 -0.390625 -0.296875 -0.890625l0 -0.71875q0 -0.421875 0.328125 -0.671875q0.328125 -0.25 0.75 -0.140625q1.15625 0.28125 2.234375 0.28125q2.9375 0 3.125 -2.859375q0 -0.046875 -0.03125 -0.046875l-0.03125 0q-1.140625 0.703125 -2.765625 0.703125q-5.0 0 -5.0 -5.0q0 -2.296875 1.53125 -3.640625q1.546875 -1.359375 4.265625 -1.359375z" fill-rule="nonzero"/><path fill="#000000" fill-opacity="0.0" d="m350.021 222.9895l31.496063 0l0 43.62204l-31.496063 0z" fill-rule="evenodd"/><path fill="#ffffff" d="m364.16162 247.42387q0.453125 0.96875 1.453125 0.96875q1.0 0 1.453125 -0.96875q0.453125 -0.96875 0.453125 -3.53125q0 -2.5625 -0.453125 -3.53125q-0.453125 -0.96875 -1.453125 -0.96875q-1.0 0 -1.453125 0.96875q-0.4375 0.96875 -0.4375 3.53125q0 2.5625 0.4375 3.53125zm-3.0625 -9.265625q1.484375 -1.765625 4.515625 -1.765625q3.046875 0 4.515625 1.765625q1.484375 1.75 1.484375 5.734375q0 3.984375 -1.484375 5.75q-1.46875 1.75 -4.515625 1.75q-3.03125 0 -4.515625 -1.75q-1.484375 -1.765625 -1.484375 -5.75q0 -3.984375 1.484375 -5.734375z" fill-rule="nonzero"/></g></svg>