<svg version="1.1" viewBox="0.0 0.0 960.0 720.0" fill="none" stroke="none" stroke-linecap="square" stroke-miterlimit="10" xmlns:xlink="http://www.w3.org/1999/xlink" xmlns="http://www.w3.org/2000/svg"><clipPath id="p.0"><path d="m0 0l960.0 0l0 720.0l-960.0 0l0 -720.0z" clip-rule="nonzero"/></clipPath><g clip-path="url(#p.0)"><path fill="#000000" fill-opacity="0.0" d="m0 0l960.0 0l0 720.0l-960.0 0z" fill-rule="evenodd"/><path fill="#000000" fill-opacity="0.0" d="m135.0 143.43832l771.74805 0l0 423.40158l-771.74805 0z" fill-rule="evenodd"/><path fill="#000000" d="m154.59375 169.1102q4.671875 1.359375 6.5 3.265625q1.84375 1.890625 1.84375 5.0625q0 7.328125 -9.5 7.328125q-3.03125 0 -5.5 -1.0q-0.765625 -0.296875 -1.21875 -1.0625q-0.453125 -0.765625 -0.453125 -1.671875l0 -1.6875q0 -0.640625 0.53125 -0.9375q0.53125 -0.296875 1.109375 -0.03125q2.625 1.234375 5.1875 1.234375q3.0 0 3.0 -2.0q0 -0.9375 -0.46875 -1.4375q-0.453125 -0.5 -1.6875 -0.90625q-4.4375 -1.359375 -6.390625 -3.40625q-1.953125 -2.046875 -1.953125 -5.078125q0 -3.28125 2.34375 -5.140625q2.359375 -1.859375 6.828125 -1.859375q3.203125 0 5.703125 0.6875q0.796875 0.234375 1.296875 0.953125q0.5 0.71875 0.5 1.578125l0 1.640625q0 0.671875 -0.5625 1.0625q-0.546875 0.375 -1.203125 0.140625q-2.96875 -0.96875 -5.40625 -0.96875q-2.734375 0 -2.734375 1.90625q0 1.65625 2.234375 2.328125zm17.368637 3.171875q0 6.984375 4.828125 6.984375q4.84375 0 4.84375 -6.984375q0 -7.0 -4.84375 -7.0q-4.828125 0 -4.828125 7.0zm-3.703125 -9.171875q3.140625 -3.328125 8.53125 -3.328125q5.40625 0 8.53125 3.328125q3.140625 3.328125 3.140625 9.171875q0 5.828125 -3.140625 9.15625q-3.125 3.328125 -8.53125 3.328125q-5.390625 0 -8.53125 -3.328125q-3.125 -3.328125 -3.125 -9.15625q0 -5.84375 3.125 -9.171875zm40.664764 -3.0q0.765625 0 1.328125 0.5625q0.578125 0.5625 0.578125 1.328125l0 13.4375q0 4.671875 -2.46875 7.0q-2.46875 2.328125 -7.203125 2.328125q-4.734375 0 -7.203125 -2.328125q-2.46875 -2.328125 -2.46875 -7.0l0 -13.4375q0 -0.765625 0.5625 -1.328125q0.578125 -0.5625 1.34375 -0.5625l2.9375 0q0.765625 0 1.328125 0.5625q0.5625 0.5625 0.5625 1.328125l0 13.9375q0 1.9375 0.703125 2.71875q0.703125 0.78125 2.296875 0.78125q1.609375 0 2.296875 -0.78125q0.703125 -0.78125 0.703125 -2.71875l0 -13.9375q0 -0.765625 0.5625 -1.328125q0.578125 -0.5625 1.34375 -0.5625l2.796875 0zm23.857727 0q0.765625 0 1.328125 0.5625q0.578125 0.5625 0.578125 1.328125l0 20.53125q0 0.765625 -0.578125 1.34375q-0.5625 0.5625 -1.328125 0.5625l-2.53125 0q-1.890625 0 -2.734375 -1.703125l-5.765625 -11.59375q0 -0.03125 -0.03125 -0.03125q-0.03125 0 -0.03125 0.03125l0 11.390625q0 0.765625 -0.578125 1.34375q-0.5625 0.5625 -1.328125 0.5625l-2.53125 0q-0.765625 0 -1.328125 -0.5625q-0.5625 -0.578125 -0.5625 -1.34375l0 -20.53125q0 -0.765625 0.5625 -1.328125q0.5625 -0.5625 1.328125 -0.5625l2.53125 0q1.90625 0 2.734375 1.703125l5.765625 11.59375q0 0.03125 0.03125 0.03125q0.046875 0 0.046875 -0.03125l0 -11.40625q0 -0.765625 0.5625 -1.328125q0.5625 -0.5625 1.328125 -0.5625l2.53125 0zm14.774292 19.5q2.828125 0 4.234375 -1.796875q1.421875 -1.8125 1.421875 -5.875q0 -3.671875 -1.421875 -5.328125q-1.40625 -1.671875 -4.234375 -1.671875q-0.640625 0 -1.234375 0.109375q-0.265625 0.0625 -0.265625 0.328125l0 13.765625q0 0.296875 0.265625 0.359375q0.59375 0.109375 1.234375 0.109375zm-0.671875 -19.828125q6.0 0 9.32811 3.21875q3.34375 3.203125 3.34375 8.9375q0 6.234375 -3.359375 9.53125q-3.3437347 3.296875 -9.312485 3.296875q-2.640625 0 -5.46875 -0.265625q-0.796875 -0.0625 -1.328125 -0.6875q-0.53125 -0.640625 -0.53125 -1.4375l0 -20.203125q0 -0.796875 0.53125 -1.421875q0.53125 -0.640625 1.328125 -0.703125q2.828125 -0.265625 5.46875 -0.265625z" fill-rule="nonzero"/><path fill="#000000" d="m154.59375 209.1102q4.671875 1.359375 6.5 3.265625q1.84375 1.890625 1.84375 5.0625q0 7.328125 -9.5 7.328125q-3.03125 0 -5.5 -1.0q-0.765625 -0.296875 -1.21875 -1.0625q-0.453125 -0.765625 -0.453125 -1.671875l0 -1.6875q0 -0.640625 0.53125 -0.9375q0.53125 -0.296875 1.109375 -0.03125q2.625 1.234375 5.1875 1.234375q3.0 0 3.0 -2.0q0 -0.9375 -0.46875 -1.4375q-0.453125 -0.5 -1.6875 -0.90625q-4.4375 -1.359375 -6.390625 -3.40625q-1.953125 -2.046875 -1.953125 -5.078125q0 -3.28125 2.34375 -5.140625q2.359375 -1.859375 6.828125 -1.859375q3.203125 0 5.703125 0.6875q0.796875 0.234375 1.296875 0.953125q0.5 0.71875 0.5 1.578125l0 1.640625q0 0.671875 -0.5625 1.0625q-0.546875 0.375 -1.203125 0.140625q-2.96875 -0.96875 -5.40625 -0.96875q-2.734375 0 -2.734375 1.90625q0 1.65625 2.234375 2.328125zm26.139465 -9.0q0.765625 0 1.328125 0.5625q0.5625 0.5625 0.5625 1.328125l0 1.546875q0 0.765625 -0.5625 1.328125q-0.5625 0.5625 -1.328125 0.5625l-6.796875 0q-0.3125 0 -0.3125 0.265625l0 4.109375q0 0.296875 0.3125 0.296875l6.125 0q0.765625 0 1.328125 0.5625q0.578125 0.5625 0.578125 1.328125l0 1.203125q0 0.765625 -0.578125 1.34375q-0.5625 0.5625 -1.328125 0.5625l-6.125 0q-0.3125 0 -0.3125 0.296875l0 7.125q0 0.765625 -0.5625 1.34375q-0.5625 0.5625 -1.328125 0.5625l-2.875 0q-0.765625 0 -1.328125 -0.5625q-0.5625 -0.578125 -0.5625 -1.34375l0 -20.53125q0 -0.765625 0.5625 -1.328125q0.5625 -0.5625 1.328125 -0.5625l11.875 0zm19.12912 12.265625l4.890625 10.359375q0.296875 0.609375 -0.078125 1.15625q-0.359375 0.546875 -1.015625 0.546875l-3.609375 0q-0.828125 0 -1.515625 -0.5q-0.671875 -0.5 -0.984375 -1.296875l-2.359375 -6.828125q0 -0.046875 -0.03125 -0.046875q-0.03125 0 -0.03125 0.046875l-2.375 6.828125q-0.265625 0.796875 -0.953125 1.296875q-0.671875 0.5 -1.546875 0.5l-3.453125 0q-0.640625 0 -1.015625 -0.546875q-0.359375 -0.546875 -0.09375 -1.15625l4.90625 -10.359375q0.09375 -0.265625 0 -0.53125l-4.734375 -10.03125q-0.265625 -0.609375 0.09375 -1.15625q0.375 -0.546875 1.0 -0.546875l3.4375 0q0.859375 0 1.5625 0.484375q0.703125 0.484375 0.96875 1.28125l2.328125 6.53125q0 0.03125 0.03125 0.03125q0.046875 0 0.046875 -0.03125l2.328125 -6.53125q0.265625 -0.796875 0.984375 -1.28125q0.71875 -0.484375 1.546875 -0.484375l3.296875 0q0.671875 0 1.03125 0.546875q0.375 0.546875 0.078125 1.15625l-4.734375 10.03125q-0.109375 0.265625 0 0.53125z" fill-rule="nonzero"/><path fill="#000000" d="m168.53125 240.1102q0.765625 0 1.328125 0.5625q0.5625 0.5625 0.5625 1.328125l0 20.53125q0 0.765625 -0.5625 1.34375q-0.5625 0.5625 -1.328125 0.5625l-2.4375 0q-0.765625 0 -1.328125 -0.5625q-0.5625 -0.578125 -0.5625 -1.34375l0 -11.390625q0 -0.03125 -0.046875 -0.03125q-0.03125 0 -0.03125 0.03125l-2.421875 6.53125q-0.3125 0.796875 -1.015625 1.28125q-0.6875 0.484375 -1.5625 0.484375l-1.53125 0q-0.859375 0 -1.5625 -0.484375q-0.703125 -0.484375 -1.0 -1.28125l-2.4375 -6.53125q0 -0.03125 -0.03125 -0.03125q-0.03125 0 -0.03125 0.03125l0 11.390625q0 0.765625 -0.5625 1.34375q-0.5625 0.5625 -1.34375 0.5625l-2.296875 0q-0.765625 0 -1.328125 -0.5625q-0.5625 -0.578125 -0.5625 -1.34375l0 -20.53125q0 -0.765625 0.5625 -1.328125q0.5625 -0.5625 1.328125 -0.5625l2.96875 0q0.875 0 1.5625 0.484375q0.703125 0.484375 0.96875 1.28125l4.5 12.53125q0 0.03125 0.03125 0.03125q0.03125 0 0.03125 -0.03125l4.5 -12.53125q0.265625 -0.796875 0.96875 -1.28125q0.703125 -0.484375 1.578125 -0.484375l3.09375 0zm21.190216 7.0q0.765625 0 1.328125 0.5625q0.578125 0.5625 0.578125 1.328125l0 13.53125q0 0.765625 -0.578125 1.34375q-0.5625 0.5625 -1.328125 0.5625l-2.265625 0q-0.796875 0 -1.359375 -0.546875q-0.5625 -0.546875 -0.609375 -1.359375l0 -0.265625q0 -0.03125 -0.03125 -0.03125q-0.0625 0 -0.0625 0.03125q-2.0625 2.5 -5.09375 2.5q-2.9375 0 -4.21875 -1.625q-1.28125 -1.640625 -1.28125 -5.703125l0 -8.4375q0 -0.765625 0.5625 -1.328125q0.5625 -0.5625 1.328125 -0.5625l2.375 0q0.765625 0 1.328125 0.5625q0.5625 0.5625 0.5625 1.328125l0 8.109375q0 1.53125 0.421875 2.09375q0.421875 0.5625 1.421875 0.5625q0.921875 0 1.703125 -0.71875q0.796875 -0.734375 0.796875 -1.609375l0 -8.4375q0 -0.765625 0.5625 -1.328125q0.5625 -0.5625 1.328125 -0.5625l2.53125 0zm13.597733 6.15625q3.796875 0.5 5.390625 1.921875q1.609375 1.421875 1.609375 4.078125q0 2.640625 -1.90625 4.078125q-1.890625 1.421875 -5.59375 1.421875q-2.734375 0 -5.5 -0.53125q-0.796875 -0.15625 -1.3125 -0.828125q-0.515625 -0.671875 -0.515625 -1.53125l0 -0.875q0 -0.6875 0.5625 -1.09375q0.578125 -0.40625 1.234375 -0.234375q2.5 0.59375 4.703125 0.59375q1.828125 0 1.828125 -1.0625q0 -0.5 -0.296875 -0.734375q-0.296875 -0.234375 -1.203125 -0.359375q-3.6875 -0.609375 -5.34375 -2.0625q-1.65625 -1.46875 -1.65625 -3.9375q0 -2.53125 1.953125 -3.921875q1.953125 -1.40625 5.890625 -1.40625q2.59375 0 4.796875 0.328125q0.828125 0.125 1.34375 0.765625q0.515625 0.625 0.515625 1.46875l0 0.703125q0 0.6875 -0.578125 1.140625q-0.578125 0.453125 -1.28125 0.3125q-2.03125 -0.390625 -4.171875 -0.390625q-1.09375 0 -1.53125 0.234375q-0.4375 0.234375 -0.4375 0.765625q0 1.0 1.5 1.15625zm16.134613 -6.15625q0.765625 0 1.328125 0.5625q0.578125 0.5625 0.578125 1.328125l0 13.53125q0 0.765625 -0.578125 1.34375q-0.5625 0.5625 -1.328125 0.5625l-2.859375 0q-0.765625 0 -1.34375 -0.5625q-0.5625 -0.578125 -0.5625 -1.34375l0 -13.53125q0 -0.765625 0.5625 -1.328125q0.578125 -0.5625 1.34375 -0.5625l2.859375 0zm0 -7.671875q0.765625 0 1.328125 0.578125q0.578125 0.5625 0.578125 1.328125l0 0.859375q0 0.765625 -0.578125 1.34375q-0.5625 0.5625 -1.328125 0.5625l-2.859375 0q-0.765625 0 -1.34375 -0.5625q-0.5625 -0.578125 -0.5625 -1.34375l0 -0.859375q0 -0.765625 0.5625 -1.328125q0.578125 -0.578125 1.34375 -0.578125l2.859375 0zm18.729324 20.4375q0.734375 -0.140625 1.296875 0.296875q0.578125 0.4375 0.578125 1.171875l0 0.859375q0 0.828125 -0.53125 1.46875q-0.515625 0.625 -1.34375 0.765625q-2.328125 0.328125 -3.96875 0.328125q-4.421875 0 -6.796875 -2.265625q-2.359375 -2.265625 -2.359375 -6.734375q0 -4.359375 2.28125 -6.671875q2.28125 -2.3125 6.546875 -2.3125q1.625 0 3.96875 0.328125q0.828125 0.125 1.34375 0.765625q0.515625 0.625 0.515625 1.46875l0 0.859375q0 0.734375 -0.5625 1.171875q-0.5625 0.4375 -1.296875 0.296875q-1.375 -0.234375 -2.796875 -0.234375q-1.703125 0 -2.53125 1.03125q-0.8125 1.03125 -0.8125 3.296875q0 2.3125 0.875 3.328125q0.890625 1.015625 2.796875 1.015625q1.4375 0 2.796875 -0.234375z" fill-rule="nonzero"/><path fill="#000000" d="m163.85938 280.1102q0.765625 0 1.328125 0.5625q0.578125 0.5625 0.578125 1.328125l0 20.53125q0 0.765625 -0.578125 1.34375q-0.5625 0.5625 -1.328125 0.5625l-2.53125 0q-1.890625 0 -2.734375 -1.703125l-5.765625 -11.59375q0 -0.03125 -0.03125 -0.03125q-0.03125 0 -0.03125 0.03125l0 11.390625q0 0.765625 -0.578125 1.34375q-0.5625 0.5625 -1.328125 0.5625l-2.53125 0q-0.765625 0 -1.328125 -0.5625q-0.5625 -0.578125 -0.5625 -1.34375l0 -20.53125q0 -0.765625 0.5625 -1.328125q0.5625 -0.5625 1.328125 -0.5625l2.53125 0q1.90625 0 2.734375 1.703125l5.765625 11.59375q0 0.03125 0.03125 0.03125q0.046875 0 0.046875 -0.03125l0 -11.40625q0 -0.765625 0.5625 -1.328125q0.5625 -0.5625 1.328125 -0.5625l2.53125 0zm12.102417 12.171875q0 6.984375 4.828125 6.984375q4.84375 0 4.84375 -6.984375q0 -7.0 -4.84375 -7.0q-4.828125 0 -4.828125 7.0zm-3.703125 -9.171875q3.140625 -3.328125 8.53125 -3.328125q5.40625 0 8.53125 3.328125q3.140625 3.328125 3.140625 9.171875q0 5.828125 -3.140625 9.15625q-3.125 3.328125 -8.53125 3.328125q-5.390625 0 -8.53125 -3.328125q-3.125 -3.328125 -3.125 -9.15625q0 -5.84375 3.125 -9.171875zm38.831436 -3.0q0.765625 0 1.328125 0.5625q0.578125 0.5625 0.578125 1.328125l0 1.703125q0 0.765625 -0.578125 1.34375q-0.5625 0.5625 -1.328125 0.5625l-4.0625 0q-0.296875 0 -0.296875 0.296875l0 16.625q0 0.765625 -0.5625 1.34375q-0.546875 0.5625 -1.3125 0.5625l-3.0625 0q-0.765625 0 -1.328125 -0.5625q-0.546875 -0.578125 -0.546875 -1.34375l0 -16.625q0 -0.296875 -0.296875 -0.296875l-4.0625 0q-0.765625 0 -1.34375 -0.5625q-0.5625 -0.578125 -0.5625 -1.34375l0 -1.703125q0 -0.765625 0.5625 -1.328125q0.578125 -0.5625 1.34375 -0.5625l15.53125 0zm11.701645 0q0.765625 0 1.328125 0.5625q0.5625 0.5625 0.5625 1.328125l0 20.53125q0 0.765625 -0.5625 1.34375q-0.5625 0.5625 -1.328125 0.5625l-3.53125 0q-0.765625 0 -1.34375 -0.5625q-0.5625 -0.578125 -0.5625 -1.34375l0 -20.53125q0 -0.765625 0.5625 -1.328125q0.578125 -0.5625 1.34375 -0.5625l3.53125 0zm20.864624 0q0.765625 0 1.328125 0.5625q0.5625 0.5625 0.5625 1.328125l0 1.546875q0 0.765625 -0.5625 1.328125q-0.5625 0.5625 -1.328125 0.5625l-6.796875 0q-0.3125 0 -0.3125 0.265625l0 4.109375q0 0.296875 0.3125 0.296875l6.125 0q0.765625 0 1.328125 0.5625q0.578125 0.5625 0.578125 1.328125l0 1.203125q0 0.765625 -0.578125 1.34375q-0.5625 0.5625 -1.328125 0.5625l-6.125 0q-0.3125 0 -0.3125 0.296875l0 7.125q0 0.765625 -0.5625 1.34375q-0.5625 0.5625 -1.328125 0.5625l-2.875 0q-0.765625 0 -1.328125 -0.5625q-0.5625 -0.578125 -0.5625 -1.34375l0 -20.53125q0 -0.765625 0.5625 -1.328125q0.5625 -0.5625 1.328125 -0.5625l11.875 0zm12.030167 0q0.76560974 0 1.3281097 0.5625q0.5625 0.5625 0.5625 1.328125l0 20.53125q0 0.765625 -0.5625 1.34375q-0.5625 0.5625 -1.3281097 0.5625l-3.53125 0q-0.765625 0 -1.34375 -0.5625q-0.5625 -0.578125 -0.5625 -1.34375l0 -20.53125q0 -0.765625 0.5625 -1.328125q0.578125 -0.5625 1.34375 -0.5625l3.53125 0zm22.489609 18.828125q0.671875 -0.203125 1.21875 0.203125q0.546875 0.390625 0.546875 1.09375l0 1.796875q0 0.875 -0.515625 1.546875q-0.515625 0.65625 -1.34375 0.796875q-2.265625 0.390625 -4.796875 0.390625q-5.671875 0 -8.84375 -3.1875q-3.15625 -3.203125 -3.15625 -9.3125q0 -5.953125 3.0625 -9.21875q3.0625 -3.265625 8.59375 -3.265625q2.53125 0 4.796875 0.390625q0.84375 0.140625 1.359375 0.8125q0.515625 0.65625 0.515625 1.515625l0 1.875q0 0.703125 -0.5625 1.125q-0.546875 0.40625 -1.203125 0.203125q-2.0625 -0.59375 -4.0625 -0.59375q-2.671875 0 -4.171875 1.8125q-1.5 1.8125 -1.5 5.34375q0 3.46875 1.625 5.359375q1.640625 1.875 4.375 1.875q2.09375 0 4.0625 -0.5625zm13.67572 -4.171875l3.46875 0q0.09375 0 0.171875 -0.078125q0.09375 -0.078125 0.0625 -0.1875l-1.9375 -8.6875q0 -0.03125 -0.03125 -0.03125q-0.03125 0 -0.03125 0.03125l-1.9375 8.6875q-0.03125 0.109375 0.046875 0.1875q0.078125 0.078125 0.1875 0.078125zm5.859375 -12.859375l6.53125 20.734375q0.203125 0.65625 -0.21875 1.234375q-0.40625 0.5625 -1.109375 0.5625l-3.265625 0q-0.828125 0 -1.484375 -0.515625q-0.65625 -0.515625 -0.8125 -1.3125l-0.578125 -2.578125q-0.0625 -0.265625 -0.328125 -0.265625l-5.703125 0q-0.328125 0 -0.359375 0.265625l-0.5625 2.578125q-0.171875 0.796875 -0.828125 1.3125q-0.640625 0.515625 -1.484375 0.515625l-3.125 0q-0.703125 0 -1.125 -0.5625q-0.40625 -0.578125 -0.203125 -1.234375l6.53125 -20.734375q0.234375 -0.796875 0.90625 -1.296875q0.6875 -0.5 1.5625 -0.5l3.1875 0q0.84375 0 1.515625 0.5q0.6875 0.5 0.953125 1.296875zm22.394348 -1.796875q0.765625 0 1.328125 0.5625q0.578125 0.5625 0.578125 1.328125l0 1.703125q0 0.765625 -0.578125 1.34375q-0.5625 0.5625 -1.328125 0.5625l-4.0625 0q-0.296875 0 -0.296875 0.296875l0 16.625q0 0.765625 -0.5625 1.34375q-0.546875 0.5625 -1.3125 0.5625l-3.0625 0q-0.765625 0 -1.328125 -0.5625q-0.546875 -0.578125 -0.546875 -1.34375l0 -16.625q0 -0.296875 -0.296875 -0.296875l-4.0625 0q-0.765625 0 -1.34375 -0.5625q-0.5625 -0.578125 -0.5625 -1.34375l0 -1.703125q0 -0.765625 0.5625 -1.328125q0.578125 -0.5625 1.34375 -0.5625l15.53125 0zm11.70166 0q0.765625 0 1.328125 0.5625q0.5625 0.5625 0.5625 1.328125l0 20.53125q0 0.765625 -0.5625 1.34375q-0.5625 0.5625 -1.328125 0.5625l-3.53125 0q-0.765625 0 -1.34375 -0.5625q-0.5625 -0.578125 -0.5625 -1.34375l0 -20.53125q0 -0.765625 0.5625 -1.328125q0.578125 -0.5625 1.34375 -0.5625l3.53125 0zm12.427124 12.171875q0 6.984375 4.828125 6.984375q4.84375 0 4.84375 -6.984375q0 -7.0 -4.84375 -7.0q-4.828125 0 -4.828125 7.0zm-3.703125 -9.171875q3.140625 -3.328125 8.53125 -3.328125q5.40625 0 8.53125 3.328125q3.140625 3.328125 3.140625 9.171875q0 5.828125 -3.140625 9.15625q-3.125 3.328125 -8.53125 3.328125q-5.390625 0 -8.53125 -3.328125q-3.125 -3.328125 -3.125 -9.15625q0 -5.84375 3.125 -9.171875zm40.99286 -3.0q0.765625 0 1.328125 0.5625q0.578125 0.5625 0.578125 1.328125l0 20.53125q0 0.765625 -0.578125 1.34375q-0.5625 0.5625 -1.328125 0.5625l-2.53125 0q-1.890625 0 -2.734375 -1.703125l-5.765625 -11.59375q0 -0.03125 -0.03125 -0.03125q-0.03125 0 -0.03125 0.03125l0 11.390625q0 0.765625 -0.578125 1.34375q-0.5625 0.5625 -1.328125 0.5625l-2.53125 0q-0.765625 0 -1.328125 -0.5625q-0.5625 -0.578125 -0.5625 -1.34375l0 -20.53125q0 -0.765625 0.5625 -1.328125q0.5625 -0.5625 1.328125 -0.5625l2.53125 0q1.90625 0 2.734375 1.703125l5.765625 11.59375q0 0.03125 0.03125 0.03125q0.046875 0 0.046875 -0.03125l0 -11.40625q0 -0.765625 0.5625 -1.328125q0.5625 -0.5625 1.328125 -0.5625l2.53125 0zm14.930542 9.0q4.671875 1.359375 6.5 3.265625q1.84375 1.890625 1.84375 5.0625q0 7.328125 -9.5 7.328125q-3.03125 0 -5.5 -1.0q-0.765625 -0.296875 -1.21875 -1.0625q-0.453125 -0.765625 -0.453125 -1.671875l0 -1.6875q0 -0.640625 0.53125 -0.9375q0.53125 -0.296875 1.109375 -0.03125q2.625 1.234375 5.1875 1.234375q3.0 0 3.0 -2.0q0 -0.9375 -0.46875 -1.4375q-0.453125 -0.5 -1.6875 -0.90625q-4.4375 -1.359375 -6.390625 -3.40625q-1.953125 -2.046875 -1.953125 -5.078125q0 -3.28125 2.34375 -5.140625q2.359375 -1.859375 6.828125 -1.859375q3.203125 0 5.703125 0.6875q0.796875 0.234375 1.296875 0.953125q0.5 0.71875 0.5 1.578125l0 1.640625q0 0.671875 -0.5625 1.0625q-0.546875 0.375 -1.203125 0.140625q-2.96875 -0.96875 -5.40625 -0.96875q-2.734375 0 -2.734375 1.90625q0 1.65625 2.234375 2.328125z" fill-rule="nonzero"/><path fill="#000000" d="m154.4375 332.1102q2.15625 0 3.328125 -1.0q1.171875 -1.0 1.171875 -2.84375q0 -3.484375 -4.5 -3.484375q-0.640625 0 -1.234375 0.09375q-0.265625 0.0625 -0.265625 0.359375l0 6.46875q0 0.265625 0.265625 0.34375q0.796875 0.0625 1.234375 0.0625zm-0.671875 -12.328125q11.328125 0 11.328125 8.15625q0 4.4375 -2.546875 6.71875q-2.546875 2.28125 -7.453125 2.28125q-0.734375 0 -1.859375 -0.0625q-0.296875 0 -0.296875 0.265625l0 5.390625q0 0.765625 -0.578125 1.34375q-0.5625 0.5625 -1.328125 0.5625l-2.703125 0q-0.765625 0 -1.328125 -0.5625q-0.5625 -0.578125 -0.5625 -1.34375l0 -20.359375q0 -0.796875 0.53125 -1.421875q0.53125 -0.640625 1.328125 -0.703125q2.828125 -0.265625 5.46875 -0.265625zm25.967377 7.390625q0.765625 -0.09375 1.328125 0.46875q0.5625 0.5625 0.5625 1.359375l0 0.875q0 0.765625 -0.53125 1.3125q-0.53125 0.546875 -1.328125 0.65625q-2.5625 0.328125 -4.109375 1.921875q-1.53125 1.578125 -1.53125 3.84375l0 4.921875q0 0.765625 -0.5625 1.34375q-0.5625 0.5625 -1.328125 0.5625l-2.703125 0q-0.765625 0 -1.34375 -0.5625q-0.5625 -0.578125 -0.5625 -1.34375l0 -13.53125q0 -0.765625 0.5625 -1.328125q0.578125 -0.5625 1.34375 -0.5625l2.53125 0q0.765625 0 1.328125 0.5625q0.578125 0.5625 0.578125 1.328125l0 1.40625q0 0.03125 0.03125 0.03125q0.03125 0 0.0625 -0.03125q2.09375 -2.765625 5.671875 -3.234375zm10.551392 12.21875q0.640625 1.046875 2.03125 1.046875q1.40625 0 2.03125 -1.046875q0.640625 -1.046875 0.640625 -3.609375q0 -2.578125 -0.640625 -3.625q-0.625 -1.046875 -2.03125 -1.046875q-1.390625 0 -2.03125 1.046875q-0.625 1.046875 -0.625 3.625q0 2.5625 0.625 3.609375zm-4.59375 -10.21875q2.375 -2.390625 6.640625 -2.390625q4.265625 0 6.625 2.390625q2.375 2.375 2.375 6.609375q0 4.21875 -2.375 6.609375q-2.359375 2.375 -6.625 2.375q-4.265625 0 -6.640625 -2.375q-2.359375 -2.390625 -2.359375 -6.609375q0 -4.234375 2.359375 -6.609375zm29.493729 7.765625l0 -2.828125q0 -1.171875 -0.765625 -1.921875q-0.765625 -0.75 -1.890625 -0.75q-2.671875 0 -2.671875 4.0q0 1.90625 0.71875 2.875q0.71875 0.953125 1.953125 0.953125q1.09375 0 1.875 -0.6875q0.78125 -0.703125 0.78125 -1.640625zm4.265625 -9.828125q0.765625 0 1.328125 0.5625q0.578125 0.5625 0.578125 1.328125l0 13.765625q0 4.46875 -2.71875 6.90625q-2.71875 2.4375 -7.609375 2.4375q-1.90625 0 -3.8125 -0.3125q-0.796875 -0.125 -1.328125 -0.78125q-0.53125 -0.640625 -0.53125 -1.484375l0 -1.359375q0 -0.703125 0.546875 -1.09375q0.546875 -0.375 1.25 -0.203125q1.5 0.390625 3.53125 0.390625q2.34375 0 3.421875 -1.03125q1.078125 -1.03125 1.078125 -3.46875l0 -0.828125q0 -0.03125 -0.03125 -0.03125q-0.0625 0 -0.0625 0.03125q-1.796875 2.0 -4.734375 2.0q-2.90625 0 -4.796875 -2.28125q-1.875 -2.28125 -1.875 -6.21875q0 -4.125 1.8125 -6.390625q1.828125 -2.265625 4.859375 -2.265625q2.90625 0 4.9375 2.484375q0.03125 0.046875 0.0625 0.046875q0.03125 0 0.03125 -0.046875l0 -0.265625q0.03125 -0.796875 0.59375 -1.34375q0.578125 -0.546875 1.375 -0.546875l2.09375 0zm18.207108 0.0625q0.765625 -0.09375 1.328125 0.46875q0.5625 0.5625 0.5625 1.359375l0 0.875q0 0.765625 -0.53125 1.3125q-0.53125 0.546875 -1.328125 0.65625q-2.5625 0.328125 -4.109375 1.921875q-1.53125 1.578125 -1.53125 3.84375l0 4.921875q0 0.765625 -0.5625 1.34375q-0.5625 0.5625 -1.328125 0.5625l-2.703125 0q-0.765625 0 -1.34375 -0.5625q-0.5625 -0.578125 -0.5625 -1.34375l0 -13.53125q0 -0.765625 0.5625 -1.328125q0.578125 -0.5625 1.34375 -0.5625l2.53125 0q0.765625 0 1.328125 0.5625q0.578125 0.5625 0.578125 1.328125l0 1.40625q0 0.03125 0.03125 0.03125q0.03125 0 0.0625 -0.03125q2.09375 -2.765625 5.671875 -3.234375zm14.785767 6.9375q0.3125 0 0.3125 -0.296875q-0.046875 -1.546875 -0.65625 -2.203125q-0.609375 -0.671875 -1.84375 -0.671875q-1.3125 0 -1.96875 0.65625q-0.640625 0.640625 -0.796875 2.25q0 0.265625 0.265625 0.265625l4.6875 0zm-2.359375 -7.328125q8.46875 0 8.5 8.921875q0 0.796875 -0.609375 1.359375q-0.59375 0.546875 -1.421875 0.546875l-8.734375 0q-0.296875 0 -0.234375 0.296875q0.296875 1.40625 1.3125 1.96875q1.015625 0.5625 3.1875 0.5625q1.359375 0 3.328125 -0.40625q0.703125 -0.15625 1.265625 0.296875q0.578125 0.4375 0.578125 1.171875l0 0.53125q0 0.84375 -0.53125 1.53125q-0.515625 0.671875 -1.3125 0.8125q-2.03125 0.390625 -4.328125 0.390625q-4.734375 0 -7.28125 -2.3125q-2.546875 -2.3125 -2.546875 -6.6875q0 -4.328125 2.265625 -6.65625q2.265625 -2.328125 6.5625 -2.328125zm19.191711 6.484375q3.796875 0.5 5.390625 1.921875q1.609375 1.421875 1.609375 4.078125q0 2.640625 -1.90625 4.078125q-1.890625 1.421875 -5.59375 1.421875q-2.734375 0 -5.5 -0.53125q-0.796875 -0.15625 -1.3125 -0.828125q-0.515625 -0.671875 -0.515625 -1.53125l0 -0.875q0 -0.6875 0.5625 -1.09375q0.578125 -0.40625 1.234375 -0.234375q2.5 0.59375 4.703125 0.59375q1.828125 0 1.828125 -1.0625q0 -0.5 -0.296875 -0.734375q-0.296875 -0.234375 -1.203125 -0.359375q-3.6875 -0.609375 -5.34375 -2.0625q-1.65625 -1.46875 -1.65625 -3.9375q0 -2.53125 1.953125 -3.921875q1.953125 -1.40625 5.890625 -1.40625q2.59375 0 4.796875 0.328125q0.828125 0.125 1.34375 0.765625q0.515625 0.625 0.515625 1.46875l0 0.703125q0 0.6875 -0.578125 1.140625q-0.578125 0.453125 -1.28125 0.3125q-2.03125 -0.390625 -4.171875 -0.390625q-1.09375 0 -1.53125 0.234375q-0.4375 0.234375 -0.4375 0.765625q0 1.0 1.5 1.15625zm17.8638 0q3.796875 0.5 5.390625 1.921875q1.609375 1.421875 1.609375 4.078125q0 2.640625 -1.90625 4.078125q-1.890625 1.421875 -5.59375 1.421875q-2.734375 0 -5.5 -0.53125q-0.796875 -0.15625 -1.3125 -0.828125q-0.515625 -0.671875 -0.515625 -1.53125l0 -0.875q0 -0.6875 0.5625 -1.09375q0.578125 -0.40625 1.234375 -0.234375q2.5 0.59375 4.703125 0.59375q1.828125 0 1.828125 -1.0625q0 -0.5 -0.296875 -0.734375q-0.296875 -0.234375 -1.203125 -0.359375q-3.6875 -0.609375 -5.34375 -2.0625q-1.65625 -1.46875 -1.65625 -3.9375q0 -2.53125 1.953125 -3.921875q1.953125 -1.40625 5.890625 -1.40625q2.59375 0 4.796875 0.328125q0.828125 0.125 1.34375 0.765625q0.515625 0.625 0.515625 1.46875l0 0.703125q0 0.6875 -0.578125 1.140625q-0.578125 0.453125 -1.28125 0.3125q-2.03125 -0.390625 -4.171875 -0.390625q-1.09375 0 -1.53125 0.234375q-0.4375 0.234375 -0.4375 0.765625q0 1.0 1.5 1.15625zm36.36325 5.671875q0.671875 -0.203125 1.21875 0.203125q0.546875 0.390625 0.546875 1.09375l0 1.796875q0 0.875 -0.515625 1.546875q-0.515625 0.65625 -1.34375 0.796875q-2.265625 0.390625 -4.796875 0.390625q-5.671875 0 -8.84375 -3.1875q-3.15625 -3.203125 -3.15625 -9.3125q0 -5.953125 3.0625 -9.21875q3.0625 -3.265625 8.59375 -3.265625q2.53125 0 4.796875 0.390625q0.84375 0.140625 1.359375 0.8125q0.515625 0.65625 0.515625 1.515625l0 1.875q0 0.703125 -0.5625 1.125q-0.546875 0.40625 -1.203125 0.203125q-2.0625 -0.59375 -4.0625 -0.59375q-2.671875 0 -4.171875 1.8125q-1.5 1.8125 -1.5 5.34375q0 3.46875 1.625 5.359375q1.640625 1.875 4.375 1.875q2.09375 0 4.0625 -0.5625zm11.592377 0.453125q0.640625 1.046875 2.03125 1.046875q1.40625 0 2.03125 -1.046875q0.640625 -1.046875 0.640625 -3.609375q0 -2.578125 -0.640625 -3.625q-0.625 -1.046875 -2.03125 -1.046875q-1.390625 0 -2.03125 1.046875q-0.625 1.046875 -0.625 3.625q0 2.5625 0.625 3.609375zm-4.59375 -10.21875q2.375 -2.390625 6.640625 -2.390625q4.265625 0 6.625 2.390625q2.375 2.375 2.375 6.609375q0 4.21875 -2.375 6.609375q-2.359375 2.375 -6.625 2.375q-4.265625 0 -6.640625 -2.375q-2.359375 -2.390625 -2.359375 -6.609375q0 -4.234375 2.359375 -6.609375zm38.50415 -2.390625q2.859375 0 4.171875 1.546875q1.3125 1.546875 1.3125 5.109375l0 9.09375q0 0.765625 -0.5625 1.34375q-0.5625 0.5625 -1.328125 0.5625l-2.375 0q-0.765625 0 -1.3125 -0.5625q-0.546875 -0.578125 -0.546875 -1.34375l0 -9.09375q0 -1.125 -0.34375 -1.53125q-0.328125 -0.40625 -1.1875 -0.40625q-0.671875 0 -1.25 0.4375q-0.578125 0.4375 -0.578125 0.828125l0 9.765625q0 0.765625 -0.578125 1.34375q-0.5625 0.5625 -1.328125 0.5625l-2.359375 0q-0.78125 0 -1.328125 -0.5625q-0.546875 -0.578125 -0.546875 -1.34375l0 -9.09375q0 -1.125 -0.34375 -1.53125q-0.328125 -0.40625 -1.1875 -0.40625q-0.671875 0 -1.25 0.4375q-0.578125 0.4375 -0.578125 0.828125l0 9.765625q0 0.765625 -0.578125 1.34375q-0.5625 0.5625 -1.328125 0.5625l-2.53125 0q-0.765625 0 -1.34375 -0.5625q-0.5625 -0.578125 -0.5625 -1.34375l0 -13.53125q0 -0.765625 0.5625 -1.328125q0.578125 -0.5625 1.34375 -0.5625l2.03125 0q0.796875 0 1.359375 0.546875q0.578125 0.546875 0.640625 1.34375l0.03125 0.40625q0 0.03125 0.03125 0.03125q0.078125 0 0.078125 -0.03125q0.890625 -1.234375 2.140625 -1.921875q1.25 -0.703125 2.453125 -0.703125q1.53125 0 2.4375 0.53125q0.921875 0.53125 1.765625 1.921875q0 0.03125 0.03125 0.03125q0.0625 0 0.09375 -0.03125q2.46875 -2.453125 4.84375 -2.453125zm18.51828 13.328125q1.296875 0 2.0625 -1.078125q0.78125 -1.09375 0.78125 -3.265625q0 -4.328125 -2.84375 -4.328125q-1.0625 0 -1.953125 0.8125q-0.875 0.796875 -0.875 1.6875l0 3.671875q0 0.890625 0.875 1.703125q0.890625 0.796875 1.953125 0.796875zm2.34375 -13.328125q3.0625 0 4.859375 2.3125q1.796875 2.3125 1.796875 6.671875q0 4.265625 -1.890625 6.640625q-1.875 2.359375 -4.765625 2.359375q-2.640625 0 -4.90625 -2.0q-0.03125 -0.03125 -0.0625 -0.03125q-0.03125 0 -0.03125 0.03125l0 7.109375q0 0.765625 -0.578125 1.328125q-0.5625 0.5625 -1.328125 0.5625l-2.53125 0q-0.765625 0 -1.34375 -0.5625q-0.5625 -0.5625 -0.5625 -1.328125l0 -20.875q0 -0.765625 0.5625 -1.328125q0.578125 -0.5625 1.34375 -0.5625l2.265625 0q0.796875 0 1.359375 0.546875q0.578125 0.546875 0.609375 1.34375l0 0.265625q0 0.046875 0.03125 0.046875q0.03125 0 0.0625 -0.046875q2.0625 -2.484375 5.109375 -2.484375zm15.290375 -7.34375q0.765625 0 1.328125 0.578125q0.578125 0.5625 0.578125 1.328125l0 21.1875q0 0.765625 -0.578125 1.34375q-0.5625 0.5625 -1.328125 0.5625l-2.859375 0q-0.765625 0 -1.34375 -0.5625q-0.5625 -0.578125 -0.5625 -1.34375l0 -21.1875q0 -0.765625 0.5625 -1.328125q0.578125 -0.578125 1.34375 -0.578125l2.859375 0zm16.79184 14.671875q0.3125 0 0.3125 -0.296875q-0.046875 -1.546875 -0.65625 -2.203125q-0.609375 -0.671875 -1.84375 -0.671875q-1.3125 0 -1.96875 0.65625q-0.640625 0.640625 -0.796875 2.25q0 0.265625 0.265625 0.265625l4.6875 0zm-2.359375 -7.328125q8.46875 0 8.5 8.921875q0 0.796875 -0.609375 1.359375q-0.59375 0.546875 -1.421875 0.546875l-8.734375 0q-0.296875 0 -0.234375 0.296875q0.296875 1.40625 1.3125 1.96875q1.015625 0.5625 3.1875 0.5625q1.359375 0 3.328125 -0.40625q0.703125 -0.15625 1.265625 0.296875q0.578125 0.4375 0.578125 1.171875l0 0.53125q0 0.84375 -0.53125 1.53125q-0.515625 0.671875 -1.3125 0.8125q-2.03125 0.390625 -4.328125 0.390625q-4.734375 0 -7.28125 -2.3125q-2.546875 -2.3125 -2.546875 -6.6875q0 -4.328125 2.265625 -6.65625q2.265625 -2.328125 6.5625 -2.328125zm23.624023 1.0q0.765625 0 1.328125 0.5625q0.578125 0.5625 0.578125 1.328125l0 0.53125q0 0.765625 -0.578125 1.34375q-0.5625 0.5625 -1.328125 0.5625l-2.96875 0q-0.296875 0 -0.296875 0.296875l0 4.703125q0 2.0 0.328125 2.5q0.34375 0.5 1.515625 0.5q0.453125 0 1.125 -0.109375q0.703125 -0.09375 1.28125 0.359375q0.59375 0.453125 0.59375 1.140625l0 0.875q0 0.828125 -0.53125 1.484375q-0.515625 0.640625 -1.3125 0.75q-1.15625 0.15625 -2.828125 0.15625q-3.5625 0 -5.03125 -1.53125q-1.46875 -1.53125 -1.46875 -5.46875l0 -5.359375q0 -0.296875 -0.296875 -0.296875l-1.296875 0q-0.765625 0 -1.34375 -0.5625q-0.5625 -0.578125 -0.5625 -1.34375l0 -0.53125q0 -0.765625 0.5625 -1.328125q0.578125 -0.5625 1.34375 -0.5625l1.296875 0q0.296875 0 0.296875 -0.3125l0 -4.125q0 -0.765625 0.5625 -1.328125q0.578125 -0.578125 1.34375 -0.578125l2.53125 0q0.765625 0 1.328125 0.578125q0.5625 0.5625 0.5625 1.328125l0 4.125q0 0.3125 0.296875 0.3125l2.96875 0zm15.796051 6.328125q0.3125 0 0.3125 -0.296875q-0.046875 -1.546875 -0.65625 -2.203125q-0.609375 -0.671875 -1.84375 -0.671875q-1.3125 0 -1.96875 0.65625q-0.640625 0.640625 -0.796875 2.25q0 0.265625 0.265625 0.265625l4.6875 0zm-2.359375 -7.328125q8.46875 0 8.5 8.921875q0 0.796875 -0.609375 1.359375q-0.59375 0.546875 -1.421875 0.546875l-8.734375 0q-0.296875 0 -0.234375 0.296875q0.296875 1.40625 1.3125 1.96875q1.015625 0.5625 3.1875 0.5625q1.359375 0 3.328125 -0.40625q0.703125 -0.15625 1.265625 0.296875q0.578125 0.4375 0.578125 1.171875l0 0.53125q0 0.84375 -0.53125 1.53125q-0.515625 0.671875 -1.3125 0.8125q-2.03125 0.390625 -4.328125 0.390625q-4.734375 0 -7.28125 -2.3125q-2.546875 -2.3125 -2.546875 -6.6875q0 -4.328125 2.265625 -6.65625q2.265625 -2.328125 6.5625 -2.328125zm22.868805 10.828125l0 -3.671875q0 -0.96875 -0.859375 -1.734375q-0.84375 -0.765625 -1.984375 -0.765625q-2.828125 0 -2.828125 4.328125q0 2.171875 0.765625 3.265625q0.765625 1.078125 2.0625 1.078125q1.140625 0 1.984375 -0.765625q0.859375 -0.765625 0.859375 -1.734375zm4.265625 -18.171875q0.765625 0 1.328125 0.578125q0.5625 0.5625 0.5625 1.328125l0 21.1875q0 0.765625 -0.5625 1.34375q-0.5625 0.5625 -1.328125 0.5625l-2.109375 0q-0.796875 0 -1.359375 -0.546875q-0.5625 -0.546875 -0.609375 -1.359375l0 -0.265625q0 -0.03125 -0.03125 -0.03125q-0.03125 0 -0.0625 0.03125q-2.03125 2.5 -5.265625 2.5q-2.90625 0 -4.796875 -2.359375q-1.875 -2.375 -1.875 -6.640625q0 -4.359375 1.796875 -6.671875q1.8125 -2.3125 4.875 -2.3125q2.671875 0 4.90625 1.953125q0.03125 0.03125 0.0625 0.03125q0.03125 0 0.03125 -0.03125l0 -7.390625q0 -0.765625 0.5625 -1.328125q0.5625 -0.578125 1.34375 -0.578125l2.53125 0z" fill-rule="nonzero"/><path fill="#000000" d="m161.82812 378.93832q0.671875 -0.203125 1.21875 0.203125q0.546875 0.390625 0.546875 1.09375l0 1.796875q0 0.875 -0.515625 1.546875q-0.515625 0.65625 -1.34375 0.796875q-2.265625 0.390625 -4.796875 0.390625q-5.671875 0 -8.84375 -3.1875q-3.15625 -3.203125 -3.15625 -9.3125q0 -5.953125 3.0625 -9.21875q3.0625 -3.265625 8.59375 -3.265625q2.53125 0 4.796875 0.390625q0.84375 0.140625 1.359375 0.8125q0.515625 0.65625 0.515625 1.515625l0 1.875q0 0.703125 -0.5625 1.125q-0.546875 0.40625 -1.203125 0.203125q-2.0625 -0.59375 -4.0625 -0.59375q-2.671875 0 -4.171875 1.8125q-1.5 1.8125 -1.5 5.34375q0 3.46875 1.625 5.359375q1.640625 1.875 4.375 1.875q2.09375 0 4.0625 -0.5625zm11.592377 0.453125q0.640625 1.046875 2.03125 1.046875q1.40625 0 2.03125 -1.046875q0.640625 -1.046875 0.640625 -3.609375q0 -2.578125 -0.640625 -3.625q-0.625 -1.046875 -2.03125 -1.046875q-1.390625 0 -2.03125 1.046875q-0.625 1.046875 -0.625 3.625q0 2.5625 0.625 3.609375zm-4.59375 -10.21875q2.375 -2.390625 6.640625 -2.390625q4.265625 0 6.625 2.390625q2.375 2.375 2.375 6.609375q0 4.21875 -2.375 6.609375q-2.359375 2.375 -6.625 2.375q-4.265625 0 -6.640625 -2.375q-2.359375 -2.390625 -2.359375 -6.609375q0 -4.234375 2.359375 -6.609375zm29.837479 8.4375l0 -3.671875q0 -0.96875 -0.859375 -1.734375q-0.84375 -0.765625 -1.984375 -0.765625q-2.828125 0 -2.828125 4.328125q0 2.171875 0.765625 3.265625q0.765625 1.078125 2.0625 1.078125q1.140625 0 1.984375 -0.765625q0.859375 -0.765625 0.859375 -1.734375zm4.265625 -18.171875q0.765625 0 1.328125 0.578125q0.5625 0.5625 0.5625 1.328125l0 21.1875q0 0.765625 -0.5625 1.34375q-0.5625 0.5625 -1.328125 0.5625l-2.109375 0q-0.796875 0 -1.359375 -0.546875q-0.5625 -0.546875 -0.609375 -1.359375l0 -0.265625q0 -0.03125 -0.03125 -0.03125q-0.03125 0 -0.0625 0.03125q-2.03125 2.5 -5.265625 2.5q-2.90625 0 -4.796875 -2.359375q-1.875 -2.375 -1.875 -6.640625q0 -4.359375 1.796875 -6.671875q1.8125 -2.3125 4.875 -2.3125q2.671875 0 4.90625 1.953125q0.03125 0.03125 0.0625 0.03125q0.03125 0 0.03125 -0.03125l0 -7.390625q0 -0.765625 0.5625 -1.328125q0.5625 -0.578125 1.34375 -0.578125l2.53125 0zm16.285156 14.671875q0.3125 0 0.3125 -0.296875q-0.046875 -1.546875 -0.65625 -2.203125q-0.609375 -0.671875 -1.84375 -0.671875q-1.3125 0 -1.96875 0.65625q-0.640625 0.640625 -0.796875 2.25q0 0.265625 0.265625 0.265625l4.6875 0zm-2.359375 -7.328125q8.46875 0 8.5 8.921875q0 0.796875 -0.609375 1.359375q-0.59375 0.546875 -1.421875 0.546875l-8.734375 0q-0.296875 0 -0.234375 0.296875q0.296875 1.40625 1.3125 1.96875q1.015625 0.5625 3.1875 0.5625q1.359375 0 3.328125 -0.40625q0.703125 -0.15625 1.265625 0.296875q0.578125 0.4375 0.578125 1.171875l0 0.53125q0 0.84375 -0.53125 1.53125q-0.515625 0.671875 -1.3125 0.8125q-2.03125 0.390625 -4.328125 0.390625q-4.734375 0 -7.28125 -2.3125q-2.546875 -2.3125 -2.546875 -6.6875q0 -4.328125 2.265625 -6.65625q2.265625 -2.328125 6.5625 -2.328125zm30.295364 4.328125q1.703125 0 2.6875 -0.84375q0.984375 -0.859375 0.984375 -2.328125q0 -3.15625 -3.671875 -3.15625q-0.828125 0 -1.53125 0.09375q-0.296875 0.0625 -0.296875 0.359375l0 5.578125q0 0.296875 0.296875 0.296875l1.53125 0zm8.59375 6.65625l1.765625 4.90625q0.234375 0.671875 -0.171875 1.21875q-0.390625 0.546875 -1.09375 0.546875l-3.03125 0q-0.859375 0 -1.5625 -0.5q-0.703125 -0.5 -0.9375 -1.296875l-1.46875 -4.53125q-0.359375 -1.171875 -0.9375 -1.671875q-0.5625 -0.5 -1.484375 -0.5l-1.203125 0q-0.296875 0 -0.296875 0.296875l0 6.296875q0 0.765625 -0.578125 1.34375q-0.5625 0.5625 -1.328125 0.5625l-2.703125 0q-0.765625 0 -1.328125 -0.5625q-0.5625 -0.578125 -0.5625 -1.34375l0 -20.359375q0 -0.796875 0.515625 -1.40625q0.515625 -0.625 1.3125 -0.6875q3.265625 -0.296875 6.828125 -0.296875q10.0 0 10.0 7.5q0 2.09375 -1.28125 3.890625q-1.28125 1.796875 -3.34375 2.5625q-0.03125 0 -0.03125 0.03125q0 0.078125 0.03125 0.078125q1.0 0.5625 1.640625 1.4375q0.65625 0.859375 1.25 2.484375zm14.395416 -3.65625q0.3125 0 0.3125 -0.296875q-0.046875 -1.546875 -0.65625 -2.203125q-0.609375 -0.671875 -1.84375 -0.671875q-1.3125 0 -1.96875 0.65625q-0.640625 0.640625 -0.796875 2.25q0 0.265625 0.265625 0.265625l4.6875 0zm-2.359375 -7.328125q8.46875 0 8.5 8.921875q0 0.796875 -0.609375 1.359375q-0.59375 0.546875 -1.421875 0.546875l-8.734375 0q-0.296875 0 -0.234375 0.296875q0.296875 1.40625 1.3125 1.96875q1.015625 0.5625 3.1875 0.5625q1.359375 0 3.328125 -0.40625q0.703125 -0.15625 1.265625 0.296875q0.578125 0.4375 0.578125 1.171875l0 0.53125q0 0.84375 -0.53125 1.53125q-0.515625 0.671875 -1.3125 0.8125q-2.03125 0.390625 -4.328125 0.390625q-4.734375 0 -7.28125 -2.3125q-2.546875 -2.3125 -2.546875 -6.6875q0 -4.328125 2.265625 -6.65625q2.265625 -2.328125 6.5625 -2.328125zm22.868805 10.828125l0 -3.671875q0 -0.96875 -0.859375 -1.734375q-0.84375 -0.765625 -1.984375 -0.765625q-2.828125 0 -2.828125 4.328125q0 2.171875 0.765625 3.265625q0.765625 1.078125 2.0625 1.078125q1.140625 0 1.984375 -0.765625q0.859375 -0.765625 0.859375 -1.734375zm4.265625 -18.171875q0.765625 0 1.328125 0.578125q0.5625 0.5625 0.5625 1.328125l0 21.1875q0 0.765625 -0.5625 1.34375q-0.5625 0.5625 -1.328125 0.5625l-2.109375 0q-0.796875 0 -1.359375 -0.546875q-0.5625 -0.546875 -0.609375 -1.359375l0 -0.265625q0 -0.03125 -0.03125 -0.03125q-0.03125 0 -0.0625 0.03125q-2.03125 2.5 -5.265625 2.5q-2.90625 0 -4.796875 -2.359375q-1.875 -2.375 -1.875 -6.640625q0 -4.359375 1.796875 -6.671875q1.8125 -2.3125 4.875 -2.3125q2.671875 0 4.90625 1.953125q0.03125 0.03125 0.0625 0.03125q0.03125 0 0.03125 -0.03125l0 -7.390625q0 -0.765625 0.5625 -1.328125q0.5625 -0.578125 1.34375 -0.578125l2.53125 0zm23.732544 15.328125l3.46875 0q0.09375 0 0.171875 -0.078125q0.09375 -0.078125 0.0625 -0.1875l-1.9375 -8.6875q0 -0.03125 -0.03125 -0.03125q-0.03125 0 -0.03125 0.03125l-1.9375 8.6875q-0.03125 0.109375 0.046875 0.1875q0.078125 0.078125 0.1875 0.078125zm5.859375 -12.859375l6.53125 20.734375q0.203125 0.65625 -0.21875 1.234375q-0.40625 0.5625 -1.109375 0.5625l-3.265625 0q-0.828125 0 -1.484375 -0.515625q-0.65625 -0.515625 -0.8125 -1.3125l-0.578125 -2.578125q-0.0625 -0.265625 -0.328125 -0.265625l-5.703125 0q-0.328125 0 -0.359375 0.265625l-0.5625 2.578125q-0.171875 0.796875 -0.828125 1.3125q-0.640625 0.515625 -1.484375 0.515625l-3.125 0q-0.703125 0 -1.125 -0.5625q-0.40625 -0.578125 -0.203125 -1.234375l6.53125 -20.734375q0.234375 -0.796875 0.90625 -1.296875q0.6875 -0.5 1.5625 -0.5l3.1875 0q0.84375 0 1.515625 0.5q0.6875 0.5 0.953125 1.296875zm22.76416 5.203125q0.703125 0 1.125 0.5625q0.4375 0.5625 0.25 1.234375l-4.109375 13.734375q-0.265625 0.796875 -0.9375 1.296875q-0.65625 0.5 -1.5 0.5l-4.53125 0q-0.859375 0 -1.53125 -0.5q-0.65625 -0.5 -0.890625 -1.296875l-4.109375 -13.734375q-0.1875 -0.671875 0.234375 -1.234375q0.4375 -0.5625 1.140625 -0.5625l2.921875 0q0.8125 0 1.453125 0.53125q0.65625 0.53125 0.828125 1.328125l2.265625 11.765625q0 0.03125 0.03125 0.03125q0.03125 0 0.03125 -0.03125l2.265625 -11.765625q0.125 -0.796875 0.78125 -1.328125q0.65625 -0.53125 1.484375 -0.53125l2.796875 0zm13.256317 10.328125l0 -0.203125q0 -0.296875 -0.296875 -0.296875l-1.03125 0q-3.328125 0 -3.328125 2.0q0 1.5 1.65625 1.5q1.296875 0 2.140625 -0.8125q0.859375 -0.8125 0.859375 -2.1875zm-2.0 -10.65625q4.40625 0 6.375 1.59375q1.96875 1.59375 1.96875 5.0625l0 9.09375q0 0.765625 -0.578125 1.34375q-0.5625 0.5625 -1.328125 0.5625l-2.09375 0q-0.8125 0 -1.375 -0.546875q-0.5625 -0.546875 -0.59375 -1.359375l0 -0.265625q0 -0.03125 -0.046875 -0.03125q-0.03125 0 -0.0625 0.03125q-2.125 2.5 -5.265625 2.5q-2.328125 0 -3.828125 -1.484375q-1.5 -1.484375 -1.5 -3.84375q0 -6.0 9.0 -6.0l1.03125 0q0.296875 0 0.296875 -0.296875l0 -0.03125q0 -2.0 -2.328125 -2.0q-2.0 0 -5.171875 0.59375q-0.6875 0.140625 -1.265625 -0.3125q-0.5625 -0.453125 -0.5625 -1.1875l0 -0.53125q0 -0.828125 0.515625 -1.5q0.515625 -0.671875 1.3125 -0.796875q3.3125 -0.59375 5.5 -0.59375zm17.801025 0.328125q0.765625 0 1.328125 0.5625q0.578125 0.5625 0.578125 1.328125l0 13.53125q0 0.765625 -0.578125 1.34375q-0.5625 0.5625 -1.328125 0.5625l-2.859375 0q-0.765625 0 -1.34375 -0.5625q-0.5625 -0.578125 -0.5625 -1.34375l0 -13.53125q0 -0.765625 0.5625 -1.328125q0.578125 -0.5625 1.34375 -0.5625l2.859375 0zm0 -7.671875q0.765625 0 1.328125 0.578125q0.578125 0.5625 0.578125 1.328125l0 0.859375q0 0.765625 -0.578125 1.34375q-0.5625 0.5625 -1.328125 0.5625l-2.859375 0q-0.765625 0 -1.34375 -0.5625q-0.5625 -0.578125 -0.5625 -1.34375l0 -0.859375q0 -0.765625 0.5625 -1.328125q0.578125 -0.578125 1.34375 -0.578125l2.859375 0zm11.531403 0q0.765625 0 1.328125 0.578125q0.578125 0.5625 0.578125 1.328125l0 21.1875q0 0.765625 -0.578125 1.34375q-0.5625 0.5625 -1.328125 0.5625l-2.859375 0q-0.765625 0 -1.34375 -0.5625q-0.5625 -0.578125 -0.5625 -1.34375l0 -21.1875q0 -0.765625 0.5625 -1.328125q0.578125 -0.578125 1.34375 -0.578125l2.859375 0zm16.26056 18.0l0 -0.203125q0 -0.296875 -0.296875 -0.296875l-1.03125 0q-3.328125 0 -3.328125 2.0q0 1.5 1.65625 1.5q1.296875 0 2.140625 -0.8125q0.859375 -0.8125 0.859375 -2.1875zm-2.0 -10.65625q4.40625 0 6.375 1.59375q1.96875 1.59375 1.96875 5.0625l0 9.09375q0 0.765625 -0.578125 1.34375q-0.5625 0.5625 -1.328125 0.5625l-2.09375 0q-0.8125 0 -1.375 -0.546875q-0.5625 -0.546875 -0.59375 -1.359375l0 -0.265625q0 -0.03125 -0.046875 -0.03125q-0.03125 0 -0.0625 0.03125q-2.125 2.5 -5.265625 2.5q-2.328125 0 -3.828125 -1.484375q-1.5 -1.484375 -1.5 -3.84375q0 -6.0 9.0 -6.0l1.03125 0q0.296875 0 0.296875 -0.296875l0 -0.03125q0 -2.0 -2.328125 -2.0q-2.0 0 -5.171875 0.59375q-0.6875 0.140625 -1.265625 -0.3125q-0.5625 -0.453125 -0.5625 -1.1875l0 -0.53125q0 -0.828125 0.515625 -1.5q0.515625 -0.671875 1.3125 -0.796875q3.3125 -0.59375 5.5 -0.59375zm21.5354 13.328125q1.296875 0 2.0625 -1.078125q0.765625 -1.09375 0.765625 -3.265625q0 -4.328125 -2.828125 -4.328125q-1.140625 0 -1.984375 0.765625q-0.84375 0.765625 -0.84375 1.734375l0 3.671875q0 0.96875 0.84375 1.734375q0.84375 0.765625 1.984375 0.765625zm2.328125 -13.328125q3.0625 0 4.859375 2.3125q1.8125 2.3125 1.8125 6.671875q0 4.265625 -1.890625 6.640625q-1.875 2.359375 -4.78125 2.359375q-3.203125 0 -5.265625 -2.5q-0.03125 -0.03125 -0.0625 -0.03125q-0.03125 0 -0.03125 0.03125l0 0.265625q-0.03125 0.8125 -0.609375 1.359375q-0.5625 0.546875 -1.359375 0.546875l-2.09375 0q-0.765625 0 -1.34375 -0.5625q-0.5625 -0.578125 -0.5625 -1.34375l0 -21.1875q0 -0.765625 0.5625 -1.328125q0.578125 -0.578125 1.34375 -0.578125l2.53125 0q0.765625 0 1.328125 0.578125q0.5625 0.5625 0.5625 1.328125l0 7.390625q0 0.03125 0.03125 0.03125q0.046875 0 0.078125 -0.03125q2.234375 -1.953125 4.890625 -1.953125zm15.300781 -7.34375q0.765625 0 1.328125 0.578125q0.578125 0.5625 0.578125 1.328125l0 21.1875q0 0.765625 -0.578125 1.34375q-0.5625 0.5625 -1.328125 0.5625l-2.859375 0q-0.765625 0 -1.34375 -0.5625q-0.5625 -0.578125 -0.5625 -1.34375l0 -21.1875q0 -0.765625 0.5625 -1.328125q0.578125 -0.578125 1.34375 -0.578125l2.859375 0zm16.79181 14.671875q0.3125 0 0.3125 -0.296875q-0.046875 -1.546875 -0.65625 -2.203125q-0.609375 -0.671875 -1.84375 -0.671875q-1.3125 0 -1.96875 0.65625q-0.640625 0.640625 -0.796875 2.25q0 0.265625 0.265625 0.265625l4.6875 0zm-2.359375 -7.328125q8.46875 0 8.5 8.921875q0 0.796875 -0.609375 1.359375q-0.59375 0.546875 -1.421875 0.546875l-8.734375 0q-0.296875 0 -0.234375 0.296875q0.296875 1.40625 1.3125 1.96875q1.015625 0.5625 3.1875 0.5625q1.359375 0 3.328125 -0.40625q0.703125 -0.15625 1.265625 0.296875q0.578125 0.4375 0.578125 1.171875l0 0.53125q0 0.84375 -0.53125 1.53125q-0.515625 0.671875 -1.3125 0.8125q-2.03125 0.390625 -4.328125 0.390625q-4.734375 0 -7.28125 -2.3125q-2.546875 -2.3125 -2.546875 -6.6875q0 -4.328125 2.265625 -6.65625q2.265625 -2.328125 6.5625 -2.328125z" fill-rule="nonzero"/><path fill="#000000" d="m160.53125 400.1102q0.765625 0 1.328125 0.5625q0.578125 0.5625 0.578125 1.328125l0 1.546875q0 0.765625 -0.578125 1.328125q-0.5625 0.5625 -1.328125 0.5625l-7.125 0q-0.3125 0 -0.3125 0.265625l0 3.4375q0 0.296875 0.3125 0.296875l6.453125 0q0.765625 0 1.328125 0.578125q0.578125 0.5625 0.578125 1.328125l0 1.203125q0 0.765625 -0.578125 1.328125q-0.5625 0.5625 -1.328125 0.5625l-6.453125 0q-0.3125 0 -0.3125 0.265625l0 4.109375q0 0.296875 0.3125 0.296875l7.125 0q0.765625 0 1.328125 0.5625q0.578125 0.5625 0.578125 1.328125l0 1.53125q0 0.765625 -0.578125 1.34375q-0.5625 0.5625 -1.328125 0.5625l-12.203125 0q-0.765625 0 -1.328125 -0.5625q-0.5625 -0.578125 -0.5625 -1.34375l0 -20.53125q0 -0.765625 0.5625 -1.328125q0.5625 -0.5625 1.328125 -0.5625l12.203125 0zm17.759262 15.734375l3.796875 6.921875q0.296875 0.578125 -0.03125 1.125q-0.328125 0.546875 -0.96875 0.546875l-2.921875 0q-0.84375 0 -1.5625 -0.484375q-0.71875 -0.484375 -1.046875 -1.28125l-1.59375 -3.96875q0 -0.03125 -0.03125 -0.03125q-0.03125 0 -0.03125 0.03125l-1.609375 3.96875q-0.328125 0.796875 -1.03125 1.28125q-0.703125 0.484375 -1.5625 0.484375l-2.796875 0q-0.640625 0 -0.984375 -0.546875q-0.328125 -0.546875 -0.015625 -1.125l3.796875 -6.921875q0.125 -0.234375 0 -0.46875l-3.640625 -6.609375q-0.296875 -0.5625 0.03125 -1.109375q0.34375 -0.546875 0.96875 -0.546875l2.9375 0q0.859375 0 1.5625 0.484375q0.703125 0.484375 1.0 1.28125l1.46875 3.734375q0 0.03125 0.03125 0.03125q0.03125 0 0.03125 -0.03125l1.46875 -3.734375q0.296875 -0.796875 1.0 -1.28125q0.703125 -0.484375 1.5625 -0.484375l2.8125 0q0.625 0 0.953125 0.546875q0.34375 0.546875 0.046875 1.109375l-3.640625 6.609375q-0.125 0.234375 0 0.46875zm15.996994 4.265625q1.296875 0 2.0625 -1.078125q0.78125 -1.09375 0.78125 -3.265625q0 -4.328125 -2.84375 -4.328125q-1.0625 0 -1.953125 0.8125q-0.875 0.796875 -0.875 1.6875l0 3.671875q0 0.890625 0.875 1.703125q0.890625 0.796875 1.953125 0.796875zm2.34375 -13.328125q3.0625 0 4.859375 2.3125q1.796875 2.3125 1.796875 6.671875q0 4.265625 -1.890625 6.640625q-1.875 2.359375 -4.765625 2.359375q-2.640625 0 -4.90625 -2.0q-0.03125 -0.03125 -0.0625 -0.03125q-0.03125 0 -0.03125 0.03125l0 7.109375q0 0.765625 -0.578125 1.328125q-0.5625 0.5625 -1.328125 0.5625l-2.53125 0q-0.765625 0 -1.34375 -0.5625q-0.5625 -0.5625 -0.5625 -1.328125l0 -20.875q0 -0.765625 0.5625 -1.328125q0.578125 -0.5625 1.34375 -0.5625l2.265625 0q0.796875 0 1.359375 0.546875q0.578125 0.546875 0.609375 1.34375l0 0.265625q0 0.046875 0.03125 0.046875q0.03125 0 0.0625 -0.046875q2.0625 -2.484375 5.109375 -2.484375zm20.217468 7.328125q0.3125 0 0.3125 -0.296875q-0.046875 -1.546875 -0.65625 -2.203125q-0.609375 -0.671875 -1.84375 -0.671875q-1.3125 0 -1.96875 0.65625q-0.640625 0.640625 -0.796875 2.25q0 0.265625 0.265625 0.265625l4.6875 0zm-2.359375 -7.328125q8.46875 0 8.5 8.921875q0 0.796875 -0.609375 1.359375q-0.59375 0.546875 -1.421875 0.546875l-8.734375 0q-0.296875 0 -0.234375 0.296875q0.296875 1.40625 1.3125 1.96875q1.015625 0.5625 3.1875 0.5625q1.359375 0 3.328125 -0.40625q0.703125 -0.15625 1.265625 0.296875q0.578125 0.4375 0.578125 1.171875l0 0.53125q0 0.84375 -0.53125 1.53125q-0.515625 0.671875 -1.3125 0.8125q-2.03125 0.390625 -4.328125 0.390625q-4.734375 0 -7.28125 -2.3125q-2.546875 -2.3125 -2.546875 -6.6875q0 -4.328125 2.265625 -6.65625q2.265625 -2.328125 6.5625 -2.328125zm22.868805 10.828125l0 -3.671875q0 -0.96875 -0.859375 -1.734375q-0.84375 -0.765625 -1.984375 -0.765625q-2.828125 0 -2.828125 4.328125q0 2.171875 0.765625 3.265625q0.765625 1.078125 2.0625 1.078125q1.140625 0 1.984375 -0.765625q0.859375 -0.765625 0.859375 -1.734375zm4.265625 -18.171875q0.765625 0 1.328125 0.578125q0.5625 0.5625 0.5625 1.328125l0 21.1875q0 0.765625 -0.5625 1.34375q-0.5625 0.5625 -1.328125 0.5625l-2.109375 0q-0.796875 0 -1.359375 -0.546875q-0.5625 -0.546875 -0.609375 -1.359375l0 -0.265625q0 -0.03125 -0.03125 -0.03125q-0.03125 0 -0.0625 0.03125q-2.03125 2.5 -5.265625 2.5q-2.90625 0 -4.796875 -2.359375q-1.875 -2.375 -1.875 -6.640625q0 -4.359375 1.796875 -6.671875q1.8125 -2.3125 4.875 -2.3125q2.671875 0 4.90625 1.953125q0.03125 0.03125 0.0625 0.03125q0.03125 0 0.03125 -0.03125l0 -7.390625q0 -0.765625 0.5625 -1.328125q0.5625 -0.578125 1.34375 -0.578125l2.53125 0zm11.691406 7.671875q0.765625 0 1.328125 0.5625q0.578125 0.5625 0.578125 1.328125l0 13.53125q0 0.765625 -0.578125 1.34375q-0.5625 0.5625 -1.328125 0.5625l-2.859375 0q-0.765625 0 -1.34375 -0.5625q-0.5625 -0.578125 -0.5625 -1.34375l0 -13.53125q0 -0.765625 0.5625 -1.328125q0.578125 -0.5625 1.34375 -0.5625l2.859375 0zm0 -7.671875q0.765625 0 1.328125 0.578125q0.578125 0.5625 0.578125 1.328125l0 0.859375q0 0.765625 -0.578125 1.34375q-0.5625 0.5625 -1.328125 0.5625l-2.859375 0q-0.765625 0 -1.34375 -0.5625q-0.5625 -0.578125 -0.5625 -1.34375l0 -0.859375q0 -0.765625 0.5625 -1.328125q0.578125 -0.578125 1.34375 -0.578125l2.859375 0zm19.026184 8.34375q0.765625 0 1.328125 0.5625q0.578125 0.5625 0.578125 1.328125l0 0.53125q0 0.765625 -0.578125 1.34375q-0.5625 0.5625 -1.328125 0.5625l-2.96875 0q-0.296875 0 -0.296875 0.296875l0 4.703125q0 2.0 0.328125 2.5q0.34375 0.5 1.515625 0.5q0.453125 0 1.125 -0.109375q0.703125 -0.09375 1.28125 0.359375q0.59375 0.453125 0.59375 1.140625l0 0.875q0 0.828125 -0.53125 1.484375q-0.515625 0.640625 -1.3125 0.75q-1.15625 0.15625 -2.828125 0.15625q-3.5625 0 -5.03125 -1.53125q-1.46875 -1.53125 -1.46875 -5.46875l0 -5.359375q0 -0.296875 -0.296875 -0.296875l-1.296875 0q-0.765625 0 -1.34375 -0.5625q-0.5625 -0.578125 -0.5625 -1.34375l0 -0.53125q0 -0.765625 0.5625 -1.328125q0.578125 -0.5625 1.34375 -0.5625l1.296875 0q0.296875 0 0.296875 -0.3125l0 -4.125q0 -0.765625 0.5625 -1.328125q0.578125 -0.578125 1.34375 -0.578125l2.53125 0q0.765625 0 1.328125 0.578125q0.5625 0.5625 0.5625 1.328125l0 4.125q0 0.3125 0.296875 0.3125l2.96875 0zm11.535645 -0.671875q0.765625 0 1.328125 0.5625q0.578125 0.5625 0.578125 1.328125l0 13.53125q0 0.765625 -0.578125 1.34375q-0.5625 0.5625 -1.328125 0.5625l-2.859375 0q-0.765625 0 -1.34375 -0.5625q-0.5625 -0.578125 -0.5625 -1.34375l0 -13.53125q0 -0.765625 0.5625 -1.328125q0.578125 -0.5625 1.34375 -0.5625l2.859375 0zm0 -7.671875q0.765625 0 1.328125 0.578125q0.578125 0.5625 0.578125 1.328125l0 0.859375q0 0.765625 -0.578125 1.34375q-0.5625 0.5625 -1.328125 0.5625l-2.859375 0q-0.765625 0 -1.34375 -0.5625q-0.5625 -0.578125 -0.5625 -1.34375l0 -0.859375q0 -0.765625 0.5625 -1.328125q0.578125 -0.578125 1.34375 -0.578125l2.859375 0zm12.557434 19.953125q0.640625 1.046875 2.03125 1.046875q1.40625 0 2.03125 -1.046875q0.640625 -1.046875 0.640625 -3.609375q0 -2.578125 -0.640625 -3.625q-0.625 -1.046875 -2.03125 -1.046875q-1.390625 0 -2.03125 1.046875q-0.625 1.046875 -0.625 3.625q0 2.5625 0.625 3.609375zm-4.59375 -10.21875q2.375 -2.390625 6.640625 -2.390625q4.265625 0 6.625 2.390625q2.375 2.375 2.375 6.609375q0 4.21875 -2.375 6.609375q-2.359375 2.375 -6.625 2.375q-4.265625 0 -6.640625 -2.375q-2.359375 -2.390625 -2.359375 -6.609375q0 -4.234375 2.359375 -6.609375zm24.894775 0.09375q2.0625 -2.484375 5.09375 -2.484375q3.046875 0 4.359375 1.734375q1.3125 1.71875 1.3125 5.921875l0 8.09375q0 0.765625 -0.5625 1.34375q-0.5625 0.5625 -1.328125 0.5625l-2.375 0q-0.765625 0 -1.328125 -0.5625q-0.5625 -0.578125 -0.5625 -1.34375l0 -8.09375q0 -1.53125 -0.4375 -2.09375q-0.4375 -0.578125 -1.5625 -0.578125q-0.9375 0 -1.71875 0.734375q-0.78125 0.734375 -0.78125 1.609375l0 8.421875q0 0.765625 -0.578125 1.34375q-0.5625 0.5625 -1.328125 0.5625l-2.53125 0q-0.765625 0 -1.34375 -0.5625q-0.5625 -0.578125 -0.5625 -1.34375l0 -13.53125q0 -0.765625 0.5625 -1.328125q0.578125 -0.5625 1.34375 -0.5625l2.265625 0q0.796875 0 1.359375 0.546875q0.578125 0.546875 0.609375 1.34375l0 0.265625q0 0.046875 0.03125 0.046875q0.0625 0 0.0625 -0.046875zm32.274292 5.5l3.46875 0q0.09375 0 0.171875 -0.078125q0.09375 -0.078125 0.0625 -0.1875l-1.9375 -8.6875q0 -0.03125 -0.03125 -0.03125q-0.03125 0 -0.03125 0.03125l-1.9375 8.6875q-0.03125 0.109375 0.046875 0.1875q0.078125 0.078125 0.1875 0.078125zm5.859375 -12.859375l6.53125 20.734375q0.203125 0.65625 -0.21875 1.234375q-0.40625 0.5625 -1.109375 0.5625l-3.265625 0q-0.828125 0 -1.484375 -0.515625q-0.65625 -0.515625 -0.8125 -1.3125l-0.578125 -2.578125q-0.0625 -0.265625 -0.328125 -0.265625l-5.703125 0q-0.328125 0 -0.359375 0.265625l-0.5625 2.578125q-0.171875 0.796875 -0.828125 1.3125q-0.640625 0.515625 -1.484375 0.515625l-3.125 0q-0.703125 0 -1.125 -0.5625q-0.40625 -0.578125 -0.203125 -1.234375l6.53125 -20.734375q0.234375 -0.796875 0.90625 -1.296875q0.6875 -0.5 1.5625 -0.5l3.1875 0q0.84375 0 1.515625 0.5q0.6875 0.5 0.953125 1.296875zm22.76413 5.203125q0.703125 0 1.125 0.5625q0.4375 0.5625 0.25 1.234375l-4.109375 13.734375q-0.265625 0.796875 -0.9375 1.296875q-0.65625 0.5 -1.5 0.5l-4.53125 0q-0.859375 0 -1.53125 -0.5q-0.65625 -0.5 -0.890625 -1.296875l-4.109375 -13.734375q-0.1875 -0.671875 0.234375 -1.234375q0.4375 -0.5625 1.140625 -0.5625l2.921875 0q0.8125 0 1.453125 0.53125q0.65625 0.53125 0.828125 1.328125l2.265625 11.765625q0 0.03125 0.03125 0.03125q0.03125 0 0.03125 -0.03125l2.265625 -11.765625q0.125 -0.796875 0.78125 -1.328125q0.65625 -0.53125 1.484375 -0.53125l2.796875 0zm13.256317 10.328125l0 -0.203125q0 -0.296875 -0.296875 -0.296875l-1.03125 0q-3.328125 0 -3.328125 2.0q0 1.5 1.65625 1.5q1.296875 0 2.140625 -0.8125q0.859375 -0.8125 0.859375 -2.1875zm-2.0 -10.65625q4.40625 0 6.375 1.59375q1.96875 1.59375 1.96875 5.0625l0 9.09375q0 0.765625 -0.578125 1.34375q-0.5625 0.5625 -1.328125 0.5625l-2.09375 0q-0.8125 0 -1.375 -0.546875q-0.5625 -0.546875 -0.59375 -1.359375l0 -0.265625q0 -0.03125 -0.046875 -0.03125q-0.03125 0 -0.0625 0.03125q-2.125 2.5 -5.265625 2.5q-2.328125 0 -3.828125 -1.484375q-1.5 -1.484375 -1.5 -3.84375q0 -6.0 9.0 -6.0l1.03125 0q0.296875 0 0.296875 -0.296875l0 -0.03125q0 -2.0 -2.328125 -2.0q-2.0 0 -5.171875 0.59375q-0.6875 0.140625 -1.265625 -0.3125q-0.5625 -0.453125 -0.5625 -1.1875l0 -0.53125q0 -0.828125 0.515625 -1.5q0.515625 -0.671875 1.3125 -0.796875q3.3125 -0.59375 5.5 -0.59375zm17.801025 0.328125q0.765625 0 1.328125 0.5625q0.578125 0.5625 0.578125 1.328125l0 13.53125q0 0.765625 -0.578125 1.34375q-0.5625 0.5625 -1.328125 0.5625l-2.859375 0q-0.765625 0 -1.34375 -0.5625q-0.5625 -0.578125 -0.5625 -1.34375l0 -13.53125q0 -0.765625 0.5625 -1.328125q0.578125 -0.5625 1.34375 -0.5625l2.859375 0zm0 -7.671875q0.765625 0 1.328125 0.578125q0.578125 0.5625 0.578125 1.328125l0 0.859375q0 0.765625 -0.578125 1.34375q-0.5625 0.5625 -1.328125 0.5625l-2.859375 0q-0.765625 0 -1.34375 -0.5625q-0.5625 -0.578125 -0.5625 -1.34375l0 -0.859375q0 -0.765625 0.5625 -1.328125q0.578125 -0.578125 1.34375 -0.578125l2.859375 0zm11.531433 0q0.765625 0 1.328125 0.578125q0.578125 0.5625 0.578125 1.328125l0 21.1875q0 0.765625 -0.578125 1.34375q-0.5625 0.5625 -1.328125 0.5625l-2.859375 0q-0.765625 0 -1.34375 -0.5625q-0.5625 -0.578125 -0.5625 -1.34375l0 -21.1875q0 -0.765625 0.5625 -1.328125q0.578125 -0.578125 1.34375 -0.578125l2.859375 0zm16.26056 18.0l0 -0.203125q0 -0.296875 -0.296875 -0.296875l-1.03125 0q-3.328125 0 -3.328125 2.0q0 1.5 1.65625 1.5q1.296875 0 2.140625 -0.8125q0.859375 -0.8125 0.859375 -2.1875zm-2.0 -10.65625q4.40625 0 6.375 1.59375q1.96875 1.59375 1.96875 5.0625l0 9.09375q0 0.765625 -0.578125 1.34375q-0.5625 0.5625 -1.328125 0.5625l-2.09375 0q-0.8125 0 -1.375 -0.546875q-0.5625 -0.546875 -0.59375 -1.359375l0 -0.265625q0 -0.03125 -0.046875 -0.03125q-0.03125 0 -0.0625 0.03125q-2.125 2.5 -5.265625 2.5q-2.328125 0 -3.828125 -1.484375q-1.5 -1.484375 -1.5 -3.84375q0 -6.0 9.0 -6.0l1.03125 0q0.296875 0 0.296875 -0.296875l0 -0.03125q0 -2.0 -2.328125 -2.0q-2.0 0 -5.171875 0.59375q-0.6875 0.140625 -1.265625 -0.3125q-0.5625 -0.453125 -0.5625 -1.1875l0 -0.53125q0 -0.828125 0.515625 -1.5q0.515625 -0.671875 1.3125 -0.796875q3.3125 -0.59375 5.5 -0.59375zm21.5354 13.328125q1.296875 0 2.0625 -1.078125q0.765625 -1.09375 0.765625 -3.265625q0 -4.328125 -2.828125 -4.328125q-1.140625 0 -1.984375 0.765625q-0.84375 0.765625 -0.84375 1.734375l0 3.671875q0 0.96875 0.84375 1.734375q0.84375 0.765625 1.984375 0.765625zm2.328125 -13.328125q3.0625 0 4.859375 2.3125q1.8125 2.3125 1.8125 6.671875q0 4.265625 -1.890625 6.640625q-1.875 2.359375 -4.78125 2.359375q-3.203125 0 -5.265625 -2.5q-0.03125 -0.03125 -0.0625 -0.03125q-0.03125 0 -0.03125 0.03125l0 0.265625q-0.03125 0.8125 -0.609375 1.359375q-0.5625 0.546875 -1.359375 0.546875l-2.09375 0q-0.765625 0 -1.34375 -0.5625q-0.5625 -0.578125 -0.5625 -1.34375l0 -21.1875q0 -0.765625 0.5625 -1.328125q0.578125 -0.578125 1.34375 -0.578125l2.53125 0q0.765625 0 1.328125 0.578125q0.5625 0.5625 0.5625 1.328125l0 7.390625q0 0.03125 0.03125 0.03125q0.046875 0 0.078125 -0.03125q2.234375 -1.953125 4.890625 -1.953125zm15.300781 -7.34375q0.765625 0 1.328125 0.578125q0.578125 0.5625 0.578125 1.328125l0 21.1875q0 0.765625 -0.578125 1.34375q-0.5625 0.5625 -1.328125 0.5625l-2.859375 0q-0.765625 0 -1.34375 -0.5625q-0.5625 -0.578125 -0.5625 -1.34375l0 -21.1875q0 -0.765625 0.5625 -1.328125q0.578125 -0.578125 1.34375 -0.578125l2.859375 0zm16.79181 14.671875q0.3125 0 0.3125 -0.296875q-0.046875 -1.546875 -0.65625 -2.203125q-0.609375 -0.671875 -1.84375 -0.671875q-1.3125 0 -1.96875 0.65625q-0.640625 0.640625 -0.796875 2.25q0 0.265625 0.265625 0.265625l4.6875 0zm-2.359375 -7.328125q8.46875 0 8.5 8.921875q0 0.796875 -0.609375 1.359375q-0.59375 0.546875 -1.421875 0.546875l-8.734375 0q-0.296875 0 -0.234375 0.296875q0.296875 1.40625 1.3125 1.96875q1.015625 0.5625 3.1875 0.5625q1.359375 0 3.328125 -0.40625q0.703125 -0.15625 1.265625 0.296875q0.578125 0.4375 0.578125 1.171875l0 0.53125q0 0.84375 -0.53125 1.53125q-0.515625 0.671875 -1.3125 0.8125q-2.03125 0.390625 -4.328125 0.390625q-4.734375 0 -7.28125 -2.3125q-2.546875 -2.3125 -2.546875 -6.6875q0 -4.328125 2.265625 -6.65625q2.265625 -2.328125 6.5625 -2.328125z" fill-rule="nonzero"/><path fill="#000000" d="m154.76562 451.1102q1.703125 0 2.6875 -0.84375q0.984375 -0.859375 0.984375 -2.328125q0 -3.15625 -3.671875 -3.15625q-0.828125 0 -1.53125 0.09375q-0.296875 0.0625 -0.296875 0.359375l0 5.578125q0 0.296875 0.296875 0.296875l1.53125 0zm8.59375 6.65625l1.765625 4.90625q0.234375 0.671875 -0.171875 1.21875q-0.390625 0.546875 -1.09375 0.546875l-3.03125 0q-0.859375 0 -1.5625 -0.5q-0.703125 -0.5 -0.9375 -1.296875l-1.46875 -4.53125q-0.359375 -1.171875 -0.9375 -1.671875q-0.5625 -0.5 -1.484375 -0.5l-1.203125 0q-0.296875 0 -0.296875 0.296875l0 6.296875q0 0.765625 -0.578125 1.34375q-0.5625 0.5625 -1.328125 0.5625l-2.703125 0q-0.765625 0 -1.328125 -0.5625q-0.5625 -0.578125 -0.5625 -1.34375l0 -20.359375q0 -0.796875 0.515625 -1.40625q0.515625 -0.625 1.3125 -0.6875q3.265625 -0.296875 6.828125 -0.296875q10.0 0 10.0 7.5q0 2.09375 -1.28125 3.890625q-1.28125 1.796875 -3.34375 2.5625q-0.03125 0 -0.03125 0.03125q0 0.078125 0.03125 0.078125q1.0 0.5625 1.640625 1.4375q0.65625 0.859375 1.25 2.484375zm14.395416 -3.65625q0.3125 0 0.3125 -0.296875q-0.046875 -1.546875 -0.65625 -2.203125q-0.609375 -0.671875 -1.84375 -0.671875q-1.3125 0 -1.96875 0.65625q-0.640625 0.640625 -0.796875 2.25q0 0.265625 0.265625 0.265625l4.6875 0zm-2.359375 -7.328125q8.46875 0 8.5 8.921875q0 0.796875 -0.609375 1.359375q-0.59375 0.546875 -1.421875 0.546875l-8.734375 0q-0.296875 0 -0.234375 0.296875q0.296875 1.40625 1.3125 1.96875q1.015625 0.5625 3.1875 0.5625q1.359375 0 3.328125 -0.40625q0.703125 -0.15625 1.265625 0.296875q0.578125 0.4375 0.578125 1.171875l0 0.53125q0 0.84375 -0.53125 1.53125q-0.515625 0.671875 -1.3125 0.8125q-2.03125 0.390625 -4.328125 0.390625q-4.734375 0 -7.28125 -2.3125q-2.546875 -2.3125 -2.546875 -6.6875q0 -4.328125 2.265625 -6.65625q2.265625 -2.328125 6.5625 -2.328125zm19.191727 6.484375q3.796875 0.5 5.390625 1.921875q1.609375 1.421875 1.609375 4.078125q0 2.640625 -1.90625 4.078125q-1.890625 1.421875 -5.59375 1.421875q-2.734375 0 -5.5 -0.53125q-0.796875 -0.15625 -1.3125 -0.828125q-0.515625 -0.671875 -0.515625 -1.53125l0 -0.875q0 -0.6875 0.5625 -1.09375q0.578125 -0.40625 1.234375 -0.234375q2.5 0.59375 4.703125 0.59375q1.828125 0 1.828125 -1.0625q0 -0.5 -0.296875 -0.734375q-0.296875 -0.234375 -1.203125 -0.359375q-3.6875 -0.609375 -5.34375 -2.0625q-1.65625 -1.46875 -1.65625 -3.9375q0 -2.53125 1.953125 -3.921875q1.953125 -1.40625 5.890625 -1.40625q2.59375 0 4.796875 0.328125q0.828125 0.125 1.34375 0.765625q0.515625 0.625 0.515625 1.46875l0 0.703125q0 0.6875 -0.578125 1.140625q-0.578125 0.453125 -1.28125 0.3125q-2.03125 -0.390625 -4.171875 -0.390625q-1.09375 0 -1.53125 0.234375q-0.4375 0.234375 -0.4375 0.765625q0 1.0 1.5 1.15625zm20.728363 0.84375q0.3125 0 0.3125 -0.296875q-0.046875 -1.546875 -0.65625 -2.203125q-0.609375 -0.671875 -1.84375 -0.671875q-1.3125 0 -1.96875 0.65625q-0.640625 0.640625 -0.796875 2.25q0 0.265625 0.265625 0.265625l4.6875 0zm-2.359375 -7.328125q8.46875 0 8.5 8.921875q0 0.796875 -0.609375 1.359375q-0.59375 0.546875 -1.421875 0.546875l-8.734375 0q-0.296875 0 -0.234375 0.296875q0.296875 1.40625 1.3125 1.96875q1.015625 0.5625 3.1875 0.5625q1.359375 0 3.328125 -0.40625q0.703125 -0.15625 1.265625 0.296875q0.578125 0.4375 0.578125 1.171875l0 0.53125q0 0.84375 -0.53125 1.53125q-0.515625 0.671875 -1.3125 0.8125q-2.03125 0.390625 -4.328125 0.390625q-4.734375 0 -7.28125 -2.3125q-2.546875 -2.3125 -2.546875 -6.6875q0 -4.328125 2.265625 -6.65625q2.265625 -2.328125 6.5625 -2.328125zm23.624023 1.0q0.765625 0 1.328125 0.5625q0.578125 0.5625 0.578125 1.328125l0 0.53125q0 0.765625 -0.578125 1.34375q-0.5625 0.5625 -1.328125 0.5625l-2.96875 0q-0.296875 0 -0.296875 0.296875l0 4.703125q0 2.0 0.328125 2.5q0.34375 0.5 1.515625 0.5q0.453125 0 1.125 -0.109375q0.703125 -0.09375 1.28125 0.359375q0.59375 0.453125 0.59375 1.140625l0 0.875q0 0.828125 -0.53125 1.484375q-0.515625 0.640625 -1.3125 0.75q-1.15625 0.15625 -2.828125 0.15625q-3.5625 0 -5.03125 -1.53125q-1.46875 -1.53125 -1.46875 -5.46875l0 -5.359375q0 -0.296875 -0.296875 -0.296875l-1.296875 0q-0.765625 0 -1.34375 -0.5625q-0.5625 -0.578125 -0.5625 -1.34375l0 -0.53125q0 -0.765625 0.5625 -1.328125q0.578125 -0.5625 1.34375 -0.5625l1.296875 0q0.296875 0 0.296875 -0.3125l0 -4.125q0 -0.765625 0.5625 -1.328125q0.578125 -0.578125 1.34375 -0.578125l2.53125 0q0.765625 0 1.328125 0.578125q0.5625 0.5625 0.5625 1.328125l0 4.125q0 0.3125 0.296875 0.3125l2.96875 0zm24.373642 4.328125q2.15625 0 3.328125 -1.0q1.171875 -1.0 1.171875 -2.84375q0 -3.484375 -4.5 -3.484375q-0.640625 0 -1.234375 0.09375q-0.265625 0.0625 -0.265625 0.359375l0 6.46875q0 0.265625 0.265625 0.34375q0.796875 0.0625 1.234375 0.0625zm-0.671875 -12.328125q11.328125 0 11.328125 8.15625q0 4.4375 -2.546875 6.71875q-2.546875 2.28125 -7.453125 2.28125q-0.734375 0 -1.859375 -0.0625q-0.296875 0 -0.296875 0.265625l0 5.390625q0 0.765625 -0.578125 1.34375q-0.5625 0.5625 -1.328125 0.5625l-2.703125 0q-0.765625 0 -1.328125 -0.5625q-0.5625 -0.578125 -0.5625 -1.34375l0 -20.359375q0 -0.796875 0.53125 -1.421875q0.53125 -0.640625 1.328125 -0.703125q2.828125 -0.265625 5.46875 -0.265625zm23.024658 17.65625l0 -0.203125q0 -0.296875 -0.296875 -0.296875l-1.03125 0q-3.328125 0 -3.328125 2.0q0 1.5 1.65625 1.5q1.296875 0 2.140625 -0.8125q0.859375 -0.8125 0.859375 -2.1875zm-2.0 -10.65625q4.40625 0 6.375 1.59375q1.96875 1.59375 1.96875 5.0625l0 9.09375q0 0.765625 -0.578125 1.34375q-0.5625 0.5625 -1.328125 0.5625l-2.09375 0q-0.8125 0 -1.375 -0.546875q-0.5625 -0.546875 -0.59375 -1.359375l0 -0.265625q0 -0.03125 -0.046875 -0.03125q-0.03125 0 -0.0625 0.03125q-2.125 2.5 -5.265625 2.5q-2.328125 0 -3.828125 -1.484375q-1.5 -1.484375 -1.5 -3.84375q0 -6.0 9.0 -6.0l1.03125 0q0.296875 0 0.296875 -0.296875l0 -0.03125q0 -2.0 -2.328125 -2.0q-2.0 0 -5.171875 0.59375q-0.6875 0.140625 -1.265625 -0.3125q-0.5625 -0.453125 -0.5625 -1.1875l0 -0.53125q0 -0.828125 0.515625 -1.5q0.515625 -0.671875 1.3125 -0.796875q3.3125 -0.59375 5.5 -0.59375zm24.4729 0.390625q0.765625 -0.09375 1.328125 0.46875q0.5625 0.5625 0.5625 1.359375l0 0.875q0 0.765625 -0.53125 1.3125q-0.53125 0.546875 -1.328125 0.65625q-2.5625 0.328125 -4.109375 1.921875q-1.53125 1.578125 -1.53125 3.84375l0 4.921875q0 0.765625 -0.5625 1.34375q-0.5625 0.5625 -1.328125 0.5625l-2.703125 0q-0.765625 0 -1.34375 -0.5625q-0.5625 -0.578125 -0.5625 -1.34375l0 -13.53125q0 -0.765625 0.5625 -1.328125q0.578125 -0.5625 1.34375 -0.5625l2.53125 0q0.765625 0 1.328125 0.5625q0.578125 0.5625 0.578125 1.328125l0 1.40625q0 0.03125 0.03125 0.03125q0.03125 0 0.0625 -0.03125q2.09375 -2.765625 5.671875 -3.234375zm17.093079 8.5l5.359375 7.234375q0.34375 0.46875 0.078125 1.0q-0.265625 0.53125 -0.84375 0.53125l-3.359375 0q-1.9375 0 -3.0 -1.53125l-3.296875 -4.765625q0 -0.03125 -0.078125 -0.03125q-0.03125 0 -0.03125 0.03125l0 4.390625q0 0.765625 -0.5625 1.34375q-0.5625 0.5625 -1.328125 0.5625l-2.53125 0q-0.765625 0 -1.34375 -0.5625q-0.5625 -0.578125 -0.5625 -1.34375l0 -21.1875q0 -0.765625 0.5625 -1.328125q0.578125 -0.578125 1.34375 -0.578125l2.53125 0q0.765625 0 1.328125 0.578125q0.5625 0.5625 0.5625 1.328125l0 11.734375q0 0.03125 0.03125 0.03125l0.078125 -0.03125l3.265625 -4.4375q1.09375 -1.53125 3.03125 -1.53125l3.359375 0q0.578125 0 0.84375 0.5q0.265625 0.5 -0.109375 0.96875l-5.328125 6.625q-0.171875 0.234375 0 0.46875z" fill-rule="nonzero"/><path fill="#000000" d="m154.4375 492.1102q2.15625 0 3.328125 -1.0q1.171875 -1.0 1.171875 -2.84375q0 -3.484375 -4.5 -3.484375q-0.640625 0 -1.234375 0.09375q-0.265625 0.0625 -0.265625 0.359375l0 6.46875q0 0.265625 0.265625 0.34375q0.796875 0.0625 1.234375 0.0625zm-0.671875 -12.328125q11.328125 0 11.328125 8.15625q0 4.4375 -2.546875 6.71875q-2.546875 2.28125 -7.453125 2.28125q-0.734375 0 -1.859375 -0.0625q-0.296875 0 -0.296875 0.265625l0 5.390625q0 0.765625 -0.578125 1.34375q-0.5625 0.5625 -1.328125 0.5625l-2.703125 0q-0.765625 0 -1.328125 -0.5625q-0.5625 -0.578125 -0.5625 -1.34375l0 -20.359375q0 -0.796875 0.53125 -1.421875q0.53125 -0.640625 1.328125 -0.703125q2.828125 -0.265625 5.46875 -0.265625zm25.967377 7.390625q0.765625 -0.09375 1.328125 0.46875q0.5625 0.5625 0.5625 1.359375l0 0.875q0 0.765625 -0.53125 1.3125q-0.53125 0.546875 -1.328125 0.65625q-2.5625 0.328125 -4.109375 1.921875q-1.53125 1.578125 -1.53125 3.84375l0 4.921875q0 0.765625 -0.5625 1.34375q-0.5625 0.5625 -1.328125 0.5625l-2.703125 0q-0.765625 0 -1.34375 -0.5625q-0.5625 -0.578125 -0.5625 -1.34375l0 -13.53125q0 -0.765625 0.5625 -1.328125q0.578125 -0.5625 1.34375 -0.5625l2.53125 0q0.765625 0 1.328125 0.5625q0.578125 0.5625 0.578125 1.328125l0 1.40625q0 0.03125 0.03125 0.03125q0.03125 0 0.0625 -0.03125q2.09375 -2.765625 5.671875 -3.234375zm10.551392 12.21875q0.640625 1.046875 2.03125 1.046875q1.40625 0 2.03125 -1.046875q0.640625 -1.046875 0.640625 -3.609375q0 -2.578125 -0.640625 -3.625q-0.625 -1.046875 -2.03125 -1.046875q-1.390625 0 -2.03125 1.046875q-0.625 1.046875 -0.625 3.625q0 2.5625 0.625 3.609375zm-4.59375 -10.21875q2.375 -2.390625 6.640625 -2.390625q4.265625 0 6.625 2.390625q2.375 2.375 2.375 6.609375q0 4.21875 -2.375 6.609375q-2.359375 2.375 -6.625 2.375q-4.265625 0 -6.640625 -2.375q-2.359375 -2.390625 -2.359375 -6.609375q0 -4.234375 2.359375 -6.609375zm29.837479 8.4375l0 -3.671875q0 -0.96875 -0.859375 -1.734375q-0.84375 -0.765625 -1.984375 -0.765625q-2.828125 0 -2.828125 4.328125q0 2.171875 0.765625 3.265625q0.765625 1.078125 2.0625 1.078125q1.140625 0 1.984375 -0.765625q0.859375 -0.765625 0.859375 -1.734375zm4.265625 -18.171875q0.765625 0 1.328125 0.578125q0.5625 0.5625 0.5625 1.328125l0 21.1875q0 0.765625 -0.5625 1.34375q-0.5625 0.5625 -1.328125 0.5625l-2.109375 0q-0.796875 0 -1.359375 -0.546875q-0.5625 -0.546875 -0.609375 -1.359375l0 -0.265625q0 -0.03125 -0.03125 -0.03125q-0.03125 0 -0.0625 0.03125q-2.03125 2.5 -5.265625 2.5q-2.90625 0 -4.796875 -2.359375q-1.875 -2.375 -1.875 -6.640625q0 -4.359375 1.796875 -6.671875q1.8125 -2.3125 4.875 -2.3125q2.671875 0 4.90625 1.953125q0.03125 0.03125 0.0625 0.03125q0.03125 0 0.03125 -0.03125l0 -7.390625q0 -0.765625 0.5625 -1.328125q0.5625 -0.578125 1.34375 -0.578125l2.53125 0zm21.019531 7.671875q0.765625 0 1.328125 0.5625q0.578125 0.5625 0.578125 1.328125l0 13.53125q0 0.765625 -0.578125 1.34375q-0.5625 0.5625 -1.328125 0.5625l-2.265625 0q-0.796875 0 -1.359375 -0.546875q-0.5625 -0.546875 -0.609375 -1.359375l0 -0.265625q0 -0.03125 -0.03125 -0.03125q-0.0625 0 -0.0625 0.03125q-2.0625 2.5 -5.09375 2.5q-2.9375 0 -4.21875 -1.625q-1.28125 -1.640625 -1.28125 -5.703125l0 -8.4375q0 -0.765625 0.5625 -1.328125q0.5625 -0.5625 1.328125 -0.5625l2.375 0q0.765625 0 1.328125 0.5625q0.5625 0.5625 0.5625 1.328125l0 8.109375q0 1.53125 0.421875 2.09375q0.421875 0.5625 1.421875 0.5625q0.921875 0 1.703125 -0.71875q0.796875 -0.734375 0.796875 -1.609375l0 -8.4375q0 -0.765625 0.5625 -1.328125q0.5625 -0.5625 1.328125 -0.5625l2.53125 0zm18.066483 12.765625q0.734375 -0.140625 1.296875 0.296875q0.578125 0.4375 0.578125 1.171875l0 0.859375q0 0.828125 -0.53125 1.46875q-0.515625 0.625 -1.34375 0.765625q-2.328125 0.328125 -3.96875 0.328125q-4.421875 0 -6.796875 -2.265625q-2.359375 -2.265625 -2.359375 -6.734375q0 -4.359375 2.28125 -6.671875q2.28125 -2.3125 6.546875 -2.3125q1.625 0 3.96875 0.328125q0.828125 0.125 1.34375 0.765625q0.515625 0.625 0.515625 1.46875l0 0.859375q0 0.734375 -0.5625 1.171875q-0.5625 0.4375 -1.296875 0.296875q-1.375 -0.234375 -2.796875 -0.234375q-1.703125 0 -2.53125 1.03125q-0.8125 1.03125 -0.8125 3.296875q0 2.3125 0.875 3.328125q0.890625 1.015625 2.796875 1.015625q1.4375 0 2.796875 -0.234375zm18.160706 -12.09375q0.765625 0 1.328125 0.5625q0.578125 0.5625 0.578125 1.328125l0 0.53125q0 0.765625 -0.578125 1.34375q-0.5625 0.5625 -1.328125 0.5625l-2.96875 0q-0.296875 0 -0.296875 0.296875l0 4.703125q0 2.0 0.328125 2.5q0.34375 0.5 1.515625 0.5q0.453125 0 1.125 -0.109375q0.703125 -0.09375 1.28125 0.359375q0.59375 0.453125 0.59375 1.140625l0 0.875q0 0.828125 -0.53125 1.484375q-0.515625 0.640625 -1.3125 0.75q-1.15625 0.15625 -2.828125 0.15625q-3.5625 0 -5.03125 -1.53125q-1.46875 -1.53125 -1.46875 -5.46875l0 -5.359375q0 -0.296875 -0.296875 -0.296875l-1.296875 0q-0.765625 0 -1.34375 -0.5625q-0.5625 -0.578125 -0.5625 -1.34375l0 -0.53125q0 -0.765625 0.5625 -1.328125q0.578125 -0.5625 1.34375 -0.5625l1.296875 0q0.296875 0 0.296875 -0.3125l0 -4.125q0 -0.765625 0.5625 -1.328125q0.578125 -0.578125 1.34375 -0.578125l2.53125 0q0.765625 0 1.328125 0.578125q0.5625 0.5625 0.5625 1.328125l0 4.125q0 0.3125 0.296875 0.3125l2.96875 0zm22.139282 -7.671875q0.765625 0 1.328125 0.5625q0.5625 0.5625 0.5625 1.328125l0 20.53125q0 0.765625 -0.5625 1.34375q-0.5625 0.5625 -1.328125 0.5625l-3.53125 0q-0.765625 0 -1.34375 -0.5625q-0.5625 -0.578125 -0.5625 -1.34375l0 -20.53125q0 -0.765625 0.5625 -1.328125q0.578125 -0.5625 1.34375 -0.5625l3.53125 0zm12.989624 9.15625q2.0625 -2.484375 5.09375 -2.484375q3.046875 0 4.359375 1.734375q1.3125 1.71875 1.3125 5.921875l0 8.09375q0 0.765625 -0.5625 1.34375q-0.5625 0.5625 -1.328125 0.5625l-2.375 0q-0.765625 0 -1.328125 -0.5625q-0.5625 -0.578125 -0.5625 -1.34375l0 -8.09375q0 -1.53125 -0.4375 -2.09375q-0.4375 -0.578125 -1.5625 -0.578125q-0.9375 0 -1.71875 0.734375q-0.78125 0.734375 -0.78125 1.609375l0 8.421875q0 0.765625 -0.578125 1.34375q-0.5625 0.5625 -1.328125 0.5625l-2.53125 0q-0.765625 0 -1.34375 -0.5625q-0.5625 -0.578125 -0.5625 -1.34375l0 -13.53125q0 -0.765625 0.5625 -1.328125q0.578125 -0.5625 1.34375 -0.5625l2.265625 0q0.796875 0 1.359375 0.546875q0.578125 0.546875 0.609375 1.34375l0 0.265625q0 0.046875 0.03125 0.046875q0.0625 0 0.0625 -0.046875zm26.972717 -9.328125q0.796875 0.109375 1.3125 0.765625q0.515625 0.640625 0.515625 1.46875l0 0.703125q0 0.703125 -0.546875 1.140625q-0.546875 0.421875 -1.25 0.328125q-0.609375 -0.0625 -0.875 -0.0625q-1.5625 0 -2.03125 0.515625q-0.46875 0.515625 -0.46875 2.3125l0 0.359375q0 0.3125 0.296875 0.3125l2.640625 0q0.765625 0 1.328125 0.5625q0.578125 0.5625 0.578125 1.328125l0 0.53125q0 0.765625 -0.578125 1.34375q-0.5625 0.5625 -1.328125 0.5625l-2.640625 0q-0.296875 0 -0.296875 0.296875l0 10.125q0 0.765625 -0.5625 1.34375q-0.5625 0.5625 -1.328125 0.5625l-2.703125 0q-0.765625 0 -1.34375 -0.5625q-0.5625 -0.578125 -0.5625 -1.34375l0 -10.125q0 -0.296875 -0.296875 -0.296875l-1.46875 0q-0.765625 0 -1.328125 -0.5625q-0.5625 -0.578125 -0.5625 -1.34375l0 -0.53125q0 -0.765625 0.5625 -1.328125q0.5625 -0.5625 1.328125 -0.5625l1.46875 0q0.296875 0 0.296875 -0.3125l0 -0.359375q0 -3.796875 1.765625 -5.5625q1.765625 -1.765625 5.578125 -1.765625q1.15625 0 2.5 0.15625zm10.3168335 19.453125q0.640625 1.046875 2.03125 1.046875q1.40625 0 2.03125 -1.046875q0.640625 -1.046875 0.640625 -3.609375q0 -2.578125 -0.640625 -3.625q-0.625 -1.046875 -2.03125 -1.046875q-1.390625 0 -2.03125 1.046875q-0.625 1.046875 -0.625 3.625q0 2.5625 0.625 3.609375zm-4.59375 -10.21875q2.375 -2.390625 6.640625 -2.390625q4.265625 0 6.625 2.390625q2.375 2.375 2.375 6.609375q0 4.21875 -2.375 6.609375q-2.359375 2.375 -6.625 2.375q-4.265625 0 -6.640625 -2.375q-2.359375 -2.390625 -2.359375 -6.609375q0 -4.234375 2.359375 -6.609375z" fill-rule="nonzero"/><path fill="#000000" d="m161.82812 538.9383q0.671875 -0.203125 1.21875 0.203125q0.546875 0.390625 0.546875 1.09375l0 1.796875q0 0.875 -0.515625 1.546875q-0.515625 0.65625 -1.34375 0.796875q-2.265625 0.390625 -4.796875 0.390625q-5.671875 0 -8.84375 -3.1875q-3.15625 -3.203125 -3.15625 -9.3125q0 -5.953125 3.0625 -9.21875q3.0625 -3.265625 8.59375 -3.265625q2.53125 0 4.796875 0.390625q0.84375 0.140625 1.359375 0.8125q0.515625 0.65625 0.515625 1.515625l0 1.875q0 0.703125 -0.5625 1.125q-0.546875 0.40625 -1.203125 0.203125q-2.0625 -0.59375 -4.0625 -0.59375q-2.671875 0 -4.171875 1.8125q-1.5 1.8125 -1.5 5.34375q0 3.46875 1.625 5.359375q1.640625 1.875 4.375 1.875q2.09375 0 4.0625 -0.5625zm17.62883 -12.15625q3.109375 0 4.390625 1.78125q1.28125 1.78125 1.28125 6.546875l0 7.421875q0 0.765625 -0.578125 1.34375q-0.5625 0.5625 -1.328125 0.5625l-2.359375 0q-0.765625 0 -1.34375 -0.5625q-0.5625 -0.578125 -0.5625 -1.34375l0 -6.765625q0 -2.453125 -0.421875 -3.21875q-0.40625 -0.78125 -1.578125 -0.78125q-0.921875 0 -1.71875 0.734375q-0.78125 0.734375 -0.78125 1.609375l0 8.421875q0 0.765625 -0.5625 1.34375q-0.5625 0.5625 -1.328125 0.5625l-2.53125 0q-0.765625 0 -1.34375 -0.5625q-0.5625 -0.578125 -0.5625 -1.34375l0 -21.1875q0 -0.765625 0.5625 -1.328125q0.578125 -0.578125 1.34375 -0.578125l2.53125 0q0.765625 0 1.328125 0.578125q0.5625 0.5625 0.5625 1.328125l0 7.390625q0 0.03125 0.03125 0.03125q0.046875 0 0.078125 -0.03125q2.359375 -1.953125 4.890625 -1.953125zm19.19664 10.65625l0 -0.203125q0 -0.296875 -0.296875 -0.296875l-1.03125 0q-3.328125 0 -3.328125 2.0q0 1.5 1.65625 1.5q1.296875 0 2.140625 -0.8125q0.859375 -0.8125 0.859375 -2.1875zm-2.0 -10.65625q4.40625 0 6.375 1.59375q1.96875 1.59375 1.96875 5.0625l0 9.09375q0 0.765625 -0.578125 1.34375q-0.5625 0.5625 -1.328125 0.5625l-2.09375 0q-0.8125 0 -1.375 -0.546875q-0.5625 -0.546875 -0.59375 -1.359375l0 -0.265625q0 -0.03125 -0.046875 -0.03125q-0.03125 0 -0.0625 0.03125q-2.125 2.5 -5.265625 2.5q-2.328125 0 -3.828125 -1.484375q-1.5 -1.484375 -1.5 -3.84375q0 -6.0 9.0 -6.0l1.03125 0q0.296875 0 0.296875 -0.296875l0 -0.03125q0 -2.0 -2.328125 -2.0q-2.0 0 -5.171875 0.59375q-0.6875 0.140625 -1.265625 -0.3125q-0.5625 -0.453125 -0.5625 -1.1875l0 -0.53125q0 -0.828125 0.515625 -1.5q0.515625 -0.671875 1.3125 -0.796875q3.3125 -0.59375 5.5 -0.59375zm18.5979 2.484375q2.0625 -2.484375 5.09375 -2.484375q3.046875 0 4.359375 1.734375q1.3125 1.71875 1.3125 5.921875l0 8.09375q0 0.765625 -0.5625 1.34375q-0.5625 0.5625 -1.328125 0.5625l-2.375 0q-0.765625 0 -1.328125 -0.5625q-0.5625 -0.578125 -0.5625 -1.34375l0 -8.09375q0 -1.53125 -0.4375 -2.09375q-0.4375 -0.578125 -1.5625 -0.578125q-0.9375 0 -1.71875 0.734375q-0.78125 0.734375 -0.78125 1.609375l0 8.421875q0 0.765625 -0.578125 1.34375q-0.5625 0.5625 -1.328125 0.5625l-2.53125 0q-0.765625 0 -1.34375 -0.5625q-0.5625 -0.578125 -0.5625 -1.34375l0 -13.53125q0 -0.765625 0.5625 -1.328125q0.578125 -0.5625 1.34375 -0.5625l2.265625 0q0.796875 0 1.359375 0.546875q0.578125 0.546875 0.609375 1.34375l0 0.265625q0 0.046875 0.03125 0.046875q0.0625 0 0.0625 -0.046875zm25.295624 7.671875l0 -2.828125q0 -1.171875 -0.765625 -1.921875q-0.765625 -0.75 -1.890625 -0.75q-2.671875 0 -2.671875 4.0q0 1.90625 0.71875 2.875q0.71875 0.953125 1.953125 0.953125q1.09375 0 1.875 -0.6875q0.78125 -0.703125 0.78125 -1.640625zm4.265625 -9.828125q0.765625 0 1.328125 0.5625q0.578125 0.5625 0.578125 1.328125l0 13.765625q0 4.46875 -2.71875 6.90625q-2.71875 2.4375 -7.609375 2.4375q-1.90625 0 -3.8125 -0.3125q-0.796875 -0.125 -1.328125 -0.78125q-0.53125 -0.640625 -0.53125 -1.484375l0 -1.359375q0 -0.703125 0.546875 -1.09375q0.546875 -0.375 1.25 -0.203125q1.5 0.390625 3.53125 0.390625q2.34375 0 3.421875 -1.03125q1.078125 -1.03125 1.078125 -3.46875l0 -0.828125q0 -0.03125 -0.03125 -0.03125q-0.0625 0 -0.0625 0.03125q-1.796875 2.0 -4.734375 2.0q-2.90625 0 -4.796875 -2.28125q-1.875 -2.28125 -1.875 -6.21875q0 -4.125 1.8125 -6.390625q1.828125 -2.265625 4.859375 -2.265625q2.90625 0 4.9375 2.484375q0.03125 0.046875 0.0625 0.046875q0.03125 0 0.03125 -0.046875l0 -0.265625q0.03125 -0.796875 0.59375 -1.34375q0.578125 -0.546875 1.375 -0.546875l2.09375 0zm16.128967 7.0q0.3125 0 0.3125 -0.296875q-0.046875 -1.546875 -0.65625 -2.203125q-0.609375 -0.671875 -1.84375 -0.671875q-1.3125 0 -1.96875 0.65625q-0.640625 0.640625 -0.79685974 2.25q0 0.265625 0.26560974 0.265625l4.6875 0zm-2.359375 -7.328125q8.46875 0 8.5 8.921875q0 0.796875 -0.609375 1.359375q-0.59375 0.546875 -1.421875 0.546875l-8.734375 0q-0.296875 0 -0.234375 0.296875q0.296875 1.40625 1.3125 1.96875q1.015625 0.5625 3.1875 0.5625q1.359375 0 3.328125 -0.40625q0.703125 -0.15625 1.265625 0.296875q0.578125 0.4375 0.578125 1.171875l0 0.53125q0 0.84375 -0.53125 1.53125q-0.515625 0.671875 -1.3125 0.8125q-2.03125 0.390625 -4.328125 0.390625q-4.7343597 0 -7.2812347 -2.3125q-2.546875 -2.3125 -2.546875 -6.6875q0 -4.328125 2.265625 -6.65625q2.265625 -2.328125 6.5624847 -2.328125zm36.73288 12.15625q0.765625 0 1.328125 0.578125q0.5625 0.5625 0.5625 1.328125l0 1.6875q0 0.765625 -0.5625 1.34375q-0.5625 0.5625 -1.328125 0.5625l-12.875 0q-0.765625 0 -1.328125 -0.5625q-0.5625 -0.578125 -0.5625 -1.34375l0 -20.53125q0 -0.765625 0.5625 -1.328125q0.5625 -0.5625 1.328125 -0.5625l3.03125 0q0.765625 0 1.328125 0.5625q0.578125 0.5625 0.578125 1.328125l0 16.640625q0 0.296875 0.296875 0.296875l7.640625 0zm14.753998 -1.5l0 -0.203125q0 -0.296875 -0.296875 -0.296875l-1.03125 0q-3.328125 0 -3.328125 2.0q0 1.5 1.65625 1.5q1.296875 0 2.140625 -0.8125q0.859375 -0.8125 0.859375 -2.1875zm-2.0 -10.65625q4.40625 0 6.375 1.59375q1.96875 1.59375 1.96875 5.0625l0 9.09375q0 0.765625 -0.578125 1.34375q-0.5625 0.5625 -1.328125 0.5625l-2.09375 0q-0.8125 0 -1.375 -0.546875q-0.5625 -0.546875 -0.59375 -1.359375l0 -0.265625q0 -0.03125 -0.046875 -0.03125q-0.03125 0 -0.0625 0.03125q-2.125 2.5 -5.265625 2.5q-2.328125 0 -3.828125 -1.484375q-1.5 -1.484375 -1.5 -3.84375q0 -6.0 9.0 -6.0l1.03125 0q0.296875 0 0.296875 -0.296875l0 -0.03125q0 -2.0 -2.328125 -2.0q-2.0 0 -5.171875 0.59375q-0.6875 0.140625 -1.265625 -0.3125q-0.5625 -0.453125 -0.5625 -1.1875l0 -0.53125q0 -0.828125 0.515625 -1.5q0.515625 -0.671875 1.3125 -0.796875q3.3125 -0.59375 5.5 -0.59375zm18.5979 2.484375q2.0625 -2.484375 5.09375 -2.484375q3.046875 0 4.359375 1.734375q1.3125 1.71875 1.3125 5.921875l0 8.09375q0 0.765625 -0.5625 1.34375q-0.5625 0.5625 -1.328125 0.5625l-2.375 0q-0.765625 0 -1.328125 -0.5625q-0.5625 -0.578125 -0.5625 -1.34375l0 -8.09375q0 -1.53125 -0.4375 -2.09375q-0.4375 -0.578125 -1.5625 -0.578125q-0.9375 0 -1.71875 0.734375q-0.78125 0.734375 -0.78125 1.609375l0 8.421875q0 0.765625 -0.578125 1.34375q-0.5625 0.5625 -1.328125 0.5625l-2.53125 0q-0.765625 0 -1.34375 -0.5625q-0.5625 -0.578125 -0.5625 -1.34375l0 -13.53125q0 -0.765625 0.5625 -1.328125q0.578125 -0.5625 1.34375 -0.5625l2.265625 0q0.796875 0 1.359375 0.546875q0.578125 0.546875 0.609375 1.34375l0 0.265625q0 0.046875 0.03125 0.046875q0.0625 0 0.0625 -0.046875zm25.295654 7.671875l0 -2.828125q0 -1.171875 -0.765625 -1.921875q-0.765625 -0.75 -1.890625 -0.75q-2.671875 0 -2.671875 4.0q0 1.90625 0.71875 2.875q0.71875 0.953125 1.953125 0.953125q1.09375 0 1.875 -0.6875q0.78125 -0.703125 0.78125 -1.640625zm4.265625 -9.828125q0.765625 0 1.328125 0.5625q0.578125 0.5625 0.578125 1.328125l0 13.765625q0 4.46875 -2.71875 6.90625q-2.71875 2.4375 -7.609375 2.4375q-1.90625 0 -3.8125 -0.3125q-0.796875 -0.125 -1.328125 -0.78125q-0.53125 -0.640625 -0.53125 -1.484375l0 -1.359375q0 -0.703125 0.546875 -1.09375q0.546875 -0.375 1.25 -0.203125q1.5 0.390625 3.53125 0.390625q2.34375 0 3.421875 -1.03125q1.078125 -1.03125 1.078125 -3.46875l0 -0.828125q0 -0.03125 -0.03125 -0.03125q-0.0625 0 -0.0625 0.03125q-1.796875 2.0 -4.734375 2.0q-2.90625 0 -4.796875 -2.28125q-1.875 -2.28125 -1.875 -6.21875q0 -4.125 1.8125 -6.390625q1.828125 -2.265625 4.859375 -2.265625q2.90625 0 4.9375 2.484375q0.03125 0.046875 0.0625 0.046875q0.03125 0 0.03125 -0.046875l0 -0.265625q0.03125 -0.796875 0.59375 -1.34375q0.578125 -0.546875 1.375 -0.546875l2.09375 0zm20.863342 0q0.765625 0 1.328125 0.5625q0.578125 0.5625 0.578125 1.328125l0 13.53125q0 0.765625 -0.578125 1.34375q-0.5625 0.5625 -1.328125 0.5625l-2.265625 0q-0.796875 0 -1.359375 -0.546875q-0.5625 -0.546875 -0.609375 -1.359375l0 -0.265625q0 -0.03125 -0.03125 -0.03125q-0.0625 0 -0.0625 0.03125q-2.0625 2.5 -5.09375 2.5q-2.9375 0 -4.21875 -1.625q-1.28125 -1.640625 -1.28125 -5.703125l0 -8.4375q0 -0.765625 0.5625 -1.328125q0.5625 -0.5625 1.328125 -0.5625l2.375 0q0.765625 0 1.328125 0.5625q0.5625 0.5625 0.5625 1.328125l0 8.109375q0 1.53125 0.421875 2.09375q0.421875 0.5625 1.421875 0.5625q0.921875 0 1.703125 -0.71875q0.796875 -0.734375 0.796875 -1.609375l0 -8.4375q0 -0.765625 0.5625 -1.328125q0.5625 -0.5625 1.328125 -0.5625l2.53125 0zm15.597717 10.328125l0 -0.203125q0 -0.296875 -0.296875 -0.296875l-1.03125 0q-3.328125 0 -3.328125 2.0q0 1.5 1.65625 1.5q1.296875 0 2.140625 -0.8125q0.859375 -0.8125 0.859375 -2.1875zm-2.0 -10.65625q4.40625 0 6.375 1.59375q1.96875 1.59375 1.96875 5.0625l0 9.09375q0 0.765625 -0.578125 1.34375q-0.5625 0.5625 -1.328125 0.5625l-2.09375 0q-0.8125 0 -1.375 -0.546875q-0.5625 -0.546875 -0.59375 -1.359375l0 -0.265625q0 -0.03125 -0.046875 -0.03125q-0.03125 0 -0.0625 0.03125q-2.125 2.5 -5.265625 2.5q-2.328125 0 -3.828125 -1.484375q-1.5 -1.484375 -1.5 -3.84375q0 -6.0 9.0 -6.0l1.03125 0q0.296875 0 0.296875 -0.296875l0 -0.03125q0 -2.0 -2.328125 -2.0q-2.0 0 -5.171875 0.59375q-0.6875 0.140625 -1.265625 -0.3125q-0.5625 -0.453125 -0.5625 -1.1875l0 -0.53125q0 -0.828125 0.515625 -1.5q0.515625 -0.671875 1.3125 -0.796875q3.3125 -0.59375 5.5 -0.59375zm22.863525 10.15625l0 -2.828125q0 -1.171875 -0.765625 -1.921875q-0.765625 -0.75 -1.890625 -0.75q-2.671875 0 -2.671875 4.0q0 1.90625 0.71875 2.875q0.71875 0.953125 1.953125 0.953125q1.09375 0 1.875 -0.6875q0.78125 -0.703125 0.78125 -1.640625zm4.265625 -9.828125q0.765625 0 1.328125 0.5625q0.578125 0.5625 0.578125 1.328125l0 13.765625q0 4.46875 -2.71875 6.90625q-2.71875 2.4375 -7.609375 2.4375q-1.90625 0 -3.8125 -0.3125q-0.796875 -0.125 -1.328125 -0.78125q-0.53125 -0.640625 -0.53125 -1.484375l0 -1.359375q0 -0.703125 0.546875 -1.09375q0.546875 -0.375 1.25 -0.203125q1.5 0.390625 3.53125 0.390625q2.34375 0 3.421875 -1.03125q1.078125 -1.03125 1.078125 -3.46875l0 -0.828125q0 -0.03125 -0.03125 -0.03125q-0.0625 0 -0.0625 0.03125q-1.796875 2.0 -4.734375 2.0q-2.90625 0 -4.796875 -2.28125q-1.875 -2.28125 -1.875 -6.21875q0 -4.125 1.8125 -6.390625q1.828125 -2.265625 4.859375 -2.265625q2.90625 0 4.9375 2.484375q0.03125 0.046875 0.0625 0.046875q0.03125 0 0.03125 -0.046875l0 -0.265625q0.03125 -0.796875 0.59375 -1.34375q0.578125 -0.546875 1.375 -0.546875l2.09375 0zm16.128967 7.0q0.3125 0 0.3125 -0.296875q-0.046875 -1.546875 -0.65625 -2.203125q-0.609375 -0.671875 -1.84375 -0.671875q-1.3125 0 -1.96875 0.65625q-0.640625 0.640625 -0.796875 2.25q0 0.265625 0.265625 0.265625l4.6875 0zm-2.359375 -7.328125q8.46875 0 8.5 8.921875q0 0.796875 -0.609375 1.359375q-0.59375 0.546875 -1.421875 0.546875l-8.734375 0q-0.296875 0 -0.234375 0.296875q0.296875 1.40625 1.3125 1.96875q1.015625 0.5625 3.1875 0.5625q1.359375 0 3.328125 -0.40625q0.703125 -0.15625 1.265625 0.296875q0.578125 0.4375 0.578125 1.171875l0 0.53125q0 0.84375 -0.53125 1.53125q-0.515625 0.671875 -1.3125 0.8125q-2.03125 0.390625 -4.328125 0.390625q-4.734375 0 -7.28125 -2.3125q-2.546875 -2.3125 -2.546875 -6.6875q0 -4.328125 2.265625 -6.65625q2.265625 -2.328125 6.5625 -2.328125z" fill-rule="nonzero"/></g></svg>