<svg version="1.1" xmlns="http://www.w3.org/2000/svg" xmlns:xlink="http://www.w3.org/1999/xlink" width="244.93295" height="35.14089" viewBox="0,0,244.93295,35.14089"><g transform="translate(-232.62233,-427.18877)"><g data-paper-data="{&quot;isPaintingLayer&quot;:true}" fill-rule="nonzero" stroke-linecap="round" stroke-linejoin="miter" stroke-miterlimit="10" stroke-dasharray="" stroke-dashoffset="0" style="mix-blend-mode: normal"><g><path d="M476.55556,461.0228c0,0 -0.14814,0.55495 -1.27468,0.55379c-21.11473,-0.02171 -230.03218,-0.23631 -240.3616,-0.24693c-0.78736,-0.00081 -1.15539,-1.0013 -1.15539,-1.0013l-0.13889,-21.5l10.58334,-10.63889l231.89583,0.38889c0,0 1.11238,0.34745 1.11408,0.81636c0.01062,2.91865 -0.66269,31.62808 -0.66269,31.62808z" fill="#29251f" stroke="#5c544c" stroke-width="2"/><path d="M264.96846,455.93267c0,0 -0.2598,1.05546 -0.91877,1.05102c-4.29379,-0.0289 -19.50604,-0.0297 -22.32401,-0.04866c-0.80882,-0.00544 -1.97671,-2.05715 -1.97671,-2.05715l-0.00958,-13.47312l7.7525,-7.76863c0,0 13.44415,-0.11721 15.93672,-0.13759c0.71212,-0.00583 1.70668,0.94235 1.70668,0.94235z" fill="#4a4641" stroke="none" stroke-width="0"/><path d="M262.64402,453.98095c0,0 -0.36485,0.56172 -0.86365,0.5583c-3.25009,-0.02229 -15.60573,-0.10701 -17.73873,-0.12163c-0.61222,-0.00421 -1.32801,-0.91375 -1.32801,-0.91375l0.16096,-11.23223l5.86808,-5.9916c0,0 10.84911,-0.09039 12.7358,-0.10612c0.53902,-0.00449 1.03953,0.47448 1.03953,0.47448z" fill="#0f0d0b" stroke="none" stroke-width="0"/></g></g></g></svg>