<svg version="1.1" xmlns="http://www.w3.org/2000/svg" xmlns:xlink="http://www.w3.org/1999/xlink" width="928.56084" height="428.82644" viewBox="0,0,928.56084,428.82644"><defs><linearGradient x1="765.25297" y1="38.20609" x2="765.25297" y2="234.73609" gradientUnits="userSpaceOnUse" id="color-1"><stop offset="0" stop-color="#7e8386"/><stop offset="0.28654" stop-color="#e0e3e3"/><stop offset="0.66241" stop-color="#aba5a2"/><stop offset="1" stop-color="#6a6a69"/></linearGradient><linearGradient x1="913.13297" y1="38.20609" x2="913.13297" y2="239.83609" gradientUnits="userSpaceOnUse" id="color-2"><stop offset="0" stop-color="#7e8386"/><stop offset="0.28654" stop-color="#e0e3e3"/><stop offset="0.66241" stop-color="#aba5a2"/><stop offset="1" stop-color="#6a6a69"/></linearGradient><linearGradient x1="319.19297" y1="41.10609" x2="319.19297" y2="234.43609" gradientUnits="userSpaceOnUse" id="color-3"><stop offset="0" stop-color="#7e8386"/><stop offset="0.28654" stop-color="#e0e3e3"/><stop offset="0.66241" stop-color="#aba5a2"/><stop offset="1" stop-color="#6a6a69"/></linearGradient><linearGradient x1="515.03297" y1="40.10609" x2="515.03297" y2="232.93609" gradientUnits="userSpaceOnUse" id="color-4"><stop offset="0" stop-color="#7e8386"/><stop offset="0.28654" stop-color="#e0e3e3"/><stop offset="0.66241" stop-color="#aba5a2"/><stop offset="1" stop-color="#6a6a69"/></linearGradient><linearGradient x1="152.89297" y1="41.10609" x2="152.89297" y2="234.59609" gradientUnits="userSpaceOnUse" id="color-5"><stop offset="0" stop-color="#7e8386"/><stop offset="0.28654" stop-color="#e0e3e3"/><stop offset="0.66241" stop-color="#aba5a2"/><stop offset="1" stop-color="#6a6a69"/></linearGradient><linearGradient x1="631.28297" y1="41.25609" x2="631.28297" y2="234.33609" gradientUnits="userSpaceOnUse" id="color-6"><stop offset="0" stop-color="#7e8386"/><stop offset="0.28654" stop-color="#e0e3e3"/><stop offset="0.66241" stop-color="#aba5a2"/><stop offset="1" stop-color="#6a6a69"/></linearGradient><linearGradient x1="422.77297" y1="42.10609" x2="422.77297" y2="232.81609" gradientUnits="userSpaceOnUse" id="color-7"><stop offset="0" stop-color="#7e8386"/><stop offset="0.28654" stop-color="#e0e3e3"/><stop offset="0.66241" stop-color="#aba5a2"/><stop offset="1" stop-color="#6a6a69"/></linearGradient><linearGradient x1="896.41297" y1="259.44609" x2="896.41297" y2="464.86609" gradientUnits="userSpaceOnUse" id="color-8"><stop offset="0" stop-color="#7e8386"/><stop offset="0.33094" stop-color="#e0e3e3"/><stop offset="0.68184" stop-color="#aba5a2"/><stop offset="1" stop-color="#6a6a69"/></linearGradient><linearGradient x1="155.30297" y1="261.73609" x2="155.30297" y2="458.26609" gradientUnits="userSpaceOnUse" id="color-9"><stop offset="0" stop-color="#7e8386"/><stop offset="0.33094" stop-color="#e0e3e3"/><stop offset="0.68184" stop-color="#aba5a2"/><stop offset="1" stop-color="#6a6a69"/></linearGradient><linearGradient x1="622.90297" y1="261.73609" x2="622.90297" y2="458.26609" gradientUnits="userSpaceOnUse" id="color-10"><stop offset="0" stop-color="#7e8386"/><stop offset="0.33094" stop-color="#e0e3e3"/><stop offset="0.68184" stop-color="#aba5a2"/><stop offset="1" stop-color="#6a6a69"/></linearGradient><linearGradient x1="777.15297" y1="263.70609" x2="777.15297" y2="460.59609" gradientUnits="userSpaceOnUse" id="color-11"><stop offset="0" stop-color="#7e8386"/><stop offset="0.33094" stop-color="#e0e3e3"/><stop offset="0.68184" stop-color="#aba5a2"/><stop offset="1" stop-color="#6a6a69"/></linearGradient><linearGradient x1="412.85297" y1="265.13609" x2="412.85297" y2="456.20609" gradientUnits="userSpaceOnUse" id="color-12"><stop offset="0" stop-color="#7e8386"/><stop offset="0.33094" stop-color="#e0e3e3"/><stop offset="0.68184" stop-color="#aba5a2"/><stop offset="1" stop-color="#6a6a69"/></linearGradient><linearGradient x1="291.40297" y1="265.90609" x2="291.40297" y2="455.57609" gradientUnits="userSpaceOnUse" id="color-13"><stop offset="0" stop-color="#7e8386"/><stop offset="0.33094" stop-color="#e0e3e3"/><stop offset="0.68184" stop-color="#aba5a2"/><stop offset="1" stop-color="#6a6a69"/></linearGradient><linearGradient x1="515.21297" y1="265.63609" x2="515.21297" y2="456.34609" gradientUnits="userSpaceOnUse" id="color-14"><stop offset="0" stop-color="#7e8386"/><stop offset="0.33094" stop-color="#e0e3e3"/><stop offset="0.68184" stop-color="#aba5a2"/><stop offset="1" stop-color="#6a6a69"/></linearGradient></defs><g transform="translate(-57.97297,-37.20443)"><g data-paper-data="{&quot;isPaintingLayer&quot;:true}" fill-rule="nonzero" stroke="#000000" stroke-width="2" stroke-linecap="butt" stroke-linejoin="miter" stroke-miterlimit="10" stroke-dasharray="" stroke-dashoffset="0" style="mix-blend-mode: normal"><g><path d="M824.01297,97.15609c2.5,16.09 2.5,58.55 0,74.84c-5.4,35.07 -15.79,51.65 -37.27,59.64c-5.49,2 -9.29,2.6 -18.88,3c-36.07,1.5 -53.46,-14.79 -60.95,-57.15c-2.2,-12.19 -3,-44.76 -1.6,-60.45c4.2,-45.56 18.79,-69.74 46.26,-76.93c4.6,-1.2 10.79,-1.9 16.79,-1.9c32.27,-0.2 49.15,17.69 55.65,58.95zM749.87297,104.24609c-2.19,10.89 -2.99,39.07 -1.6,53.26c2.2,20.68 6,31.87 12.09,34.97c6.9,3.59 12.79,0.8 16.99,-8c5,-10.29 6.39,-20.88 6.29,-46.95c0,-25.48 -1.29,-35.67 -5.69,-44.67c-2.8,-5.99 -4.1,-7.69 -7.59,-10.09c-3.3,-2.3 -6.1,-2.1 -10.1,0.6c-4.29,2.9 -8.49,11.29 -10.39,20.88z" fill="url(#color-1)"/><g fill-opacity="0" fill="#000000"><path d="M824.01297,97.15609c2.5,16.09 2.5,58.55 0,74.84c-5.4,35.07 -15.79,51.65 -37.27,59.64c-5.49,2 -9.29,2.6 -18.88,3c-36.07,1.5 -53.46,-14.79 -60.95,-57.15c-2.2,-12.19 -3,-44.76 -1.6,-60.45c4.2,-45.56 18.79,-69.74 46.26,-76.93c4.6,-1.2 10.79,-1.9 16.79,-1.9c32.27,-0.2 49.15,17.69 55.65,58.95zM749.87297,104.24609c-2.19,10.89 -2.99,39.07 -1.6,53.26c2.2,20.68 6,31.87 12.09,34.97c6.9,3.59 12.79,0.8 16.99,-8c5,-10.29 6.39,-20.88 6.29,-46.95c0,-25.48 -1.29,-35.67 -5.69,-44.67c-2.8,-5.99 -4.1,-7.69 -7.59,-10.09c-3.3,-2.3 -6.1,-2.1 -10.1,0.6c-4.29,2.9 -8.49,11.29 -10.39,20.88z"/></g></g><g><path d="M893.75297,41.30609c2.5,11.69 12.39,41.26 18.98,57.15c0.12,0.26 0.68,1.56 1.7,3.9c2.04,-3.78 3.17,-5.88 3.4,-6.3c5.79,-10.39 12.19,-25.48 17.48,-40.86c2.7,-8 5.1,-15.09 5.4,-15.79c0.3,-0.9 1.9,-0.6 5.69,1.1c2.9,1.3 11.19,4.2 18.29,6.59c7.19,2.3 13.39,4.6 13.79,5c1.19,1.1 -16.89,37.67 -28.38,57.45c-5.1,8.79 -10.19,17.68 -11.29,19.78c-0.14,0.25 -0.84,1.48 -2.1,3.7c4.44,8.57 6.9,13.33 7.4,14.29c11.79,22.38 24.47,44.96 33.07,58.25c0.52,0.82 3.11,4.91 7.79,12.29c-3.36,0.96 -5.22,1.49 -5.6,1.59c-3.19,0.8 -12.48,4.5 -20.88,8c-8.29,3.59 -15.48,6.49 -15.98,6.49c-0.5,0 -3.1,-5.69 -5.7,-12.79c-5.19,-13.78 -21.98,-49.15 -23.38,-49.15c-1.7,0 -17.88,36.36 -25.58,57.65c-0.25,0.68 -1.51,4.07 -3.79,10.19c-3.06,-1.26 -4.76,-1.96 -5.1,-2.1c-11.89,-4.7 -21.18,-7.89 -29.17,-9.89c-4.7,-1.2 -8.5,-2.5 -8.5,-2.9c0,-1.4 13.49,-29.07 22.88,-46.96c5.1,-9.59 12.79,-22.78 17.09,-29.27c4.4,-6.5 7.99,-12.19 7.99,-12.79c0,-2.6 -16.08,-35.27 -28.37,-57.35c-7.5,-13.69 -13.79,-25.18 -13.89,-25.68c-0.1,-0.5 5.69,-2.4 12.89,-4.3c7.19,-1.8 17.08,-4.89 21.98,-6.89c4.89,-1.9 9.39,-3.5 10.09,-3.5c0.6,-0.1 1.5,1.4 1.8,3.1z" fill="url(#color-2)"/><g fill-opacity="0" fill="#000000"><path d="M893.75297,41.30609c2.5,11.69 12.39,41.26 18.98,57.15c0.12,0.26 0.68,1.56 1.7,3.9c2.04,-3.78 3.17,-5.88 3.4,-6.3c5.79,-10.39 12.19,-25.48 17.48,-40.86c2.7,-8 5.1,-15.09 5.4,-15.79c0.3,-0.9 1.9,-0.6 5.69,1.1c2.9,1.3 11.19,4.2 18.29,6.59c7.19,2.3 13.39,4.6 13.79,5c1.19,1.1 -16.89,37.67 -28.38,57.45c-5.1,8.79 -10.19,17.68 -11.29,19.78c-0.14,0.25 -0.84,1.48 -2.1,3.7c4.44,8.57 6.9,13.33 7.4,14.29c11.79,22.38 24.47,44.96 33.07,58.25c0.52,0.82 3.11,4.91 7.79,12.29c-3.36,0.96 -5.22,1.49 -5.6,1.59c-3.19,0.8 -12.48,4.5 -20.88,8c-8.29,3.59 -15.48,6.49 -15.98,6.49c-0.5,0 -3.1,-5.69 -5.7,-12.79c-5.19,-13.78 -21.98,-49.15 -23.38,-49.15c-1.7,0 -17.88,36.36 -25.58,57.65c-0.25,0.68 -1.51,4.07 -3.79,10.19c-3.06,-1.26 -4.76,-1.96 -5.1,-2.1c-11.89,-4.7 -21.18,-7.89 -29.17,-9.89c-4.7,-1.2 -8.5,-2.5 -8.5,-2.9c0,-1.4 13.49,-29.07 22.88,-46.96c5.1,-9.59 12.79,-22.78 17.09,-29.27c4.4,-6.5 7.99,-12.19 7.99,-12.79c0,-2.6 -16.08,-35.27 -28.37,-57.35c-7.5,-13.69 -13.79,-25.18 -13.89,-25.68c-0.1,-0.5 5.69,-2.4 12.89,-4.3c7.19,-1.8 17.08,-4.89 21.98,-6.89c4.89,-1.9 9.39,-3.5 10.09,-3.5c0.6,-0.1 1.5,1.4 1.8,3.1z"/></g></g><g><path d="M288.77297,40.30609c18.11,0.3 28.16,0.47 30.18,0.5c16.68,0.3 30.57,0.8 30.87,1.2c0.3,0.3 1.2,5.29 1.8,11.09c4.09,35.37 15.08,102.71 24.48,149.07c0.41,2.04 2.47,12.23 6.19,30.57c-6.65,0.36 -10.35,0.56 -11.09,0.6c-5.99,0.3 -16.39,0.7 -22.98,0.8c-0.8,0.02 -4.8,0.12 -11.99,0.3c-0.12,-4.19 -0.19,-6.53 -0.2,-6.99c-0.2,-3.9 -0.8,-11.99 -1.4,-18.09c-0.07,-0.74 -0.44,-4.47 -1.1,-11.19c-2.69,-0.36 -4.19,-0.56 -4.49,-0.6c-8.6,-1.1 -29.28,-0.7 -29.78,0.6c-0.2,0.7 -1.1,8 -1.9,16.19c-1,9.59 -1.99,15.19 -2.79,15.79c-0.7,0.4 -5.8,0.79 -11.29,0.89c-5.5,0 -13.79,0.4 -18.49,0.8c-4.69,0.4 -8.59,0.7 -8.69,0.6c-0.1,-0.1 3.1,-16.98 7.19,-37.56c8.4,-42.67 15.69,-85.43 20.99,-123.8c1.99,-14.58 3.79,-27.47 4.09,-28.67c0.06,-0.28 0.19,-0.98 0.4,-2.1zM307.26297,146.01609c-0.8,5.19 -1.7,10.69 -2,12.19c-0.03,0.18 -0.16,1.12 -0.4,2.8c4.37,0 6.81,0 7.29,0c4,0 9.39,-0.3 11.99,-0.6c0.31,-0.05 1.88,-0.28 4.7,-0.7c-0.36,-3.06 -0.56,-4.76 -0.6,-5.1c-0.4,-2.8 -2.7,-17.28 -5.2,-32.07c-2.4,-14.89 -4.79,-27.38 -5.29,-27.78c-0.7,-0.8 -7,30.18 -10.49,51.26z" fill="url(#color-3)"/><g fill-opacity="0" fill="#000000"><path d="M288.77297,40.30609c18.11,0.3 28.16,0.47 30.18,0.5c16.68,0.3 30.57,0.8 30.87,1.2c0.3,0.3 1.2,5.29 1.8,11.09c4.09,35.37 15.08,102.71 24.48,149.07c0.41,2.04 2.47,12.23 6.19,30.57c-6.65,0.36 -10.35,0.56 -11.09,0.6c-5.99,0.3 -16.39,0.7 -22.98,0.8c-0.8,0.02 -4.8,0.12 -11.99,0.3c-0.12,-4.19 -0.19,-6.53 -0.2,-6.99c-0.2,-3.9 -0.8,-11.99 -1.4,-18.09c-0.07,-0.74 -0.44,-4.47 -1.1,-11.19c-2.69,-0.36 -4.19,-0.56 -4.49,-0.6c-8.6,-1.1 -29.28,-0.7 -29.78,0.6c-0.2,0.7 -1.1,8 -1.9,16.19c-1,9.59 -1.99,15.19 -2.79,15.79c-0.7,0.4 -5.8,0.79 -11.29,0.89c-5.5,0 -13.79,0.4 -18.49,0.8c-4.69,0.4 -8.59,0.7 -8.69,0.6c-0.1,-0.1 3.1,-16.98 7.19,-37.56c8.4,-42.67 15.69,-85.43 20.99,-123.8c1.99,-14.58 3.79,-27.47 4.09,-28.67c0.06,-0.28 0.19,-0.98 0.4,-2.1zM307.26297,146.01609c-0.8,5.19 -1.7,10.69 -2,12.19c-0.03,0.18 -0.16,1.12 -0.4,2.8c4.37,0 6.81,0 7.29,0c4,0 9.39,-0.3 11.99,-0.6c0.31,-0.05 1.88,-0.28 4.7,-0.7c-0.36,-3.06 -0.56,-4.76 -0.6,-5.1c-0.4,-2.8 -2.7,-17.28 -5.2,-32.07c-2.4,-14.89 -4.79,-27.38 -5.29,-27.78c-0.7,-0.8 -7,30.18 -10.49,51.26z"/></g></g><g><path d="M518.87297,40.10609c-0.36,31.59 -0.56,49.14 -0.6,52.65c-0.4,29.08 -1,63.25 -1.4,76.14c-0.04,1.56 -0.24,9.35 -0.6,23.38l20.19,-0.5l20.28,-0.4c-0.36,3.3 -0.56,5.13 -0.6,5.49c-0.5,4.6 -2.6,32.78 -2.6,35.27c0,0.5 -18.08,0.8 -40.06,0.8c-2.68,0 -16.07,0 -40.17,0c0.42,-4.07 0.65,-6.34 0.7,-6.79c1.7,-18.88 2.8,-84.93 2.2,-131.69c-0.04,-3.4 -0.24,-20.42 -0.6,-51.05c8.81,-0.42 13.71,-0.66 14.69,-0.7c8.19,-0.4 16.78,-1.1 19.28,-1.5c2.5,-0.5 5.6,-0.9 6.89,-1c0,0 0.8,-0.03 2.4,-0.1z" fill="url(#color-4)"/><g fill-opacity="0" fill="#000000"><path d="M518.87297,40.10609c-0.36,31.59 -0.56,49.14 -0.6,52.65c-0.4,29.08 -1,63.25 -1.4,76.14c-0.04,1.56 -0.24,9.35 -0.6,23.38l20.19,-0.5l20.28,-0.4c-0.36,3.3 -0.56,5.13 -0.6,5.49c-0.5,4.6 -2.6,32.78 -2.6,35.27c0,0.5 -18.08,0.8 -40.06,0.8c-2.68,0 -16.07,0 -40.17,0c0.42,-4.07 0.65,-6.34 0.7,-6.79c1.7,-18.88 2.8,-84.93 2.2,-131.69c-0.04,-3.4 -0.24,-20.42 -0.6,-51.05c8.81,-0.42 13.71,-0.66 14.69,-0.7c8.19,-0.4 16.78,-1.1 19.28,-1.5c2.5,-0.5 5.6,-0.9 6.89,-1c0,0 0.8,-0.03 2.4,-0.1z"/></g></g><g><path d="M138.90297,41.10609c0,1.98 0,3.08 0,3.3c0,10.79 12.29,82.72 14.89,87.42c1.3,2.3 15.28,-57.45 19.08,-82.03c0.09,-0.51 0.52,-3.08 1.3,-7.69h20.28h20.29c0.36,1.92 0.55,2.98 0.59,3.2c0.3,1.79 1.4,10.69 2.5,19.78c5.6,44.56 17.39,115.1 25.98,154.36c1.7,7.5 3,13.79 3,13.99c0,0.3 -10.09,0.5 -22.38,0.5c-1.5,0 -9,0 -22.48,0c-0.3,-2.58 -0.47,-4.01 -0.5,-4.29c-0.3,-2.3 -1.2,-12.09 -2.1,-21.69c-2.4,-26.17 -8.69,-64.94 -10.49,-64.94c-2,0 -15.49,67.54 -17.19,86.43c-0.02,0.2 -0.12,1.2 -0.3,2.99c-11.09,-0.24 -17.25,-0.37 -18.48,-0.4c-10.19,-0.2 -18.78,-0.5 -19.08,-0.7c-0.4,-0.2 -0.9,-3.59 -1.3,-7.59c-1.3,-12.99 -5.7,-41.76 -9.2,-60.25c-3.59,-18.78 -4.19,-21.08 -4.89,-20.38c-0.7,0.8 -8.39,36.27 -10.49,48.46c-1.1,6.49 -2.9,18.78 -3.9,27.28c-1.1,8.39 -2.2,15.48 -2.4,15.68c-0.2,0.2 -5.89,-0.1 -12.79,-0.6c-6.79,-0.5 -16.28,-1 -21.08,-1c-4.89,0 -8.79,-0.2 -8.79,-0.4c0,-0.3 2,-9.59 4.4,-20.78c8.19,-37.37 18.58,-95.92 26.07,-145.97c1.9,-13.09 3.5,-23.98 3.5,-24.28c0,-0.2 10.39,-0.4 22.98,-0.4c0,0 7.66,0 22.98,0z" fill="url(#color-5)"/><g fill-opacity="0" fill="#000000"><path d="M138.90297,41.10609c0,1.98 0,3.08 0,3.3c0,10.79 12.29,82.72 14.89,87.42c1.3,2.3 15.28,-57.45 19.08,-82.03c0.09,-0.51 0.52,-3.08 1.3,-7.69h20.28h20.29c0.36,1.92 0.55,2.98 0.59,3.2c0.3,1.79 1.4,10.69 2.5,19.78c5.6,44.56 17.39,115.1 25.98,154.36c1.7,7.5 3,13.79 3,13.99c0,0.3 -10.09,0.5 -22.38,0.5c-1.5,0 -9,0 -22.48,0c-0.3,-2.58 -0.47,-4.01 -0.5,-4.29c-0.3,-2.3 -1.2,-12.09 -2.1,-21.69c-2.4,-26.17 -8.69,-64.94 -10.49,-64.94c-2,0 -15.49,67.54 -17.19,86.43c-0.02,0.2 -0.12,1.2 -0.3,2.99c-11.09,-0.24 -17.25,-0.37 -18.48,-0.4c-10.19,-0.2 -18.78,-0.5 -19.08,-0.7c-0.4,-0.2 -0.9,-3.59 -1.3,-7.59c-1.3,-12.99 -5.7,-41.76 -9.2,-60.25c-3.59,-18.78 -4.19,-21.08 -4.89,-20.38c-0.7,0.8 -8.39,36.27 -10.49,48.46c-1.1,6.49 -2.9,18.78 -3.9,27.28c-1.1,8.39 -2.2,15.48 -2.4,15.68c-0.2,0.2 -5.89,-0.1 -12.79,-0.6c-6.79,-0.5 -16.28,-1 -21.08,-1c-4.89,0 -8.79,-0.2 -8.79,-0.4c0,-0.3 2,-9.59 4.4,-20.78c8.19,-37.37 18.58,-95.92 26.07,-145.97c1.9,-13.09 3.5,-23.98 3.5,-24.28c0,-0.2 10.39,-0.4 22.98,-0.4c0,0 7.66,0 22.98,0z"/></g></g><g><path d="M651.26297,46.89609c9.19,4.4 21.18,15.39 26.48,24.28c3.79,6.3 3.79,6.5 3.29,13.89c-1.2,15.19 -4.99,24.48 -13.69,33.47c-3.39,3.6 -8.39,7.9 -11.09,9.59c-0.32,0.21 -1.91,1.24 -4.79,3.1c5.87,2.88 9.14,4.48 9.79,4.8c11.59,5.69 18.78,12.29 23.38,21.28c2.8,5.69 3,6.69 2.5,13.19c-2.5,29.17 -12.59,45.26 -35.17,56.05c-14.29,6.89 -20.18,7.79 -46.96,7.79c-13.19,0 -25.28,-0.3 -26.88,-0.7c-0.19,-0.05 -1.16,-0.32 -2.9,-0.8c0.42,-10.31 0.66,-16.04 0.7,-17.18c1.8,-46.36 2.5,-91.12 1.9,-129.69c-0.04,-2.84 -0.24,-17.07 -0.6,-42.66c4.74,-0.36 7.37,-0.56 7.9,-0.6c4.29,-0.4 8.99,-0.8 10.39,-1c5.89,-0.7 15.58,-0.6 31.47,0.5c16.29,1.1 17.28,1.3 24.28,4.69zM615.49297,74.87609v23.18v23.18c1.68,-0.36 2.61,-0.56 2.8,-0.6c4.69,-1.2 11.49,-5.99 14.68,-10.49c2.7,-3.8 3,-5.1 3,-11.49c0,-6.3 -0.4,-7.89 -3,-12.19c-1.79,-2.9 -4.89,-6 -7.49,-7.59c-2.5,-1.5 -5.69,-3 -7.19,-3.4c-0.38,-0.08 -1.31,-0.28 -2.8,-0.6zM617.49297,151.20609v23.98v23.88c2.28,-0.42 3.54,-0.65 3.79,-0.7c19.39,-3.39 27.78,-23.88 15.49,-37.46c-2,-2.2 -5.29,-4.9 -7.39,-5.9c-2,-1.1 -5.6,-2.4 -7.8,-2.9c-0.54,-0.12 -1.91,-0.42 -4.09,-0.9z" fill="url(#color-6)"/><g fill-opacity="0" fill="#000000"><path d="M651.26297,46.89609c9.19,4.4 21.18,15.39 26.48,24.28c3.79,6.3 3.79,6.5 3.29,13.89c-1.2,15.19 -4.99,24.48 -13.69,33.47c-3.39,3.6 -8.39,7.9 -11.09,9.59c-0.32,0.21 -1.91,1.24 -4.79,3.1c5.87,2.88 9.14,4.48 9.79,4.8c11.59,5.69 18.78,12.29 23.38,21.28c2.8,5.69 3,6.69 2.5,13.19c-2.5,29.17 -12.59,45.26 -35.17,56.05c-14.29,6.89 -20.18,7.79 -46.96,7.79c-13.19,0 -25.28,-0.3 -26.88,-0.7c-0.19,-0.05 -1.16,-0.32 -2.9,-0.8c0.42,-10.31 0.66,-16.04 0.7,-17.18c1.8,-46.36 2.5,-91.12 1.9,-129.69c-0.04,-2.84 -0.24,-17.07 -0.6,-42.66c4.74,-0.36 7.37,-0.56 7.9,-0.6c4.29,-0.4 8.99,-0.8 10.39,-1c5.89,-0.7 15.58,-0.6 31.47,0.5c16.29,1.1 17.28,1.3 24.28,4.69zM615.49297,74.87609v23.18v23.18c1.68,-0.36 2.61,-0.56 2.8,-0.6c4.69,-1.2 11.49,-5.99 14.68,-10.49c2.7,-3.8 3,-5.1 3,-11.49c0,-6.3 -0.4,-7.89 -3,-12.19c-1.79,-2.9 -4.89,-6 -7.49,-7.59c-2.5,-1.5 -5.69,-3 -7.19,-3.4c-0.38,-0.08 -1.31,-0.28 -2.8,-0.6zM617.49297,151.20609v23.98v23.88c2.28,-0.42 3.54,-0.65 3.79,-0.7c19.39,-3.39 27.78,-23.88 15.49,-37.46c-2,-2.2 -5.29,-4.9 -7.39,-5.9c-2,-1.1 -5.6,-2.4 -7.8,-2.9c-0.54,-0.12 -1.91,-0.42 -4.09,-0.9z"/></g></g><g><path d="M401.77297,42.10609c12.71,0.36 19.77,0.56 21.19,0.6c11.69,0.4 21.18,0.7 21.28,0.8c0.1,0 -0.2,15.58 -0.6,34.57c-0.4,18.98 -0.5,61.24 -0.2,94.02c0.03,3.97 0.2,23.82 0.5,59.54c-12.77,0.42 -19.87,0.66 -21.28,0.7c-11.59,0.4 -21.29,0.6 -21.39,0.4c0,-0.2 0,-43.16 0.2,-95.51c0.04,-12.69 0.14,-44.39 0.3,-95.12z" fill="url(#color-7)"/><g fill-opacity="0" fill="#000000"><path d="M401.77297,42.10609c12.71,0.36 19.77,0.56 21.19,0.6c11.69,0.4 21.18,0.7 21.28,0.8c0.1,0 -0.2,15.58 -0.6,34.57c-0.4,18.98 -0.5,61.24 -0.2,94.02c0.03,3.97 0.2,23.82 0.5,59.54c-12.77,0.42 -19.87,0.66 -21.28,0.7c-11.59,0.4 -21.29,0.6 -21.39,0.4c0,-0.2 0,-43.16 0.2,-95.51c0.04,-12.69 0.14,-44.39 0.3,-95.12z"/></g></g><g><path d="M899.77297,259.44609c4.02,3.53 6.25,5.5 6.7,5.89c3.79,3.3 12.79,10.49 19.98,15.99c0.88,0.67 5.27,4.03 13.19,10.09c-3.78,2.46 -5.88,3.82 -6.3,4.09c-12.79,8.4 -23.28,22.29 -24.98,32.88c-1.19,8.09 -0.59,9.39 17.79,34.27c4.9,6.59 9.99,14.78 11.39,18.18c2.4,6 2.5,6.59 1.4,15.19c-1.3,10.19 -3.7,17.88 -8.79,27.97c-6.8,13.39 -19.69,27.98 -32.78,36.97c-0.38,0.26 -2.27,1.56 -5.69,3.9c-2.52,-1.32 -3.92,-2.05 -4.2,-2.2c-9.39,-5 -36.47,-27.88 -34.17,-28.78c4.5,-1.79 18.29,-12.08 24.08,-17.88c9.29,-9.29 13.39,-17.38 13.39,-26.08c0,-10.19 -1.6,-13.79 -19.28,-41.66c-7.5,-11.89 -9.1,-16.99 -8.4,-26.58c1.4,-17.98 12.19,-38.47 28.68,-54.45c1.06,-1.04 3.73,-3.64 7.99,-7.79z" fill="url(#color-8)"/><g fill-opacity="0" fill="#000000"><path d="M899.77297,259.44609c4.02,3.53 6.25,5.5 6.7,5.89c3.79,3.3 12.79,10.49 19.98,15.99c0.88,0.67 5.27,4.03 13.19,10.09c-3.78,2.46 -5.88,3.82 -6.3,4.09c-12.79,8.4 -23.28,22.29 -24.98,32.88c-1.19,8.09 -0.59,9.39 17.79,34.27c4.9,6.59 9.99,14.78 11.39,18.18c2.4,6 2.5,6.59 1.4,15.19c-1.3,10.19 -3.7,17.88 -8.79,27.97c-6.8,13.39 -19.69,27.98 -32.78,36.97c-0.38,0.26 -2.27,1.56 -5.69,3.9c-2.52,-1.32 -3.92,-2.05 -4.2,-2.2c-9.39,-5 -36.47,-27.88 -34.17,-28.78c4.5,-1.79 18.29,-12.08 24.08,-17.88c9.29,-9.29 13.39,-17.38 13.39,-26.08c0,-10.19 -1.6,-13.79 -19.28,-41.66c-7.5,-11.89 -9.1,-16.99 -8.4,-26.58c1.4,-17.98 12.19,-38.47 28.68,-54.45c1.06,-1.04 3.73,-3.64 7.99,-7.79z"/></g></g><g><path d="M214.06297,320.68609c2.5,16.09 2.5,58.55 0,74.84c-5.39,35.07 -15.78,51.65 -37.26,59.65c-5.5,1.99 -9.3,2.59 -18.89,2.99c-36.07,1.5 -53.45,-14.78 -60.94,-57.15c-2.2,-12.19 -3,-44.76 -1.6,-60.44c4.19,-45.57 18.78,-69.74 46.26,-76.94c4.59,-1.2 10.79,-1.9 16.78,-1.9c32.27,-0.2 49.16,17.69 55.65,58.95zM139.93297,327.78609c-2.2,10.89 -3,39.06 -1.6,53.25c2.2,20.68 5.99,31.87 12.09,34.97c6.89,3.6 12.79,0.8 16.98,-7.99c5,-10.29 6.4,-20.88 6.3,-46.96c0,-25.48 -1.3,-35.67 -5.7,-44.66c-2.79,-6 -4.09,-7.7 -7.59,-10.1c-3.3,-2.29 -6.09,-2.09 -10.09,0.6c-4.3,2.9 -8.49,11.29 -10.39,20.89z" fill="url(#color-9)"/><g fill-opacity="0" fill="#000000"><path d="M214.06297,320.68609c2.5,16.09 2.5,58.55 0,74.84c-5.39,35.07 -15.78,51.65 -37.26,59.65c-5.5,1.99 -9.3,2.59 -18.89,2.99c-36.07,1.5 -53.45,-14.78 -60.94,-57.15c-2.2,-12.19 -3,-44.76 -1.6,-60.44c4.19,-45.57 18.78,-69.74 46.26,-76.94c4.59,-1.2 10.79,-1.9 16.78,-1.9c32.27,-0.2 49.16,17.69 55.65,58.95zM139.93297,327.78609c-2.2,10.89 -3,39.06 -1.6,53.25c2.2,20.68 5.99,31.87 12.09,34.97c6.89,3.6 12.79,0.8 16.98,-7.99c5,-10.29 6.4,-20.88 6.3,-46.96c0,-25.48 -1.3,-35.67 -5.7,-44.66c-2.79,-6 -4.09,-7.7 -7.59,-10.1c-3.3,-2.29 -6.09,-2.09 -10.09,0.6c-4.3,2.9 -8.49,11.29 -10.39,20.89z"/></g></g><g><path d="M681.66297,320.68609c2.5,16.09 2.5,58.55 0,74.84c-5.39,35.07 -15.79,51.65 -37.27,59.65c-5.49,1.99 -9.29,2.59 -18.88,2.99c-36.07,1.5 -53.45,-14.78 -60.95,-57.15c-2.2,-12.19 -3,-44.76 -1.6,-60.44c4.2,-45.57 18.79,-69.74 46.26,-76.94c4.6,-1.2 10.79,-1.9 16.79,-1.9c32.27,-0.2 49.16,17.69 55.65,58.95zM607.52297,327.78609c-2.19,10.89 -2.99,39.06 -1.59,53.25c2.19,20.68 5.99,31.87 12.09,34.97c6.89,3.6 12.78,0.8 16.98,-7.99c5,-10.29 6.4,-20.88 6.3,-46.96c0,-25.48 -1.3,-35.67 -5.7,-44.66c-2.8,-6 -4.1,-7.7 -7.59,-10.1c-3.3,-2.29 -6.1,-2.09 -10.09,0.6c-4.3,2.9 -8.5,11.29 -10.4,20.89z" fill="url(#color-10)"/><g fill-opacity="0" fill="#000000"><path d="M681.66297,320.68609c2.5,16.09 2.5,58.55 0,74.84c-5.39,35.07 -15.79,51.65 -37.27,59.65c-5.49,1.99 -9.29,2.59 -18.88,2.99c-36.07,1.5 -53.45,-14.78 -60.95,-57.15c-2.2,-12.19 -3,-44.76 -1.6,-60.44c4.2,-45.57 18.79,-69.74 46.26,-76.94c4.6,-1.2 10.79,-1.9 16.79,-1.9c32.27,-0.2 49.16,17.69 55.65,58.95zM607.52297,327.78609c-2.19,10.89 -2.99,39.06 -1.59,53.25c2.19,20.68 5.99,31.87 12.09,34.97c6.89,3.6 12.78,0.8 16.98,-7.99c5,-10.29 6.4,-20.88 6.3,-46.96c0,-25.48 -1.3,-35.67 -5.7,-44.66c-2.8,-6 -4.1,-7.7 -7.59,-10.1c-3.3,-2.29 -6.1,-2.09 -10.09,0.6c-4.3,2.9 -8.5,11.29 -10.4,20.89z"/></g></g><g><path d="M764.76297,278.01609c7.19,21.98 25.38,66.54 33.27,81.63c0.14,0.26 0.84,1.59 2.1,3.99c0.06,-14.68 0.09,-22.84 0.1,-24.48c0,-13.48 -0.5,-35.37 -1.2,-48.65c-0.6,-13.29 -1,-24.38 -0.7,-24.58c0.2,-0.2 9.19,-0.7 19.88,-1c1.3,-0.04 7.8,-0.24 19.49,-0.6c0,47.18 0,73.39 0,78.63c0,73.84 0.6,93.22 3.09,107.61c0.04,0.2 0.2,1.2 0.5,3c-8.75,1.43 -13.61,2.23 -14.58,2.39c-8,1.3 -17.09,3 -20.19,3.8c-3.09,0.8 -5.89,1.1 -6.39,0.6c-0.4,-0.4 -2.8,-6.2 -5.2,-12.79c-10.49,-28.08 -28.17,-67.14 -39.56,-87.42c-0.28,-0.5 -1.68,-3 -4.2,-7.5c0.36,12.29 0.56,19.12 0.6,20.48c0.3,11.29 1.3,33.68 2.1,49.76c0.8,16.09 1.2,29.68 0.9,30.18c-0.3,0.6 -3,0.99 -6,0.99c-2.89,0 -11.89,0.9 -20.08,2c-8.09,1.1 -14.89,1.8 -14.99,1.7c-0.7,-0.7 -0.79,-13.79 -0.6,-100.41c0.02,-6.14 0.08,-36.85 0.2,-92.12c10.98,-0.06 17.07,-0.1 18.29,-0.1c9.99,0 20.48,-0.4 23.18,-0.8c2.8,-0.4 5.09,-0.7 5.19,-0.6c0,0 2.2,6.39 4.8,14.29z" fill="url(#color-11)"/><g fill-opacity="0" fill="#000000"><path d="M764.76297,278.01609c7.19,21.98 25.38,66.54 33.27,81.63c0.14,0.26 0.84,1.59 2.1,3.99c0.06,-14.68 0.09,-22.84 0.1,-24.48c0,-13.48 -0.5,-35.37 -1.2,-48.65c-0.6,-13.29 -1,-24.38 -0.7,-24.58c0.2,-0.2 9.19,-0.7 19.88,-1c1.3,-0.04 7.8,-0.24 19.49,-0.6c0,47.18 0,73.39 0,78.63c0,73.84 0.6,93.22 3.09,107.61c0.04,0.2 0.2,1.2 0.5,3c-8.75,1.43 -13.61,2.23 -14.58,2.39c-8,1.3 -17.09,3 -20.19,3.8c-3.09,0.8 -5.89,1.1 -6.39,0.6c-0.4,-0.4 -2.8,-6.2 -5.2,-12.79c-10.49,-28.08 -28.17,-67.14 -39.56,-87.42c-0.28,-0.5 -1.68,-3 -4.2,-7.5c0.36,12.29 0.56,19.12 0.6,20.48c0.3,11.29 1.3,33.68 2.1,49.76c0.8,16.09 1.2,29.68 0.9,30.18c-0.3,0.6 -3,0.99 -6,0.99c-2.89,0 -11.89,0.9 -20.08,2c-8.09,1.1 -14.89,1.8 -14.99,1.7c-0.7,-0.7 -0.79,-13.79 -0.6,-100.41c0.02,-6.14 0.08,-36.85 0.2,-92.12c10.98,-0.06 17.07,-0.1 18.29,-0.1c9.99,0 20.48,-0.4 23.18,-0.8c2.8,-0.4 5.09,-0.7 5.19,-0.6c0,0 2.2,6.39 4.8,14.29z"/></g></g><g><path d="M354.14297,265.13609c35.67,0 55.49,0 59.45,0c49.16,0 59.45,0.2 59.05,1.3c-0.3,0.8 -0.5,10.89 -0.5,22.48c0,1.41 0,8.47 0,21.18c-5.21,-0.42 -8.11,-0.65 -8.69,-0.7c-4.9,-0.3 -13.09,-0.7 -18.39,-0.7c-0.63,0 -3.83,-0.04 -9.59,-0.1c-0.36,6.72 -0.56,10.45 -0.6,11.19c-0.4,6.2 -0.7,38.87 -0.7,72.44c0,4.08 0,24.5 0,61.25c-4.61,0 -7.18,0 -7.69,0c-4.3,0 -14.09,0.7 -21.68,1.5c-7.69,0.8 -13.99,1.4 -14.19,1.2c-0.1,-0.1 0.2,-11.49 0.7,-25.18c0.4,-13.79 0.8,-46.96 0.8,-73.74c0.01,-3.25 0.04,-19.5 0.1,-48.76c-5.51,0.3 -8.58,0.47 -9.19,0.5c-5.1,0.3 -13.99,0.8 -19.68,1.1c-0.69,0.04 -4.12,0.24 -10.3,0.6c0.48,-7.07 0.75,-11 0.8,-11.79c0.5,-6.49 0.8,-16.78 0.6,-22.78c-0.04,-1.46 -0.14,-5.13 -0.3,-10.99z" fill="url(#color-12)"/><g fill-opacity="0" fill="#000000"><path d="M354.14297,265.13609c35.67,0 55.49,0 59.45,0c49.16,0 59.45,0.2 59.05,1.3c-0.3,0.8 -0.5,10.89 -0.5,22.48c0,1.41 0,8.47 0,21.18c-5.21,-0.42 -8.11,-0.65 -8.69,-0.7c-4.9,-0.3 -13.09,-0.7 -18.39,-0.7c-0.63,0 -3.83,-0.04 -9.59,-0.1c-0.36,6.72 -0.56,10.45 -0.6,11.19c-0.4,6.2 -0.7,38.87 -0.7,72.44c0,4.08 0,24.5 0,61.25c-4.61,0 -7.18,0 -7.69,0c-4.3,0 -14.09,0.7 -21.68,1.5c-7.69,0.8 -13.99,1.4 -14.19,1.2c-0.1,-0.1 0.2,-11.49 0.7,-25.18c0.4,-13.79 0.8,-46.96 0.8,-73.74c0.01,-3.25 0.04,-19.5 0.1,-48.76c-5.51,0.3 -8.58,0.47 -9.19,0.5c-5.1,0.3 -13.99,0.8 -19.68,1.1c-0.69,0.04 -4.12,0.24 -10.3,0.6c0.48,-7.07 0.75,-11 0.8,-11.79c0.5,-6.49 0.8,-16.78 0.6,-22.78c-0.04,-1.46 -0.14,-5.13 -0.3,-10.99z"/></g></g><g><path d="M305.59297,270.93609c16.98,8.49 29.07,23.48 34.27,42.66c1.29,4.59 1.79,10.29 1.79,19.48c0.1,11.19 -0.3,14.49 -2.79,23.98c-5.2,20.38 -9.99,27.68 -24.08,37.37c-7.9,5.49 -26.78,15.09 -29.68,15.09c-1.6,0 -1.8,1.19 -1.7,12.68c0,7.1 0.4,16.99 0.7,22.19c0.5,5.99 0.3,9.49 -0.3,9.59c-0.5,0.2 -9.99,0.6 -20.98,1c-1.33,0.04 -7.99,0.24 -19.98,0.6c-0.06,-43.65 -0.09,-67.89 -0.1,-72.74c0,-39.97 -0.4,-82.53 -0.8,-94.42c-0.05,-1.45 -0.32,-8.67 -0.8,-21.68c3.24,-0.24 5.04,-0.37 5.4,-0.4c9.89,-0.6 19.18,-0.6 35.57,0.2c15.88,0.8 16.38,0.9 23.48,4.4zM282.31297,338.17609c0,2.5 0,14.98 0,37.47c1.79,-1.26 2.79,-1.96 2.99,-2.1c7.3,-5.2 15.19,-18.89 17.19,-29.78c1.5,-7.79 0,-19.98 -3.3,-26.37c-1.1,-2.4 -4.89,-7.1 -8.19,-10.6c-3.4,-3.39 -6.7,-6.19 -7.4,-6.19c-0.99,0 -1.29,7.69 -1.29,37.57z" fill="url(#color-13)"/><g fill-opacity="0" fill="#000000"><path d="M305.59297,270.93609c16.98,8.49 29.07,23.48 34.27,42.66c1.29,4.59 1.79,10.29 1.79,19.48c0.1,11.19 -0.3,14.49 -2.79,23.98c-5.2,20.38 -9.99,27.68 -24.08,37.37c-7.9,5.49 -26.78,15.09 -29.68,15.09c-1.6,0 -1.8,1.19 -1.7,12.68c0,7.1 0.4,16.99 0.7,22.19c0.5,5.99 0.3,9.49 -0.3,9.59c-0.5,0.2 -9.99,0.6 -20.98,1c-1.33,0.04 -7.99,0.24 -19.98,0.6c-0.06,-43.65 -0.09,-67.89 -0.1,-72.74c0,-39.97 -0.4,-82.53 -0.8,-94.42c-0.05,-1.45 -0.32,-8.67 -0.8,-21.68c3.24,-0.24 5.04,-0.37 5.4,-0.4c9.89,-0.6 19.18,-0.6 35.57,0.2c15.88,0.8 16.38,0.9 23.48,4.4zM282.31297,338.17609c0,2.5 0,14.98 0,37.47c1.79,-1.26 2.79,-1.96 2.99,-2.1c7.3,-5.2 15.19,-18.89 17.19,-29.78c1.5,-7.79 0,-19.98 -3.3,-26.37c-1.1,-2.4 -4.89,-7.1 -8.19,-10.6c-3.4,-3.39 -6.7,-6.19 -7.4,-6.19c-0.99,0 -1.29,7.69 -1.29,37.57z"/></g></g><g><path d="M494.22297,265.63609c12.71,0.36 19.77,0.56 21.18,0.6c11.69,0.4 21.19,0.7 21.29,0.8c0.1,0 -0.2,15.59 -0.6,34.57c-0.4,18.98 -0.5,61.25 -0.2,94.02c0.03,3.97 0.2,23.82 0.5,59.55c-12.77,0.42 -19.87,0.65 -21.29,0.7c-11.59,0.4 -21.28,0.6 -21.38,0.4c0,-0.2 0,-43.17 0.2,-95.52c0.04,-12.68 0.14,-44.39 0.3,-95.12z" fill="url(#color-14)"/><g fill-opacity="0" fill="#000000"><path d="M494.22297,265.63609c12.71,0.36 19.77,0.56 21.18,0.6c11.69,0.4 21.19,0.7 21.29,0.8c0.1,0 -0.2,15.59 -0.6,34.57c-0.4,18.98 -0.5,61.25 -0.2,94.02c0.03,3.97 0.2,23.82 0.5,59.55c-12.77,0.42 -19.87,0.65 -21.29,0.7c-11.59,0.4 -21.28,0.6 -21.38,0.4c0,-0.2 0,-43.17 0.2,-95.52c0.04,-12.68 0.14,-44.39 0.3,-95.12z"/></g></g></g></g></svg>