<svg version="1.1" xmlns="http://www.w3.org/2000/svg" xmlns:xlink="http://www.w3.org/1999/xlink" width="578.40597" height="16.69918" viewBox="0,0,578.40597,16.69918"><g transform="translate(-460.96676,-375.68886)"><g data-paper-data="{&quot;isPaintingLayer&quot;:true}" fill="#ffffff" fill-rule="nonzero" stroke="#000000" stroke-width="0.5" stroke-linecap="square" stroke-linejoin="miter" stroke-miterlimit="10" stroke-dasharray="" stroke-dashoffset="0" style="mix-blend-mode: normal"><g><g><g><path d="M846.96699,386.45796h3.43233c0,0.64215 0.00452,1.04914 0.01357,1.22099c0.0181,0.1628 0.08592,0.30298 0.2035,0.42056c0.12662,0.10853 0.29394,0.1628 0.50197,0.1628c0.18089,0 0.3256,-0.05427 0.43412,-0.1628c0.11757,-0.10853 0.18089,-0.24872 0.18993,-0.42055c0.0181,-0.17185 0.02713,-0.51101 0.02713,-1.01749v-2.19777c-0.17183,0.37081 -0.42961,0.65119 -0.77328,0.84112c-0.33464,0.18088 -0.7552,0.27133 -1.26168,0.27133c-0.62406,0 -1.17576,-0.16733 -1.65512,-0.50196c-0.47934,-0.34368 -0.78686,-0.75068 -0.92252,-1.22099c-0.12662,-0.47935 -0.18993,-1.12601 -0.18993,-1.94v-1.08532c0,-0.96774 0.03618,-1.68225 0.10853,-2.14351c0.0814,-0.47031 0.28038,-0.90443 0.59693,-1.30238c0.31655,-0.40699 0.7552,-0.71902 1.31596,-0.93608c0.56075,-0.21706 1.21195,-0.3256 1.95358,-0.3256c0.91349,0 1.66415,0.12662 2.25204,0.37986c0.58789,0.25324 1.0401,0.61953 1.35666,1.09889c0.3256,0.47935 0.511,0.98131 0.55623,1.50589c0.05426,0.52458 0.0814,1.54206 0.0814,3.05247v1.89931c0,1.63703 -0.02261,2.73138 -0.06783,3.2831c-0.04522,0.55171 -0.2442,1.07628 -0.59693,1.57371c-0.34369,0.4884 -0.81399,0.85469 -1.41092,1.09889c-0.58789,0.24419 -1.27072,0.3663 -2.04853,0.3663c-0.96775,0 -1.75913,-0.15375 -2.37414,-0.46126c-0.61502,-0.31655 -1.05819,-0.7552 -1.32952,-1.31594c-0.26229,-0.56979 -0.39342,-1.2843 -0.39342,-2.14351zM850.39931,382.1845c0,0.56979 0.07236,0.92252 0.21707,1.05819c0.15376,0.13567 0.3075,0.20351 0.46126,0.20351c0.23516,0 0.407,-0.08593 0.51553,-0.25776c0.11757,-0.17185 0.17637,-0.50648 0.17637,-1.00392v-2.49624c0,-0.59692 -0.05427,-0.99035 -0.1628,-1.18028c-0.0995,-0.18993 -0.27133,-0.2849 -0.51553,-0.2849c-0.14471,0 -0.29847,0.07236 -0.46127,0.21706c-0.15376,0.14471 -0.23062,0.53361 -0.23062,1.16672z"/><path d="M855.83058,386.4936h3.43233c0,0.64215 0.00453,1.04914 0.01357,1.22099c0.0181,0.1628 0.08592,0.30298 0.2035,0.42056c0.12662,0.10853 0.29394,0.1628 0.50197,0.1628c0.18089,0 0.3256,-0.05427 0.43413,-0.1628c0.11757,-0.10853 0.18089,-0.24872 0.18993,-0.42055c0.0181,-0.17185 0.02713,-0.51101 0.02713,-1.01749v-2.19777c-0.17183,0.37081 -0.42961,0.65119 -0.77329,0.84112c-0.33464,0.18088 -0.7552,0.27133 -1.26168,0.27133c-0.62406,0 -1.17576,-0.16732 -1.65512,-0.50196c-0.47936,-0.34368 -0.78685,-0.75068 -0.92252,-1.22098c-0.12662,-0.47935 -0.18993,-1.12602 -0.18993,-1.94001v-1.08532c0,-0.96774 0.03617,-1.68225 0.10853,-2.14351c0.0814,-0.47031 0.28036,-0.90444 0.59692,-1.30239c0.31656,-0.40699 0.75521,-0.71902 1.31596,-0.93608c0.56075,-0.21706 1.21195,-0.3256 1.95358,-0.3256c0.91349,0 1.66415,0.12662 2.25204,0.37986c0.58789,0.25324 1.04009,0.61953 1.35665,1.09889c0.3256,0.47935 0.51101,0.98131 0.55623,1.50589c0.05426,0.52458 0.0814,1.54206 0.0814,3.05246v1.89932c0,1.63703 -0.02261,2.73138 -0.06783,3.2831c-0.04522,0.55171 -0.2442,1.07628 -0.59693,1.57371c-0.34369,0.4884 -0.81399,0.8547 -1.41092,1.09889c-0.58789,0.24419 -1.27073,0.3663 -2.04854,0.3663c-0.96775,0 -1.75913,-0.15375 -2.37414,-0.46126c-0.61502,-0.31655 -1.05818,-0.7552 -1.32952,-1.31595c-0.26229,-0.56979 -0.39342,-1.28429 -0.39342,-2.14351zM859.26291,382.22015c0,0.56979 0.07236,0.92252 0.21707,1.05818c0.15376,0.13567 0.3075,0.20351 0.46126,0.20351c0.23516,0 0.40699,-0.08593 0.51552,-0.25776c0.11757,-0.17185 0.17637,-0.50648 0.17637,-1.00392v-2.49624c0,-0.59692 -0.05427,-0.99035 -0.1628,-1.18028c-0.0995,-0.18993 -0.27133,-0.2849 -0.51553,-0.2849c-0.14471,0 -0.29846,0.07236 -0.46126,0.21706c-0.15376,0.14471 -0.23063,0.53361 -0.23063,1.16672z"/><path d="M864.73021,386.27653h3.43233c0,0.64215 0.00453,1.04914 0.01357,1.22098c0.0181,0.1628 0.08592,0.30299 0.2035,0.42057c0.12662,0.10853 0.29394,0.1628 0.50197,0.1628c0.18089,0 0.3256,-0.05427 0.43413,-0.1628c0.11757,-0.10853 0.18089,-0.24872 0.18993,-0.42056c0.0181,-0.17185 0.02713,-0.51101 0.02713,-1.01749v-2.19777c-0.17183,0.37081 -0.42961,0.65119 -0.77329,0.84112c-0.33464,0.18088 -0.7552,0.27133 -1.26168,0.27133c-0.62406,0 -1.17576,-0.16732 -1.65512,-0.50196c-0.47936,-0.34368 -0.78685,-0.75068 -0.92252,-1.22098c-0.12662,-0.47935 -0.18993,-1.12602 -0.18993,-1.94001v-1.08533c0,-0.96774 0.03617,-1.68224 0.10853,-2.1435c0.0814,-0.47031 0.28036,-0.90444 0.59692,-1.30239c0.31656,-0.40699 0.7552,-0.71902 1.31596,-0.93608c0.56075,-0.21706 1.21195,-0.3256 1.95358,-0.3256c0.91349,0 1.66415,0.12662 2.25204,0.37986c0.58789,0.25324 1.04009,0.61953 1.35665,1.09889c0.3256,0.47935 0.51101,0.98131 0.55623,1.50589c0.05426,0.52458 0.0814,1.54206 0.0814,3.05246v1.89932c0,1.63703 -0.02261,2.73138 -0.06783,3.2831c-0.04522,0.55171 -0.24419,1.07628 -0.59692,1.57371c-0.34369,0.4884 -0.81399,0.85469 -1.41092,1.09889c-0.58789,0.24419 -1.27073,0.3663 -2.04854,0.3663c-0.96775,0 -1.75913,-0.15375 -2.37414,-0.46126c-0.61502,-0.31655 -1.05818,-0.75521 -1.32952,-1.31595c-0.26229,-0.56979 -0.39342,-1.28429 -0.39342,-2.1435zM868.16254,382.00309c0,0.56979 0.07236,0.92252 0.21706,1.05819c0.15376,0.13567 0.3075,0.2035 0.46127,0.2035c0.23516,0 0.40699,-0.08593 0.51552,-0.25776c0.11757,-0.17185 0.17637,-0.50648 0.17637,-1.00392v-2.49624c0,-0.59692 -0.05427,-0.99035 -0.1628,-1.18028c-0.0995,-0.18993 -0.27133,-0.28489 -0.51553,-0.28489c-0.14471,0 -0.29846,0.07235 -0.46126,0.21706c-0.15376,0.14471 -0.23063,0.53361 -0.23063,1.16672z"/></g><g><path d="M820.2681,386.67502h3.43233c0,0.64215 0.00453,1.04914 0.01357,1.22099c0.01809,0.1628 0.08592,0.30299 0.2035,0.42057c0.12662,0.10853 0.29394,0.1628 0.50196,0.1628c0.18088,0 0.3256,-0.05427 0.43413,-0.1628c0.11758,-0.10853 0.18088,-0.24873 0.18993,-0.42056c0.01809,-0.17185 0.02714,-0.511 0.02714,-1.01748v-2.19778c-0.17184,0.37081 -0.42961,0.65119 -0.77329,0.84112c-0.33465,0.18088 -0.7552,0.27134 -1.26168,0.27134c-0.62406,0 -1.17577,-0.16733 -1.65511,-0.50196c-0.47934,-0.34368 -0.78686,-0.75068 -0.92252,-1.22098c-0.12662,-0.47935 -0.18993,-1.12602 -0.18993,-1.94001v-1.08532c0,-0.96774 0.03618,-1.68225 0.10853,-2.14351c0.0814,-0.47031 0.28038,-0.90444 0.59693,-1.30239c0.31655,-0.40699 0.7552,-0.71902 1.31596,-0.93608c0.56074,-0.21706 1.21194,-0.3256 1.95358,-0.3256c0.91347,0 1.66416,0.12662 2.25204,0.37986c0.58788,0.25324 1.0401,0.61954 1.35665,1.0989c0.3256,0.47935 0.511,0.98131 0.55623,1.50588c0.05426,0.52458 0.0814,1.54206 0.0814,3.05247v1.89931c0,1.63703 -0.02261,2.73138 -0.06783,3.2831c-0.04522,0.55171 -0.2442,1.07628 -0.59693,1.57371c-0.34368,0.4884 -0.81399,0.8547 -1.41091,1.09889c-0.58788,0.24419 -1.27073,0.3663 -2.04854,0.3663c-0.96774,0 -1.75913,-0.15375 -2.37414,-0.46126c-0.61501,-0.31655 -1.05818,-0.7552 -1.32952,-1.31594c-0.26229,-0.56979 -0.39342,-1.2843 -0.39342,-2.14351zM823.70043,382.40157c0,0.56979 0.07235,0.92252 0.21706,1.05818c0.15375,0.13567 0.30751,0.20351 0.46126,0.20351c0.23515,0 0.407,-0.08593 0.51553,-0.25776c0.11758,-0.17185 0.17637,-0.50648 0.17637,-1.00392v-2.49624c0,-0.59692 -0.05427,-0.99035 -0.1628,-1.18028c-0.09948,-0.18993 -0.27133,-0.2849 -0.51553,-0.2849c-0.14471,0 -0.29846,0.07236 -0.46126,0.21706c-0.15375,0.14471 -0.23063,0.53361 -0.23063,1.16672z"/><path d="M829.13169,386.71066h3.43233c0,0.64215 0.00453,1.04914 0.01357,1.22099c0.01809,0.1628 0.08592,0.30299 0.2035,0.42057c0.12662,0.10853 0.29394,0.1628 0.50197,0.1628c0.18088,0 0.3256,-0.05427 0.43412,-0.1628c0.11758,-0.10853 0.18089,-0.24872 0.18993,-0.42056c0.01809,-0.17185 0.02713,-0.511 0.02713,-1.01748v-2.19778c-0.17184,0.37081 -0.42961,0.6512 -0.77328,0.84113c-0.33465,0.18088 -0.7552,0.27133 -1.26168,0.27133c-0.62406,0 -1.17577,-0.16732 -1.65512,-0.50196c-0.47934,-0.34368 -0.78686,-0.75068 -0.92252,-1.22099c-0.12662,-0.47935 -0.18993,-1.12602 -0.18993,-1.94001v-1.08532c0,-0.96774 0.03618,-1.68225 0.10853,-2.14351c0.0814,-0.47031 0.28038,-0.90444 0.59693,-1.30239c0.31655,-0.40699 0.7552,-0.71902 1.31595,-0.93608c0.56074,-0.21706 1.21194,-0.3256 1.95358,-0.3256c0.91347,0 1.66416,0.12662 2.25204,0.37986c0.58788,0.25324 1.0401,0.61954 1.35665,1.09889c0.3256,0.47935 0.51101,0.98131 0.55623,1.50588c0.05426,0.52458 0.0814,1.54206 0.0814,3.05247v1.89931c0,1.63703 -0.02261,2.73138 -0.06783,3.2831c-0.04522,0.55171 -0.24419,1.07628 -0.59692,1.57371c-0.34368,0.4884 -0.81399,0.8547 -1.41092,1.0989c-0.58788,0.24419 -1.27072,0.3663 -2.04854,0.3663c-0.96774,0 -1.75913,-0.15375 -2.37414,-0.46126c-0.61501,-0.31655 -1.05819,-0.7552 -1.32952,-1.31594c-0.26229,-0.56979 -0.39342,-1.2843 -0.39342,-2.14351zM832.56402,382.43722c0,0.56979 0.07236,0.92252 0.21707,1.05818c0.15375,0.13567 0.30751,0.20351 0.46126,0.20351c0.23515,0 0.407,-0.08592 0.51553,-0.25776c0.11758,-0.17185 0.17637,-0.50648 0.17637,-1.00392v-2.49624c0,-0.59692 -0.05426,-0.99035 -0.16279,-1.18028c-0.09948,-0.18993 -0.27134,-0.2849 -0.51553,-0.2849c-0.14471,0 -0.29846,0.07236 -0.46126,0.21706c-0.15375,0.14471 -0.23062,0.53362 -0.23062,1.16672z"/><path d="M838.03132,386.4936h3.43233c0,0.64215 0.00453,1.04914 0.01357,1.22099c0.01809,0.1628 0.08592,0.30298 0.2035,0.42056c0.12662,0.10853 0.29394,0.1628 0.50197,0.1628c0.18088,0 0.3256,-0.05427 0.43412,-0.1628c0.11758,-0.10853 0.18088,-0.24872 0.18993,-0.42055c0.01809,-0.17185 0.02713,-0.51101 0.02713,-1.01749v-2.19777c-0.17184,0.37081 -0.42961,0.65119 -0.77328,0.84112c-0.33465,0.18088 -0.7552,0.27133 -1.26168,0.27133c-0.62406,0 -1.17577,-0.16732 -1.65511,-0.50196c-0.47934,-0.34368 -0.78686,-0.75068 -0.92252,-1.22098c-0.12662,-0.47935 -0.18993,-1.12602 -0.18993,-1.94001v-1.08532c0,-0.96774 0.03618,-1.68225 0.10853,-2.14351c0.0814,-0.47031 0.28038,-0.90444 0.59693,-1.30239c0.31655,-0.40699 0.7552,-0.71902 1.31595,-0.93608c0.56074,-0.21706 1.21194,-0.3256 1.95358,-0.3256c0.91347,0 1.66416,0.12662 2.25204,0.37986c0.58788,0.25324 1.0401,0.61953 1.35665,1.09889c0.3256,0.47935 0.51101,0.98131 0.55624,1.50589c0.05426,0.52458 0.0814,1.54206 0.0814,3.05246v1.89932c0,1.63703 -0.02261,2.73138 -0.06783,3.2831c-0.04522,0.55171 -0.24419,1.07628 -0.59692,1.57371c-0.34368,0.4884 -0.81399,0.8547 -1.41092,1.09889c-0.58788,0.24419 -1.27072,0.3663 -2.04854,0.3663c-0.96774,0 -1.75913,-0.15375 -2.37414,-0.46126c-0.61501,-0.31655 -1.05819,-0.7552 -1.32952,-1.31595c-0.26229,-0.56979 -0.39342,-1.28429 -0.39342,-2.14351zM841.46365,382.22015c0,0.56979 0.07236,0.92252 0.21707,1.05818c0.15375,0.13567 0.30751,0.20351 0.46126,0.20351c0.23515,0 0.40699,-0.08593 0.51552,-0.25776c0.11758,-0.17185 0.17637,-0.50648 0.17637,-1.00392v-2.49624c0,-0.59692 -0.05426,-0.99035 -0.16279,-1.18028c-0.09948,-0.18993 -0.27134,-0.2849 -0.51553,-0.2849c-0.14471,0 -0.29846,0.07236 -0.46126,0.21706c-0.15375,0.14471 -0.23062,0.53361 -0.23062,1.16672z"/></g><g><path d="M793.78628,386.67502h3.43233c0,0.64215 0.00453,1.04914 0.01357,1.22099c0.01809,0.1628 0.08592,0.30299 0.2035,0.42057c0.12662,0.10853 0.29394,0.1628 0.50197,0.1628c0.18088,0 0.3256,-0.05427 0.43413,-0.1628c0.11758,-0.10853 0.18088,-0.24873 0.18993,-0.42056c0.01809,-0.17185 0.02714,-0.511 0.02714,-1.01748v-2.19778c-0.17184,0.37081 -0.42961,0.65119 -0.77329,0.84112c-0.33465,0.18088 -0.7552,0.27134 -1.26168,0.27134c-0.62406,0 -1.17577,-0.16733 -1.65512,-0.50196c-0.47934,-0.34368 -0.78685,-0.75068 -0.92252,-1.22098c-0.12662,-0.47935 -0.18993,-1.12602 -0.18993,-1.94001v-1.08532c0,-0.96774 0.03618,-1.68225 0.10853,-2.14351c0.0814,-0.47031 0.28038,-0.90444 0.59693,-1.30239c0.31655,-0.40699 0.7552,-0.71902 1.31596,-0.93608c0.56074,-0.21706 1.21194,-0.3256 1.95358,-0.3256c0.91347,0 1.66416,0.12662 2.25204,0.37986c0.58788,0.25324 1.0401,0.61954 1.35665,1.0989c0.3256,0.47935 0.51101,0.98131 0.55623,1.50588c0.05426,0.52458 0.0814,1.54206 0.0814,3.05247v1.89931c0,1.63703 -0.02261,2.73138 -0.06783,3.2831c-0.04522,0.55171 -0.2442,1.07628 -0.59693,1.57371c-0.34368,0.4884 -0.81399,0.8547 -1.41092,1.09889c-0.58788,0.24419 -1.27073,0.3663 -2.04854,0.3663c-0.96774,0 -1.75913,-0.15375 -2.37414,-0.46126c-0.61501,-0.31655 -1.05818,-0.7552 -1.32951,-1.31594c-0.26229,-0.56979 -0.39343,-1.2843 -0.39343,-2.14351zM797.2186,382.40157c0,0.56979 0.07236,0.92252 0.21707,1.05818c0.15375,0.13567 0.30751,0.20351 0.46126,0.20351c0.23515,0 0.40699,-0.08593 0.51552,-0.25776c0.11758,-0.17185 0.17637,-0.50648 0.17637,-1.00392v-2.49624c0,-0.59692 -0.05426,-0.99035 -0.16279,-1.18028c-0.09948,-0.18993 -0.27134,-0.2849 -0.51553,-0.2849c-0.14471,0 -0.29846,0.07236 -0.46126,0.21706c-0.15375,0.14471 -0.23063,0.53361 -0.23063,1.16672z"/><path d="M802.64987,386.71066h3.43233c0,0.64215 0.00452,1.04914 0.01357,1.22099c0.01809,0.1628 0.08593,0.30299 0.20351,0.42057c0.12662,0.10853 0.29394,0.1628 0.50196,0.1628c0.18088,0 0.3256,-0.05427 0.43413,-0.1628c0.11758,-0.10853 0.18088,-0.24872 0.18993,-0.42056c0.01809,-0.17185 0.02713,-0.511 0.02713,-1.01748v-2.19778c-0.17184,0.37081 -0.42961,0.6512 -0.77328,0.84113c-0.33465,0.18088 -0.7552,0.27133 -1.26168,0.27133c-0.62406,0 -1.17577,-0.16732 -1.65512,-0.50196c-0.47934,-0.34368 -0.78686,-0.75068 -0.92252,-1.22099c-0.12662,-0.47935 -0.18993,-1.12602 -0.18993,-1.94001v-1.08532c0,-0.96774 0.03619,-1.68225 0.10854,-2.14351c0.0814,-0.47031 0.28037,-0.90444 0.59692,-1.30239c0.31655,-0.40699 0.7552,-0.71902 1.31596,-0.93608c0.56074,-0.21706 1.21194,-0.3256 1.95358,-0.3256c0.91347,0 1.66416,0.12662 2.25204,0.37986c0.58788,0.25324 1.0401,0.61954 1.35665,1.09889c0.3256,0.47935 0.51101,0.98131 0.55623,1.50588c0.05426,0.52458 0.0814,1.54206 0.0814,3.05247v1.89931c0,1.63703 -0.02261,2.73138 -0.06783,3.2831c-0.04522,0.55171 -0.2442,1.07628 -0.59693,1.57371c-0.34368,0.4884 -0.81399,0.8547 -1.41091,1.0989c-0.58788,0.24419 -1.27073,0.3663 -2.04854,0.3663c-0.96774,0 -1.75913,-0.15375 -2.37414,-0.46126c-0.61501,-0.31655 -1.05819,-0.7552 -1.32952,-1.31594c-0.26229,-0.56979 -0.39342,-1.2843 -0.39342,-2.14351zM806.0822,382.43722c0,0.56979 0.07236,0.92252 0.21707,1.05818c0.15375,0.13567 0.30751,0.20351 0.46126,0.20351c0.23515,0 0.407,-0.08592 0.51553,-0.25776c0.11758,-0.17185 0.17637,-0.50648 0.17637,-1.00392v-2.49624c0,-0.59692 -0.05427,-0.99035 -0.1628,-1.18028c-0.09948,-0.18993 -0.27133,-0.2849 -0.51552,-0.2849c-0.14471,0 -0.29847,0.07236 -0.46127,0.21706c-0.15375,0.14471 -0.23063,0.53362 -0.23063,1.16672z"/><path d="M811.5495,386.4936h3.43233c0,0.64215 0.00452,1.04914 0.01357,1.22099c0.01809,0.1628 0.08593,0.30298 0.20351,0.42056c0.12662,0.10853 0.29394,0.1628 0.50196,0.1628c0.18088,0 0.3256,-0.05427 0.43412,-0.1628c0.11758,-0.10853 0.18089,-0.24872 0.18994,-0.42055c0.01809,-0.17185 0.02713,-0.51101 0.02713,-1.01749v-2.19777c-0.17184,0.37081 -0.42961,0.65119 -0.77328,0.84112c-0.33465,0.18088 -0.7552,0.27133 -1.26168,0.27133c-0.62406,0 -1.17577,-0.16732 -1.65512,-0.50196c-0.47934,-0.34368 -0.78686,-0.75068 -0.92253,-1.22098c-0.12662,-0.47935 -0.18993,-1.12602 -0.18993,-1.94001v-1.08532c0,-0.96774 0.03619,-1.68225 0.10854,-2.14351c0.0814,-0.47031 0.28037,-0.90444 0.59692,-1.30239c0.31655,-0.40699 0.7552,-0.71902 1.31596,-0.93608c0.56074,-0.21706 1.21194,-0.3256 1.95358,-0.3256c0.91347,0 1.66416,0.12662 2.25204,0.37986c0.58788,0.25324 1.0401,0.61953 1.35665,1.09889c0.3256,0.47935 0.51101,0.98131 0.55623,1.50589c0.05426,0.52458 0.0814,1.54206 0.0814,3.05246v1.89932c0,1.63703 -0.02261,2.73138 -0.06783,3.2831c-0.04522,0.55171 -0.2442,1.07628 -0.59693,1.57371c-0.34368,0.4884 -0.81399,0.8547 -1.41092,1.09889c-0.58788,0.24419 -1.27072,0.3663 -2.04854,0.3663c-0.96774,0 -1.75913,-0.15375 -2.37414,-0.46126c-0.61501,-0.31655 -1.05819,-0.7552 -1.32952,-1.31595c-0.26229,-0.56979 -0.39342,-1.28429 -0.39342,-2.14351zM814.98183,382.22015c0,0.56979 0.07236,0.92252 0.21707,1.05818c0.15375,0.13567 0.30751,0.20351 0.46126,0.20351c0.23515,0 0.407,-0.08593 0.51553,-0.25776c0.11758,-0.17185 0.17637,-0.50648 0.17637,-1.00392v-2.49624c0,-0.59692 -0.05427,-0.99035 -0.1628,-1.18028c-0.09948,-0.18993 -0.27133,-0.2849 -0.51553,-0.2849c-0.14471,0 -0.29846,0.07236 -0.46126,0.21706c-0.15375,0.14471 -0.23063,0.53361 -0.23063,1.16672z"/></g></g><g><path d="M1013.13816,387.46396h3.43233c0,0.64215 0.00452,1.04914 0.01357,1.22098c0.0181,0.1628 0.08593,0.30299 0.20351,0.42057c0.12662,0.10853 0.29394,0.1628 0.50196,0.1628c0.18089,0 0.3256,-0.05427 0.43413,-0.1628c0.11757,-0.10853 0.18089,-0.24872 0.18993,-0.42055c0.0181,-0.17185 0.02713,-0.51101 0.02713,-1.01749v-2.19777c-0.17183,0.37081 -0.42961,0.65119 -0.77328,0.84112c-0.33464,0.18088 -0.7552,0.27133 -1.26168,0.27133c-0.62406,0 -1.17576,-0.16733 -1.65512,-0.50196c-0.47934,-0.34368 -0.78686,-0.75068 -0.92253,-1.22098c-0.12662,-0.47935 -0.18993,-1.12601 -0.18993,-1.94v-1.08532c0,-0.96774 0.03619,-1.68225 0.10854,-2.14351c0.0814,-0.47031 0.28037,-0.90444 0.59692,-1.30239c0.31655,-0.40699 0.7552,-0.71902 1.31596,-0.93608c0.56075,-0.21706 1.21195,-0.32559 1.95358,-0.32559c0.91349,0 1.66415,0.12662 2.25204,0.37986c0.58789,0.25324 1.0401,0.61953 1.35666,1.09889c0.3256,0.47935 0.51101,0.98131 0.55623,1.50588c0.05427,0.52458 0.0814,1.54206 0.0814,3.05247v1.89931c0,1.63703 -0.02261,2.73138 -0.06783,3.2831c-0.04522,0.55171 -0.2442,1.07628 -0.59693,1.57371c-0.34369,0.4884 -0.81399,0.85469 -1.41092,1.09889c-0.58789,0.24419 -1.27072,0.3663 -2.04853,0.3663c-0.96775,0 -1.75913,-0.15375 -2.37414,-0.46126c-0.61502,-0.31655 -1.05819,-0.7552 -1.32952,-1.31594c-0.26229,-0.56979 -0.39342,-1.2843 -0.39342,-2.14351zM1016.57048,383.19051c0,0.56979 0.07236,0.92252 0.21706,1.05819c0.15376,0.13567 0.3075,0.2035 0.46126,0.2035c0.23516,0 0.407,-0.08592 0.51553,-0.25776c0.11757,-0.17185 0.17637,-0.50648 0.17637,-1.00392v-2.49624c0,-0.59692 -0.05427,-0.99035 -0.1628,-1.18028c-0.0995,-0.18993 -0.27133,-0.2849 -0.51552,-0.2849c-0.14471,0 -0.29847,0.07236 -0.46127,0.21707c-0.15376,0.14471 -0.23063,0.53361 -0.23063,1.16672z"/><path d="M1022.00175,387.4996h3.43233c0,0.64215 0.00453,1.04914 0.01357,1.22098c0.01809,0.1628 0.08592,0.30299 0.2035,0.42057c0.12663,0.10853 0.29394,0.1628 0.50196,0.1628c0.18089,0 0.3256,-0.05427 0.43413,-0.1628c0.11757,-0.10853 0.18089,-0.24872 0.18993,-0.42055c0.01809,-0.17185 0.02713,-0.51101 0.02713,-1.01749v-2.19777c-0.17184,0.37081 -0.42961,0.65119 -0.77329,0.84112c-0.33463,0.18088 -0.7552,0.27133 -1.26168,0.27133c-0.62406,0 -1.17576,-0.16732 -1.65512,-0.50196c-0.47936,-0.34368 -0.78686,-0.75068 -0.92252,-1.22099c-0.12663,-0.47935 -0.18993,-1.12602 -0.18993,-1.94001v-1.08532c0,-0.96774 0.03617,-1.68225 0.10853,-2.14351c0.0814,-0.47031 0.28037,-0.90443 0.59692,-1.30238c0.31656,-0.40699 0.75521,-0.71902 1.31596,-0.93608c0.56075,-0.21706 1.21195,-0.3256 1.95358,-0.3256c0.91349,0 1.66415,0.12662 2.25204,0.37986c0.58789,0.25324 1.04009,0.61953 1.35665,1.09889c0.3256,0.47935 0.511,0.98131 0.55623,1.50589c0.05426,0.52458 0.0814,1.54206 0.0814,3.05246v1.89932c0,1.63703 -0.02261,2.73138 -0.06783,3.2831c-0.04523,0.55171 -0.2442,1.07628 -0.59693,1.57371c-0.34369,0.4884 -0.81399,0.85469 -1.41091,1.09889c-0.58789,0.24419 -1.27073,0.3663 -2.04854,0.3663c-0.96775,0 -1.75913,-0.15375 -2.37414,-0.46126c-0.61502,-0.31655 -1.05818,-0.75521 -1.32951,-1.31595c-0.26229,-0.56979 -0.39343,-1.28429 -0.39343,-2.14351zM1025.43408,383.22616c0,0.56979 0.07236,0.92252 0.21707,1.05818c0.15376,0.13567 0.3075,0.20351 0.46126,0.20351c0.23516,0 0.407,-0.08593 0.51553,-0.25776c0.11757,-0.17185 0.17637,-0.50648 0.17637,-1.00392v-2.49624c0,-0.59692 -0.05427,-0.99035 -0.1628,-1.18028c-0.09949,-0.18993 -0.27133,-0.2849 -0.51553,-0.2849c-0.1447,0 -0.29846,0.07236 -0.46126,0.21706c-0.15376,0.14471 -0.23063,0.53361 -0.23063,1.16672z"/><path d="M1030.90138,387.28254h3.43233c0,0.64215 0.00452,1.04914 0.01357,1.22098c0.01809,0.1628 0.08592,0.30299 0.2035,0.42057c0.12663,0.10853 0.29394,0.1628 0.50196,0.1628c0.18089,0 0.3256,-0.05427 0.43413,-0.1628c0.11757,-0.10853 0.18089,-0.24872 0.18993,-0.42056c0.01809,-0.17185 0.02714,-0.51101 0.02714,-1.01749v-2.19777c-0.17184,0.37081 -0.42961,0.65119 -0.77329,0.84112c-0.33463,0.18088 -0.7552,0.27133 -1.26168,0.27133c-0.62406,0 -1.17576,-0.16732 -1.65512,-0.50195c-0.47935,-0.34368 -0.78686,-0.75068 -0.92252,-1.22099c-0.12663,-0.47935 -0.18993,-1.12601 -0.18993,-1.94v-1.08533c0,-0.96774 0.03617,-1.68225 0.10853,-2.14351c0.0814,-0.47031 0.28037,-0.90443 0.59693,-1.30238c0.31656,-0.40699 0.7552,-0.71902 1.31596,-0.93609c0.56075,-0.21706 1.21195,-0.32559 1.95358,-0.32559c0.91349,0 1.66415,0.12662 2.25204,0.37986c0.58789,0.25324 1.04009,0.61953 1.35665,1.09889c0.3256,0.47935 0.51101,0.98131 0.55623,1.50589c0.05426,0.52458 0.0814,1.54206 0.0814,3.05246v1.89932c0,1.63703 -0.02261,2.73138 -0.06783,3.2831c-0.04523,0.55171 -0.24419,1.07628 -0.59693,1.57371c-0.34369,0.4884 -0.81399,0.85469 -1.41091,1.09889c-0.58789,0.24419 -1.27073,0.3663 -2.04854,0.3663c-0.96775,0 -1.75913,-0.15375 -2.37414,-0.46126c-0.61502,-0.31655 -1.05818,-0.7552 -1.32951,-1.31595c-0.26229,-0.56979 -0.39342,-1.28429 -0.39342,-2.14351zM1034.33371,383.00909c0,0.56979 0.07236,0.92253 0.21706,1.05819c0.15376,0.13567 0.3075,0.2035 0.46126,0.2035c0.23516,0 0.407,-0.08593 0.51553,-0.25776c0.11757,-0.17185 0.17637,-0.50648 0.17637,-1.00392v-2.49624c0,-0.59692 -0.05427,-0.99035 -0.1628,-1.18028c-0.09949,-0.18993 -0.27133,-0.28489 -0.51553,-0.28489c-0.1447,0 -0.29846,0.07235 -0.46126,0.21706c-0.15376,0.14471 -0.23063,0.53361 -0.23063,1.16672z"/></g><g><path d="M986.43927,387.68103h3.43233c0,0.64215 0.00453,1.04914 0.01358,1.22098c0.01809,0.1628 0.08592,0.30299 0.2035,0.42057c0.12662,0.10853 0.29394,0.1628 0.50197,0.1628c0.18088,0 0.3256,-0.05427 0.43413,-0.1628c0.11758,-0.10853 0.18088,-0.24872 0.18993,-0.42056c0.01809,-0.17185 0.02713,-0.511 0.02713,-1.01748v-2.19777c-0.17184,0.37081 -0.42961,0.65119 -0.77329,0.84112c-0.33465,0.18088 -0.7552,0.27134 -1.26168,0.27134c-0.62406,0 -1.17577,-0.16733 -1.65512,-0.50196c-0.47934,-0.34368 -0.78685,-0.75068 -0.92252,-1.22099c-0.12662,-0.47935 -0.18994,-1.12601 -0.18994,-1.94v-1.08532c0,-0.96774 0.03619,-1.68225 0.10854,-2.14351c0.0814,-0.47031 0.28037,-0.90443 0.59692,-1.30238c0.31655,-0.40699 0.7552,-0.71902 1.31596,-0.93609c0.56074,-0.21706 1.21194,-0.32559 1.95358,-0.32559c0.91347,0 1.66416,0.12662 2.25204,0.37986c0.58788,0.25324 1.0401,0.61954 1.35665,1.09889c0.3256,0.47935 0.51101,0.98131 0.55623,1.50589c0.05426,0.52458 0.0814,1.54206 0.0814,3.05247v1.89931c0,1.63703 -0.02261,2.73138 -0.06783,3.2831c-0.04522,0.55171 -0.24419,1.07628 -0.59692,1.57371c-0.34368,0.4884 -0.81399,0.85469 -1.41092,1.09889c-0.58788,0.24419 -1.27073,0.3663 -2.04854,0.3663c-0.96774,0 -1.75913,-0.15375 -2.37414,-0.46126c-0.61501,-0.31655 -1.05818,-0.7552 -1.32952,-1.31594c-0.26229,-0.56979 -0.39342,-1.2843 -0.39342,-2.14351zM989.8716,383.40757c0,0.56979 0.07236,0.92252 0.21707,1.05819c0.15375,0.13567 0.30751,0.20351 0.46126,0.20351c0.23515,0 0.407,-0.08593 0.51553,-0.25776c0.11758,-0.17185 0.17637,-0.50648 0.17637,-1.00392v-2.49624c0,-0.59692 -0.05427,-0.99035 -0.1628,-1.18028c-0.09948,-0.18993 -0.27133,-0.2849 -0.51552,-0.2849c-0.14471,0 -0.29846,0.07236 -0.46126,0.21706c-0.15375,0.14471 -0.23063,0.53361 -0.23063,1.16672z"/><path d="M995.30286,387.71667h3.43233c0,0.64215 0.00452,1.04914 0.01357,1.22098c0.01809,0.1628 0.08592,0.30299 0.2035,0.42057c0.12662,0.10853 0.29394,0.1628 0.50197,0.1628c0.18088,0 0.3256,-0.05427 0.43412,-0.1628c0.11758,-0.10853 0.18089,-0.24872 0.18993,-0.42055c0.01809,-0.17185 0.02713,-0.51101 0.02713,-1.01749v-2.19777c-0.17184,0.37081 -0.42961,0.65119 -0.77328,0.84112c-0.33465,0.18088 -0.7552,0.27133 -1.26168,0.27133c-0.62406,0 -1.17577,-0.16732 -1.65512,-0.50196c-0.47934,-0.34368 -0.78686,-0.75068 -0.92252,-1.22099c-0.12662,-0.47935 -0.18993,-1.12601 -0.18993,-1.94v-1.08532c0,-0.96774 0.03618,-1.68225 0.10853,-2.14351c0.0814,-0.47031 0.28038,-0.90443 0.59693,-1.30238c0.31655,-0.40699 0.7552,-0.71902 1.31596,-0.93608c0.56074,-0.21706 1.21194,-0.3256 1.95358,-0.3256c0.91347,0 1.66416,0.12662 2.25204,0.37986c0.58788,0.25324 1.04011,0.61953 1.35666,1.09889c0.3256,0.47935 0.511,0.98131 0.55623,1.50589c0.05426,0.52458 0.0814,1.54206 0.0814,3.05247v1.89931c0,1.63703 -0.02261,2.73138 -0.06783,3.2831c-0.04522,0.55171 -0.2442,1.07628 -0.59693,1.57371c-0.34368,0.4884 -0.81399,0.8547 -1.41092,1.09889c-0.58788,0.24419 -1.27072,0.3663 -2.04853,0.3663c-0.96774,0 -1.75913,-0.15375 -2.37414,-0.46126c-0.61501,-0.31655 -1.05819,-0.7552 -1.32952,-1.31595c-0.26229,-0.56979 -0.39342,-1.2843 -0.39342,-2.14351zM998.73519,383.44322c0,0.56979 0.07235,0.92252 0.21706,1.05818c0.15375,0.13567 0.30751,0.20351 0.46126,0.20351c0.23515,0 0.407,-0.08593 0.51553,-0.25776c0.11758,-0.17185 0.17637,-0.50648 0.17637,-1.00392v-2.49624c0,-0.59692 -0.05427,-0.99035 -0.1628,-1.18028c-0.09948,-0.18993 -0.27134,-0.2849 -0.51553,-0.2849c-0.14471,0 -0.29846,0.07236 -0.46126,0.21706c-0.15375,0.14471 -0.23063,0.53361 -0.23063,1.16672z"/><path d="M1004.20249,387.4996h3.43233c0,0.64215 0.00452,1.04914 0.01357,1.22098c0.01809,0.1628 0.08592,0.30299 0.2035,0.42057c0.12662,0.10853 0.29394,0.1628 0.50197,0.1628c0.18088,0 0.3256,-0.05427 0.43412,-0.1628c0.11758,-0.10853 0.18088,-0.24872 0.18993,-0.42055c0.01809,-0.17185 0.02714,-0.51101 0.02714,-1.01749v-2.19777c-0.17184,0.37081 -0.42961,0.65119 -0.77328,0.84112c-0.33465,0.18088 -0.75521,0.27133 -1.26169,0.27133c-0.62406,0 -1.17577,-0.16732 -1.65511,-0.50196c-0.47934,-0.34368 -0.78686,-0.75068 -0.92252,-1.22099c-0.12662,-0.47935 -0.18993,-1.12602 -0.18993,-1.94001v-1.08532c0,-0.96774 0.03618,-1.68225 0.10853,-2.14351c0.0814,-0.47031 0.28038,-0.90443 0.59693,-1.30238c0.31655,-0.40699 0.7552,-0.71902 1.31596,-0.93608c0.56074,-0.21706 1.21194,-0.3256 1.95358,-0.3256c0.91347,0 1.66416,0.12662 2.25204,0.37986c0.58788,0.25324 1.0401,0.61953 1.35665,1.09889c0.3256,0.47935 0.51101,0.98131 0.55624,1.50589c0.05426,0.52458 0.0814,1.54206 0.0814,3.05246v1.89932c0,1.63703 -0.0226,2.73138 -0.06782,3.2831c-0.04522,0.55171 -0.2442,1.07628 -0.59693,1.57371c-0.34368,0.4884 -0.81399,0.85469 -1.41092,1.09889c-0.58788,0.24419 -1.27072,0.3663 -2.04853,0.3663c-0.96774,0 -1.75913,-0.15375 -2.37414,-0.46126c-0.61501,-0.31655 -1.05819,-0.75521 -1.32952,-1.31595c-0.26229,-0.56979 -0.39342,-1.28429 -0.39342,-2.14351zM1007.63482,383.22616c0,0.56979 0.07235,0.92252 0.21706,1.05818c0.15375,0.13567 0.30751,0.20351 0.46126,0.20351c0.23515,0 0.407,-0.08593 0.51553,-0.25776c0.11758,-0.17185 0.17637,-0.50648 0.17637,-1.00392v-2.49624c0,-0.59692 -0.05427,-0.99035 -0.1628,-1.18028c-0.09948,-0.18993 -0.27134,-0.2849 -0.51553,-0.2849c-0.14471,0 -0.29846,0.07236 -0.46126,0.21706c-0.15375,0.14471 -0.23063,0.53361 -0.23063,1.16672z"/></g><g><path d="M959.95745,387.68103h3.43233c0,0.64215 0.00452,1.04914 0.01357,1.22098c0.01809,0.1628 0.08592,0.30299 0.2035,0.42057c0.12662,0.10853 0.29394,0.1628 0.50196,0.1628c0.18088,0 0.3256,-0.05427 0.43413,-0.1628c0.11758,-0.10853 0.18088,-0.24872 0.18993,-0.42056c0.01809,-0.17185 0.02714,-0.511 0.02714,-1.01748v-2.19777c-0.17184,0.37081 -0.42961,0.65119 -0.77329,0.84112c-0.33465,0.18088 -0.7552,0.27134 -1.26168,0.27134c-0.62406,0 -1.17577,-0.16733 -1.65512,-0.50196c-0.47934,-0.34368 -0.78685,-0.75068 -0.92252,-1.22099c-0.12662,-0.47935 -0.18993,-1.12601 -0.18993,-1.94v-1.08532c0,-0.96774 0.03618,-1.68225 0.10853,-2.14351c0.0814,-0.47031 0.28038,-0.90443 0.59693,-1.30238c0.31655,-0.40699 0.75521,-0.71902 1.31596,-0.93609c0.56074,-0.21706 1.21194,-0.32559 1.95358,-0.32559c0.91347,0 1.66416,0.12662 2.25204,0.37986c0.58788,0.25324 1.0401,0.61954 1.35665,1.09889c0.3256,0.47935 0.511,0.98131 0.55623,1.50589c0.05426,0.52458 0.0814,1.54206 0.0814,3.05247v1.89931c0,1.63703 -0.0226,2.73138 -0.06782,3.2831c-0.04522,0.55171 -0.2442,1.07628 -0.59693,1.57371c-0.34368,0.4884 -0.81399,0.85469 -1.41091,1.09889c-0.58788,0.24419 -1.27073,0.3663 -2.04854,0.3663c-0.96774,0 -1.75913,-0.15375 -2.37414,-0.46126c-0.61501,-0.31655 -1.05818,-0.7552 -1.32952,-1.31594c-0.26229,-0.56979 -0.39342,-1.2843 -0.39342,-2.14351zM963.38977,383.40757c0,0.56979 0.07235,0.92252 0.21706,1.05819c0.15375,0.13567 0.30751,0.20351 0.46126,0.20351c0.23515,0 0.407,-0.08593 0.51553,-0.25776c0.11758,-0.17185 0.17637,-0.50648 0.17637,-1.00392v-2.49624c0,-0.59692 -0.05426,-0.99035 -0.16279,-1.18028c-0.09948,-0.18993 -0.27134,-0.2849 -0.51553,-0.2849c-0.14471,0 -0.29846,0.07236 -0.46126,0.21706c-0.15375,0.14471 -0.23063,0.53361 -0.23063,1.16672z"/><path d="M968.82104,387.71667h3.43233c0,0.64215 0.00453,1.04914 0.01357,1.22098c0.01809,0.1628 0.08592,0.30299 0.2035,0.42057c0.12662,0.10853 0.29394,0.1628 0.50197,0.1628c0.18088,0 0.3256,-0.05427 0.43413,-0.1628c0.11758,-0.10853 0.18088,-0.24872 0.18993,-0.42055c0.01809,-0.17185 0.02713,-0.51101 0.02713,-1.01749v-2.19777c-0.17184,0.37081 -0.42961,0.65119 -0.77328,0.84112c-0.33465,0.18088 -0.7552,0.27133 -1.26168,0.27133c-0.62406,0 -1.17577,-0.16732 -1.65512,-0.50196c-0.47934,-0.34368 -0.78685,-0.75068 -0.92252,-1.22099c-0.12662,-0.47935 -0.18993,-1.12601 -0.18993,-1.94v-1.08532c0,-0.96774 0.03618,-1.68225 0.10853,-2.14351c0.0814,-0.47031 0.28038,-0.90443 0.59693,-1.30238c0.31655,-0.40699 0.7552,-0.71902 1.31595,-0.93608c0.56074,-0.21706 1.21194,-0.3256 1.95358,-0.3256c0.91347,0 1.66416,0.12662 2.25204,0.37986c0.58788,0.25324 1.0401,0.61953 1.35665,1.09889c0.3256,0.47935 0.51101,0.98131 0.55623,1.50589c0.05426,0.52458 0.0814,1.54206 0.0814,3.05247v1.89931c0,1.63703 -0.02261,2.73138 -0.06783,3.2831c-0.04522,0.55171 -0.24419,1.07628 -0.59692,1.57371c-0.34368,0.4884 -0.81399,0.8547 -1.41092,1.09889c-0.58788,0.24419 -1.27073,0.3663 -2.04854,0.3663c-0.96774,0 -1.75913,-0.15375 -2.37414,-0.46126c-0.61501,-0.31655 -1.05819,-0.7552 -1.32952,-1.31595c-0.26229,-0.56979 -0.39342,-1.2843 -0.39342,-2.14351zM972.25337,383.44322c0,0.56979 0.07236,0.92252 0.21707,1.05818c0.15375,0.13567 0.30751,0.20351 0.46126,0.20351c0.23515,0 0.407,-0.08593 0.51553,-0.25776c0.11758,-0.17185 0.17637,-0.50648 0.17637,-1.00392v-2.49624c0,-0.59692 -0.05427,-0.99035 -0.1628,-1.18028c-0.09948,-0.18993 -0.27133,-0.2849 -0.51553,-0.2849c-0.14471,0 -0.29847,0.07236 -0.46127,0.21706c-0.15375,0.14471 -0.23062,0.53361 -0.23062,1.16672z"/><path d="M977.72067,387.4996h3.43233c0,0.64215 0.00453,1.04914 0.01357,1.22098c0.01809,0.1628 0.08592,0.30299 0.2035,0.42057c0.12662,0.10853 0.29394,0.1628 0.50197,0.1628c0.18088,0 0.3256,-0.05427 0.43412,-0.1628c0.11758,-0.10853 0.18089,-0.24872 0.18993,-0.42055c0.01809,-0.17185 0.02713,-0.51101 0.02713,-1.01749v-2.19777c-0.17184,0.37081 -0.42961,0.65119 -0.77328,0.84112c-0.33465,0.18088 -0.7552,0.27133 -1.26168,0.27133c-0.62406,0 -1.17577,-0.16732 -1.65512,-0.50196c-0.47934,-0.34368 -0.78686,-0.75068 -0.92252,-1.22099c-0.12662,-0.47935 -0.18993,-1.12602 -0.18993,-1.94001v-1.08532c0,-0.96774 0.03618,-1.68225 0.10853,-2.14351c0.0814,-0.47031 0.28038,-0.90443 0.59693,-1.30238c0.31655,-0.40699 0.7552,-0.71902 1.31595,-0.93608c0.56074,-0.21706 1.21194,-0.3256 1.95358,-0.3256c0.91347,0 1.66417,0.12662 2.25205,0.37986c0.58788,0.25324 1.0401,0.61953 1.35665,1.09889c0.3256,0.47935 0.51101,0.98131 0.55623,1.50589c0.05426,0.52458 0.0814,1.54206 0.0814,3.05246v1.89932c0,1.63703 -0.02261,2.73138 -0.06783,3.2831c-0.04522,0.55171 -0.24419,1.07628 -0.59692,1.57371c-0.34368,0.4884 -0.81399,0.85469 -1.41092,1.09889c-0.58788,0.24419 -1.27072,0.3663 -2.04854,0.3663c-0.96774,0 -1.75913,-0.15375 -2.37414,-0.46126c-0.61501,-0.31655 -1.05819,-0.75521 -1.32952,-1.31595c-0.26229,-0.56979 -0.39342,-1.28429 -0.39342,-2.14351zM981.153,383.22616c0,0.56979 0.07236,0.92252 0.21707,1.05818c0.15375,0.13567 0.30751,0.20351 0.46126,0.20351c0.23515,0 0.407,-0.08593 0.51553,-0.25776c0.11758,-0.17185 0.17637,-0.50648 0.17637,-1.00392v-2.49624c0,-0.59692 -0.05426,-0.99035 -0.16279,-1.18028c-0.09948,-0.18993 -0.27134,-0.2849 -0.51553,-0.2849c-0.14471,0 -0.29846,0.07236 -0.46126,0.21706c-0.15375,0.14471 -0.23062,0.53361 -0.23062,1.16672z"/></g></g><g><g><g><path d="M514.68123,386.95856h3.43233c0,0.64215 0.00452,1.04914 0.01357,1.22099c0.0181,0.1628 0.08592,0.30298 0.2035,0.42056c0.12662,0.10853 0.29394,0.1628 0.50197,0.1628c0.18089,0 0.3256,-0.05427 0.43412,-0.1628c0.11757,-0.10853 0.18089,-0.24872 0.18993,-0.42055c0.0181,-0.17185 0.02713,-0.51101 0.02713,-1.01749v-2.19777c-0.17183,0.37081 -0.42961,0.65119 -0.77328,0.84112c-0.33464,0.18088 -0.7552,0.27133 -1.26168,0.27133c-0.62406,0 -1.17576,-0.16733 -1.65512,-0.50196c-0.47934,-0.34368 -0.78686,-0.75068 -0.92252,-1.22099c-0.12662,-0.47935 -0.18993,-1.12601 -0.18993,-1.94v-1.08532c0,-0.96774 0.03618,-1.68225 0.10853,-2.14351c0.0814,-0.47031 0.28038,-0.90443 0.59693,-1.30238c0.31655,-0.40699 0.7552,-0.71902 1.31596,-0.93608c0.56075,-0.21706 1.21195,-0.3256 1.95358,-0.3256c0.91349,0 1.66415,0.12662 2.25204,0.37986c0.58789,0.25324 1.0401,0.61953 1.35666,1.09889c0.3256,0.47935 0.511,0.98131 0.55623,1.50589c0.05426,0.52458 0.0814,1.54206 0.0814,3.05247v1.89931c0,1.63703 -0.02261,2.73138 -0.06783,3.2831c-0.04522,0.55171 -0.2442,1.07628 -0.59693,1.57371c-0.34369,0.4884 -0.81399,0.85469 -1.41092,1.09889c-0.58789,0.24419 -1.27072,0.3663 -2.04853,0.3663c-0.96775,0 -1.75913,-0.15375 -2.37414,-0.46126c-0.61502,-0.31655 -1.05819,-0.7552 -1.32952,-1.31594c-0.26229,-0.56979 -0.39342,-1.2843 -0.39342,-2.14351zM518.11355,382.6851c0,0.56979 0.07236,0.92252 0.21707,1.05819c0.15376,0.13567 0.3075,0.20351 0.46126,0.20351c0.23516,0 0.407,-0.08593 0.51553,-0.25776c0.11757,-0.17185 0.17637,-0.50648 0.17637,-1.00392v-2.49624c0,-0.59692 -0.05427,-0.99035 -0.1628,-1.18028c-0.0995,-0.18993 -0.27133,-0.2849 -0.51553,-0.2849c-0.14471,0 -0.29847,0.07236 -0.46127,0.21706c-0.15376,0.14471 -0.23062,0.53361 -0.23062,1.16672z"/><path d="M523.54482,386.9942h3.43233c0,0.64215 0.00453,1.04914 0.01357,1.22099c0.0181,0.1628 0.08592,0.30298 0.2035,0.42056c0.12662,0.10853 0.29394,0.1628 0.50197,0.1628c0.18089,0 0.3256,-0.05427 0.43413,-0.1628c0.11757,-0.10853 0.18089,-0.24872 0.18993,-0.42055c0.0181,-0.17185 0.02713,-0.51101 0.02713,-1.01749v-2.19777c-0.17183,0.37081 -0.42961,0.65119 -0.77329,0.84112c-0.33464,0.18088 -0.7552,0.27133 -1.26168,0.27133c-0.62406,0 -1.17576,-0.16732 -1.65512,-0.50196c-0.47936,-0.34368 -0.78685,-0.75068 -0.92252,-1.22098c-0.12662,-0.47935 -0.18993,-1.12602 -0.18993,-1.94001v-1.08532c0,-0.96774 0.03617,-1.68225 0.10853,-2.14351c0.0814,-0.47031 0.28036,-0.90444 0.59692,-1.30239c0.31656,-0.40699 0.75521,-0.71902 1.31596,-0.93608c0.56075,-0.21706 1.21195,-0.3256 1.95358,-0.3256c0.91349,0 1.66415,0.12662 2.25204,0.37986c0.58789,0.25324 1.04009,0.61953 1.35665,1.09889c0.3256,0.47935 0.51101,0.98131 0.55623,1.50589c0.05426,0.52458 0.0814,1.54206 0.0814,3.05246v1.89932c0,1.63703 -0.02261,2.73138 -0.06783,3.2831c-0.04522,0.55171 -0.2442,1.07628 -0.59693,1.57371c-0.34369,0.4884 -0.81399,0.8547 -1.41092,1.09889c-0.58789,0.24419 -1.27073,0.3663 -2.04854,0.3663c-0.96775,0 -1.75913,-0.15375 -2.37414,-0.46126c-0.61502,-0.31655 -1.05818,-0.7552 -1.32952,-1.31595c-0.26229,-0.56979 -0.39342,-1.28429 -0.39342,-2.14351zM526.97715,382.72075c0,0.56979 0.07236,0.92252 0.21707,1.05818c0.15376,0.13567 0.3075,0.20351 0.46126,0.20351c0.23516,0 0.40699,-0.08593 0.51552,-0.25776c0.11757,-0.17185 0.17637,-0.50648 0.17637,-1.00392v-2.49624c0,-0.59692 -0.05427,-0.99035 -0.1628,-1.18028c-0.0995,-0.18993 -0.27133,-0.2849 -0.51553,-0.2849c-0.14471,0 -0.29846,0.07236 -0.46126,0.21706c-0.15376,0.14471 -0.23063,0.53361 -0.23063,1.16672z"/><path d="M532.44445,386.77713h3.43233c0,0.64215 0.00453,1.04914 0.01357,1.22098c0.0181,0.1628 0.08592,0.30299 0.2035,0.42057c0.12662,0.10853 0.29394,0.1628 0.50197,0.1628c0.18089,0 0.3256,-0.05427 0.43413,-0.1628c0.11757,-0.10853 0.18089,-0.24872 0.18993,-0.42056c0.0181,-0.17185 0.02713,-0.51101 0.02713,-1.01749v-2.19777c-0.17183,0.37081 -0.42961,0.65119 -0.77329,0.84112c-0.33464,0.18088 -0.7552,0.27133 -1.26168,0.27133c-0.62406,0 -1.17576,-0.16732 -1.65512,-0.50196c-0.47936,-0.34368 -0.78685,-0.75068 -0.92252,-1.22098c-0.12662,-0.47935 -0.18993,-1.12602 -0.18993,-1.94001v-1.08533c0,-0.96774 0.03617,-1.68224 0.10853,-2.1435c0.0814,-0.47031 0.28036,-0.90444 0.59692,-1.30239c0.31656,-0.40699 0.7552,-0.71902 1.31596,-0.93608c0.56075,-0.21706 1.21195,-0.3256 1.95358,-0.3256c0.91349,0 1.66415,0.12662 2.25204,0.37986c0.58789,0.25324 1.04009,0.61953 1.35665,1.09889c0.3256,0.47935 0.51101,0.98131 0.55623,1.50589c0.05426,0.52458 0.0814,1.54206 0.0814,3.05246v1.89932c0,1.63703 -0.02261,2.73138 -0.06783,3.2831c-0.04522,0.55171 -0.24419,1.07628 -0.59692,1.57371c-0.34369,0.4884 -0.81399,0.85469 -1.41092,1.09889c-0.58789,0.24419 -1.27073,0.3663 -2.04854,0.3663c-0.96775,0 -1.75913,-0.15375 -2.37414,-0.46126c-0.61502,-0.31655 -1.05818,-0.75521 -1.32952,-1.31595c-0.26229,-0.56979 -0.39342,-1.28429 -0.39342,-2.1435zM535.87678,382.50369c0,0.56979 0.07236,0.92252 0.21706,1.05819c0.15376,0.13567 0.3075,0.2035 0.46127,0.2035c0.23516,0 0.40699,-0.08593 0.51552,-0.25776c0.11757,-0.17185 0.17637,-0.50648 0.17637,-1.00392v-2.49624c0,-0.59692 -0.05427,-0.99035 -0.1628,-1.18028c-0.0995,-0.18993 -0.27133,-0.28489 -0.51553,-0.28489c-0.14471,0 -0.29846,0.07235 -0.46126,0.21706c-0.15376,0.14471 -0.23063,0.53361 -0.23063,1.16672z"/></g><g><path d="M487.98234,387.17562h3.43233c0,0.64215 0.00453,1.04914 0.01357,1.22099c0.01809,0.1628 0.08592,0.30299 0.2035,0.42057c0.12662,0.10853 0.29394,0.1628 0.50196,0.1628c0.18088,0 0.3256,-0.05427 0.43413,-0.1628c0.11758,-0.10853 0.18088,-0.24873 0.18993,-0.42056c0.01809,-0.17185 0.02714,-0.511 0.02714,-1.01748v-2.19778c-0.17184,0.37081 -0.42961,0.65119 -0.77329,0.84112c-0.33465,0.18088 -0.7552,0.27134 -1.26168,0.27134c-0.62406,0 -1.17577,-0.16733 -1.65511,-0.50196c-0.47934,-0.34368 -0.78686,-0.75068 -0.92252,-1.22098c-0.12662,-0.47935 -0.18993,-1.12602 -0.18993,-1.94001v-1.08532c0,-0.96774 0.03618,-1.68225 0.10853,-2.14351c0.0814,-0.47031 0.28038,-0.90444 0.59693,-1.30239c0.31655,-0.40699 0.7552,-0.71902 1.31596,-0.93608c0.56074,-0.21706 1.21194,-0.3256 1.95358,-0.3256c0.91347,0 1.66416,0.12662 2.25204,0.37986c0.58788,0.25324 1.0401,0.61954 1.35665,1.0989c0.3256,0.47935 0.511,0.98131 0.55623,1.50588c0.05426,0.52458 0.0814,1.54206 0.0814,3.05247v1.89931c0,1.63703 -0.02261,2.73138 -0.06783,3.2831c-0.04522,0.55171 -0.2442,1.07628 -0.59693,1.57371c-0.34368,0.4884 -0.81399,0.8547 -1.41091,1.09889c-0.58788,0.24419 -1.27073,0.3663 -2.04854,0.3663c-0.96774,0 -1.75913,-0.15375 -2.37414,-0.46126c-0.61501,-0.31655 -1.05818,-0.7552 -1.32952,-1.31594c-0.26229,-0.56979 -0.39342,-1.2843 -0.39342,-2.14351zM491.41467,382.90217c0,0.56979 0.07235,0.92252 0.21706,1.05818c0.15375,0.13567 0.30751,0.20351 0.46126,0.20351c0.23515,0 0.407,-0.08593 0.51553,-0.25776c0.11758,-0.17185 0.17637,-0.50648 0.17637,-1.00392v-2.49624c0,-0.59692 -0.05427,-0.99035 -0.1628,-1.18028c-0.09948,-0.18993 -0.27133,-0.2849 -0.51553,-0.2849c-0.14471,0 -0.29846,0.07236 -0.46126,0.21706c-0.15375,0.14471 -0.23063,0.53361 -0.23063,1.16672z"/><path d="M496.84593,387.21126h3.43233c0,0.64215 0.00453,1.04914 0.01357,1.22099c0.01809,0.1628 0.08592,0.30299 0.2035,0.42057c0.12662,0.10853 0.29394,0.1628 0.50197,0.1628c0.18088,0 0.3256,-0.05427 0.43412,-0.1628c0.11758,-0.10853 0.18089,-0.24872 0.18993,-0.42056c0.01809,-0.17185 0.02713,-0.511 0.02713,-1.01748v-2.19778c-0.17184,0.37081 -0.42961,0.6512 -0.77328,0.84113c-0.33465,0.18088 -0.7552,0.27133 -1.26168,0.27133c-0.62406,0 -1.17577,-0.16732 -1.65512,-0.50196c-0.47934,-0.34368 -0.78686,-0.75068 -0.92252,-1.22099c-0.12662,-0.47935 -0.18993,-1.12602 -0.18993,-1.94001v-1.08532c0,-0.96774 0.03618,-1.68225 0.10853,-2.14351c0.0814,-0.47031 0.28038,-0.90444 0.59693,-1.30239c0.31655,-0.40699 0.7552,-0.71902 1.31595,-0.93608c0.56074,-0.21706 1.21194,-0.3256 1.95358,-0.3256c0.91347,0 1.66416,0.12662 2.25204,0.37986c0.58788,0.25324 1.0401,0.61954 1.35665,1.09889c0.3256,0.47935 0.51101,0.98131 0.55623,1.50588c0.05426,0.52458 0.0814,1.54206 0.0814,3.05247v1.89931c0,1.63703 -0.02261,2.73138 -0.06783,3.2831c-0.04522,0.55171 -0.24419,1.07628 -0.59692,1.57371c-0.34368,0.4884 -0.81399,0.8547 -1.41092,1.0989c-0.58788,0.24419 -1.27072,0.3663 -2.04854,0.3663c-0.96774,0 -1.75913,-0.15375 -2.37414,-0.46126c-0.61501,-0.31655 -1.05819,-0.7552 -1.32952,-1.31594c-0.26229,-0.56979 -0.39342,-1.2843 -0.39342,-2.14351zM500.27826,382.93782c0,0.56979 0.07236,0.92252 0.21707,1.05818c0.15375,0.13567 0.30751,0.20351 0.46126,0.20351c0.23515,0 0.407,-0.08592 0.51553,-0.25776c0.11758,-0.17185 0.17637,-0.50648 0.17637,-1.00392v-2.49624c0,-0.59692 -0.05426,-0.99035 -0.16279,-1.18028c-0.09948,-0.18993 -0.27134,-0.2849 -0.51553,-0.2849c-0.14471,0 -0.29846,0.07236 -0.46126,0.21706c-0.15375,0.14471 -0.23062,0.53362 -0.23062,1.16672z"/><path d="M505.74556,386.9942h3.43233c0,0.64215 0.00453,1.04914 0.01357,1.22099c0.01809,0.1628 0.08592,0.30298 0.2035,0.42056c0.12662,0.10853 0.29394,0.1628 0.50197,0.1628c0.18088,0 0.3256,-0.05427 0.43412,-0.1628c0.11758,-0.10853 0.18088,-0.24872 0.18993,-0.42055c0.01809,-0.17185 0.02713,-0.51101 0.02713,-1.01749v-2.19777c-0.17184,0.37081 -0.42961,0.65119 -0.77328,0.84112c-0.33465,0.18088 -0.7552,0.27133 -1.26168,0.27133c-0.62406,0 -1.17577,-0.16732 -1.65511,-0.50196c-0.47934,-0.34368 -0.78686,-0.75068 -0.92252,-1.22098c-0.12662,-0.47935 -0.18993,-1.12602 -0.18993,-1.94001v-1.08532c0,-0.96774 0.03618,-1.68225 0.10853,-2.14351c0.0814,-0.47031 0.28038,-0.90444 0.59693,-1.30239c0.31655,-0.40699 0.7552,-0.71902 1.31595,-0.93608c0.56074,-0.21706 1.21194,-0.3256 1.95358,-0.3256c0.91347,0 1.66416,0.12662 2.25204,0.37986c0.58788,0.25324 1.0401,0.61953 1.35665,1.09889c0.3256,0.47935 0.51101,0.98131 0.55624,1.50589c0.05426,0.52458 0.0814,1.54206 0.0814,3.05246v1.89932c0,1.63703 -0.02261,2.73138 -0.06783,3.2831c-0.04522,0.55171 -0.24419,1.07628 -0.59692,1.57371c-0.34368,0.4884 -0.81399,0.8547 -1.41092,1.09889c-0.58788,0.24419 -1.27072,0.3663 -2.04854,0.3663c-0.96774,0 -1.75913,-0.15375 -2.37414,-0.46126c-0.61501,-0.31655 -1.05819,-0.7552 -1.32952,-1.31595c-0.26229,-0.56979 -0.39342,-1.28429 -0.39342,-2.14351zM509.17789,382.72075c0,0.56979 0.07236,0.92252 0.21707,1.05818c0.15375,0.13567 0.30751,0.20351 0.46126,0.20351c0.23515,0 0.40699,-0.08593 0.51552,-0.25776c0.11758,-0.17185 0.17637,-0.50648 0.17637,-1.00392v-2.49624c0,-0.59692 -0.05426,-0.99035 -0.16279,-1.18028c-0.09948,-0.18993 -0.27134,-0.2849 -0.51553,-0.2849c-0.14471,0 -0.29846,0.07236 -0.46126,0.21706c-0.15375,0.14471 -0.23062,0.53361 -0.23062,1.16672z"/></g><g><path d="M461.50052,387.17562h3.43233c0,0.64215 0.00453,1.04914 0.01357,1.22099c0.01809,0.1628 0.08592,0.30299 0.2035,0.42057c0.12662,0.10853 0.29394,0.1628 0.50197,0.1628c0.18088,0 0.3256,-0.05427 0.43413,-0.1628c0.11758,-0.10853 0.18088,-0.24873 0.18993,-0.42056c0.01809,-0.17185 0.02714,-0.511 0.02714,-1.01748v-2.19778c-0.17184,0.37081 -0.42961,0.65119 -0.77329,0.84112c-0.33465,0.18088 -0.7552,0.27134 -1.26168,0.27134c-0.62406,0 -1.17577,-0.16733 -1.65512,-0.50196c-0.47934,-0.34368 -0.78685,-0.75068 -0.92252,-1.22098c-0.12662,-0.47935 -0.18993,-1.12602 -0.18993,-1.94001v-1.08532c0,-0.96774 0.03618,-1.68225 0.10853,-2.14351c0.0814,-0.47031 0.28038,-0.90444 0.59693,-1.30239c0.31655,-0.40699 0.7552,-0.71902 1.31596,-0.93608c0.56074,-0.21706 1.21194,-0.3256 1.95358,-0.3256c0.91347,0 1.66416,0.12662 2.25204,0.37986c0.58788,0.25324 1.0401,0.61954 1.35665,1.0989c0.3256,0.47935 0.51101,0.98131 0.55623,1.50588c0.05426,0.52458 0.0814,1.54206 0.0814,3.05247v1.89931c0,1.63703 -0.02261,2.73138 -0.06783,3.2831c-0.04522,0.55171 -0.2442,1.07628 -0.59693,1.57371c-0.34368,0.4884 -0.81399,0.8547 -1.41092,1.09889c-0.58788,0.24419 -1.27073,0.3663 -2.04854,0.3663c-0.96774,0 -1.75913,-0.15375 -2.37414,-0.46126c-0.61501,-0.31655 -1.05818,-0.7552 -1.32951,-1.31594c-0.26229,-0.56979 -0.39343,-1.2843 -0.39343,-2.14351zM464.93284,382.90217c0,0.56979 0.07236,0.92252 0.21707,1.05818c0.15375,0.13567 0.30751,0.20351 0.46126,0.20351c0.23515,0 0.40699,-0.08593 0.51552,-0.25776c0.11758,-0.17185 0.17637,-0.50648 0.17637,-1.00392v-2.49624c0,-0.59692 -0.05426,-0.99035 -0.16279,-1.18028c-0.09948,-0.18993 -0.27134,-0.2849 -0.51553,-0.2849c-0.14471,0 -0.29846,0.07236 -0.46126,0.21706c-0.15375,0.14471 -0.23063,0.53361 -0.23063,1.16672z"/><path d="M470.36411,387.21126h3.43233c0,0.64215 0.00452,1.04914 0.01357,1.22099c0.01809,0.1628 0.08593,0.30299 0.20351,0.42057c0.12662,0.10853 0.29394,0.1628 0.50196,0.1628c0.18088,0 0.3256,-0.05427 0.43413,-0.1628c0.11758,-0.10853 0.18088,-0.24872 0.18993,-0.42056c0.01809,-0.17185 0.02713,-0.511 0.02713,-1.01748v-2.19778c-0.17184,0.37081 -0.42961,0.6512 -0.77328,0.84113c-0.33465,0.18088 -0.7552,0.27133 -1.26168,0.27133c-0.62406,0 -1.17577,-0.16732 -1.65512,-0.50196c-0.47934,-0.34368 -0.78686,-0.75068 -0.92252,-1.22099c-0.12662,-0.47935 -0.18993,-1.12602 -0.18993,-1.94001v-1.08532c0,-0.96774 0.03619,-1.68225 0.10854,-2.14351c0.0814,-0.47031 0.28037,-0.90444 0.59692,-1.30239c0.31655,-0.40699 0.7552,-0.71902 1.31596,-0.93608c0.56074,-0.21706 1.21194,-0.3256 1.95358,-0.3256c0.91347,0 1.66416,0.12662 2.25204,0.37986c0.58788,0.25324 1.0401,0.61954 1.35665,1.09889c0.3256,0.47935 0.51101,0.98131 0.55623,1.50588c0.05426,0.52458 0.0814,1.54206 0.0814,3.05247v1.89931c0,1.63703 -0.02261,2.73138 -0.06783,3.2831c-0.04522,0.55171 -0.2442,1.07628 -0.59693,1.57371c-0.34368,0.4884 -0.81399,0.8547 -1.41091,1.0989c-0.58788,0.24419 -1.27073,0.3663 -2.04854,0.3663c-0.96774,0 -1.75913,-0.15375 -2.37414,-0.46126c-0.61501,-0.31655 -1.05819,-0.7552 -1.32952,-1.31594c-0.26229,-0.56979 -0.39342,-1.2843 -0.39342,-2.14351zM473.79644,382.93782c0,0.56979 0.07236,0.92252 0.21707,1.05818c0.15375,0.13567 0.30751,0.20351 0.46126,0.20351c0.23515,0 0.407,-0.08592 0.51553,-0.25776c0.11758,-0.17185 0.17637,-0.50648 0.17637,-1.00392v-2.49624c0,-0.59692 -0.05427,-0.99035 -0.1628,-1.18028c-0.09948,-0.18993 -0.27133,-0.2849 -0.51552,-0.2849c-0.14471,0 -0.29847,0.07236 -0.46127,0.21706c-0.15375,0.14471 -0.23063,0.53362 -0.23063,1.16672z"/><path d="M479.26374,386.9942h3.43233c0,0.64215 0.00452,1.04914 0.01357,1.22099c0.01809,0.1628 0.08593,0.30298 0.20351,0.42056c0.12662,0.10853 0.29394,0.1628 0.50196,0.1628c0.18088,0 0.3256,-0.05427 0.43412,-0.1628c0.11758,-0.10853 0.18089,-0.24872 0.18994,-0.42055c0.01809,-0.17185 0.02713,-0.51101 0.02713,-1.01749v-2.19777c-0.17184,0.37081 -0.42961,0.65119 -0.77328,0.84112c-0.33465,0.18088 -0.7552,0.27133 -1.26168,0.27133c-0.62406,0 -1.17577,-0.16732 -1.65512,-0.50196c-0.47934,-0.34368 -0.78686,-0.75068 -0.92253,-1.22098c-0.12662,-0.47935 -0.18993,-1.12602 -0.18993,-1.94001v-1.08532c0,-0.96774 0.03619,-1.68225 0.10854,-2.14351c0.0814,-0.47031 0.28037,-0.90444 0.59692,-1.30239c0.31655,-0.40699 0.7552,-0.71902 1.31596,-0.93608c0.56074,-0.21706 1.21194,-0.3256 1.95358,-0.3256c0.91347,0 1.66416,0.12662 2.25204,0.37986c0.58788,0.25324 1.0401,0.61953 1.35665,1.09889c0.3256,0.47935 0.51101,0.98131 0.55623,1.50589c0.05426,0.52458 0.0814,1.54206 0.0814,3.05246v1.89932c0,1.63703 -0.02261,2.73138 -0.06783,3.2831c-0.04522,0.55171 -0.2442,1.07628 -0.59693,1.57371c-0.34368,0.4884 -0.81399,0.8547 -1.41092,1.09889c-0.58788,0.24419 -1.27072,0.3663 -2.04854,0.3663c-0.96774,0 -1.75913,-0.15375 -2.37414,-0.46126c-0.61501,-0.31655 -1.05819,-0.7552 -1.32952,-1.31595c-0.26229,-0.56979 -0.39342,-1.28429 -0.39342,-2.14351zM482.69607,382.72075c0,0.56979 0.07236,0.92252 0.21707,1.05818c0.15375,0.13567 0.30751,0.20351 0.46126,0.20351c0.23515,0 0.407,-0.08593 0.51553,-0.25776c0.11758,-0.17185 0.17637,-0.50648 0.17637,-1.00392v-2.49624c0,-0.59692 -0.05427,-0.99035 -0.1628,-1.18028c-0.09948,-0.18993 -0.27133,-0.2849 -0.51553,-0.2849c-0.14471,0 -0.29846,0.07236 -0.46126,0.21706c-0.15375,0.14471 -0.23063,0.53361 -0.23063,1.16672z"/></g></g><g><path d="M680.8524,387.96456h3.43233c0,0.64215 0.00452,1.04914 0.01357,1.22098c0.0181,0.1628 0.08593,0.30299 0.20351,0.42057c0.12662,0.10853 0.29394,0.1628 0.50196,0.1628c0.18089,0 0.3256,-0.05427 0.43413,-0.1628c0.11757,-0.10853 0.18089,-0.24872 0.18993,-0.42055c0.0181,-0.17185 0.02713,-0.51101 0.02713,-1.01749v-2.19777c-0.17183,0.37081 -0.42961,0.65119 -0.77328,0.84112c-0.33464,0.18088 -0.7552,0.27133 -1.26168,0.27133c-0.62406,0 -1.17576,-0.16733 -1.65512,-0.50196c-0.47934,-0.34368 -0.78686,-0.75068 -0.92253,-1.22098c-0.12662,-0.47935 -0.18993,-1.12601 -0.18993,-1.94v-1.08532c0,-0.96774 0.03619,-1.68225 0.10854,-2.14351c0.0814,-0.47031 0.28037,-0.90444 0.59692,-1.30239c0.31655,-0.40699 0.7552,-0.71902 1.31596,-0.93608c0.56075,-0.21706 1.21195,-0.32559 1.95358,-0.32559c0.91349,0 1.66415,0.12662 2.25204,0.37986c0.58789,0.25324 1.0401,0.61953 1.35666,1.09889c0.3256,0.47935 0.51101,0.98131 0.55623,1.50588c0.05427,0.52458 0.0814,1.54206 0.0814,3.05247v1.89931c0,1.63703 -0.02261,2.73138 -0.06783,3.2831c-0.04522,0.55171 -0.2442,1.07628 -0.59693,1.57371c-0.34369,0.4884 -0.81399,0.85469 -1.41092,1.09889c-0.58789,0.24419 -1.27072,0.3663 -2.04853,0.3663c-0.96775,0 -1.75913,-0.15375 -2.37414,-0.46126c-0.61502,-0.31655 -1.05819,-0.7552 -1.32952,-1.31594c-0.26229,-0.56979 -0.39342,-1.2843 -0.39342,-2.14351zM684.28472,383.69111c0,0.56979 0.07236,0.92252 0.21706,1.05819c0.15376,0.13567 0.3075,0.2035 0.46126,0.2035c0.23516,0 0.407,-0.08592 0.51553,-0.25776c0.11757,-0.17185 0.17637,-0.50648 0.17637,-1.00392v-2.49624c0,-0.59692 -0.05427,-0.99035 -0.1628,-1.18028c-0.0995,-0.18993 -0.27133,-0.2849 -0.51552,-0.2849c-0.14471,0 -0.29847,0.07236 -0.46127,0.21707c-0.15376,0.14471 -0.23063,0.53361 -0.23063,1.16672z"/><path d="M689.71599,388.0002h3.43233c0,0.64215 0.00453,1.04914 0.01357,1.22098c0.01809,0.1628 0.08592,0.30299 0.2035,0.42057c0.12663,0.10853 0.29394,0.1628 0.50196,0.1628c0.18089,0 0.3256,-0.05427 0.43413,-0.1628c0.11757,-0.10853 0.18089,-0.24872 0.18993,-0.42055c0.01809,-0.17185 0.02713,-0.51101 0.02713,-1.01749v-2.19777c-0.17184,0.37081 -0.42961,0.65119 -0.77329,0.84112c-0.33463,0.18088 -0.7552,0.27133 -1.26168,0.27133c-0.62406,0 -1.17576,-0.16732 -1.65512,-0.50196c-0.47936,-0.34368 -0.78686,-0.75068 -0.92252,-1.22099c-0.12663,-0.47935 -0.18993,-1.12602 -0.18993,-1.94001v-1.08532c0,-0.96774 0.03617,-1.68225 0.10853,-2.14351c0.0814,-0.47031 0.28037,-0.90443 0.59692,-1.30238c0.31656,-0.40699 0.75521,-0.71902 1.31596,-0.93608c0.56075,-0.21706 1.21195,-0.3256 1.95358,-0.3256c0.91349,0 1.66415,0.12662 2.25204,0.37986c0.58789,0.25324 1.04009,0.61953 1.35665,1.09889c0.3256,0.47935 0.511,0.98131 0.55623,1.50589c0.05426,0.52458 0.0814,1.54206 0.0814,3.05246v1.89932c0,1.63703 -0.02261,2.73138 -0.06783,3.2831c-0.04523,0.55171 -0.2442,1.07628 -0.59693,1.57371c-0.34369,0.4884 -0.81399,0.85469 -1.41091,1.09889c-0.58789,0.24419 -1.27073,0.3663 -2.04854,0.3663c-0.96775,0 -1.75913,-0.15375 -2.37414,-0.46126c-0.61502,-0.31655 -1.05818,-0.75521 -1.32951,-1.31595c-0.26229,-0.56979 -0.39343,-1.28429 -0.39343,-2.14351zM693.14832,383.72676c0,0.56979 0.07236,0.92252 0.21707,1.05818c0.15376,0.13567 0.3075,0.20351 0.46126,0.20351c0.23516,0 0.407,-0.08593 0.51553,-0.25776c0.11757,-0.17185 0.17637,-0.50648 0.17637,-1.00392v-2.49624c0,-0.59692 -0.05427,-0.99035 -0.1628,-1.18028c-0.09949,-0.18993 -0.27133,-0.2849 -0.51553,-0.2849c-0.1447,0 -0.29846,0.07236 -0.46126,0.21706c-0.15376,0.14471 -0.23063,0.53361 -0.23063,1.16672z"/><path d="M698.61562,387.78314h3.43233c0,0.64215 0.00452,1.04914 0.01357,1.22098c0.01809,0.1628 0.08592,0.30299 0.2035,0.42057c0.12663,0.10853 0.29394,0.1628 0.50196,0.1628c0.18089,0 0.3256,-0.05427 0.43413,-0.1628c0.11757,-0.10853 0.18089,-0.24872 0.18993,-0.42056c0.01809,-0.17185 0.02714,-0.51101 0.02714,-1.01749v-2.19777c-0.17184,0.37081 -0.42961,0.65119 -0.77329,0.84112c-0.33463,0.18088 -0.7552,0.27133 -1.26168,0.27133c-0.62406,0 -1.17576,-0.16732 -1.65512,-0.50195c-0.47935,-0.34368 -0.78686,-0.75068 -0.92252,-1.22099c-0.12663,-0.47935 -0.18993,-1.12601 -0.18993,-1.94v-1.08533c0,-0.96774 0.03617,-1.68225 0.10853,-2.14351c0.0814,-0.47031 0.28037,-0.90443 0.59693,-1.30238c0.31656,-0.40699 0.7552,-0.71902 1.31596,-0.93609c0.56075,-0.21706 1.21195,-0.32559 1.95358,-0.32559c0.91349,0 1.66415,0.12662 2.25204,0.37986c0.58789,0.25324 1.04009,0.61953 1.35665,1.09889c0.3256,0.47935 0.51101,0.98131 0.55623,1.50589c0.05426,0.52458 0.0814,1.54206 0.0814,3.05246v1.89932c0,1.63703 -0.02261,2.73138 -0.06783,3.2831c-0.04523,0.55171 -0.24419,1.07628 -0.59693,1.57371c-0.34369,0.4884 -0.81399,0.85469 -1.41091,1.09889c-0.58789,0.24419 -1.27073,0.3663 -2.04854,0.3663c-0.96775,0 -1.75913,-0.15375 -2.37414,-0.46126c-0.61502,-0.31655 -1.05818,-0.7552 -1.32951,-1.31595c-0.26229,-0.56979 -0.39342,-1.28429 -0.39342,-2.14351zM702.04795,383.50969c0,0.56979 0.07236,0.92253 0.21706,1.05819c0.15376,0.13567 0.3075,0.2035 0.46126,0.2035c0.23516,0 0.407,-0.08593 0.51553,-0.25776c0.11757,-0.17185 0.17637,-0.50648 0.17637,-1.00392v-2.49624c0,-0.59692 -0.05427,-0.99035 -0.1628,-1.18028c-0.09949,-0.18993 -0.27133,-0.28489 -0.51553,-0.28489c-0.1447,0 -0.29846,0.07235 -0.46126,0.21706c-0.15376,0.14471 -0.23063,0.53361 -0.23063,1.16672z"/></g><g><path d="M654.15351,388.18163h3.43233c0,0.64215 0.00453,1.04914 0.01358,1.22098c0.01809,0.1628 0.08592,0.30299 0.2035,0.42057c0.12662,0.10853 0.29394,0.1628 0.50197,0.1628c0.18088,0 0.3256,-0.05427 0.43413,-0.1628c0.11758,-0.10853 0.18088,-0.24872 0.18993,-0.42056c0.01809,-0.17185 0.02713,-0.511 0.02713,-1.01748v-2.19777c-0.17184,0.37081 -0.42961,0.65119 -0.77329,0.84112c-0.33465,0.18088 -0.7552,0.27134 -1.26168,0.27134c-0.62406,0 -1.17577,-0.16733 -1.65512,-0.50196c-0.47934,-0.34368 -0.78685,-0.75068 -0.92252,-1.22099c-0.12662,-0.47935 -0.18994,-1.12601 -0.18994,-1.94v-1.08532c0,-0.96774 0.03619,-1.68225 0.10854,-2.14351c0.0814,-0.47031 0.28037,-0.90443 0.59692,-1.30238c0.31655,-0.40699 0.7552,-0.71902 1.31596,-0.93609c0.56074,-0.21706 1.21194,-0.32559 1.95358,-0.32559c0.91347,0 1.66416,0.12662 2.25204,0.37986c0.58788,0.25324 1.0401,0.61954 1.35665,1.09889c0.3256,0.47935 0.51101,0.98131 0.55623,1.50589c0.05426,0.52458 0.0814,1.54206 0.0814,3.05247v1.89931c0,1.63703 -0.02261,2.73138 -0.06783,3.2831c-0.04522,0.55171 -0.24419,1.07628 -0.59692,1.57371c-0.34368,0.4884 -0.81399,0.85469 -1.41092,1.09889c-0.58788,0.24419 -1.27073,0.3663 -2.04854,0.3663c-0.96774,0 -1.75913,-0.15375 -2.37414,-0.46126c-0.61501,-0.31655 -1.05818,-0.7552 -1.32952,-1.31594c-0.26229,-0.56979 -0.39342,-1.2843 -0.39342,-2.14351zM657.58584,383.90817c0,0.56979 0.07236,0.92252 0.21707,1.05819c0.15375,0.13567 0.30751,0.20351 0.46126,0.20351c0.23515,0 0.407,-0.08593 0.51553,-0.25776c0.11758,-0.17185 0.17637,-0.50648 0.17637,-1.00392v-2.49624c0,-0.59692 -0.05427,-0.99035 -0.1628,-1.18028c-0.09948,-0.18993 -0.27133,-0.2849 -0.51552,-0.2849c-0.14471,0 -0.29846,0.07236 -0.46126,0.21706c-0.15375,0.14471 -0.23063,0.53361 -0.23063,1.16672z"/><path d="M663.0171,388.21727h3.43233c0,0.64215 0.00452,1.04914 0.01357,1.22098c0.01809,0.1628 0.08592,0.30299 0.2035,0.42057c0.12662,0.10853 0.29394,0.1628 0.50197,0.1628c0.18088,0 0.3256,-0.05427 0.43412,-0.1628c0.11758,-0.10853 0.18089,-0.24872 0.18993,-0.42055c0.01809,-0.17185 0.02713,-0.51101 0.02713,-1.01749v-2.19777c-0.17184,0.37081 -0.42961,0.65119 -0.77328,0.84112c-0.33465,0.18088 -0.7552,0.27133 -1.26168,0.27133c-0.62406,0 -1.17577,-0.16732 -1.65512,-0.50196c-0.47934,-0.34368 -0.78686,-0.75068 -0.92252,-1.22099c-0.12662,-0.47935 -0.18993,-1.12601 -0.18993,-1.94v-1.08532c0,-0.96774 0.03618,-1.68225 0.10853,-2.14351c0.0814,-0.47031 0.28038,-0.90443 0.59693,-1.30238c0.31655,-0.40699 0.7552,-0.71902 1.31596,-0.93608c0.56074,-0.21706 1.21194,-0.3256 1.95358,-0.3256c0.91347,0 1.66416,0.12662 2.25204,0.37986c0.58788,0.25324 1.04011,0.61953 1.35666,1.09889c0.3256,0.47935 0.511,0.98131 0.55623,1.50589c0.05426,0.52458 0.0814,1.54206 0.0814,3.05247v1.89931c0,1.63703 -0.02261,2.73138 -0.06783,3.2831c-0.04522,0.55171 -0.2442,1.07628 -0.59693,1.57371c-0.34368,0.4884 -0.81399,0.8547 -1.41092,1.09889c-0.58788,0.24419 -1.27072,0.3663 -2.04853,0.3663c-0.96774,0 -1.75913,-0.15375 -2.37414,-0.46126c-0.61501,-0.31655 -1.05819,-0.7552 -1.32952,-1.31595c-0.26229,-0.56979 -0.39342,-1.2843 -0.39342,-2.14351zM666.44943,383.94382c0,0.56979 0.07235,0.92252 0.21706,1.05818c0.15375,0.13567 0.30751,0.20351 0.46126,0.20351c0.23515,0 0.407,-0.08593 0.51553,-0.25776c0.11758,-0.17185 0.17637,-0.50648 0.17637,-1.00392v-2.49624c0,-0.59692 -0.05427,-0.99035 -0.1628,-1.18028c-0.09948,-0.18993 -0.27134,-0.2849 -0.51553,-0.2849c-0.14471,0 -0.29846,0.07236 -0.46126,0.21706c-0.15375,0.14471 -0.23063,0.53361 -0.23063,1.16672z"/><path d="M671.91673,388.0002h3.43233c0,0.64215 0.00452,1.04914 0.01357,1.22098c0.01809,0.1628 0.08592,0.30299 0.2035,0.42057c0.12662,0.10853 0.29394,0.1628 0.50197,0.1628c0.18088,0 0.3256,-0.05427 0.43412,-0.1628c0.11758,-0.10853 0.18088,-0.24872 0.18993,-0.42055c0.01809,-0.17185 0.02714,-0.51101 0.02714,-1.01749v-2.19777c-0.17184,0.37081 -0.42961,0.65119 -0.77328,0.84112c-0.33465,0.18088 -0.75521,0.27133 -1.26169,0.27133c-0.62406,0 -1.17577,-0.16732 -1.65511,-0.50196c-0.47934,-0.34368 -0.78686,-0.75068 -0.92252,-1.22099c-0.12662,-0.47935 -0.18993,-1.12602 -0.18993,-1.94001v-1.08532c0,-0.96774 0.03618,-1.68225 0.10853,-2.14351c0.0814,-0.47031 0.28038,-0.90443 0.59693,-1.30238c0.31655,-0.40699 0.7552,-0.71902 1.31596,-0.93608c0.56074,-0.21706 1.21194,-0.3256 1.95358,-0.3256c0.91347,0 1.66416,0.12662 2.25204,0.37986c0.58788,0.25324 1.0401,0.61953 1.35665,1.09889c0.3256,0.47935 0.51101,0.98131 0.55624,1.50589c0.05426,0.52458 0.0814,1.54206 0.0814,3.05246v1.89932c0,1.63703 -0.0226,2.73138 -0.06782,3.2831c-0.04522,0.55171 -0.2442,1.07628 -0.59693,1.57371c-0.34368,0.4884 -0.81399,0.85469 -1.41092,1.09889c-0.58788,0.24419 -1.27072,0.3663 -2.04853,0.3663c-0.96774,0 -1.75913,-0.15375 -2.37414,-0.46126c-0.61501,-0.31655 -1.05819,-0.75521 -1.32952,-1.31595c-0.26229,-0.56979 -0.39342,-1.28429 -0.39342,-2.14351zM675.34906,383.72676c0,0.56979 0.07235,0.92252 0.21706,1.05818c0.15375,0.13567 0.30751,0.20351 0.46126,0.20351c0.23515,0 0.407,-0.08593 0.51553,-0.25776c0.11758,-0.17185 0.17637,-0.50648 0.17637,-1.00392v-2.49624c0,-0.59692 -0.05427,-0.99035 -0.1628,-1.18028c-0.09948,-0.18993 -0.27134,-0.2849 -0.51553,-0.2849c-0.14471,0 -0.29846,0.07236 -0.46126,0.21706c-0.15375,0.14471 -0.23063,0.53361 -0.23063,1.16672z"/></g><g><path d="M627.67169,388.18163h3.43233c0,0.64215 0.00452,1.04914 0.01357,1.22098c0.01809,0.1628 0.08592,0.30299 0.2035,0.42057c0.12662,0.10853 0.29394,0.1628 0.50196,0.1628c0.18088,0 0.3256,-0.05427 0.43413,-0.1628c0.11758,-0.10853 0.18088,-0.24872 0.18993,-0.42056c0.01809,-0.17185 0.02714,-0.511 0.02714,-1.01748v-2.19777c-0.17184,0.37081 -0.42961,0.65119 -0.77329,0.84112c-0.33465,0.18088 -0.7552,0.27134 -1.26168,0.27134c-0.62406,0 -1.17577,-0.16733 -1.65512,-0.50196c-0.47934,-0.34368 -0.78685,-0.75068 -0.92252,-1.22099c-0.12662,-0.47935 -0.18993,-1.12601 -0.18993,-1.94v-1.08532c0,-0.96774 0.03618,-1.68225 0.10853,-2.14351c0.0814,-0.47031 0.28038,-0.90443 0.59693,-1.30238c0.31655,-0.40699 0.75521,-0.71902 1.31596,-0.93609c0.56074,-0.21706 1.21194,-0.32559 1.95358,-0.32559c0.91347,0 1.66416,0.12662 2.25204,0.37986c0.58788,0.25324 1.0401,0.61954 1.35665,1.09889c0.3256,0.47935 0.511,0.98131 0.55623,1.50589c0.05426,0.52458 0.0814,1.54206 0.0814,3.05247v1.89931c0,1.63703 -0.0226,2.73138 -0.06782,3.2831c-0.04522,0.55171 -0.2442,1.07628 -0.59693,1.57371c-0.34368,0.4884 -0.81399,0.85469 -1.41091,1.09889c-0.58788,0.24419 -1.27073,0.3663 -2.04854,0.3663c-0.96774,0 -1.75913,-0.15375 -2.37414,-0.46126c-0.61501,-0.31655 -1.05818,-0.7552 -1.32952,-1.31594c-0.26229,-0.56979 -0.39342,-1.2843 -0.39342,-2.14351zM631.10401,383.90817c0,0.56979 0.07235,0.92252 0.21706,1.05819c0.15375,0.13567 0.30751,0.20351 0.46126,0.20351c0.23515,0 0.407,-0.08593 0.51553,-0.25776c0.11758,-0.17185 0.17637,-0.50648 0.17637,-1.00392v-2.49624c0,-0.59692 -0.05426,-0.99035 -0.16279,-1.18028c-0.09948,-0.18993 -0.27134,-0.2849 -0.51553,-0.2849c-0.14471,0 -0.29846,0.07236 -0.46126,0.21706c-0.15375,0.14471 -0.23063,0.53361 -0.23063,1.16672z"/><path d="M636.53528,388.21727h3.43233c0,0.64215 0.00453,1.04914 0.01357,1.22098c0.01809,0.1628 0.08592,0.30299 0.2035,0.42057c0.12662,0.10853 0.29394,0.1628 0.50197,0.1628c0.18088,0 0.3256,-0.05427 0.43413,-0.1628c0.11758,-0.10853 0.18088,-0.24872 0.18993,-0.42055c0.01809,-0.17185 0.02713,-0.51101 0.02713,-1.01749v-2.19777c-0.17184,0.37081 -0.42961,0.65119 -0.77328,0.84112c-0.33465,0.18088 -0.7552,0.27133 -1.26168,0.27133c-0.62406,0 -1.17577,-0.16732 -1.65512,-0.50196c-0.47934,-0.34368 -0.78685,-0.75068 -0.92252,-1.22099c-0.12662,-0.47935 -0.18993,-1.12601 -0.18993,-1.94v-1.08532c0,-0.96774 0.03618,-1.68225 0.10853,-2.14351c0.0814,-0.47031 0.28038,-0.90443 0.59693,-1.30238c0.31655,-0.40699 0.7552,-0.71902 1.31595,-0.93608c0.56074,-0.21706 1.21194,-0.3256 1.95358,-0.3256c0.91347,0 1.66416,0.12662 2.25204,0.37986c0.58788,0.25324 1.0401,0.61953 1.35665,1.09889c0.3256,0.47935 0.51101,0.98131 0.55623,1.50589c0.05426,0.52458 0.0814,1.54206 0.0814,3.05247v1.89931c0,1.63703 -0.02261,2.73138 -0.06783,3.2831c-0.04522,0.55171 -0.24419,1.07628 -0.59692,1.57371c-0.34368,0.4884 -0.81399,0.8547 -1.41092,1.09889c-0.58788,0.24419 -1.27073,0.3663 -2.04854,0.3663c-0.96774,0 -1.75913,-0.15375 -2.37414,-0.46126c-0.61501,-0.31655 -1.05819,-0.7552 -1.32952,-1.31595c-0.26229,-0.56979 -0.39342,-1.2843 -0.39342,-2.14351zM639.96761,383.94382c0,0.56979 0.07236,0.92252 0.21707,1.05818c0.15375,0.13567 0.30751,0.20351 0.46126,0.20351c0.23515,0 0.407,-0.08593 0.51553,-0.25776c0.11758,-0.17185 0.17637,-0.50648 0.17637,-1.00392v-2.49624c0,-0.59692 -0.05427,-0.99035 -0.1628,-1.18028c-0.09948,-0.18993 -0.27133,-0.2849 -0.51553,-0.2849c-0.14471,0 -0.29847,0.07236 -0.46127,0.21706c-0.15375,0.14471 -0.23062,0.53361 -0.23062,1.16672z"/><path d="M645.43491,388.0002h3.43233c0,0.64215 0.00453,1.04914 0.01357,1.22098c0.01809,0.1628 0.08592,0.30299 0.2035,0.42057c0.12662,0.10853 0.29394,0.1628 0.50197,0.1628c0.18088,0 0.3256,-0.05427 0.43412,-0.1628c0.11758,-0.10853 0.18089,-0.24872 0.18993,-0.42055c0.01809,-0.17185 0.02713,-0.51101 0.02713,-1.01749v-2.19777c-0.17184,0.37081 -0.42961,0.65119 -0.77328,0.84112c-0.33465,0.18088 -0.7552,0.27133 -1.26168,0.27133c-0.62406,0 -1.17577,-0.16732 -1.65512,-0.50196c-0.47934,-0.34368 -0.78686,-0.75068 -0.92252,-1.22099c-0.12662,-0.47935 -0.18993,-1.12602 -0.18993,-1.94001v-1.08532c0,-0.96774 0.03618,-1.68225 0.10853,-2.14351c0.0814,-0.47031 0.28038,-0.90443 0.59693,-1.30238c0.31655,-0.40699 0.7552,-0.71902 1.31595,-0.93608c0.56074,-0.21706 1.21194,-0.3256 1.95358,-0.3256c0.91347,0 1.66417,0.12662 2.25205,0.37986c0.58788,0.25324 1.0401,0.61953 1.35665,1.09889c0.3256,0.47935 0.51101,0.98131 0.55623,1.50589c0.05426,0.52458 0.0814,1.54206 0.0814,3.05246v1.89932c0,1.63703 -0.02261,2.73138 -0.06783,3.2831c-0.04522,0.55171 -0.24419,1.07628 -0.59692,1.57371c-0.34368,0.4884 -0.81399,0.85469 -1.41092,1.09889c-0.58788,0.24419 -1.27072,0.3663 -2.04854,0.3663c-0.96774,0 -1.75913,-0.15375 -2.37414,-0.46126c-0.61501,-0.31655 -1.05819,-0.75521 -1.32952,-1.31595c-0.26229,-0.56979 -0.39342,-1.28429 -0.39342,-2.14351zM648.86724,383.72676c0,0.56979 0.07236,0.92252 0.21707,1.05818c0.15375,0.13567 0.30751,0.20351 0.46126,0.20351c0.23515,0 0.407,-0.08593 0.51553,-0.25776c0.11758,-0.17185 0.17637,-0.50648 0.17637,-1.00392v-2.49624c0,-0.59692 -0.05426,-0.99035 -0.16279,-1.18028c-0.09948,-0.18993 -0.27134,-0.2849 -0.51553,-0.2849c-0.14471,0 -0.29846,0.07236 -0.46126,0.21706c-0.15375,0.14471 -0.23062,0.53361 -0.23062,1.16672z"/></g></g></g></g></svg>