<svg version="1.1" xmlns="http://www.w3.org/2000/svg" xmlns:xlink="http://www.w3.org/1999/xlink" width="383.03051" height="374.9751" viewBox="0,0,383.03051,374.9751"><defs><radialGradient cx="512" cy="381.63645" r="156.5" gradientUnits="userSpaceOnUse" id="color-1"><stop offset="0" stop-color="#bedcdf" stop-opacity="0"/><stop offset="1" stop-color="#bedcdf"/></radialGradient><radialGradient cx="512" cy="381.63645" r="156.5" gradientUnits="userSpaceOnUse" id="color-2"><stop offset="0" stop-color="#d1e6e8"/><stop offset="1" stop-color="#d1e6e8" stop-opacity="0"/></radialGradient><radialGradient cx="477.5" cy="524.63645" r="35.16667" gradientUnits="userSpaceOnUse" id="color-3"><stop offset="0" stop-color="#d9fcff"/><stop offset="1" stop-color="#d9fcff" stop-opacity="0"/></radialGradient><radialGradient cx="567.1407" cy="244.43011" r="36.68269" gradientUnits="userSpaceOnUse" id="color-4"><stop offset="0" stop-color="#d9fcff"/><stop offset="1" stop-color="#d9fcff" stop-opacity="0"/></radialGradient></defs><g transform="translate(-320.48475,-196.51245)"><g data-paper-data="{&quot;isPaintingLayer&quot;:true}" stroke-linejoin="miter" stroke-miterlimit="10" stroke-dasharray="" stroke-dashoffset="0" style="mix-blend-mode: normal"><path d="M355.5,381.63645c0,-86.3747 66.27593,-156.5 156.5,-156.5c90.22407,0 156.5,65.99386 156.5,156.5c0,90.50614 -65.97283,156.5 -156.5,156.5c-90.52716,0 -156.5,-70.1253 -156.5,-156.5zM511.5,525.13645c27.45859,-0.36981 55.07031,-7.31078 78.02127,-20.18058c42.16826,-23.64595 70.97873,-66.51422 70.97873,-119.81942c0,-24.80374 -4.47075,-53.17734 -19.17105,-73.96699c-32.95272,-46.60284 -47.78811,-47.68762 -74.60319,-62.30873c-20.85995,-11.37404 -28.74258,-16.08096 -55.22576,-15.72428c-86.62992,1.16674 -148,68.03357 -148,156c0,87.96643 70.09121,137.04928 148,136z" fill="url(#color-1)" fill-rule="nonzero" stroke="url(#color-2)" stroke-width="1.5" stroke-linecap="butt"/><path d="M445.45844,563.09135c0,0 9.59154,-23.33767 9.6655,-35.17059c0.06859,-10.9751 -9.23664,-33.44729 -9.23664,-33.44729c0,0 23.35722,14.03969 34.74922,13.76013c11.88832,-0.29174 35.15525,-15.47558 35.15525,-15.47558c0,0 -15.09254,23.10511 -15.36508,34.27937c-0.29715,12.18291 13.64964,36.05397 13.64964,36.05397c0,0 -23.09503,-16.72561 -34.30895,-16.72561c-11.64263,0 -34.30894,16.72561 -34.30894,16.72561z" fill="url(#color-3)" fill-rule="nonzero" stroke="#d1e6e8" stroke-width="0" stroke-linecap="butt"/><path d="M533.70951,278.27404c0,0 8.55345,-23.7378 8.10572,-35.56248c-0.41528,-10.96745 -10.70207,-33.00761 -10.70207,-33.00761c0,0 23.95341,12.99641 35.32202,12.21494c11.8639,-0.81552 34.43888,-17.01024 34.43888,-17.01024c0,0 -14.05935,23.74796 -13.83905,34.92336c0.24019,12.18417 15.22569,35.41722 15.22569,35.41722c0,0 -23.80987,-15.69128 -35.01289,-15.19695c-11.6313,0.51323 -33.5383,18.22176 -33.5383,18.22176z" fill="url(#color-4)" fill-rule="nonzero" stroke="#d1e6e8" stroke-width="0" stroke-linecap="butt"/><path d="M320.48475,248.66787c0,-28.80467 23.85238,-52.15542 53.27585,-52.15542h276.47907c14.12954,0 27.6805,5.49504 37.67169,15.27601c9.99093,9.78097 15.6039,23.04683 15.6039,36.87928v270.66439c0,28.80467 -23.85225,52.15542 -53.27559,52.15542h-276.47907c-29.42346,0 -53.27585,-23.35075 -53.27585,-52.15542z" fill-opacity="0.00784" fill="#3d3d3d" fill-rule="evenodd" stroke="none" stroke-width="1" stroke-linecap="square"/></g></g></svg>