<?xml version="1.0" standalone="no"?>
<!DOCTYPE svg PUBLIC "-//W3C//DTD SVG 20010904//EN"
 "http://www.w3.org/TR/2001/REC-SVG-20010904/DTD/svg10.dtd">
<svg version="1.0" xmlns="http://www.w3.org/2000/svg"
 width="2550.000000pt" height="3300.000000pt" viewBox="0 0 2550.000000 3300.000000"
 preserveAspectRatio="xMidYMid meet">
<metadata>
Created by potrace 1.16, written by Peter Selinger 2001-2019
</metadata>
<g transform="translate(0.000000,3300.000000) scale(0.100000,-0.100000)"
fill="#000000" stroke="none">
<path d="M10694 29035 c-316 -158 -514 -590 -514 -1125 0 -317 70 -555 205
-699 99 -104 206 -151 346 -151 203 0 350 81 433 239 93 177 119 491 60 717
-40 155 -138 282 -251 324 -109 41 -303 36 -365 -10 -37 -27 -35 -14 8 73 74
148 166 235 322 303 86 38 86 37 45 119 -57 112 -170 245 -208 245 -7 0 -43
-16 -81 -35z m73 -215 c2 -8 -19 -30 -48 -49 -109 -74 -203 -219 -267 -414
-39 -116 -72 -289 -72 -373 l0 -38 35 60 c63 105 140 161 262 190 216 51 380
-85 414 -341 20 -156 -4 -353 -57 -459 -33 -66 -58 -92 -119 -124 -45 -24 -61
-27 -150 -27 -97 0 -103 1 -159 35 -110 66 -187 184 -233 358 -24 89 -27 114
-27 302 -1 163 3 223 17 290 56 261 165 460 310 567 60 44 90 51 94 23z"/>
<path d="M10652 28140 c-98 -35 -158 -86 -226 -190 -43 -65 -46 -107 -17 -245
51 -246 169 -396 325 -412 170 -18 279 90 306 301 21 161 6 327 -39 414 -27
52 -109 125 -159 140 -57 17 -129 14 -190 -8z m158 -148 c36 -26 58 -77 70
-165 13 -93 0 -210 -31 -274 -38 -79 -130 -107 -200 -60 -84 55 -140 271 -98
382 21 57 81 121 125 135 39 12 103 3 134 -18z"/>
<path d="M3588 29013 c-189 -142 -327 -329 -406 -553 -55 -156 -67 -236 -66
-440 1 -172 3 -193 31 -300 49 -185 108 -312 206 -438 89 -116 264 -250 311
-238 30 7 217 160 300 245 61 61 67 71 50 77 -132 46 -278 142 -344 226 -101
127 -142 254 -141 443 0 146 22 240 83 358 52 101 178 232 281 291 46 27 66
44 62 53 -26 69 -253 323 -288 323 -8 0 -44 -21 -79 -47z m92 -178 c11 -13 0
-28 -66 -98 -120 -124 -182 -240 -236 -439 -32 -120 -33 -373 0 -501 46 -184
124 -321 247 -435 58 -53 72 -71 63 -80 -19 -19 -30 -15 -94 42 -205 183 -319
512 -287 829 19 181 85 374 174 505 34 49 167 192 179 192 4 0 13 -7 20 -15z"/>
<path d="M6117 29049 c-299 -39 -462 -237 -534 -649 -25 -142 -25 -616 1 -755
61 -332 168 -483 391 -551 44 -14 93 -18 185 -18 187 0 296 39 401 143 100
100 166 276 200 531 17 126 17 536 0 665 -48 365 -176 565 -397 619 -83 20
-167 25 -247 15z m201 -224 c112 -52 207 -193 251 -375 29 -119 45 -329 37
-488 -18 -371 -106 -579 -279 -658 -54 -25 -74 -29 -157 -29 -88 0 -101 3
-162 33 -80 39 -122 86 -172 192 -100 210 -127 696 -55 978 37 144 117 269
211 328 93 59 223 66 326 19z"/>
<path d="M6100 28797 c-162 -45 -267 -212 -300 -480 -17 -130 -8 -461 15 -575
55 -282 166 -411 351 -412 256 -1 375 204 391 670 11 331 -49 577 -173 710
-73 78 -189 113 -284 87z m134 -208 c87 -76 119 -220 119 -539 0 -249 -16
-369 -63 -465 -42 -88 -101 -116 -170 -80 -61 31 -99 143 -121 350 -14 143 -6
424 16 535 26 134 94 230 161 230 13 0 39 -14 58 -31z"/>
<path d="M8767 29049 c-299 -39 -462 -237 -534 -649 -25 -142 -25 -616 1 -755
61 -332 168 -483 391 -551 44 -14 93 -18 185 -18 187 0 296 39 401 143 100
100 166 276 200 531 17 126 17 536 0 665 -48 365 -176 565 -397 619 -83 20
-167 25 -247 15z m201 -224 c112 -52 207 -193 251 -375 29 -119 45 -329 37
-488 -18 -371 -106 -579 -279 -658 -54 -25 -74 -29 -157 -29 -88 0 -101 3
-162 33 -80 39 -122 86 -172 192 -100 210 -127 696 -55 978 37 144 117 269
211 328 93 59 223 66 326 19z"/>
<path d="M8750 28797 c-162 -45 -267 -212 -300 -480 -17 -130 -8 -461 15 -575
55 -282 166 -411 351 -412 256 -1 375 204 391 670 11 331 -49 577 -173 710
-73 78 -189 113 -284 87z m134 -208 c87 -76 119 -220 119 -539 0 -249 -16
-369 -63 -465 -42 -88 -101 -116 -170 -80 -61 31 -99 143 -121 350 -14 143 -6
424 16 535 26 134 94 230 161 230 13 0 39 -14 58 -31z"/>
<path d="M4915 28963 c-37 -120 -106 -286 -170 -413 -92 -180 -87 -191 -82
168 4 286 3 313 -12 306 -9 -3 -105 -9 -214 -12 l-198 -5 8 -251 c9 -276 11
-1292 3 -1506 l-5 -135 210 -3 210 -2 -3 327 -3 328 29 18 c17 9 32 17 35 17
14 0 243 -578 267 -672 l12 -46 76 36 c90 41 301 122 318 122 29 0 21 26 -52
157 -107 195 -241 473 -308 641 l-58 142 61 98 c68 111 140 251 235 460 64
141 64 143 43 152 -191 78 -280 116 -319 136 -26 13 -49 24 -51 24 -3 0 -17
-39 -32 -87z m-432 -220 c4 -38 7 -236 7 -441 0 -293 3 -373 12 -370 20 7 141
161 227 288 106 157 203 323 270 460 44 90 60 115 74 112 23 -5 22 -8 -19
-104 -46 -108 -96 -200 -207 -377 -82 -131 -89 -146 -76 -165 75 -117 279
-518 359 -704 36 -86 41 -105 29 -113 -23 -14 -24 -12 -59 64 -145 320 -309
645 -355 702 l-21 27 -49 -64 c-28 -34 -80 -98 -117 -140 l-68 -77 0 -260 0
-261 -22 0 -23 0 0 745 c0 677 1 745 16 745 13 0 18 -15 22 -67z"/>
<path d="M11690 29005 c-47 -12 -138 -31 -202 -41 -65 -10 -118 -23 -118 -29
0 -5 25 -64 56 -130 168 -363 256 -573 334 -800 47 -136 48 -144 55 -295 6
-125 -2 -391 -18 -585 -2 -28 0 -30 28 -28 17 1 112 5 213 9 121 5 182 11 182
18 0 6 -7 92 -15 191 -17 208 -19 470 -5 543 10 56 187 422 383 792 l124 235
-86 26 c-100 30 -253 85 -294 106 -16 8 -31 12 -33 10 -3 -3 -13 -40 -24 -83
-10 -44 -39 -136 -63 -206 -46 -131 -176 -428 -187 -428 -7 0 -106 279 -149
421 -16 52 -39 141 -52 197 -13 56 -28 101 -34 101 -5 -1 -48 -12 -95 -24z
m25 -312 c82 -239 265 -678 281 -678 20 0 332 595 382 727 17 45 24 53 43 50
13 -1 25 -4 27 -6 15 -15 -196 -436 -355 -709 l-74 -127 3 -335 c3 -335 3
-335 -18 -335 -20 0 -21 7 -27 107 -4 58 -7 206 -7 328 l0 222 -66 149 c-137
311 -290 716 -278 735 3 5 13 9 23 9 15 0 28 -29 66 -137z"/>
<path d="M13600 29013 c-36 -1 -83 -5 -106 -8 l-41 -6 -7 -837 c-3 -460 -9
-890 -12 -956 l-7 -118 34 8 c19 4 245 7 502 7 l469 -1 -6 22 c-3 11 -6 104
-6 207 l0 185 -295 -4 -295 -5 0 134 c0 74 3 151 7 172 l6 38 247 -3 247 -3 7
130 c3 72 9 164 12 205 l6 75 -261 -3 -261 -3 0 185 0 186 123 2 c152 3 369
-1 423 -8 l41 -5 6 153 c4 84 10 177 13 206 l7 52 -394 -2 c-217 -1 -423 -3
-459 -5z m680 -198 l0 -25 -310 0 -310 0 6 -342 c3 -189 7 -349 10 -355 2 -10
66 -13 274 -13 263 0 270 0 270 -20 0 -20 -7 -20 -275 -20 l-275 0 0 -344 0
-343 38 -7 c20 -3 162 -6 315 -6 l277 0 0 -22 0 -23 -343 0 -342 0 0 700 c0
385 -3 733 -8 773 l-7 72 340 0 340 0 0 -25z"/>
<path d="M14612 28905 c1 -60 -1 -166 -6 -234 l-8 -124 23 6 c13 4 102 10 197
13 l172 7 0 -449 c-1 -247 -5 -577 -10 -734 -4 -157 -7 -287 -5 -288 2 -2 52
1 112 7 59 6 156 13 215 17 l107 6 -1 646 c0 356 3 682 7 725 l8 79 116 -6
c64 -4 146 -9 184 -12 l67 -6 0 228 0 229 -591 0 -591 0 4 -110z m1045 -119
c3 -3 2 -14 -2 -26 -7 -22 -9 -22 -210 -19 -112 2 -206 2 -209 -1 -3 -3 -5
-233 -6 -510 -1 -278 -4 -596 -7 -708 -6 -197 -7 -203 -26 -200 -20 3 -21 9
-19 323 1 176 5 497 9 713 l6 392 -212 0 -211 0 0 27 0 26 442 -6 c242 -4 443
-9 445 -11z"/>
<path d="M7072 28993 l-34 -4 8 -217 c4 -119 8 -542 8 -940 l1 -723 205 7
c113 4 208 9 211 13 3 3 2 58 -3 121 -4 63 -7 159 -6 213 l3 98 80 32 c179 72
352 202 402 301 66 131 109 331 100 476 -7 119 -26 193 -77 295 -49 100 -120
180 -211 241 -123 81 -139 85 -413 89 -133 2 -256 1 -274 -2z m463 -176 c153
-42 263 -144 316 -292 29 -83 37 -254 15 -355 -48 -227 -218 -401 -446 -454
-36 -9 -77 -16 -92 -16 l-28 0 0 -159 c0 -197 -4 -221 -38 -221 -23 0 -24 2
-18 40 8 52 8 1223 0 1361 l-7 108 34 4 c55 8 210 -2 264 -16z"/>
<path d="M7293 28708 c4 -46 7 -281 7 -522 l0 -439 48 6 c71 8 184 50 247 92
150 100 235 270 235 469 -1 299 -178 475 -479 476 l-64 0 6 -82z m255 -122
c64 -68 88 -119 103 -221 22 -148 -26 -290 -136 -400 l-60 -60 -3 365 c-1 201
0 371 3 378 7 19 32 3 93 -62z"/>
</g>
</svg>
