<?xml version="1.0" encoding="UTF-8" standalone="no"?>
<!DOCTYPE svg PUBLIC "-//W3C//DTD SVG 1.1//EN" "http://www.w3.org/Graphics/SVG/1.1/DTD/svg11.dtd">
<svg version="1.1" xmlns="http://www.w3.org/2000/svg" xmlns:xlink="http://www.w3.org/1999/xlink" preserveAspectRatio="xMidYMid meet" viewBox="0 0 640 640" width="640" height="640"><defs><path d="M362.19 236.77C362.19 250.33 365.14 260.52 370.81 266.69C374.98 271.14 379.48 273.15 385.37 273.15C393.9 273.15 400.09 269.68 403.58 262.92C407.49 255.34 408.58 241.9 406.1 232.23C404.42 225.59 400.3 220.16 395.55 218.36C390.96 216.6 382.8 216.82 380.19 218.79C378.64 219.94 378.72 219.39 380.53 215.66C383.64 209.33 387.51 205.6 394.07 202.69C397.69 201.06 397.69 201.11 395.97 197.6C393.57 192.8 388.82 187.11 387.22 187.11C386.92 187.11 385.41 187.79 383.81 188.61C370.52 195.37 362.19 213.86 362.19 236.77ZM384.86 199.91C380.28 203.08 376.32 209.28 373.63 217.63C371.99 222.6 370.6 230 370.6 233.6C370.6 233.71 370.6 234.25 370.6 235.22C371.49 233.68 371.98 232.83 372.08 232.66C374.73 228.16 377.96 225.76 383.1 224.52C392.18 222.34 399.08 228.16 400.51 239.12C401.35 245.8 400.34 254.23 398.11 258.77C396.72 261.59 395.67 262.71 393.11 264.08C391.21 265.1 390.54 265.23 386.8 265.23C382.72 265.23 382.47 265.19 380.11 263.73C375.48 260.91 372.24 255.86 370.31 248.41C369.3 244.6 369.17 243.53 369.17 235.48C369.13 228.5 369.3 225.94 369.89 223.07C372.24 211.89 376.83 203.38 382.93 198.8C385.45 196.91 386.71 196.61 386.88 197.81C386.97 198.15 386.08 199.1 384.86 199.91Z" id="fohCSQrVj"></path><path d="M372.54 235.05C370.73 237.84 370.6 239.63 371.82 245.54C373.97 256.07 378.93 262.49 385.49 263.18C392.64 263.95 397.23 259.32 398.36 250.29C399.25 243.4 398.62 236.29 396.72 232.57C395.59 230.34 392.14 227.22 390.04 226.58C387.64 225.85 384.61 225.98 382.04 226.92C377.92 228.42 375.4 230.6 372.54 235.05ZM391.63 240.32C392.18 244.3 391.63 249.31 390.33 252.05C388.73 255.43 384.86 256.63 381.92 254.62C378.39 252.26 376.03 243.01 377.8 238.26C378.68 235.82 381.2 233.08 383.05 232.48C384.69 231.97 387.39 232.36 388.69 233.26C390.2 234.37 391.13 236.55 391.63 240.32Z" id="c5UmdSF3L3"></path><path d="M67.87 213.22C65.56 219.9 65.05 223.32 65.1 232.06C65.14 239.42 65.22 240.32 66.4 244.9C68.46 252.82 70.94 258.25 75.06 263.65C78.81 268.61 86.17 274.35 88.14 273.84C89.41 273.54 97.27 266.99 100.76 263.35C103.33 260.74 103.58 260.31 102.86 260.05C97.31 258.08 91.17 253.97 88.4 250.38C84.15 244.94 82.42 239.5 82.47 231.41C82.47 225.16 83.39 221.14 85.96 216.09C88.14 211.77 93.44 206.16 97.77 203.63C99.71 202.48 100.55 201.75 100.38 201.36C99.29 198.41 89.74 187.54 88.27 187.54C87.93 187.54 86.42 188.44 84.95 189.55C77 195.63 71.19 203.63 67.87 213.22ZM86.04 201.36C80.99 206.67 78.39 211.64 76.11 220.16C74.77 225.29 74.73 236.12 76.11 241.6C78.05 249.48 81.33 255.34 86.5 260.22C88.94 262.49 89.53 263.26 89.15 263.65C88.35 264.46 87.89 264.29 85.2 261.85C76.58 254.02 71.78 239.93 73.13 226.36C73.93 218.62 76.7 210.35 80.45 204.75C81.88 202.65 87.47 196.53 87.98 196.53C88.14 196.53 88.52 196.83 88.82 197.17C89.28 197.73 88.82 198.37 86.04 201.36Z" id="b3wJVb41dx"></path><path d="M168.85 215.79C167.8 221.87 167.8 242.16 168.89 248.11C171.46 262.32 175.96 268.78 185.34 271.7C187.19 272.29 189.25 272.47 193.12 272.47C200.98 272.47 205.57 270.8 209.99 266.34C214.19 262.06 216.97 254.53 218.4 243.61C219.11 238.22 219.11 220.67 218.4 215.15C216.38 199.52 210.99 190.96 201.7 188.65C198.21 187.79 194.68 187.58 191.31 188.01C178.74 189.68 171.88 198.15 168.85 215.79ZM210.32 213.65C211.54 218.74 212.21 227.73 211.88 234.54C211.12 250.42 207.42 259.32 200.14 262.71C197.87 263.78 197.03 263.95 193.54 263.95C189.84 263.95 189.29 263.82 186.73 262.53C183.36 260.87 181.6 258.85 179.49 254.32C175.29 245.33 174.15 224.52 177.18 212.45C178.74 206.29 182.1 200.94 186.05 198.41C189.97 195.89 195.43 195.59 199.77 197.6C204.48 199.82 208.47 205.86 210.32 213.65Z" id="a2B5BVSe6y"></path><path d="M177.98 219.34C177.26 224.91 177.64 239.08 178.61 243.96C180.92 256.03 185.59 261.55 193.37 261.59C204.14 261.64 209.14 252.86 209.82 232.91C210.28 218.74 207.76 208.21 202.54 202.52C199.47 199.18 194.59 197.68 190.6 198.8C183.78 200.72 179.37 207.87 177.98 219.34ZM201.24 230.77C201.24 241.43 200.56 246.57 198.59 250.68C196.82 254.44 194.34 255.64 191.44 254.1C188.87 252.77 187.27 247.98 186.35 239.12C185.76 233 186.1 220.97 187.02 216.22C188.12 210.48 190.98 206.37 193.79 206.37C194.34 206.37 195.43 206.97 196.23 207.7C199.89 210.95 201.24 217.12 201.24 230.77Z" id="g3lEp5TSxn"></path><path d="M280.31 215.79C279.25 221.87 279.25 242.16 280.35 248.11C282.91 262.32 287.41 268.78 296.79 271.7C298.64 272.29 300.7 272.47 304.57 272.47C312.44 272.47 317.02 270.8 321.44 266.34C325.64 262.06 328.42 254.53 329.85 243.61C330.57 238.22 330.57 220.67 329.85 215.15C327.83 199.52 322.45 190.96 313.15 188.65C309.66 187.79 306.13 187.58 302.77 188.01C290.19 189.68 283.33 198.15 280.31 215.79ZM321.78 213.65C323 218.74 323.67 227.73 323.33 234.54C322.57 250.42 318.87 259.32 311.6 262.71C309.33 263.78 308.49 263.95 304.99 263.95C301.29 263.95 300.75 263.82 298.18 262.53C294.82 260.87 293.05 258.85 290.95 254.32C286.74 245.33 285.61 224.52 288.63 212.45C290.19 206.29 293.55 200.94 297.51 198.41C301.42 195.89 306.89 195.59 311.22 197.6C315.93 199.82 319.92 205.86 321.78 213.65Z" id="a1ffVyECVi"></path><path d="M289.43 219.34C288.72 224.91 289.1 239.08 290.06 243.96C292.38 256.03 297.05 261.55 304.83 261.59C315.59 261.64 320.6 252.86 321.27 232.91C321.73 218.74 319.21 208.21 313.99 202.52C310.92 199.18 306.05 197.68 302.05 198.8C295.24 200.72 290.82 207.87 289.43 219.34ZM312.69 230.77C312.69 241.43 312.02 246.57 310.04 250.68C308.27 254.44 305.79 255.64 302.89 254.1C300.33 252.77 298.73 247.98 297.8 239.12C297.21 233 297.55 220.97 298.48 216.22C299.57 210.48 302.43 206.37 305.25 206.37C305.79 206.37 306.89 206.97 307.69 207.7C311.35 210.95 312.69 217.12 312.69 230.77Z" id="a1arwOxapq"></path><path d="M133.61 209.37C129.74 217.07 129.95 217.55 130.16 202.18C130.33 189.93 130.29 188.78 129.65 189.08C129.28 189.21 125.24 189.46 120.65 189.59C120.1 189.61 117.32 189.68 112.33 189.81C112.53 196.25 112.64 199.83 112.66 200.55C113.04 212.37 113.13 255.86 112.79 265.02C112.78 265.4 112.71 267.33 112.58 270.8L121.41 270.92L130.24 271.01L130.12 257.01L129.99 242.97C130.72 242.51 131.13 242.25 131.21 242.2C131.93 241.82 132.56 241.47 132.68 241.47C133.27 241.47 142.9 266.22 143.91 270.24C143.95 270.37 144.11 271.03 144.42 272.21C146.33 271.28 147.4 270.77 147.61 270.67C151.4 268.91 160.27 265.45 160.99 265.45C162.21 265.45 161.87 264.33 158.8 258.72C154.3 250.38 148.66 238.48 145.85 231.29C145.68 230.88 144.87 228.85 143.41 225.21C144.95 222.69 145.8 221.29 145.97 221.01C148.83 216.26 151.86 210.27 155.86 201.32C158.55 195.29 158.55 195.2 157.67 194.81C149.63 191.48 145.89 189.85 144.25 188.99C143.16 188.44 142.19 187.97 142.1 187.97C141.98 187.97 141.39 189.64 140.76 191.69C139.2 196.83 136.3 203.93 133.61 209.37ZM122.88 219.99C122.88 232.53 123.01 235.95 123.39 235.82C124.23 235.52 129.32 228.93 132.94 223.5C137.39 216.77 141.47 209.67 144.29 203.8C146.14 199.95 146.81 198.88 147.4 199.01C148.37 199.22 148.33 199.35 146.6 203.46C144.67 208.08 142.57 212.02 137.9 219.6C134.45 225.21 134.15 225.85 134.7 226.66C137.86 231.67 146.44 248.84 149.8 256.8C151.31 260.48 151.52 261.29 151.02 261.64C150.05 262.23 150.01 262.15 148.54 258.9C142.44 245.2 135.54 231.29 133.61 228.85C133.55 228.77 133.25 228.38 132.72 227.69C131.49 229.33 130.8 230.25 130.66 230.43C129.49 231.89 127.3 234.62 125.74 236.42C125.55 236.64 124.6 237.74 122.88 239.72L122.88 250.85L122.88 262.02L121.96 262.02L120.99 262.02C120.99 242.89 120.99 232.26 120.99 230.13C120.99 201.15 121.03 198.24 121.66 198.24C122.21 198.24 122.42 198.88 122.59 201.11C122.76 202.73 122.88 211.21 122.88 219.99Z" id="bzUgrHpiE"></path><path d="M417.2 191.65C414.47 192.08 412.24 192.63 412.24 192.89C412.24 193.1 413.29 195.63 414.6 198.45C421.66 213.99 425.36 222.98 428.64 232.7C430.62 238.52 430.66 238.86 430.96 245.33C431.21 250.68 430.87 262.06 430.2 270.37C430.12 271.57 430.2 271.65 431.38 271.57C432.09 271.52 436.09 271.35 440.34 271.18C445.43 270.97 447.99 270.71 447.99 270.41C447.99 270.15 447.7 266.47 447.36 262.23C446.65 253.33 446.56 242.12 447.15 238.99C447.57 236.59 455.01 220.93 463.26 205.09C463.61 204.42 465.34 201.06 468.47 195.03C466.3 194.36 465.1 193.99 464.86 193.92C460.65 192.63 454.22 190.28 452.49 189.38C451.82 189.04 451.19 188.86 451.1 188.95C450.98 189.08 450.56 190.66 450.09 192.5C449.67 194.39 448.45 198.33 447.44 201.32C445.51 206.93 440.04 219.64 439.58 219.64C439.29 219.64 435.12 207.7 433.31 201.62C432.64 199.4 431.67 195.59 431.13 193.19C430.58 190.79 429.95 188.86 429.7 188.86C429.49 188.91 427.68 189.38 425.7 189.89C423.72 190.41 419.9 191.22 417.2 191.65ZM438.57 232.27C439.41 232.27 452.53 206.8 454.64 201.15C455.35 199.22 455.65 198.88 456.44 199.01C456.99 199.05 457.5 199.18 457.58 199.27C458.21 199.91 449.34 217.93 442.65 229.62C442.44 229.98 441.41 231.79 439.54 235.05C439.61 243.66 439.66 248.44 439.66 249.39C439.79 263.73 439.79 263.73 438.91 263.73C438.07 263.73 438.02 263.43 437.77 259.15C437.6 256.67 437.48 250.33 437.48 245.11C437.48 244.48 437.48 241.31 437.48 235.61C435.81 231.78 434.89 229.66 434.7 229.23C428.94 215.92 422.5 198.58 423.01 197.77C423.14 197.55 423.56 197.38 423.98 197.38C424.61 197.38 425.15 198.62 426.75 203.25C430.2 213.48 437.9 232.27 438.57 232.27Z" id="b4Df4DuaQc"></path><path d="M501.57 189.89C501.46 189.91 500.88 189.99 499.85 190.15C499.67 211.65 499.57 223.59 499.55 225.98C499.43 245.67 499.18 264.08 499.05 266.9C499.03 267.24 498.93 268.92 498.76 271.95C499.61 271.75 500.09 271.63 500.19 271.61C500.98 271.44 510.49 271.31 521.3 271.31C522.61 271.31 529.19 271.33 541.02 271.35C540.87 270.79 540.79 270.47 540.77 270.41C540.64 269.94 540.52 265.96 540.52 261.55C540.52 261.02 540.52 258.38 540.52 253.63L528.11 253.8L515.7 254.02C515.7 250.57 515.7 248.66 515.7 248.28C515.7 245.11 515.83 241.82 516 240.92C516.02 240.81 516.1 240.27 516.25 239.29L526.64 239.42L537.03 239.55C537.2 236.21 537.3 234.35 537.32 233.98C537.45 230.9 537.7 226.96 537.83 225.21C537.84 224.99 537.93 223.92 538.08 222L527.1 222.13L516.13 222.25L516.13 214.33L516.13 206.37C519.23 206.32 520.95 206.29 521.3 206.29C527.69 206.16 536.82 206.33 539.09 206.63C539.2 206.64 539.78 206.72 540.81 206.84C540.96 202.91 541.05 200.73 541.07 200.29C541.23 196.7 541.49 192.72 541.61 191.48C541.63 191.33 541.73 190.59 541.91 189.25C531.96 189.3 526.44 189.33 525.34 189.34C516.21 189.38 507.55 189.46 506.03 189.55C504.52 189.59 502.54 189.76 501.57 189.89ZM534.63 199.1L521.59 199.1L508.55 199.1C508.71 207.88 508.79 212.76 508.81 213.74C508.93 221.83 509.1 228.67 509.23 228.93C509.31 229.36 512 229.49 520.75 229.49C531.81 229.49 532.11 229.49 532.11 230.34C532.11 231.2 531.81 231.2 520.54 231.2C519.77 231.2 515.91 231.2 508.98 231.2L508.98 245.93L508.98 260.61C509.93 260.79 510.47 260.89 510.57 260.91C511.41 261.04 517.39 261.16 523.82 261.16C524.6 261.16 528.48 261.16 535.47 261.16L535.47 262.11L535.47 263.09L521.05 263.09L506.66 263.09C506.66 245.11 506.66 235.12 506.66 233.13C506.66 216.65 506.54 201.75 506.33 200.04C506.31 199.83 506.21 198.8 506.03 196.96L520.33 196.96L534.63 196.96L534.63 198.03L534.63 199.1Z" id="chKr9yEHw"></path><path d="M548.34 204.19C548.32 204.54 548.21 206.31 548.01 209.5C548.59 209.34 548.91 209.26 548.97 209.24C549.52 209.07 553.26 208.81 557.26 208.68C557.74 208.66 560.15 208.56 564.49 208.38C564.49 219.92 564.49 226.32 564.49 227.6C564.45 238.18 564.28 252.3 564.07 259.02C563.9 265.75 563.78 271.31 563.86 271.35C563.95 271.44 566.05 271.31 568.57 271.05C571.05 270.8 575.13 270.5 577.61 270.33C577.91 270.31 579.41 270.22 582.11 270.07C582.09 253.48 582.07 244.26 582.07 242.42C582.07 227.18 582.2 213.22 582.37 211.38C582.39 211.16 582.5 210.03 582.7 208C585.63 208.15 587.26 208.24 587.58 208.26C590.27 208.43 593.72 208.64 595.32 208.77C595.51 208.79 596.45 208.87 598.14 209.03L598.14 199.27L598.14 189.46L573.28 189.46L548.43 189.46L548.59 194.17C548.57 198.91 548.48 202.25 548.34 204.19ZM592.46 200.38C592.17 201.32 592.08 201.32 583.63 201.19C578.92 201.11 574.96 201.11 574.84 201.24C574.71 201.36 574.63 211.21 574.59 223.07C574.54 234.97 574.42 248.58 574.29 253.37C574.04 261.81 574 262.06 573.2 261.94C572.36 261.81 572.31 261.55 572.4 248.11C572.44 240.57 572.61 226.83 572.78 217.59C572.79 216.47 572.88 210.88 573.03 200.81L564.11 200.81L555.24 200.81L555.24 199.65L555.24 198.54C566.39 198.69 572.59 198.78 573.83 198.8C584.01 198.97 592.46 199.18 592.54 199.27C592.67 199.4 592.63 199.87 592.46 200.38Z" id="a5z2vUuzz"></path><path d="M230.05 190.58C230.25 196.15 230.36 199.25 230.38 199.87C230.55 204.96 230.72 223.07 230.72 240.1C230.72 242.17 230.74 252.48 230.76 271.05C235.94 270.87 238.81 270.77 239.38 270.75C244.14 270.58 248.13 270.37 248.26 270.2C248.38 270.07 248.34 267.71 248.13 265.02C247.96 262.32 247.84 258.21 247.88 255.9C247.89 255.62 247.93 254.22 248.01 251.7C250.02 250.88 251.15 250.43 251.37 250.33C258.9 247.25 266.17 241.69 268.28 237.45C271.05 231.84 272.86 223.28 272.48 217.07C272.19 211.98 271.39 208.81 269.25 204.45C267.18 200.17 264.2 196.74 260.37 194.13C255.2 190.66 254.52 190.49 243 190.32C237.41 190.23 232.23 190.28 231.48 190.41C231.29 190.43 230.81 190.49 230.05 190.58ZM264.24 210.44C265.46 213.99 265.8 221.31 264.87 225.64C262.85 235.35 255.7 242.8 246.11 245.07C244.6 245.45 242.87 245.75 242.24 245.75C242.17 245.75 241.77 245.75 241.07 245.75C241.07 249.84 241.07 252.11 241.07 252.56C241.07 260.99 240.9 262.02 239.47 262.02C238.5 262.02 238.46 261.94 238.71 260.31C239.05 258.08 239.05 207.96 238.71 202.05C238.69 201.74 238.59 200.2 238.42 197.43C239.27 197.32 239.75 197.27 239.85 197.25C242.16 196.91 248.68 197.34 250.95 197.94C257.38 199.74 262.01 204.1 264.24 210.44Z" id="a2mdpMefZE"></path><path d="M241.07 224.95C241.07 226.2 241.07 232.47 241.07 243.74C242.28 243.59 242.95 243.5 243.08 243.49C246.07 243.14 250.82 241.35 253.47 239.55C259.78 235.27 263.36 227.99 263.36 219.47C263.31 206.67 255.87 199.14 243.21 199.1C243.03 199.1 242.13 199.1 240.52 199.1L240.77 202.61C240.97 210.62 241.07 218.07 241.07 224.95ZM255.83 217.29C256.75 223.62 254.74 229.7 250.11 234.41C249.94 234.58 249.1 235.44 247.59 236.98C247.51 227.6 247.47 222.4 247.46 221.35C247.42 212.75 247.46 205.47 247.59 205.17C247.88 204.36 248.93 205.05 251.5 207.83C254.19 210.74 255.2 212.92 255.83 217.29Z" id="b11keXsz23"></path></defs><g><g><g><use xlink:href="#fohCSQrVj" opacity="1" fill="#000000" fill-opacity="1"></use><g><use xlink:href="#fohCSQrVj" opacity="1" fill-opacity="0" stroke="#000000" stroke-width="1" stroke-opacity="0"></use></g></g><g><use xlink:href="#c5UmdSF3L3" opacity="1" fill="#000000" fill-opacity="1"></use><g><use xlink:href="#c5UmdSF3L3" opacity="1" fill-opacity="0" stroke="#000000" stroke-width="1" stroke-opacity="0"></use></g></g><g><use xlink:href="#b3wJVb41dx" opacity="1" fill="#000000" fill-opacity="1"></use><g><use xlink:href="#b3wJVb41dx" opacity="1" fill-opacity="0" stroke="#000000" stroke-width="1" stroke-opacity="0"></use></g></g><g><use xlink:href="#a2B5BVSe6y" opacity="1" fill="#000000" fill-opacity="1"></use><g><use xlink:href="#a2B5BVSe6y" opacity="1" fill-opacity="0" stroke="#000000" stroke-width="1" stroke-opacity="0"></use></g></g><g><use xlink:href="#g3lEp5TSxn" opacity="1" fill="#000000" fill-opacity="1"></use><g><use xlink:href="#g3lEp5TSxn" opacity="1" fill-opacity="0" stroke="#000000" stroke-width="1" stroke-opacity="0"></use></g></g><g><use xlink:href="#a1ffVyECVi" opacity="1" fill="#000000" fill-opacity="1"></use><g><use xlink:href="#a1ffVyECVi" opacity="1" fill-opacity="0" stroke="#000000" stroke-width="1" stroke-opacity="0"></use></g></g><g><use xlink:href="#a1arwOxapq" opacity="1" fill="#000000" fill-opacity="1"></use><g><use xlink:href="#a1arwOxapq" opacity="1" fill-opacity="0" stroke="#000000" stroke-width="1" stroke-opacity="0"></use></g></g><g><use xlink:href="#bzUgrHpiE" opacity="1" fill="#000000" fill-opacity="1"></use><g><use xlink:href="#bzUgrHpiE" opacity="1" fill-opacity="0" stroke="#000000" stroke-width="1" stroke-opacity="0"></use></g></g><g><use xlink:href="#b4Df4DuaQc" opacity="1" fill="#000000" fill-opacity="1"></use><g><use xlink:href="#b4Df4DuaQc" opacity="1" fill-opacity="0" stroke="#000000" stroke-width="1" stroke-opacity="0"></use></g></g><g><use xlink:href="#chKr9yEHw" opacity="1" fill="#000000" fill-opacity="1"></use><g><use xlink:href="#chKr9yEHw" opacity="1" fill-opacity="0" stroke="#000000" stroke-width="1" stroke-opacity="0"></use></g></g><g><use xlink:href="#a5z2vUuzz" opacity="1" fill="#000000" fill-opacity="1"></use><g><use xlink:href="#a5z2vUuzz" opacity="1" fill-opacity="0" stroke="#000000" stroke-width="1" stroke-opacity="0"></use></g></g><g><use xlink:href="#a2mdpMefZE" opacity="1" fill="#000000" fill-opacity="1"></use><g><use xlink:href="#a2mdpMefZE" opacity="1" fill-opacity="0" stroke="#000000" stroke-width="1" stroke-opacity="0"></use></g></g><g><use xlink:href="#b11keXsz23" opacity="1" fill="#000000" fill-opacity="1"></use><g><use xlink:href="#b11keXsz23" opacity="1" fill-opacity="0" stroke="#000000" stroke-width="1" stroke-opacity="0"></use></g></g></g></g></svg>