<svg version="1.1" xmlns="http://www.w3.org/2000/svg" xmlns:xlink="http://www.w3.org/1999/xlink" width="749.24925" height="301.80181" viewBox="0,0,749.24925,301.80181"><defs><linearGradient x1="493.21193" y1="290.65336" x2="493.21193" y2="324.25336" gradientUnits="userSpaceOnUse" id="color-1"><stop offset="0" stop-color="#2d363d"/><stop offset="1" stop-color="#283135"/></linearGradient><linearGradient x1="614.3671" y1="265.83183" x2="614.3671" y2="567.63364" gradientUnits="userSpaceOnUse" id="color-2"><stop offset="0" stop-color="#2e393f"/><stop offset="1" stop-color="#232829"/></linearGradient></defs><g transform="translate(-239.74248,-265.83183)"><g data-paper-data="{&quot;isPaintingLayer&quot;:true}" fill-rule="nonzero" stroke-linejoin="miter" stroke-miterlimit="10" stroke-dasharray="" stroke-dashoffset="0" style="mix-blend-mode: normal"><path d="M728.38274,404.40336v-14.8h27.2v14.8z" fill="#262c2d" stroke="none" stroke-width="0" stroke-linecap="butt"/><path d="M729.18274,391.20336v-6.3h10.4v6.3z" fill="#1f2627" stroke="none" stroke-width="0" stroke-linecap="butt"/><path d="M703.38274,391.65336v-5h40.2v5z" fill="#232a2b" stroke="none" stroke-width="0" stroke-linecap="butt"/><path d="M542.18274,385.05336v-1.8h195.8v1.8z" fill="#1a2122" stroke="none" stroke-width="0" stroke-linecap="butt"/><path d="M246.32274,324.25336v-33.6h493.77838v33.6z" fill="url(#color-1)" stroke="none" stroke-width="0" stroke-linecap="butt"/><path d="M264.56345,541.79336v-38.5h461.5v38.5z" fill="#1c2527" stroke="none" stroke-width="0" stroke-linecap="butt"/><path d="M239.74248,567.63364v-301.80181h749.24925v301.80181z" fill="url(#color-2)" stroke="none" stroke-width="0" stroke-linecap="butt"/><path d="M250.32274,426.25336v-33.6h77.77838v33.6z" fill="#262c2d" stroke="none" stroke-width="0" stroke-linecap="butt"/><path d="M267.75176,412.19412c0.38641,0 0.72098,0.14608 1.00372,0.43824c0.29216,0.28274 0.43824,0.61731 0.43824,1.00372v7.74703c0,0.44296 -0.12252,0.83879 -0.36756,1.1875c-0.24504,0.33929 -0.57019,0.56076 -0.97544,0.66443c-1.56448,0.40526 -3.22793,0.60789 -4.99033,0.60789c-2.9499,0 -5.29191,-0.82936 -7.02604,-2.48809c-1.73413,-1.66816 -2.60119,-4.00546 -2.60119,-7.01191c0,-3.00644 0.83407,-5.33904 2.50223,-6.99777c1.67758,-1.66816 4.05258,-2.50223 7.125,-2.50223c1.25347,0 2.55407,0.10838 3.90179,0.32515c0.40526,0.06597 0.73984,0.2686 1.00372,0.60789c0.27332,0.33929 0.40997,0.72098 0.40997,1.14509v1.24405c0,0.34871 -0.14137,0.63616 -0.42411,0.86235c-0.27332,0.21677 -0.58433,0.29216 -0.93304,0.22619c-1.1875,-0.27332 -2.29489,-0.40997 -3.32217,-0.40997c-1.75297,0 -3.04415,0.44296 -3.87351,1.32887c-0.82936,0.88591 -1.24404,2.27604 -1.24404,4.17039c0,1.90377 0.39583,3.29861 1.1875,4.18453c0.79167,0.87649 1.97445,1.31473 3.54836,1.31473c0.32043,0 0.66915,-0.04241 1.04613,-0.12723c0.15079,-0.03769 0.22619,-0.13195 0.22619,-0.28274v-3.20907c0,-0.16022 -0.0754,-0.24033 -0.22619,-0.24033h-1.62574c-0.38641,0 -0.7257,-0.14137 -1.01786,-0.4241c-0.28274,-0.29216 -0.4241,-0.63145 -0.4241,-1.01786v-0.90476c0,-0.38641 0.14137,-0.72098 0.4241,-1.00372c0.29216,-0.29216 0.63145,-0.43824 1.01786,-0.43824zM283.74056,410.41287c0.38641,0 0.72098,0.14608 1.00372,0.43824c0.29216,0.28274 0.43824,0.61731 0.43824,1.00372v10.29166c0,0.38641 -0.14608,0.7257 -0.43824,1.01786c-0.28274,0.28274 -0.61731,0.4241 -1.00372,0.4241h-1.7247c-0.40526,0 -0.75397,-0.13665 -1.04613,-0.40997c-0.28274,-0.28274 -0.43353,-0.62674 -0.45238,-1.032v-0.19791c0,-0.01885 -0.00943,-0.02828 -0.02828,-0.02828c-0.02828,0 -0.04241,0.00943 -0.04241,0.02828c-1.04613,1.2629 -2.3373,1.89434 -3.87351,1.89434c-1.48909,0 -2.55878,-0.41469 -3.20908,-1.24405c-0.6503,-0.82936 -0.97544,-2.27132 -0.97544,-4.32589v-6.41816c0,-0.38641 0.14137,-0.72098 0.4241,-1.00372c0.29216,-0.29216 0.63145,-0.43824 1.01786,-0.43824h1.79539c0.39583,0 0.73512,0.14608 1.01786,0.43824c0.28274,0.28274 0.4241,0.61731 0.4241,1.00372v6.16369c0,0.77281 0.10368,1.30531 0.31101,1.59747c0.21677,0.28274 0.57961,0.42411 1.08854,0.42411c0.47123,0 0.90476,-0.18378 1.30059,-0.55134c0.39583,-0.37698 0.59375,-0.78224 0.59375,-1.21578v-6.41816c0,-0.38641 0.14137,-0.72098 0.4241,-1.00372c0.29216,-0.29216 0.63616,-0.43824 1.03199,-0.43824zM295.99438,415.72835c0.15079,0 0.22619,-0.0754 0.22619,-0.22619c-0.00943,-0.77281 -0.17436,-1.32887 -0.49479,-1.66816c-0.31101,-0.33929 -0.77753,-0.50892 -1.39955,-0.50892c-0.65972,0 -1.15451,0.16493 -1.48437,0.49479c-0.32986,0.32986 -0.53721,0.90005 -0.62203,1.71056c0,0.13194 0.07069,0.19792 0.21206,0.19792zM294.19899,410.15841c4.28819,0 6.44171,2.26191 6.46056,6.78572c0,0.41469 -0.15079,0.76339 -0.45238,1.04613c-0.30159,0.27332 -0.66444,0.40997 -1.08854,0.40997h-6.64434c-0.15079,0 -0.20734,0.0754 -0.16965,0.22619c0.15079,0.70684 0.48065,1.20635 0.98958,1.49851c0.51835,0.28274 1.32887,0.4241 2.43155,0.4241c0.688,0 1.5315,-0.10367 2.53051,-0.31101c0.34871,-0.08482 0.66443,-0.00942 0.94717,0.22619c0.29216,0.22619 0.43824,0.52306 0.43824,0.89063v0.40997c0,0.4241 -0.13195,0.81052 -0.39583,1.15922c-0.25446,0.33929 -0.58432,0.54192 -0.98958,0.60789c-1.03671,0.20734 -2.13468,0.31101 -3.2939,0.31101c-2.40328,0 -4.2505,-0.58432 -5.54167,-1.75297c-1.29117,-1.17807 -1.93676,-2.8745 -1.93676,-5.08929c0,-2.19594 0.5749,-3.88294 1.72471,-5.06101c1.14981,-1.1875 2.81324,-1.78125 4.99032,-1.78125zM308.79049,415.10633c1.92262,0.25446 3.28918,0.73983 4.0997,1.4561c0.81052,0.71627 1.21578,1.74826 1.21578,3.09598c0,1.33829 -0.48065,2.37029 -1.44196,3.09599c-0.96131,0.72569 -2.37971,1.08854 -4.25521,1.08854c-1.38542,0 -2.77555,-0.13665 -4.17039,-0.40997c-0.40526,-0.08482 -0.73983,-0.29216 -1.00372,-0.62203c-0.26389,-0.33929 -0.39583,-0.7304 -0.39583,-1.17336v-0.66443c0,-0.34871 0.14137,-0.62203 0.4241,-0.81994c0.29216,-0.20734 0.60789,-0.2686 0.94718,-0.18378c1.2629,0.30159 2.4504,0.45238 3.5625,0.45238c0.93304,0 1.39955,-0.2686 1.39955,-0.8058c0,-0.25446 -0.0754,-0.43825 -0.22619,-0.55134c-0.15079,-0.12252 -0.45709,-0.21677 -0.9189,-0.28274c-1.8755,-0.31101 -3.23264,-0.83408 -4.07143,-1.5692c-0.82936,-0.74454 -1.24405,-1.74355 -1.24405,-2.99702c0,-1.28175 0.49479,-2.27605 1.48438,-2.98289c0.98958,-0.71627 2.47868,-1.07441 4.46726,-1.07441c1.31944,0 2.53522,0.08482 3.64732,0.25447c0.4241,0.06597 0.76811,0.25918 1.03199,0.57961c0.26389,0.32043 0.39583,0.69271 0.39583,1.11681v0.5372c0,0.34871 -0.15079,0.64088 -0.45238,0.87649c-0.29216,0.22619 -0.61731,0.30629 -0.97544,0.24032c-1.02728,-0.20734 -2.08283,-0.31101 -3.16666,-0.31101c-0.55606,0 -0.94718,0.06126 -1.17337,0.18378c-0.21677,0.11309 -0.32515,0.3063 -0.32515,0.57961c0,0.50893 0.3817,0.80581 1.14509,0.89063zM325.73494,410.9218c0.39583,0 0.73512,0.14608 1.01786,0.43824c0.28274,0.28274 0.42411,0.61731 0.42411,1.00372v0.40997c0,0.38641 -0.14137,0.72569 -0.42411,1.01785c-0.28274,0.28274 -0.62202,0.42411 -1.01786,0.42411h-2.24777c-0.15079,0 -0.22619,0.0754 -0.22619,0.22619v3.57663c0,1.00844 0.08482,1.63988 0.25446,1.89435c0.16965,0.25446 0.54663,0.38169 1.13095,0.38169c0.23561,0 0.52307,-0.02356 0.86235,-0.07069c0.35814,-0.05655 0.68328,0.03299 0.97544,0.26861c0.30159,0.22619 0.45238,0.51364 0.45238,0.86235v0.66443c0,0.4241 -0.13195,0.80109 -0.39583,1.13095c-0.26389,0.32986 -0.59846,0.51835 -1.00372,0.56548c-0.59375,0.08482 -1.31002,0.12723 -2.14881,0.12723c-1.80953,0 -3.08657,-0.38641 -3.8311,-1.15922c-0.74454,-0.78224 -1.11681,-2.16766 -1.11681,-4.15625v-4.08556c0,-0.15079 -0.0754,-0.22619 -0.22619,-0.22619h-0.98958c-0.38641,0 -0.72569,-0.14137 -1.01785,-0.42411c-0.28274,-0.29216 -0.4241,-0.63144 -0.4241,-1.01785v-0.40997c0,-0.38641 0.14137,-0.72098 0.4241,-1.00372c0.29216,-0.29216 0.63144,-0.43824 1.01785,-0.43824h0.98958c0.15079,0 0.22619,-0.0754 0.22619,-0.22619v-3.1384c0,-0.39583 0.14137,-0.73512 0.42411,-1.01785c0.29216,-0.28274 0.63144,-0.42411 1.01785,-0.42411h1.93676c0.38641,0 0.72098,0.14137 1.00372,0.42411c0.29216,0.28274 0.43824,0.62202 0.43824,1.01785v3.1384c0,0.15079 0.0754,0.22619 0.22619,0.22619z" fill="#e9edee" stroke="none" stroke-width="1" stroke-linecap="square"/><path d="M275.91522,458.43439c1.76999,0.51477 3.00051,1.13181 3.69158,1.85109c0.69812,0.71928 1.04718,1.68184 1.04718,2.88769c0,2.77838 -1.80172,4.16758 -5.40516,4.16758c-1.14943,0 -2.19309,-0.19039 -3.13097,-0.57119c-0.28912,-0.11283 -0.5183,-0.3138 -0.68754,-0.60292c-0.16924,-0.28912 -0.25386,-0.60645 -0.25386,-0.95199v-0.96257c0,-0.23976 0.09872,-0.41605 0.29617,-0.52888c0.2045,-0.11283 0.41605,-0.11988 0.63466,-0.02116c0.9943,0.46542 1.97801,0.69813 2.95115,0.69813c1.13533,0 1.70299,-0.37727 1.70299,-1.1318c0,-0.35964 -0.08815,-0.63113 -0.26444,-0.81448c-0.17629,-0.19039 -0.49714,-0.36317 -0.96256,-0.5183c-1.67831,-0.51477 -2.88768,-1.16001 -3.62812,-1.9357c-0.74043,-0.78274 -1.11065,-1.74883 -1.11065,-2.89827c0,-1.23406 0.44426,-2.20367 1.33278,-2.90885c0.89557,-0.71222 2.18956,-1.06834 3.88198,-1.06834c1.2129,0 2.29181,0.13398 3.23675,0.40195c0.30322,0.08462 0.55004,0.26444 0.74044,0.53946c0.1904,0.26797 0.2856,0.56766 0.2856,0.8991v0.93083c0,0.24681 -0.10578,0.44426 -0.31733,0.59235c-0.2045,0.14809 -0.43368,0.17629 -0.68754,0.08462c-1.12122,-0.36669 -2.14372,-0.55003 -3.0675,-0.55003c-1.03661,0 -1.55491,0.35965 -1.55491,1.07892c0,0.63465 0.42311,1.07891 1.26932,1.33277zM290.9667,457.29201c0.28912,0 0.53946,0.1093 0.75101,0.3279c0.21861,0.21155 0.32791,0.46189 0.32791,0.75101v7.7005c0,0.28912 -0.1093,0.54299 -0.32791,0.76159c-0.21155,0.21155 -0.46189,0.31732 -0.75101,0.31732h-1.29047c-0.30322,0 -0.56414,-0.10225 -0.78274,-0.30675c-0.21155,-0.21155 -0.32438,-0.46894 -0.33848,-0.77217v-0.14808c0,-0.0141 -0.00705,-0.02116 -0.02116,-0.02116c-0.02116,0 -0.03173,0.00705 -0.03173,0.02116c-0.78274,0.94493 -1.74884,1.4174 -2.89827,1.4174c-1.11417,0 -1.91455,-0.31028 -2.40112,-0.93083c-0.48657,-0.62055 -0.72985,-1.69947 -0.72985,-3.23675v-4.80223c0,-0.28912 0.10578,-0.53946 0.31733,-0.75101c0.21861,-0.21861 0.47247,-0.3279 0.76159,-0.3279h1.34336c0.29618,0 0.55004,0.1093 0.76159,0.3279c0.21155,0.21155 0.31733,0.46189 0.31733,0.75101v4.61184c0,0.57824 0.07758,0.97666 0.23271,1.19527c0.16219,0.21155 0.43368,0.31732 0.81447,0.31732c0.35259,0 0.67696,-0.1375 0.97314,-0.41252c0.29618,-0.28207 0.44426,-0.58529 0.44426,-0.90967v-4.80223c0,-0.28912 0.10577,-0.53946 0.31732,-0.75101c0.21861,-0.21861 0.476,-0.3279 0.77217,-0.3279zM299.55357,464.68576c0.49362,0 0.88499,-0.20451 1.17411,-0.61351c0.28912,-0.409 0.43369,-1.02603 0.43369,-1.85108c0,-1.64306 -0.53593,-2.46458 -1.6078,-2.46458c-0.409,0 -0.78274,0.15161 -1.12123,0.45484c-0.33143,0.30322 -0.49714,0.6276 -0.49714,0.97314v2.08379c0,0.33848 0.16571,0.65934 0.49714,0.96256c0.33848,0.30322 0.71223,0.45484 1.12123,0.45484zM300.87577,457.10162c1.16354,0 2.08731,0.44073 2.77133,1.3222c0.68402,0.87441 1.02603,2.1402 1.02603,3.79736c0,1.61484 -0.35964,2.87358 -1.07891,3.77621c-0.71222,0.89557 -1.61837,1.34336 -2.71844,1.34336c-0.9943,0 -1.9216,-0.3808 -2.78192,-1.14238c-0.0141,-0.00705 -0.02821,-0.01058 -0.04231,-0.01058c-0.0141,0 -0.02116,0.00352 -0.02116,0.01058v4.04065c0,0.28912 -0.1093,0.53946 -0.3279,0.75101c-0.21155,0.21861 -0.46189,0.3279 -0.75101,0.3279h-1.43856c-0.28912,0 -0.54298,-0.1093 -0.76158,-0.3279c-0.21155,-0.21155 -0.31733,-0.46189 -0.31733,-0.75101v-11.86808c0,-0.28912 0.10578,-0.53946 0.31733,-0.75101c0.21861,-0.21861 0.47246,-0.3279 0.76158,-0.3279h1.29047c0.30322,0 0.56061,0.10578 0.77216,0.31733c0.21861,0.2045 0.33496,0.45836 0.34906,0.76159v0.15866c0,0.00705 0.00353,0.01058 0.01058,0.01058c0.0141,0 0.02821,-0.00353 0.04231,-0.01058c0.78274,-0.95199 1.74884,-1.42797 2.89827,-1.42797zM311.60905,464.68576c0.49362,0 0.88499,-0.20451 1.17411,-0.61351c0.28912,-0.409 0.43369,-1.02603 0.43369,-1.85108c0,-1.64306 -0.53593,-2.46458 -1.6078,-2.46458c-0.409,0 -0.78274,0.15161 -1.12122,0.45484c-0.33143,0.30322 -0.49715,0.6276 -0.49715,0.97314v2.08379c0,0.33848 0.16572,0.65934 0.49715,0.96256c0.33848,0.30322 0.71222,0.45484 1.12122,0.45484zM312.93125,457.10162c1.16354,0 2.08731,0.44073 2.77133,1.3222c0.68402,0.87441 1.02603,2.1402 1.02603,3.79736c0,1.61484 -0.35964,2.87358 -1.07892,3.77621c-0.71222,0.89557 -1.61837,1.34336 -2.71844,1.34336c-0.9943,0 -1.9216,-0.3808 -2.78192,-1.14238c-0.0141,-0.00705 -0.02821,-0.01058 -0.04231,-0.01058c-0.0141,0 -0.02115,0.00352 -0.02115,0.01058v4.04065c0,0.28912 -0.1093,0.53946 -0.32791,0.75101c-0.21155,0.21861 -0.46189,0.3279 -0.75101,0.3279h-1.43856c-0.28912,0 -0.54298,-0.1093 -0.76159,-0.3279c-0.21155,-0.21155 -0.31732,-0.46189 -0.31732,-0.75101v-11.86808c0,-0.28912 0.10577,-0.53946 0.31732,-0.75101c0.21861,-0.21861 0.47247,-0.3279 0.76159,-0.3279h1.29047c0.30322,0 0.56062,0.10578 0.77217,0.31733c0.21861,0.2045 0.33496,0.45836 0.34906,0.76159v0.15866c0,0.00705 0.00352,0.01058 0.01057,0.01058c0.0141,0 0.02821,-0.00353 0.04232,-0.01058c0.78274,-0.95199 1.74883,-1.42797 2.89826,-1.42797zM322.03473,464.28381c0.23976,0.3949 0.62408,0.59235 1.15296,0.59235c0.52888,0 0.9132,-0.19745 1.15296,-0.59235c0.23976,-0.40195 0.35964,-1.0895 0.35964,-2.06264c0,-0.97314 -0.11988,-1.65715 -0.35964,-2.05205c-0.23976,-0.40195 -0.62408,-0.60293 -1.15296,-0.60293c-0.52888,0 -0.9132,0.20097 -1.15296,0.60293c-0.23976,0.3949 -0.35964,1.07892 -0.35964,2.05205c0,0.97314 0.11988,1.66068 0.35964,2.06264zM319.41148,458.45555c0.90263,-0.90262 2.16136,-1.35393 3.77621,-1.35393c1.61485,0 2.87006,0.45131 3.76563,1.35393c0.90263,0.90262 1.35393,2.15783 1.35393,3.76563c0,1.6078 -0.45131,2.86301 -1.35393,3.76563c-0.89557,0.90262 -2.15078,1.35393 -3.76563,1.35393c-1.61485,0 -2.87358,-0.45131 -3.77621,-1.35393c-0.89557,-0.90262 -1.34336,-2.15783 -1.34336,-3.76563c0,-1.6078 0.44779,-2.86301 1.34336,-3.76563zM336.90723,457.33432c0.29618,-0.04231 0.55004,0.04584 0.76159,0.26444c0.21861,0.21155 0.32791,0.46894 0.32791,0.77216v0.49715c0,0.28912 -0.10225,0.53946 -0.30675,0.75101c-0.2045,0.2045 -0.45837,0.3279 -0.76159,0.37022c-0.97314,0.12693 -1.75236,0.4901 -2.33765,1.08949c-0.57824,0.59939 -0.86737,1.32925 -0.86737,2.18957v2.80306c0,0.28912 -0.1093,0.54299 -0.3279,0.76159c-0.21155,0.21155 -0.46189,0.31732 -0.75101,0.31732h-1.53376c-0.28912,0 -0.54298,-0.10577 -0.76159,-0.31732c-0.21155,-0.21861 -0.31733,-0.47247 -0.31733,-0.76159v-7.7005c0,-0.28912 0.10578,-0.53946 0.31733,-0.75101c0.21861,-0.21861 0.47247,-0.3279 0.76159,-0.3279h1.43856c0.28912,0 0.53946,0.1093 0.75101,0.3279c0.21861,0.21155 0.3279,0.46189 0.3279,0.75101v0.8039c0,0.00705 0.00705,0.01058 0.02116,0.01058c0.0141,0 0.02821,-0.00352 0.04231,-0.01058c0.79685,-1.05071 1.86871,-1.66422 3.2156,-1.84051zM346.97284,457.67281c0.29618,0 0.55004,0.1093 0.76159,0.3279c0.21155,0.21155 0.31732,0.46189 0.31732,0.75101v0.30675c0,0.28912 -0.10577,0.54298 -0.31732,0.76159c-0.21155,0.21155 -0.46542,0.31732 -0.76159,0.31732h-1.68184c-0.11282,0 -0.16924,0.05642 -0.16924,0.16925v2.67614c0,0.75454 0.06347,1.227 0.1904,1.4174c0.12693,0.19039 0.409,0.2856 0.84621,0.2856c0.17629,0 0.39137,-0.01763 0.64524,-0.05289c0.26797,-0.04231 0.51125,0.02468 0.72985,0.20097c0.22566,0.16924 0.33848,0.38432 0.33848,0.64524v0.49714c0,0.31733 -0.09872,0.5994 -0.29617,0.84621c-0.19745,0.24681 -0.44779,0.38784 -0.75101,0.4231c-0.44426,0.06346 -0.98019,0.0952 -1.6078,0.0952c-1.35393,0 -2.30945,-0.28912 -2.86653,-0.86736c-0.55708,-0.58529 -0.83563,-1.6219 -0.83563,-3.10982v-3.05693c0,-0.11283 -0.05642,-0.16925 -0.16925,-0.16925h-0.74043c-0.28912,0 -0.54298,-0.10577 -0.76159,-0.31732c-0.21155,-0.21861 -0.31733,-0.47247 -0.31733,-0.76159v-0.30675c0,-0.28912 0.10578,-0.53946 0.31733,-0.75101c0.21861,-0.21861 0.47247,-0.3279 0.76159,-0.3279h0.74043c0.11282,0 0.16925,-0.05642 0.16925,-0.16925v-2.34822c0,-0.29617 0.10577,-0.55004 0.31732,-0.76159c0.21861,-0.21155 0.47247,-0.31733 0.76159,-0.31733h1.44913c0.28912,0 0.53946,0.10578 0.75101,0.31733c0.21861,0.21155 0.3279,0.46542 0.3279,0.76159v2.34822c0,0.11283 0.05642,0.16925 0.16924,0.16925zM363.75332,460.0845l3.56466,6.13501c0.12693,0.2045 0.12693,0.41253 0,0.62408c-0.12693,0.2045 -0.31028,0.30675 -0.55004,0.30675h-2.20014c-0.71927,0 -1.24463,-0.31733 -1.57607,-0.95199l-2.87711,-5.46862c0,-0.0141 -0.00705,-0.02116 -0.02115,-0.02116c-0.0141,0 -0.02116,0.00705 -0.02116,0.02116v5.34169c0,0.28912 -0.1093,0.54299 -0.3279,0.76159c-0.21155,0.21155 -0.46189,0.31732 -0.75101,0.31732h-1.62895c-0.28912,0 -0.54298,-0.10577 -0.76159,-0.31732c-0.21155,-0.21861 -0.31733,-0.47247 -0.31733,-0.76159v-11.67768c0,-0.28912 0.10578,-0.53946 0.31733,-0.75101c0.21861,-0.21861 0.47247,-0.3279 0.76159,-0.3279h1.62895c0.28912,0 0.53946,0.1093 0.75101,0.3279c0.21861,0.21155 0.3279,0.46189 0.3279,0.75101v4.78108c0,0.00705 0.00705,0.01058 0.02116,0.01058c0.0141,0 0.02115,-0.00352 0.02115,-0.01058l2.66556,-4.91859c0.34553,-0.62761 0.87795,-0.94141 1.59722,-0.94141h2.20014c0.23976,0 0.41958,0.10577 0.53946,0.31732c0.11988,0.2045 0.11635,0.409 -0.01058,0.61351l-3.3531,5.56382c-0.06347,0.07757 -0.06347,0.16925 0,0.27502zM373.77613,461.26919c0.11282,0 0.16924,-0.05641 0.16924,-0.16924c-0.00705,-0.57824 -0.13045,-0.99429 -0.37021,-1.24816c-0.23271,-0.25387 -0.58177,-0.3808 -1.04719,-0.3808c-0.49362,0 -0.86384,0.12341 -1.11065,0.37022c-0.24681,0.24681 -0.40195,0.67344 -0.46542,1.27989c0,0.09872 0.05289,0.14808 0.15867,0.14808zM372.43278,457.10162c3.20855,0 4.81986,1.69241 4.83396,5.07725c0,0.31028 -0.11283,0.5712 -0.33848,0.78275c-0.22566,0.2045 -0.49714,0.30675 -0.81448,0.30675h-4.97147c-0.11282,0 -0.15513,0.05641 -0.12693,0.16924c0.11282,0.52888 0.35963,0.90262 0.74043,1.12123c0.38785,0.21155 0.9943,0.31733 1.81935,0.31733c0.51477,0 1.14591,-0.07757 1.89339,-0.23271c0.26092,-0.06346 0.49715,-0.00705 0.7087,0.16924c0.21861,0.16924 0.3279,0.39137 0.3279,0.66639v0.30675c0,0.31733 -0.09872,0.60645 -0.29617,0.86736c-0.1904,0.25387 -0.43721,0.40548 -0.74043,0.45484c-0.77569,0.15513 -1.59722,0.23271 -2.46458,0.23271c-1.7982,0 -3.18034,-0.43721 -4.14643,-1.31162c-0.96609,-0.88147 -1.44913,-2.15078 -1.44913,-3.80794c0,-1.64306 0.43015,-2.90531 1.29046,-3.78679c0.86032,-0.88852 2.10495,-1.33277 3.7339,-1.33277zM387.39329,457.29201c0.26797,0 0.47246,0.10578 0.6135,0.31733c0.14808,0.2045 0.18334,0.43368 0.10577,0.68755l-4.30509,12.01616c-0.11282,0.30322 -0.30322,0.54651 -0.57119,0.72986c-0.26092,0.18335 -0.55003,0.27502 -0.86736,0.27502h-1.62896c-0.26797,0 -0.47599,-0.10578 -0.62408,-0.31733c-0.14103,-0.2045 -0.15866,-0.42663 -0.05289,-0.66639l1.24816,-3.03577c0.0141,-0.04936 0.02116,-0.09873 0.02116,-0.14809c0,-0.04936 -0.00705,-0.09873 -0.02116,-0.14809l-3.2579,-8.70537c-0.10577,-0.23976 -0.08462,-0.46542 0.06347,-0.67697c0.15513,-0.21861 0.36669,-0.3279 0.63466,-0.3279h1.81935c0.30322,0 0.57825,0.10225 0.82506,0.30675c0.24681,0.2045 0.40195,0.45836 0.46541,0.76159l1.10007,5.55324c0,0.00705 0.00353,0.01058 0.01058,0.01058c0.0141,0 0.02116,-0.00352 0.02116,-0.01058l1.42798,-5.5744c0.07052,-0.30322 0.2327,-0.55356 0.48657,-0.75101c0.25387,-0.19745 0.53945,-0.29618 0.85679,-0.29618z" fill="#e9edee" stroke="none" stroke-width="1" stroke-linecap="square"/><path d="M279.79519,515.52969c0.29917,0 0.5582,0.1131 0.7771,0.3393c0.2262,0.2189 0.3393,0.47793 0.3393,0.7771v0.8975c0,0.30646 -0.1131,0.5728 -0.3393,0.79899c-0.2189,0.2189 -0.47793,0.32835 -0.7771,0.32835h-4.20293c-0.11675,0 -0.17512,0.05108 -0.17512,0.15323v2.0139c0,0.12404 0.05837,0.18607 0.17512,0.18607h3.8089c0.29917,0 0.5582,0.1131 0.77711,0.3393c0.2262,0.2189 0.3393,0.47794 0.3393,0.77711v0.70049c0,0.29917 -0.1131,0.56185 -0.3393,0.78805c-0.2189,0.2189 -0.47794,0.32835 -0.77711,0.32835h-3.8089c-0.11675,0 -0.17512,0.05473 -0.17512,0.16418v2.40793c0,0.11675 0.05837,0.17512 0.17512,0.17512h4.20293c0.29917,0 0.5582,0.1131 0.7771,0.3393c0.2262,0.2189 0.3393,0.47794 0.3393,0.77711v0.90845c0,0.29917 -0.1131,0.56185 -0.3393,0.78805c-0.2189,0.2189 -0.47793,0.32835 -0.7771,0.32835h-7.18001c-0.29917,0 -0.56185,-0.10945 -0.78805,-0.32835c-0.2189,-0.2262 -0.32835,-0.48888 -0.32835,-0.78805v-12.08343c0,-0.29917 0.10945,-0.5582 0.32835,-0.7771c0.2262,-0.2262 0.48888,-0.3393 0.78805,-0.3393zM295.05135,519.44804c1.1237,0 1.94459,0.30646 2.46266,0.91939c0.51807,0.60563 0.77711,1.60894 0.77711,3.00991v5.35217c0,0.29917 -0.1131,0.56185 -0.3393,0.78805c-0.2189,0.2189 -0.47794,0.32835 -0.77711,0.32835h-1.40098c-0.29917,0 -0.5582,-0.10945 -0.77711,-0.32835c-0.21161,-0.2262 -0.31741,-0.48888 -0.31741,-0.78805v-5.35217c0,-0.4451 -0.06567,-0.74427 -0.19701,-0.8975c-0.13134,-0.16053 -0.36484,-0.24079 -0.70049,-0.24079c-0.26268,0 -0.51077,0.08391 -0.74427,0.25174c-0.2262,0.16783 -0.3393,0.332 -0.3393,0.49253v5.7462c0,0.29917 -0.1131,0.56185 -0.3393,0.78805c-0.2189,0.2189 -0.47793,0.32835 -0.7771,0.32835h-1.39003c-0.29917,0 -0.5582,-0.10945 -0.77711,-0.32835c-0.2189,-0.2262 -0.32835,-0.48888 -0.32835,-0.78805v-5.35217c0,-0.4451 -0.06567,-0.74427 -0.19701,-0.8975c-0.12404,-0.16053 -0.35754,-0.24079 -0.70049,-0.24079c-0.26268,0 -0.51077,0.08391 -0.74427,0.25174c-0.2262,0.16783 -0.3393,0.332 -0.3393,0.49253v5.7462c0,0.29917 -0.1131,0.56185 -0.3393,0.78805c-0.2189,0.2189 -0.47794,0.32835 -0.77711,0.32835h-1.48854c-0.29917,0 -0.56185,-0.10945 -0.78805,-0.32835c-0.2189,-0.2262 -0.32835,-0.48888 -0.32835,-0.78805v-7.96805c0,-0.29917 0.10945,-0.5582 0.32835,-0.77711c0.2262,-0.2262 0.48888,-0.3393 0.78805,-0.3393h1.19302c0.31376,0 0.58009,0.10945 0.79899,0.32835c0.2262,0.21161 0.3539,0.47429 0.38308,0.78805l0.02189,0.24079c0,0.0146 0.00365,0.02189 0.01095,0.02189c0.02919,0 0.04378,-0.00729 0.04378,-0.02189c0.35025,-0.48159 0.76981,-0.86101 1.25869,-1.13829c0.49618,-0.27728 0.97777,-0.41592 1.44476,-0.41592c0.60563,0 1.08722,0.1058 1.44476,0.31741c0.35754,0.21161 0.70049,0.59104 1.02884,1.1383c0,0.0146 0.0073,0.02189 0.02189,0.02189c0.02919,0 0.04743,-0.00729 0.05472,-0.02189c0.97047,-0.97047 1.91905,-1.4557 2.84573,-1.4557zM309.354,519.64506c0.29917,0 0.5582,0.1131 0.77711,0.3393c0.2262,0.2189 0.3393,0.47794 0.3393,0.77711v7.96805c0,0.29917 -0.1131,0.56185 -0.3393,0.78805c-0.2189,0.2189 -0.47794,0.32835 -0.77711,0.32835h-1.33531c-0.31376,0 -0.58374,-0.1058 -0.80994,-0.31741c-0.2189,-0.2189 -0.33564,-0.48523 -0.35024,-0.79899v-0.15323c0,-0.0146 -0.0073,-0.02189 -0.02189,-0.02189c-0.02189,0 -0.03284,0.0073 -0.03284,0.02189c-0.80994,0.97777 -1.80959,1.46665 -2.99896,1.46665c-1.15289,0 -1.98107,-0.32106 -2.48455,-0.96317c-0.50348,-0.64211 -0.75522,-1.75851 -0.75522,-3.34921v-4.96909c0,-0.29917 0.10946,-0.5582 0.32836,-0.77711c0.2262,-0.2262 0.48888,-0.3393 0.78805,-0.3393h1.39003c0.30646,0 0.56915,0.1131 0.78805,0.3393c0.2189,0.2189 0.32835,0.47794 0.32835,0.77711v4.77207c0,0.59833 0.08027,1.01061 0.24079,1.2368c0.16783,0.2189 0.44875,0.32835 0.84278,0.32835c0.36484,0 0.70049,-0.14228 1.00695,-0.42686c0.30646,-0.29187 0.45969,-0.60563 0.45969,-0.94128v-4.96909c0,-0.29917 0.10946,-0.5582 0.32836,-0.77711c0.2262,-0.2262 0.49253,-0.3393 0.79899,-0.3393zM316.13776,515.13566c0.29917,0 0.5582,0.1131 0.7771,0.3393c0.2262,0.2189 0.3393,0.47794 0.3393,0.77711v12.47745c0,0.29917 -0.1131,0.56185 -0.3393,0.78805c-0.2189,0.2189 -0.47793,0.32835 -0.7771,0.32835h-1.68555c-0.29917,0 -0.56185,-0.10945 -0.78805,-0.32835c-0.2189,-0.2262 -0.32835,-0.48888 -0.32835,-0.78805v-12.47745c0,-0.29917 0.10945,-0.5582 0.32835,-0.77711c0.2262,-0.2262 0.48888,-0.3393 0.78805,-0.3393zM325.71338,525.73055v-0.1204c0,-0.11675 -0.06202,-0.17512 -0.18607,-0.17512h-0.60198c-1.30612,0 -1.95918,0.39037 -1.95918,1.17113c0,0.59104 0.3247,0.88656 0.97412,0.88656c0.51077,0 0.93399,-0.16053 1.26963,-0.48159c0.33565,-0.32106 0.50348,-0.74792 0.50348,-1.28058zM324.53131,519.44804c1.72933,0 2.97707,0.31376 3.74323,0.94128c0.77345,0.62752 1.16019,1.62353 1.16019,2.98802v5.35217c0,0.29917 -0.1131,0.56185 -0.3393,0.78805c-0.2189,0.2189 -0.47794,0.32835 -0.77711,0.32835h-1.2368c-0.31376,0 -0.58374,-0.1058 -0.80994,-0.31741c-0.2189,-0.2189 -0.33565,-0.48523 -0.35025,-0.79899v-0.15323c0,-0.0146 -0.00729,-0.02189 -0.02189,-0.02189c-0.0073,0 -0.01824,0.0073 -0.03284,0.02189c-0.83913,0.97777 -1.87162,1.46665 -3.09747,1.46665c-0.91939,0 -1.6746,-0.29187 -2.26564,-0.87561c-0.58374,-0.58374 -0.87561,-1.33896 -0.87561,-2.26564c0,-2.34955 1.76581,-3.52433 5.29744,-3.52433h0.60198c0.12404,0 0.18607,-0.05837 0.18607,-0.17512v-0.02189c0,-0.78805 -0.45969,-1.18208 -1.37909,-1.18208c-0.78076,0 -1.795,0.11674 -3.04275,0.35024c-0.26998,0.05837 -0.51807,0 -0.74427,-0.17512c-0.2189,-0.18242 -0.32836,-0.41591 -0.32836,-0.70049v-0.31741c0,-0.32835 0.09851,-0.62022 0.29552,-0.87561c0.20431,-0.26268 0.46334,-0.42321 0.7771,-0.48159c1.29882,-0.2335 2.37875,-0.35024 3.23976,-0.35024zM338.43465,520.03908c0.30646,0 0.56915,0.1131 0.78805,0.3393c0.2189,0.2189 0.32835,0.47794 0.32835,0.77711v0.31741c0,0.29917 -0.10945,0.56185 -0.32835,0.78805c-0.2189,0.2189 -0.48158,0.32835 -0.78805,0.32835h-1.74028c-0.11675,0 -0.17512,0.05837 -0.17512,0.17512v2.76912c0,0.78076 0.06567,1.26964 0.19701,1.46665c0.13134,0.19701 0.42321,0.29552 0.87561,0.29552c0.18242,0 0.40497,-0.01824 0.66765,-0.05472c0.27728,-0.04378 0.52902,0.02553 0.75521,0.20795c0.2335,0.17512 0.35025,0.39767 0.35025,0.66765v0.51442c0,0.32835 -0.10216,0.62022 -0.30646,0.87561c-0.20431,0.25539 -0.46334,0.40132 -0.77711,0.43781c-0.45969,0.06567 -1.01424,0.09851 -1.66366,0.09851c-1.40098,0 -2.38969,-0.29917 -2.96613,-0.8975c-0.57644,-0.60563 -0.86466,-1.67826 -0.86466,-3.21787v-3.16314c0,-0.11675 -0.05837,-0.17512 -0.17512,-0.17512h-0.76616c-0.29917,0 -0.56185,-0.10945 -0.78805,-0.32835c-0.2189,-0.2262 -0.32835,-0.48888 -0.32835,-0.78805v-0.31741c0,-0.29917 0.10945,-0.5582 0.32835,-0.77711c0.2262,-0.2262 0.48888,-0.3393 0.78805,-0.3393h0.76616c0.11675,0 0.17512,-0.05837 0.17512,-0.17512v-2.42982c0,-0.30646 0.10945,-0.56915 0.32835,-0.78805c0.2262,-0.2189 0.48888,-0.32835 0.78805,-0.32835h1.49948c0.29917,0 0.5582,0.10945 0.77711,0.32835c0.2262,0.2189 0.3393,0.48159 0.3393,0.78805v2.42982c0,0.11675 0.05837,0.17512 0.17512,0.17512zM347.73228,523.76042c0.11675,0 0.17512,-0.05837 0.17512,-0.17512c-0.0073,-0.59833 -0.13499,-1.02885 -0.38308,-1.29153c-0.24079,-0.26268 -0.60198,-0.39402 -1.08357,-0.39402c-0.51077,0 -0.89385,0.12769 -1.14924,0.38308c-0.25539,0.25539 -0.41592,0.69684 -0.48159,1.32436c0,0.10216 0.05473,0.15323 0.16418,0.15323zM346.34225,519.44804c3.32002,0 4.98733,1.75122 5.00193,5.25366c0,0.32106 -0.11675,0.59104 -0.35025,0.80994c-0.2335,0.21161 -0.51442,0.31741 -0.84278,0.31741h-5.14421c-0.11675,0 -0.16053,0.05837 -0.13134,0.17512c0.11675,0.54726 0.37213,0.93399 0.76616,1.16019c0.40132,0.2189 1.02884,0.32835 1.88256,0.32835c0.53266,0 1.18572,-0.08027 1.95918,-0.24079c0.26998,-0.06567 0.51442,-0.0073 0.73332,0.17512c0.2262,0.17512 0.3393,0.40497 0.3393,0.68954v0.31741c0,0.32835 -0.10216,0.62752 -0.30646,0.8975c-0.19701,0.26268 -0.4524,0.41956 -0.76616,0.47064c-0.80264,0.16053 -1.65272,0.24079 -2.55022,0.24079c-1.86067,0 -3.29084,-0.4524 -4.29049,-1.3572c-0.99966,-0.9121 -1.49948,-2.22551 -1.49948,-3.94025c0,-1.70014 0.4451,-3.00626 1.33531,-3.91836c0.8902,-0.91939 2.17808,-1.37909 3.86363,-1.37909zM359.79465,525.82906v-2.15619c0,-0.37943 -0.16783,-0.71873 -0.50348,-1.0179c-0.32835,-0.30646 -0.71508,-0.45969 -1.16018,-0.45969c-1.10911,0 -1.66366,0.85007 -1.66366,2.55022c0,0.85372 0.14958,1.49219 0.44875,1.9154c0.29917,0.42321 0.70414,0.63482 1.21491,0.63482c0.4451,0 0.83183,-0.14958 1.16018,-0.44875c0.33565,-0.29917 0.50348,-0.63846 0.50348,-1.01789zM362.31203,515.13566c0.29917,0 0.5582,0.1131 0.77711,0.3393c0.2262,0.2189 0.3393,0.47794 0.3393,0.77711v12.47745c0,0.29917 -0.1131,0.56185 -0.3393,0.78805c-0.2189,0.2189 -0.47794,0.32835 -0.77711,0.32835h-1.2368c-0.31376,0 -0.58374,-0.1058 -0.80994,-0.31741c-0.2189,-0.2189 -0.33565,-0.48523 -0.35025,-0.79899v-0.15323c0,-0.0146 -0.00729,-0.02189 -0.02189,-0.02189c-0.0146,0 -0.02554,0.0073 -0.03284,0.02189c-0.80264,0.97777 -1.83514,1.46665 -3.09747,1.46665c-1.13829,0 -2.07957,-0.46335 -2.82384,-1.39003c-0.73697,-0.93399 -1.10546,-2.23646 -1.10546,-3.90741c0,-1.71474 0.3539,-3.02451 1.06168,-3.9293c0.70778,-0.9121 1.66366,-1.36814 2.86762,-1.36814c1.04344,0 2.00296,0.38673 2.87857,1.16018c0.0146,0.0146 0.02554,0.02189 0.03284,0.02189c0.0146,0 0.02189,-0.0073 0.02189,-0.02189v-4.35616c0,-0.29917 0.10945,-0.5582 0.32835,-0.77711c0.2262,-0.2262 0.48888,-0.3393 0.78805,-0.3393zM376.74533,527.00018c1.10911,0 1.94093,-0.35025 2.49549,-1.05073c0.56185,-0.70778 0.84278,-1.86067 0.84278,-3.45866c0,-1.43746 -0.28093,-2.48089 -0.84278,-3.1303c-0.55455,-0.65671 -1.38638,-0.98506 -2.49549,-0.98506c-0.24809,0 -0.48888,0.01824 -0.72238,0.05472c-0.10945,0.02919 -0.16418,0.09486 -0.16418,0.19701v8.0994c0,0.11675 0.05472,0.18972 0.16418,0.2189c0.2335,0.03649 0.47429,0.05473 0.72238,0.05473zM376.3513,515.33268c2.35685,0 4.18834,0.63117 5.49446,1.89351c1.30612,1.26234 1.95918,3.01721 1.95918,5.26461c0,2.44441 -0.65671,4.31603 -1.97012,5.61485c-1.31342,1.29152 -3.14126,1.93729 -5.48351,1.93729c-1.03614,0 -2.10876,-0.05107 -3.21787,-0.15323c-0.31376,-0.02919 -0.57644,-0.16783 -0.78805,-0.41592c-0.20431,-0.24809 -0.30646,-0.52902 -0.30646,-0.84278v-11.88641c0,-0.31376 0.10216,-0.59469 0.30646,-0.84278c0.21161,-0.24809 0.47429,-0.38673 0.78805,-0.41592c1.10911,-0.10216 2.18173,-0.15323 3.21787,-0.15323zM391.49057,523.76042c0.11675,0 0.17512,-0.05837 0.17512,-0.17512c-0.0073,-0.59833 -0.13499,-1.02885 -0.38308,-1.29153c-0.24079,-0.26268 -0.60198,-0.39402 -1.08357,-0.39402c-0.51077,0 -0.89385,0.12769 -1.14924,0.38308c-0.25539,0.25539 -0.41592,0.69684 -0.48159,1.32436c0,0.10216 0.05472,0.15323 0.16418,0.15323zM390.10054,519.44804c3.32002,0 4.98732,1.75122 5.00192,5.25366c0,0.32106 -0.11675,0.59104 -0.35025,0.80994c-0.2335,0.21161 -0.51442,0.31741 -0.84278,0.31741h-5.1442c-0.11675,0 -0.16053,0.05837 -0.13134,0.17512c0.11675,0.54726 0.37213,0.93399 0.76616,1.16019c0.40132,0.2189 1.02884,0.32835 1.88256,0.32835c0.53266,0 1.18572,-0.08027 1.95917,-0.24079c0.26998,-0.06567 0.51443,-0.0073 0.73333,0.17512c0.2262,0.17512 0.3393,0.40497 0.3393,0.68954v0.31741c0,0.32835 -0.10215,0.62752 -0.30646,0.8975c-0.19701,0.26268 -0.4524,0.41956 -0.76616,0.47064c-0.80264,0.16053 -1.6527,0.24079 -2.5502,0.24079c-1.86067,0 -3.29084,-0.4524 -4.29049,-1.3572c-0.99966,-0.9121 -1.49949,-2.22551 -1.49949,-3.94025c0,-1.70014 0.44511,-3.00626 1.33531,-3.91836c0.8902,-0.91939 2.17808,-1.37909 3.86363,-1.37909zM405.60187,519.64506c0.26998,0 0.48888,0.1131 0.65671,0.3393c0.17512,0.2189 0.22256,0.45969 0.14229,0.72238l-2.40793,8.07751c-0.10945,0.31376 -0.29552,0.56915 -0.5582,0.76616c-0.25539,0.19701 -0.54726,0.29552 -0.87561,0.29552h-2.67061c-0.34295,0 -0.64576,-0.09851 -0.90845,-0.29552c-0.25539,-0.19701 -0.43051,-0.4524 -0.52536,-0.76616l-2.40793,-8.07751c-0.08027,-0.26268 -0.03649,-0.50348 0.13134,-0.72238c0.17512,-0.2262 0.39767,-0.3393 0.66765,-0.3393h1.72933c0.31376,0 0.59834,0.1058 0.85372,0.31741c0.25539,0.21161 0.41591,0.47429 0.48158,0.78805l1.33531,6.91732c0,0.0146 0.00365,0.02189 0.01094,0.02189c0.0146,0 0.02189,-0.00729 0.02189,-0.02189l1.33531,-6.91732c0.05108,-0.31376 0.20431,-0.57644 0.45969,-0.78805c0.25539,-0.21161 0.54726,-0.31741 0.87561,-0.31741zM411.20565,519.64506c0.29917,0 0.5582,0.1131 0.7771,0.3393c0.2262,0.2189 0.3393,0.47794 0.3393,0.77711v7.96805c0,0.29917 -0.1131,0.56185 -0.3393,0.78805c-0.2189,0.2189 -0.47793,0.32835 -0.7771,0.32835h-1.68555c-0.29917,0 -0.56185,-0.10945 -0.78805,-0.32835c-0.2189,-0.2262 -0.32835,-0.48888 -0.32835,-0.78805v-7.96805c0,-0.29917 0.10945,-0.5582 0.32835,-0.77711c0.2262,-0.2262 0.48888,-0.3393 0.78805,-0.3393zM411.20565,515.13566c0.29917,0 0.5582,0.1131 0.7771,0.3393c0.2262,0.2189 0.3393,0.47794 0.3393,0.77711v0.51442c0,0.29917 -0.1131,0.56185 -0.3393,0.78805c-0.2189,0.2189 -0.47793,0.32836 -0.7771,0.32836h-1.68555c-0.29917,0 -0.56185,-0.10946 -0.78805,-0.32836c-0.2189,-0.2262 -0.32835,-0.48888 -0.32835,-0.78805v-0.51442c0,-0.29917 0.10945,-0.5582 0.32835,-0.77711c0.2262,-0.2262 0.48888,-0.3393 0.78805,-0.3393zM422.22603,527.15341c0.29187,-0.05108 0.54726,0.01095 0.76616,0.18607c0.2262,0.16783 0.3393,0.39402 0.3393,0.67859v0.51442c0,0.32835 -0.10215,0.61657 -0.30646,0.86466c-0.20431,0.24809 -0.47065,0.39767 -0.799,0.44875c-0.9121,0.13134 -1.6892,0.19701 -2.33131,0.19701c-1.73663,0 -3.07193,-0.4451 -4.00592,-1.33531c-0.92668,-0.8902 -1.39003,-2.21092 -1.39003,-3.96214c0,-1.71474 0.44875,-3.02451 1.34625,-3.9293c0.8975,-0.9121 2.18173,-1.36814 3.85269,-1.36814c0.64211,0 1.41921,0.06567 2.33131,0.19701c0.32835,0.05108 0.59469,0.20066 0.79899,0.44875c0.20431,0.24809 0.30646,0.53631 0.30646,0.86466v0.51442c0,0.28458 -0.1131,0.51442 -0.3393,0.68954c-0.2189,0.16783 -0.47429,0.2262 -0.76616,0.17512c-0.53266,-0.09486 -1.07992,-0.14229 -1.64177,-0.14229c-0.6713,0 -1.16748,0.20431 -1.48854,0.61293c-0.31376,0.40132 -0.47064,1.04708 -0.47064,1.93729c0,0.9048 0.17147,1.55786 0.51442,1.95918c0.35025,0.39402 0.8975,0.59104 1.64177,0.59104c0.56185,0 1.10911,-0.04743 1.64177,-0.14229zM431.60071,523.76042c0.11675,0 0.17512,-0.05837 0.17512,-0.17512c-0.0073,-0.59833 -0.13499,-1.02885 -0.38308,-1.29153c-0.24079,-0.26268 -0.60198,-0.39402 -1.08357,-0.39402c-0.51077,0 -0.89385,0.12769 -1.14924,0.38308c-0.25539,0.25539 -0.41591,0.69684 -0.48158,1.32436c0,0.10216 0.05472,0.15323 0.16418,0.15323zM430.21067,519.44804c3.32002,0 4.98733,1.75122 5.00193,5.25366c0,0.32106 -0.11675,0.59104 -0.35025,0.80994c-0.2335,0.21161 -0.51442,0.31741 -0.84277,0.31741h-5.14421c-0.11675,0 -0.16053,0.05837 -0.13134,0.17512c0.11675,0.54726 0.37213,0.93399 0.76616,1.16019c0.40132,0.2189 1.02884,0.32835 1.88256,0.32835c0.53266,0 1.18572,-0.08027 1.95918,-0.24079c0.26998,-0.06567 0.51443,-0.0073 0.73333,0.17512c0.2262,0.17512 0.3393,0.40497 0.3393,0.68954v0.31741c0,0.32835 -0.10215,0.62752 -0.30646,0.8975c-0.19701,0.26268 -0.4524,0.41956 -0.76616,0.47064c-0.80264,0.16053 -1.65271,0.24079 -2.55021,0.24079c-1.86067,0 -3.29084,-0.4524 -4.2905,-1.3572c-0.99966,-0.9121 -1.49948,-2.22551 -1.49948,-3.94025c0,-1.70014 0.4451,-3.00626 1.33531,-3.91836c0.8902,-0.91939 2.17808,-1.37909 3.86363,-1.37909z" fill="#e9edee" stroke="none" stroke-width="1" stroke-linecap="square"/><g stroke-linecap="round"><path d="M604.93654,377.75293c0,0 -0.22033,0.82538 -1.89584,0.82365c-31.40402,-0.03229 -342.12773,-0.35146 -357.49072,-0.36726c-1.17104,-0.0012 -1.71842,-1.48924 -1.71842,-1.48924l-0.20657,-31.97703l15.74064,-15.82326l344.89954,0.5784c0,0 1.65445,0.51676 1.65698,1.21418c0.0158,4.34092 -0.98562,47.04056 -0.98562,47.04056z" fill="#29251f" stroke="#5c544c" stroke-width="3.5"/><path d="M290.24225,370.18237c0,0 -0.3864,1.56979 -1.36649,1.56319c-6.38617,-0.04298 -29.01141,-0.04417 -33.20258,-0.07237c-1.20296,-0.00809 -2.93997,-3.05961 -2.93997,-3.05961l-0.01425,-20.03862l11.53032,-11.55431c0,0 19.99554,-0.17433 23.70274,-0.20464c1.05914,-0.00867 2.53835,1.40156 2.53835,1.40156z" fill="#4a4641" stroke="none" stroke-width="0"/><path d="M286.7851,367.27957c0,0 -0.54264,0.83545 -1.28451,0.83036c-4.83387,-0.03315 -23.21046,-0.15916 -26.38288,-0.1809c-0.91056,-0.00626 -1.97515,-1.35902 -1.97515,-1.35902l0.2394,-16.70574l8.72762,-8.91133c0,0 16.13592,-0.13444 18.942,-0.15783c0.80169,-0.00668 1.5461,0.7057 1.5461,0.7057z" fill="#0f0d0b" stroke="none" stroke-width="0"/></g><g stroke-linecap="round"><path d="M604.93654,435.75293c0,0 -0.22033,0.82538 -1.89584,0.82365c-31.40402,-0.03229 -342.12773,-0.35146 -357.49072,-0.36726c-1.17104,-0.0012 -1.71842,-1.48924 -1.71842,-1.48924l-0.20657,-31.97703l15.74064,-15.82326l344.89954,0.5784c0,0 1.65445,0.51676 1.65698,1.21418c0.0158,4.34092 -0.98562,47.04056 -0.98562,47.04056z" fill="#29251f" stroke="#5c544c" stroke-width="3.5"/><path d="M290.24225,428.18237c0,0 -0.3864,1.56979 -1.36649,1.56319c-6.38617,-0.04298 -29.01141,-0.04417 -33.20258,-0.07237c-1.20296,-0.00809 -2.93997,-3.05961 -2.93997,-3.05961l-0.01425,-20.03862l11.53032,-11.55431c0,0 19.99554,-0.17433 23.70274,-0.20464c1.05914,-0.00867 2.53835,1.40156 2.53835,1.40156z" fill="#4a4641" stroke="none" stroke-width="0"/><path d="M286.7851,425.27957c0,0 -0.54264,0.83545 -1.28451,0.83036c-4.83387,-0.03315 -23.21046,-0.15916 -26.38288,-0.1809c-0.91056,-0.00626 -1.97515,-1.35902 -1.97515,-1.35902l0.2394,-16.70574l8.72762,-8.91133c0,0 16.13592,-0.13444 18.942,-0.15783c0.80169,-0.00668 1.5461,0.7057 1.5461,0.7057z" fill="#0f0d0b" stroke="none" stroke-width="0"/></g><g stroke-linecap="round"><path d="M604.93654,492.75293c0,0 -0.22033,0.82538 -1.89584,0.82365c-31.40402,-0.03229 -342.12773,-0.35146 -357.49072,-0.36726c-1.17104,-0.0012 -1.71842,-1.48924 -1.71842,-1.48924l-0.20657,-31.97703l15.74064,-15.82326l344.89954,0.5784c0,0 1.65445,0.51676 1.65698,1.21418c0.0158,4.34092 -0.98562,47.04056 -0.98562,47.04056z" fill="#29251f" stroke="#5c544c" stroke-width="3.5"/><path d="M290.24225,485.18237c0,0 -0.3864,1.56979 -1.36649,1.56319c-6.38617,-0.04298 -29.01141,-0.04417 -33.20258,-0.07237c-1.20296,-0.00809 -2.93997,-3.05961 -2.93997,-3.05961l-0.01425,-20.03862l11.53032,-11.55431c0,0 19.99554,-0.17433 23.70274,-0.20464c1.05914,-0.00867 2.53835,1.40156 2.53835,1.40156z" fill="#4a4641" stroke="none" stroke-width="0"/><path d="M286.7851,482.27957c0,0 -0.54264,0.83545 -1.28451,0.83036c-4.83387,-0.03315 -23.21046,-0.15916 -26.38288,-0.1809c-0.91056,-0.00626 -1.97515,-1.35902 -1.97515,-1.35902l0.2394,-16.70574l8.72762,-8.91133c0,0 16.13592,-0.13444 18.942,-0.15783c0.80169,-0.00668 1.5461,0.7057 1.5461,0.7057z" fill="#0f0d0b" stroke="none" stroke-width="0"/></g><g stroke-linecap="round"><path d="M604.93654,550.75293c0,0 -0.22033,0.82538 -1.89584,0.82365c-31.40402,-0.03229 -342.12773,-0.35146 -357.49072,-0.36726c-1.17104,-0.0012 -1.71842,-1.48924 -1.71842,-1.48924l-0.20657,-31.97703l15.74064,-15.82326l344.89954,0.5784c0,0 1.65445,0.51676 1.65698,1.21418c0.0158,4.34092 -0.98562,47.04056 -0.98562,47.04056z" fill="#29251f" stroke="#5c544c" stroke-width="3.5"/><path d="M290.24225,543.18237c0,0 -0.3864,1.56979 -1.36649,1.56319c-6.38617,-0.04298 -29.01141,-0.04417 -33.20258,-0.07237c-1.20296,-0.00809 -2.93997,-3.05961 -2.93997,-3.05961l-0.01425,-20.03862l11.53032,-11.55431c0,0 19.99554,-0.17433 23.70274,-0.20464c1.05914,-0.00867 2.53835,1.40156 2.53835,1.40156z" fill="#4a4641" stroke="none" stroke-width="0"/><path d="M286.7851,540.27957c0,0 -0.54264,0.83545 -1.28451,0.83036c-4.83387,-0.03315 -23.21046,-0.15916 -26.38288,-0.1809c-0.91056,-0.00626 -1.97515,-1.35902 -1.97515,-1.35902l0.2394,-16.70574l8.72762,-8.91133c0,0 16.13592,-0.13444 18.942,-0.15783c0.80169,-0.00668 1.5461,0.7057 1.5461,0.7057z" fill="#0f0d0b" stroke="none" stroke-width="0"/></g><g stroke-linecap="round"><path d="M603.93054,319.68987c0,0 -0.22033,0.82538 -1.89584,0.82365c-31.40402,-0.03229 -342.12773,-0.35146 -357.49072,-0.36726c-1.17104,-0.0012 -1.71842,-1.48924 -1.71842,-1.48924l-0.20657,-31.97703l15.74064,-15.82326l344.89954,0.5784c0,0 1.65445,0.51676 1.65698,1.21418c0.0158,4.34092 -0.98562,47.04056 -0.98562,47.04056z" fill="#29251f" stroke="#5c544c" stroke-width="3.5"/><path d="M289.23625,312.11931c0,0 -0.3864,1.56979 -1.36649,1.56319c-6.38617,-0.04298 -29.01141,-0.04417 -33.20258,-0.07237c-1.20296,-0.00809 -2.93997,-3.05961 -2.93997,-3.05961l-0.01425,-20.03862l11.53032,-11.55431c0,0 19.99554,-0.17433 23.70274,-0.20464c1.05914,-0.00867 2.53835,1.40156 2.53835,1.40156z" fill="#4a4641" stroke="none" stroke-width="0"/><path d="M285.7791,309.21651c0,0 -0.54264,0.83545 -1.28451,0.83036c-4.83387,-0.03315 -23.21046,-0.15916 -26.38288,-0.1809c-0.91056,-0.00626 -1.97515,-1.35902 -1.97515,-1.35902l0.2394,-16.70574l8.72762,-8.91133c0,0 16.13592,-0.13444 18.942,-0.15783c0.80169,-0.00668 1.5461,0.7057 1.5461,0.7057z" fill="#0f0d0b" stroke="none" stroke-width="0"/></g><g stroke-linecap="round"><path d="M976.7984,318.68386c0,0 -0.22033,0.82538 -1.89584,0.82365c-31.40402,-0.03229 -342.12773,-0.35146 -357.49072,-0.36726c-1.17104,-0.0012 -1.71842,-1.48924 -1.71842,-1.48924l-0.20657,-31.97703l15.74064,-15.82326l344.89954,0.5784c0,0 1.65445,0.51676 1.65698,1.21418c0.0158,4.34092 -0.98562,47.04056 -0.98562,47.04056z" fill="#29251f" stroke="#5c544c" stroke-width="3.5"/><path d="M662.10411,311.1133c0,0 -0.3864,1.56979 -1.36649,1.56319c-6.38617,-0.04298 -29.01141,-0.04417 -33.20258,-0.07237c-1.20296,-0.00809 -2.93997,-3.05961 -2.93997,-3.05961l-0.01425,-20.03862l11.53032,-11.55431c0,0 19.99554,-0.17433 23.70274,-0.20464c1.05914,-0.00867 2.53835,1.40156 2.53835,1.40156z" fill="#4a4641" stroke="none" stroke-width="0"/><path d="M658.64696,308.2105c0,0 -0.54264,0.83545 -1.28451,0.83036c-4.83387,-0.03315 -23.21046,-0.15916 -26.38288,-0.1809c-0.91056,-0.00626 -1.97515,-1.35902 -1.97515,-1.35902l0.2394,-16.70574l8.72762,-8.91133c0,0 16.13592,-0.13444 18.942,-0.15783c0.80169,-0.00668 1.5461,0.7057 1.5461,0.7057z" fill="#0f0d0b" stroke="none" stroke-width="0"/></g></g></g></svg>