<svg version="1.1" xmlns="http://www.w3.org/2000/svg" xmlns:xlink="http://www.w3.org/1999/xlink" width="670" height="408" viewBox="0,0,670,408"><defs><clipPath id="clip-1"><path d="M177,180h670v408h-670z" fill="none" fill-rule="nonzero" stroke="none" stroke-width="1"/></clipPath></defs><g transform="translate(-177,-180)"><g clip-path="url(#clip-1)" data-paper-data="{&quot;isPaintingLayer&quot;:true}" stroke-linecap="square" stroke-linejoin="miter" stroke-miterlimit="10" stroke-dasharray="" stroke-dashoffset="0" style="mix-blend-mode: normal"><path d="M177,180h670v408h-670z" fill-opacity="0" fill="#000000" fill-rule="evenodd" stroke="none" stroke-width="1"/><path d="M383.9895,262.18898h31.49606v43.62204h-31.49606z" fill-opacity="0" fill="#000000" fill-rule="evenodd" stroke="none" stroke-width="1"/><path d="M399.77075,274.57648v15.8125h-3.9375v-8.48437c0,-1.21875 -0.03125,-1.95312 -0.09375,-2.20312c-0.05208,-0.25 -0.21354,-0.4375 -0.48437,-0.5625c-0.26042,-0.125 -0.84375,-0.1875 -1.75,-0.1875h-0.39062v-1.84375c1.90625,-0.40625 3.35417,-1.25 4.34375,-2.53125z" fill="#000000" fill-rule="nonzero" stroke="none" stroke-width="1"/><path d="M399.021,274.9895h31.49606v43.62204h-31.49606z" fill-opacity="0" fill="#000000" fill-rule="evenodd" stroke="none" stroke-width="1"/><path d="M417.22412,300.48637v2.70313h-8.67187v-2.25c2.57292,-4.20833 4.09896,-6.8125 4.57813,-7.8125c0.48958,-1 0.73438,-1.78125 0.73438,-2.34375c0,-0.42708 -0.07292,-0.74479 -0.21875,-0.95312c-0.14583,-0.21875 -0.36979,-0.32812 -0.67187,-0.32812c-0.30208,0 -0.52604,0.11979 -0.67187,0.35938c-0.14583,0.22917 -0.21875,0.69271 -0.21875,1.39063v1.5h-3.53125v-0.5625c0,-0.88542 0.04167,-1.58333 0.125,-2.09375c0.09375,-0.52083 0.31771,-1.02604 0.67188,-1.51562c0.36458,-0.5 0.83333,-0.875 1.40625,-1.125c0.57292,-0.25 1.26042,-0.375 2.0625,-0.375c1.57292,0 2.76042,0.39063 3.5625,1.17188c0.80208,0.77083 1.20313,1.75 1.20313,2.9375c0,0.90625 -0.22917,1.86458 -0.6875,2.875c-0.44792,1.01042 -1.77604,3.15104 -3.98437,6.42188z" fill="#000000" fill-rule="nonzero" stroke="none" stroke-width="1"/><path d="M415.021,290.9895h31.49606v43.62204h-31.49606z" fill-opacity="0" fill="#000000" fill-rule="evenodd" stroke="none" stroke-width="1"/><path d="M432.13037,310.23637c0.60417,0.19792 1.05208,0.52604 1.34375,0.98438c0.29167,0.45833 0.4375,1.53646 0.4375,3.23438c0,1.25 -0.14583,2.22396 -0.4375,2.92188c-0.28125,0.69792 -0.77604,1.22917 -1.48437,1.59375c-0.69792,0.35417 -1.59375,0.53125 -2.6875,0.53125c-1.25,0 -2.23437,-0.20833 -2.95312,-0.625c-0.70833,-0.42708 -1.17708,-0.94271 -1.40625,-1.54687c-0.21875,-0.61458 -0.32812,-1.67187 -0.32812,-3.17187v-1.25h3.9375v2.5625c0,0.6875 0.04167,1.125 0.125,1.3125c0.08333,0.1875 0.26563,0.28125 0.54688,0.28125c0.30208,0 0.5,-0.11458 0.59375,-0.34375c0.10417,-0.23958 0.15625,-0.85417 0.15625,-1.84375v-1.09375c0,-0.60417 -0.07292,-1.04687 -0.21875,-1.32812c-0.13542,-0.28125 -0.33854,-0.46354 -0.60937,-0.54687c-0.26042,-0.09375 -0.77604,-0.14583 -1.54687,-0.15625v-2.29687c0.9375,0 1.51563,-0.03646 1.73438,-0.10937c0.22917,-0.07292 0.39063,-0.22917 0.48438,-0.46875c0.10417,-0.23958 0.15625,-0.61979 0.15625,-1.14062v-0.875c0,-0.55208 -0.05729,-0.91667 -0.17187,-1.09375c-0.11458,-0.17708 -0.29167,-0.26562 -0.53125,-0.26562c-0.28125,0 -0.47396,0.09375 -0.57812,0.28125c-0.09375,0.1875 -0.14062,0.58333 -0.14062,1.1875v1.29688h-3.9375v-1.34375c0,-1.51042 0.34375,-2.53125 1.03125,-3.0625c0.6875,-0.53125 1.78125,-0.79687 3.28125,-0.79687c1.88542,0 3.16146,0.36979 3.82813,1.10938c0.67708,0.72917 1.01563,1.75 1.01563,3.0625c0,0.88542 -0.11979,1.52604 -0.35937,1.92188c-0.23958,0.39583 -0.66667,0.75521 -1.28125,1.07813z" fill="#000000" fill-rule="nonzero" stroke="none" stroke-width="1"/><path d="M431.021,306.9895h31.49606v43.62204h-31.49606z" fill-opacity="0" fill="#000000" fill-rule="evenodd" stroke="none" stroke-width="1"/><path d="M448.771,319.377v10.32813h1.125v2.70313h-1.125v2.78125h-3.9375v-2.78125h-4.6875v-2.70312l3.40625,-10.32812zM444.8335,329.70513v-6.71875l-1.75,6.71875z" fill="#000000" fill-rule="nonzero" stroke="none" stroke-width="1"/><path d="M447.021,322.9895h31.49606v43.62204h-31.49606z" fill-opacity="0" fill="#000000" fill-rule="evenodd" stroke="none" stroke-width="1"/><path d="M465.3335,335.377v2.53125h-4.89062v2.6875c0.61458,-0.72917 1.40104,-1.09375 2.35938,-1.09375c1.09375,0 1.91667,0.30729 2.46875,0.92188c0.5625,0.60417 0.84375,1.77604 0.84375,3.51563v2.25c0,1.11458 -0.05729,1.9375 -0.17187,2.46875c-0.10417,0.52083 -0.33333,1.00521 -0.6875,1.45313c-0.34375,0.44792 -0.83333,0.79167 -1.46875,1.03125c-0.625,0.22917 -1.39062,0.34375 -2.29687,0.34375c-1.01042,0 -1.90625,-0.17708 -2.6875,-0.53125c-0.77083,-0.35417 -1.32292,-0.88021 -1.65625,-1.57812c-0.32292,-0.70833 -0.48437,-1.79687 -0.48437,-3.26562v-0.85937h3.95313v0.98438c0,1.02083 0.03646,1.75 0.10938,2.1875c0.07292,0.42708 0.31771,0.64063 0.73438,0.64063c0.19792,0 0.35417,-0.0625 0.46875,-0.1875c0.125,-0.125 0.19271,-0.26042 0.20313,-0.40625c0.01042,-0.14583 0.02083,-0.76562 0.03125,-1.85937v-3.14062c0,-0.59375 -0.0625,-0.99479 -0.1875,-1.20312c-0.125,-0.21875 -0.32812,-0.32812 -0.60937,-0.32812c-0.1875,0 -0.34375,0.05729 -0.46875,0.17188c-0.11458,0.10417 -0.19271,0.22396 -0.23437,0.35938c-0.03125,0.125 -0.04687,0.41667 -0.04687,0.875h-3.90625l0.15625,-7.96875z" fill="#000000" fill-rule="nonzero" stroke="none" stroke-width="1"/><path d="M463.021,338.9895h31.49606v43.62204h-31.49606z" fill-opacity="0" fill="#000000" fill-rule="evenodd" stroke="none" stroke-width="1"/><path d="M482.19287,355.58012h-3.9375c0,-0.73958 -0.01042,-1.20312 -0.03125,-1.39062c-0.01042,-0.19792 -0.08854,-0.35937 -0.23437,-0.48437c-0.13542,-0.13542 -0.32292,-0.20312 -0.5625,-0.20312c-0.20833,0 -0.38021,0.0625 -0.51562,0.1875c-0.125,0.125 -0.19792,0.28646 -0.21875,0.48438c-0.01042,0.19792 -0.01562,0.58854 -0.01562,1.17188v2.53125c0.19792,-0.42708 0.48958,-0.74479 0.875,-0.95312c0.39583,-0.21875 0.88021,-0.32812 1.45313,-0.32812c0.71875,0 1.35417,0.19792 1.90625,0.59375c0.5625,0.38542 0.91667,0.85417 1.0625,1.40625c0.14583,0.54167 0.21875,1.28125 0.21875,2.21875v1.25c0,1.11458 -0.04167,1.94271 -0.125,2.48438c-0.08333,0.53125 -0.3125,1.03125 -0.6875,1.5c-0.36458,0.45833 -0.86979,0.8125 -1.51562,1.0625c-0.63542,0.25 -1.38021,0.375 -2.23437,0.375c-1.05208,0 -1.91667,-0.14583 -2.59375,-0.4375c-0.67708,-0.29167 -1.20312,-0.71354 -1.57812,-1.26562c-0.36458,-0.55208 -0.57812,-1.13021 -0.64062,-1.73437c-0.0625,-0.60417 -0.09375,-1.77604 -0.09375,-3.51562v-2.1875c0,-1.88542 0.02604,-3.14583 0.07813,-3.78125c0.0625,-0.63542 0.29167,-1.23437 0.6875,-1.79687c0.39583,-0.57292 0.9375,-1 1.625,-1.28125c0.6875,-0.28125 1.47917,-0.42187 2.375,-0.42187c1.10417,0 2.01042,0.18229 2.71875,0.54688c0.71875,0.35417 1.22917,0.85938 1.53125,1.51563c0.30208,0.64583 0.45313,1.46354 0.45313,2.45313zM478.25537,360.502c0,-0.55208 -0.0625,-0.93229 -0.1875,-1.14062c-0.125,-0.20833 -0.32812,-0.3125 -0.60937,-0.3125c-0.27083,0 -0.46875,0.09896 -0.59375,0.29688c-0.125,0.19792 -0.1875,0.58333 -0.1875,1.15625v2.875c0,0.6875 0.05729,1.14063 0.17188,1.35938c0.125,0.21875 0.32813,0.32813 0.60938,0.32813c0.16667,0 0.33854,-0.08333 0.51563,-0.25c0.1875,-0.16667 0.28125,-0.61458 0.28125,-1.34375z" fill="#000000" fill-rule="nonzero" stroke="none" stroke-width="1"/><path d="M479.021,354.9895h31.49606v43.62204h-31.49606z" fill-opacity="0" fill="#000000" fill-rule="evenodd" stroke="none" stroke-width="1"/><path d="M495.67725,367.377v3.45313l-2.51562,12.35938h-3.92187l2.79688,-12.96875h-3.89062v-2.84375z" fill="#000000" fill-rule="nonzero" stroke="none" stroke-width="1"/><path d="M495.021,370.9895h31.49606v43.62204h-31.49606z" fill-opacity="0" fill="#000000" fill-rule="evenodd" stroke="none" stroke-width="1"/><path d="M512.25537,390.22075c0.58333,0.23958 1.03125,0.59375 1.34375,1.0625c0.3125,0.45833 0.46875,1.5625 0.46875,3.3125c0,1.28125 -0.125,2.22396 -0.375,2.82813c-0.25,0.60417 -0.73437,1.09896 -1.45312,1.48438c-0.70833,0.38542 -1.66667,0.57813 -2.875,0.57813c-1.17708,0 -2.10937,-0.18229 -2.79687,-0.54687c-0.67708,-0.375 -1.16667,-0.86458 -1.46875,-1.46875c-0.29167,-0.61458 -0.4375,-1.63542 -0.4375,-3.0625c0,-0.95833 0.07292,-1.78646 0.21875,-2.48437c0.14583,-0.70833 0.60938,-1.27604 1.39063,-1.70312c-0.48958,-0.22917 -0.85937,-0.59896 -1.10937,-1.10937c-0.23958,-0.51042 -0.35937,-1.16146 -0.35937,-1.95312c0,-1.36458 0.375,-2.38542 1.125,-3.0625c0.76042,-0.67708 1.89063,-1.01562 3.39063,-1.01562c1.73958,0 2.94271,0.35938 3.60938,1.07813c0.66667,0.71875 1,1.75 1,3.09375c0,0.85417 -0.10937,1.47396 -0.32812,1.85938c-0.21875,0.375 -0.66667,0.74479 -1.34375,1.10938zM510.03662,386.83013c0,-0.54167 -0.04687,-0.89583 -0.14062,-1.0625c-0.09375,-0.17708 -0.27604,-0.26562 -0.54687,-0.26562c-0.26042,0 -0.4375,0.09375 -0.53125,0.28125c-0.08333,0.1875 -0.125,0.53646 -0.125,1.04688v1.20313c0,0.46875 0.05208,0.79688 0.15625,0.98438c0.10417,0.17708 0.28125,0.26563 0.53125,0.26563c0.26042,0 0.43229,-0.08854 0.51563,-0.26562c0.09375,-0.17708 0.14063,-0.54687 0.14063,-1.10937zM510.11475,393.39263c0,-0.60417 -0.0625,-1.00521 -0.1875,-1.20312c-0.125,-0.19792 -0.31771,-0.29687 -0.57812,-0.29687c-0.26042,0 -0.44792,0.09896 -0.5625,0.29688c-0.11458,0.1875 -0.17187,0.58854 -0.17187,1.20313v2.0625c0,0.67708 0.0625,1.11458 0.1875,1.3125c0.125,0.19792 0.32292,0.29688 0.59375,0.29688c0.28125,0 0.46875,-0.09896 0.5625,-0.29687c0.10417,-0.19792 0.15625,-0.64583 0.15625,-1.34375z" fill="#000000" fill-rule="nonzero" stroke="none" stroke-width="1"/><path d="M511.021,386.9895h31.49606v43.62204h-31.49606z" fill-opacity="0" fill="#000000" fill-rule="evenodd" stroke="none" stroke-width="1"/><path d="M520.72412,410.98637h3.95313c0,0.73958 0.00521,1.20833 0.01563,1.40625c0.02083,0.1875 0.09896,0.34896 0.23438,0.48438c0.14583,0.125 0.33854,0.1875 0.57813,0.1875c0.20833,0 0.375,-0.0625 0.5,-0.1875c0.13542,-0.125 0.20833,-0.28646 0.21875,-0.48437c0.02083,-0.19792 0.03125,-0.58854 0.03125,-1.17187v-2.53125c-0.19792,0.42708 -0.49479,0.75 -0.89062,0.96875c-0.38542,0.20833 -0.86979,0.3125 -1.45312,0.3125c-0.71875,0 -1.35417,-0.19271 -1.90625,-0.57812c-0.55208,-0.39583 -0.90625,-0.86458 -1.0625,-1.40625c-0.14583,-0.55208 -0.21875,-1.29687 -0.21875,-2.23437v-1.25c0,-1.11458 0.04167,-1.9375 0.125,-2.46875c0.09375,-0.54167 0.32292,-1.04167 0.6875,-1.5c0.36458,-0.46875 0.86979,-0.82812 1.51563,-1.07812c0.64583,-0.25 1.39583,-0.375 2.25,-0.375c1.05208,0 1.91667,0.14583 2.59375,0.4375c0.67708,0.29167 1.19792,0.71354 1.5625,1.26563c0.375,0.55208 0.58854,1.13021 0.64063,1.73438c0.0625,0.60417 0.09375,1.77604 0.09375,3.51563v2.1875c0,1.88542 -0.02604,3.14583 -0.07812,3.78125c-0.05208,0.63542 -0.28125,1.23958 -0.6875,1.8125c-0.39583,0.5625 -0.9375,0.98438 -1.625,1.26563c-0.67708,0.28125 -1.46354,0.42188 -2.35937,0.42188c-1.11458,0 -2.02604,-0.17708 -2.73437,-0.53125c-0.70833,-0.36458 -1.21875,-0.86979 -1.53125,-1.51562c-0.30208,-0.65625 -0.45312,-1.47917 -0.45312,-2.46875zM524.67725,406.0645c0,0.65625 0.08333,1.0625 0.25,1.21875c0.17708,0.15625 0.35417,0.23438 0.53125,0.23438c0.27083,0 0.46875,-0.09896 0.59375,-0.29687c0.13542,-0.19792 0.20313,-0.58333 0.20313,-1.15625v-2.875c0,-0.6875 -0.0625,-1.14062 -0.1875,-1.35937c-0.11458,-0.21875 -0.3125,-0.32812 -0.59375,-0.32812c-0.16667,0 -0.34375,0.08333 -0.53125,0.25c-0.17708,0.16667 -0.26562,0.61458 -0.26562,1.34375z" fill="#ffffff" fill-rule="nonzero" stroke="#000000" stroke-width="0.5"/><path d="M527.021,402.9895h31.49606v43.62204h-31.49606z" fill-opacity="0" fill="#000000" fill-rule="evenodd" stroke="none" stroke-width="1"/><path d="M546.03662,420.73637v5.26563c0,1.19792 -0.06771,2.07292 -0.20312,2.625c-0.125,0.54167 -0.39583,1.05208 -0.8125,1.53125c-0.40625,0.46875 -0.90104,0.80729 -1.48437,1.01563c-0.57292,0.20833 -1.21875,0.3125 -1.9375,0.3125c-0.94792,0 -1.73437,-0.10937 -2.35937,-0.32812c-0.625,-0.21875 -1.125,-0.55729 -1.5,-1.01562c-0.36458,-0.45833 -0.625,-0.94271 -0.78125,-1.45312c-0.15625,-0.51042 -0.23437,-1.32292 -0.23437,-2.4375v-5.51562c0,-1.45833 0.125,-2.54687 0.375,-3.26562c0.25,-0.72917 0.74479,-1.30729 1.48438,-1.73437c0.75,-0.4375 1.65625,-0.65625 2.71875,-0.65625c0.86458,0 1.64063,0.15104 2.32813,0.45313c0.6875,0.30208 1.19792,0.67188 1.53125,1.10938c0.34375,0.4375 0.57292,0.93229 0.6875,1.48438c0.125,0.54167 0.1875,1.41146 0.1875,2.60938zM542.0835,419.40825c0,-0.84375 -0.04167,-1.36979 -0.125,-1.57812c-0.07292,-0.21875 -0.26042,-0.32812 -0.5625,-0.32812c-0.29167,0 -0.48437,0.11458 -0.57812,0.34375c-0.09375,0.21875 -0.14062,0.73958 -0.14062,1.5625v7.70313c0,0.91667 0.04167,1.47396 0.125,1.67188c0.08333,0.1875 0.27604,0.28125 0.57813,0.28125c0.29167,0 0.47917,-0.10937 0.5625,-0.32812c0.09375,-0.22917 0.14063,-0.72917 0.14063,-1.5z" fill="#000000" fill-rule="nonzero" stroke="none" stroke-width="1"/></g></g></svg>