<svg version="1.1" xmlns="http://www.w3.org/2000/svg" xmlns:xlink="http://www.w3.org/1999/xlink" width="1536" height="1152" viewBox="0,0,1536,1152"><defs><clipPath id="clip-1"><path d="M104.00001,-143.99996h815.99999v1055.99998h-815.99998z" fill="none"/></clipPath><clipPath id="clip-2"><path d="M104.00001,-143.99996h815.99999v1055.99998h-815.99998z" fill="none"/></clipPath><clipPath id="clip-3"><path d="M104.00001,-143.99996h815.99999v1055.99998h-815.99998z" fill="none"/></clipPath><clipPath id="clip-4"><path d="M104.00001,-143.99996h815.99999v1055.99998h-815.99998z" fill="none"/></clipPath><clipPath id="clip-5"><path d="M104.00001,-143.99996h815.99999v1055.99998h-815.99998z" fill="none"/></clipPath><linearGradient x1="317.66745" y1="287.36809" x2="317.66745" y2="409.32842" gradientTransform="translate(-153.75003,-268.38024) scale(0.70842,0.70842)" gradientUnits="userSpaceOnUse" id="color-1"><stop offset="0" stop-color="#efba13"/><stop offset="1" stop-color="#dc5d12"/></linearGradient><clipPath id="clip-6"><path d="M-256,960v-1152h1536v1152z" fill="none" stroke="none"/></clipPath></defs><g transform="translate(256,192)"><g clip-path="url(#clip-6)" data-paper-data="{&quot;isPaintingLayer&quot;:true}" fill-rule="nonzero" stroke-width="1" stroke-linecap="butt" stroke-linejoin="miter" stroke-miterlimit="10" stroke-dasharray="" stroke-dashoffset="0" style="mix-blend-mode: normal"><g clip-path="url(#clip-1)" stroke="none"><text transform="translate(200.032,37.1467) scale(1.33334,1.33334)" font-size="72" xml:space="preserve" fill="#000000" fill-rule="nonzero" stroke="none" stroke-width="1" stroke-linecap="butt" stroke-linejoin="miter" stroke-miterlimit="10" stroke-dasharray="" stroke-dashoffset="0" font-family="&quot;Jurassic Park&quot;" font-weight="normal" text-anchor="start" style="mix-blend-mode: normal"><tspan x="0" dy="0">M</tspan></text></g><g clip-path="url(#clip-2)" stroke="none"><text transform="translate(242.74667,37.1467) scale(1.33334,1.33334)" font-size="72" xml:space="preserve" fill="#000000" fill-rule="nonzero" stroke="none" stroke-width="1" stroke-linecap="butt" stroke-linejoin="miter" stroke-miterlimit="10" stroke-dasharray="" stroke-dashoffset="0" font-family="&quot;Jurassic Park&quot;" font-weight="normal" text-anchor="start" style="mix-blend-mode: normal"><tspan x="0" dy="0">AILB</tspan></text></g><g clip-path="url(#clip-3)" stroke="none"><text transform="translate(346.10666,37.1467) scale(1.33334,1.33334)" font-size="72" xml:space="preserve" fill="#000000" fill-rule="nonzero" stroke="none" stroke-width="1" stroke-linecap="butt" stroke-linejoin="miter" stroke-miterlimit="10" stroke-dasharray="" stroke-dashoffset="0" font-family="&quot;Jurassic Park&quot;" font-weight="normal" text-anchor="start" style="mix-blend-mode: normal"><tspan x="0" dy="0">OX</tspan></text></g><g clip-path="url(#clip-4)" stroke="none"><text transform="translate(200.032,151.3867) scale(1.33334,1.33334)" font-size="72" xml:space="preserve" fill="#000000" fill-rule="nonzero" stroke="none" stroke-width="1" stroke-linecap="butt" stroke-linejoin="miter" stroke-miterlimit="10" stroke-dasharray="" stroke-dashoffset="0" font-family="&quot;Jurassic Park&quot;" font-weight="normal" text-anchor="start" style="mix-blend-mode: normal"><tspan x="0" dy="0">OPTI</tspan></text></g><g clip-path="url(#clip-5)" stroke="none"><text transform="translate(315.06666,151.3867) scale(1.33334,1.33334)" font-size="72" xml:space="preserve" fill="#000000" fill-rule="nonzero" stroke="none" stroke-width="1" stroke-linecap="butt" stroke-linejoin="miter" stroke-miterlimit="10" stroke-dasharray="" stroke-dashoffset="0" font-family="&quot;Jurassic Park&quot;" font-weight="normal" text-anchor="start" style="mix-blend-mode: normal"><tspan x="0" dy="0">ONS</tspan></text></g><text transform="translate(606.93891,456.02537) scale(1.33334,1.33334)" font-size="72" xml:space="preserve" fill="#000000" fill-rule="nonzero" stroke="none" stroke-width="1" stroke-linecap="butt" stroke-linejoin="miter" stroke-miterlimit="10" stroke-dasharray="" stroke-dashoffset="0" font-family="Sans Serif" font-weight="normal" text-anchor="start" style="mix-blend-mode: normal"><tspan x="0" dy="0">ะด</tspan></text><text transform="translate(217.032,378.84287) scale(1.41159,1.41159)" font-size="72" xml:space="preserve" fill="url(#color-1)" fill-rule="nonzero" stroke="none" stroke-width="1" stroke-linecap="butt" stroke-linejoin="miter" stroke-miterlimit="10" stroke-dasharray="" stroke-dashoffset="0" font-family="&quot;Jurassic Park&quot;" font-weight="normal" text-anchor="start" style="mix-blend-mode: normal"><tspan x="0" dy="0">COMING </tspan></text><g><path d="M530.76496,402.6044c1.6,-0.73485 3.11,-1.34425 3.41,-1.34425c1.6,0 6.35,5.09918 8.75,9.40076c1.72,3.14553 1.72,3.10073 -1.9,4.56147c-6.56,2.60784 -10.43,5.95053 -13.54,11.62324c-1.81,3.34269 -1.89,3.83559 -0.34,2.805c2.61,-1.76544 10.77,-1.9626 15.36,-0.38535c4.75,1.61309 8.87,6.47926 10.55,12.42979c2.48,8.66591 1.39,20.71035 -2.52,27.50327c-3.49,6.05806 -9.68,9.16776 -18.21,9.16776c-5.89,0 -10.39,-1.80129 -14.56,-5.78922c-5.67,-5.52933 -8.62,-14.66124 -8.62,-26.81322c0,-20.53111 8.33,-37.10118 21.62,-43.15925zM533.83496,410.8491c-0.17,-1.0754 -1.43,-0.80655 -3.95,0.8872c-6.1,4.10443 -10.69,11.73078 -13.04,21.74989c-0.59,2.57199 -0.76,4.86617 -0.72,11.12139c0,7.21412 0.13,8.17302 1.14,11.5874c1.93,6.67642 5.17,11.20205 9.8,13.72923c2.36,1.3084 2.61,1.34425 6.69,1.34425c3.74,0 4.41,-0.11651 6.31,-1.03059c2.56,-1.22775 3.61,-2.23145 5,-4.75863c2.23,-4.06858 3.24,-11.62324 2.4,-17.60962c-1.43,-9.82196 -8.33,-15.03763 -17.41,-13.08399c-5.14,1.11124 -8.37,3.26204 -11.02,7.29477c-0.1,0.15235 -0.59,0.91409 -1.48,2.29418c0,-0.86928 0,-1.35321 0,-1.45179c0,-3.22619 1.39,-9.8578 3.03,-14.31173c2.69,-7.48296 6.65,-13.03918 11.23,-15.88002c1.22,-0.72589 2.11,-1.57725 2.02,-1.88194z" fill="#000000" stroke="none"/><g fill-opacity="0" fill="#000000" stroke-opacity="0" stroke="#000000"><path d="M530.76496,402.6044c1.6,-0.73485 3.11,-1.34425 3.41,-1.34425c1.6,0 6.35,5.09918 8.75,9.40076c1.72,3.14553 1.72,3.10073 -1.9,4.56147c-6.56,2.60784 -10.43,5.95053 -13.54,11.62324c-1.81,3.34269 -1.89,3.83559 -0.34,2.805c2.61,-1.76544 10.77,-1.9626 15.36,-0.38535c4.75,1.61309 8.87,6.47926 10.55,12.42979c2.48,8.66591 1.39,20.71035 -2.52,27.50327c-3.49,6.05806 -9.68,9.16776 -18.21,9.16776c-5.89,0 -10.39,-1.80129 -14.56,-5.78922c-5.67,-5.52933 -8.62,-14.66124 -8.62,-26.81322c0,-20.53111 8.33,-37.10118 21.62,-43.15925zM533.83496,410.8491c-0.17,-1.0754 -1.43,-0.80655 -3.95,0.8872c-6.1,4.10443 -10.69,11.73078 -13.04,21.74989c-0.59,2.57199 -0.76,4.86617 -0.72,11.12139c0,7.21412 0.13,8.17302 1.14,11.5874c1.93,6.67642 5.17,11.20205 9.8,13.72923c2.36,1.3084 2.61,1.34425 6.69,1.34425c3.74,0 4.41,-0.11651 6.31,-1.03059c2.56,-1.22775 3.61,-2.23145 5,-4.75863c2.23,-4.06858 3.24,-11.62324 2.4,-17.60962c-1.43,-9.82196 -8.33,-15.03763 -17.41,-13.08399c-5.14,1.11124 -8.37,3.26204 -11.02,7.29477c-0.1,0.15235 -0.59,0.91409 -1.48,2.29418c0,-0.86928 0,-1.35321 0,-1.45179c0,-3.22619 1.39,-9.8578 3.03,-14.31173c2.69,-7.48296 6.65,-13.03918 11.23,-15.88002c1.22,-0.72589 2.11,-1.57725 2.02,-1.88194z"/></g></g><g><path d="M528.99496,436.93643c2.57,-0.8424 5.6,-0.95889 8,-0.30469c2.1,0.57355 5.55,3.36957 6.68,5.36802c1.9,3.33373 2.53,9.70545 1.64,15.88002c-1.13,8.09236 -5.72,12.2416 -12.87,11.55156c-6.56,-0.61836 -11.52,-6.37173 -13.67,-15.80833c-1.22,-5.29633 -1.09,-6.90046 0.72,-9.40076c2.86,-3.98793 5.38,-5.94157 9.5,-7.28581zM535.64496,442.61811c-1.3,-0.80655 -4,-1.15605 -5.64,-0.69901c-1.85,0.5377 -4.37,2.99318 -5.25,5.17982c-1.77,4.25678 0.59,12.54629 4.12,14.66124c2.94,1.80129 6.81,0.7259 8.41,-2.30314c1.3,-2.45549 1.85,-6.94527 1.3,-10.512c-0.5,-3.37853 -1.43,-5.33218 -2.94,-6.32691z" fill="#000000" stroke="none"/><g fill-opacity="0" fill="#000000" stroke-opacity="0" stroke="#000000"><path d="M528.99496,436.93643c2.57,-0.8424 5.6,-0.95889 8,-0.30469c2.1,0.57355 5.55,3.36957 6.68,5.36802c1.9,3.33373 2.53,9.70545 1.64,15.88002c-1.13,8.09236 -5.72,12.2416 -12.87,11.55156c-6.56,-0.61836 -11.52,-6.37173 -13.67,-15.80833c-1.22,-5.29633 -1.09,-6.90046 0.72,-9.40076c2.86,-3.98793 5.38,-5.94157 9.5,-7.28581zM535.64496,442.61811c-1.3,-0.80655 -4,-1.15605 -5.64,-0.69901c-1.85,0.5377 -4.37,2.99318 -5.25,5.17982c-1.77,4.25678 0.59,12.54629 4.12,14.66124c2.94,1.80129 6.81,0.7259 8.41,-2.30314c1.3,-2.45549 1.85,-6.94527 1.3,-10.512c-0.5,-3.37853 -1.43,-5.33218 -2.94,-6.32691z"/></g></g><g><path d="M231.90496,403.44679c1.47,-0.99474 2.98,-1.80129 3.32,-1.80129c1.47,0 11.02,9.7413 12.11,12.38498c0.17,0.34951 -0.67,1.0037 -2.61,2.03429c-4.33,2.26729 -9.63,7.29478 -11.81,11.1662c-2.57,4.52562 -3.49,8.1282 -3.49,13.72923c-0.05,7.24996 1.68,12.12509 5.93,17.00023c2.77,3.21723 8.91,6.90046 14.46,8.66591c0.72,0.233 0.47,0.61836 -2.1,2.95734c-3.49,3.26204 -11.35,9.13191 -12.62,9.40076c-1.97,0.45704 -9.33,-4.68694 -13.08,-9.13191c-4.12,-4.83929 -6.6,-9.70545 -8.66,-16.80307c-1.18,-4.10443 -1.26,-4.91098 -1.3,-11.50675c-0.05,-7.83247 0.46,-10.89735 2.77,-16.88373c3.32,-8.59421 9.13,-15.76352 17.08,-21.21219zM235.77496,410.27556c-0.3,-0.30469 -0.68,-0.57354 -0.84,-0.57354c-0.51,0 -6.1,5.48452 -7.53,7.36647c-3.75,5.01851 -6.52,12.42979 -7.32,19.3661c-1.35,12.16094 3.45,24.78789 12.07,31.80485c2.69,2.18664 3.15,2.33899 3.95,1.61309c0.38,-0.34951 -0.21,-1.03955 -2.65,-3.07384c-5.17,-4.37328 -8.45,-9.6248 -10.39,-16.68657c-1.38,-4.91098 -1.34,-14.61643 0,-19.21375c2.28,-7.63531 4.88,-12.08925 9.93,-16.84788c2.78,-2.67953 3.24,-3.25308 2.78,-3.75493z" fill="#000000" stroke="none"/><g fill-opacity="0" fill="#000000" stroke-opacity="0" stroke="#000000"><path d="M231.90496,403.44679c1.47,-0.99474 2.98,-1.80129 3.32,-1.80129c1.47,0 11.02,9.7413 12.11,12.38498c0.17,0.34951 -0.67,1.0037 -2.61,2.03429c-4.33,2.26729 -9.63,7.29478 -11.81,11.1662c-2.57,4.52562 -3.49,8.1282 -3.49,13.72923c-0.05,7.24996 1.68,12.12509 5.93,17.00023c2.77,3.21723 8.91,6.90046 14.46,8.66591c0.72,0.233 0.47,0.61836 -2.1,2.95734c-3.49,3.26204 -11.35,9.13191 -12.62,9.40076c-1.97,0.45704 -9.33,-4.68694 -13.08,-9.13191c-4.12,-4.83929 -6.6,-9.70545 -8.66,-16.80307c-1.18,-4.10443 -1.26,-4.91098 -1.3,-11.50675c-0.05,-7.83247 0.46,-10.89735 2.77,-16.88373c3.32,-8.59421 9.13,-15.76352 17.08,-21.21219zM235.77496,410.27556c-0.3,-0.30469 -0.68,-0.57354 -0.84,-0.57354c-0.51,0 -6.1,5.48452 -7.53,7.36647c-3.75,5.01851 -6.52,12.42979 -7.32,19.3661c-1.35,12.16094 3.45,24.78789 12.07,31.80485c2.69,2.18664 3.15,2.33899 3.95,1.61309c0.38,-0.34951 -0.21,-1.03955 -2.65,-3.07384c-5.17,-4.37328 -8.45,-9.6248 -10.39,-16.68657c-1.38,-4.91098 -1.34,-14.61643 0,-19.21375c2.28,-7.63531 4.88,-12.08925 9.93,-16.84788c2.78,-2.67953 3.24,-3.25308 2.78,-3.75493z"/></g></g><g><path d="M338.26496,402.0667c3.37,-0.38535 6.9,-0.19716 10.39,0.57354c9.29,2.07014 14.68,9.7413 16.7,23.74834c0.71,4.94682 0.71,20.6745 0,25.50482c-1.43,9.78611 -4.21,16.53422 -8.41,20.3698c-4.42,3.99689 -9.01,5.49348 -16.87,5.49348c-3.87,0 -5.93,-0.16131 -7.78,-0.69004c-9.38,-2.6168 -13.88,-8.40602 -16.45,-21.14051c-1.09,-5.33218 -1.09,-23.51534 -0.04,-28.96401c3.03,-15.80833 9.89,-23.39883 22.46,-24.89542zM346.72496,410.66091c-4.34,-1.80129 -9.8,-1.53244 -13.72,0.72589c-3.95,2.26729 -7.31,7.06177 -8.87,12.58214c-3.03,10.81669 -1.89,29.46587 2.31,37.52238c2.11,4.05962 3.87,5.86987 7.24,7.35751c2.56,1.15605 3.11,1.27256 6.81,1.27256c3.49,0 4.33,-0.15235 6.6,-1.11124c7.28,-3.038 10.98,-11.01385 11.74,-25.24493c0.33,-6.10287 -0.34,-14.15939 -1.56,-18.72086c-1.85,-6.98111 -5.84,-12.39394 -10.55,-14.38342z" fill="#000000" stroke="none"/><g fill-opacity="0" fill="#000000" stroke-opacity="0" stroke="#000000"><path d="M338.26496,402.0667c3.37,-0.38535 6.9,-0.19716 10.39,0.57354c9.29,2.07014 14.68,9.7413 16.7,23.74834c0.71,4.94682 0.71,20.6745 0,25.50482c-1.43,9.78611 -4.21,16.53422 -8.41,20.3698c-4.42,3.99689 -9.01,5.49348 -16.87,5.49348c-3.87,0 -5.93,-0.16131 -7.78,-0.69004c-9.38,-2.6168 -13.88,-8.40602 -16.45,-21.14051c-1.09,-5.33218 -1.09,-23.51534 -0.04,-28.96401c3.03,-15.80833 9.89,-23.39883 22.46,-24.89542zM346.72496,410.66091c-4.34,-1.80129 -9.8,-1.53244 -13.72,0.72589c-3.95,2.26729 -7.31,7.06177 -8.87,12.58214c-3.03,10.81669 -1.89,29.46587 2.31,37.52238c2.11,4.05962 3.87,5.86987 7.24,7.35751c2.56,1.15605 3.11,1.27256 6.81,1.27256c3.49,0 4.33,-0.15235 6.6,-1.11124c7.28,-3.038 10.98,-11.01385 11.74,-25.24493c0.33,-6.10287 -0.34,-14.15939 -1.56,-18.72086c-1.85,-6.98111 -5.84,-12.39394 -10.55,-14.38342z"/></g></g><g><path d="M337.55496,411.73631c3.99,-1.00371 8.87,0.34055 11.94,3.33373c5.22,5.09917 7.74,14.53577 7.28,27.23441c-0.68,17.87847 -5.68,25.74678 -16.45,25.70198c-7.78,-0.03584 -12.45,-4.98267 -14.76,-15.79936c-0.97,-4.37328 -1.35,-17.07192 -0.63,-22.06355c1.39,-10.279 5.8,-16.68657 12.62,-18.4072zM343.18496,419.71216c-0.8,-0.6542 -1.89,-1.19189 -2.44,-1.19189c-2.81,0 -5.67,3.68323 -6.77,8.82721c-0.92,4.25678 -1.26,15.03764 -0.67,20.52215c0.92,7.94001 2.52,12.23263 5.09,13.42453c2.9,1.38009 5.38,0.3047 7.15,-3.06488c1.97,-3.68324 2.65,-8.28951 2.65,-17.84262c0,-12.23264 -1.35,-17.76197 -5.01,-20.6745z" fill="#000000" stroke="none"/><g fill-opacity="0" fill="#000000" stroke-opacity="0" stroke="#000000"><path d="M337.55496,411.73631c3.99,-1.00371 8.87,0.34055 11.94,3.33373c5.22,5.09917 7.74,14.53577 7.28,27.23441c-0.68,17.87847 -5.68,25.74678 -16.45,25.70198c-7.78,-0.03584 -12.45,-4.98267 -14.76,-15.79936c-0.97,-4.37328 -1.35,-17.07192 -0.63,-22.06355c1.39,-10.279 5.8,-16.68657 12.62,-18.4072zM343.18496,419.71216c-0.8,-0.6542 -1.89,-1.19189 -2.44,-1.19189c-2.81,0 -5.67,3.68323 -6.77,8.82721c-0.92,4.25678 -1.26,15.03764 -0.67,20.52215c0.92,7.94001 2.52,12.23263 5.09,13.42453c2.9,1.38009 5.38,0.3047 7.15,-3.06488c1.97,-3.68324 2.65,-8.28951 2.65,-17.84262c0,-12.23264 -1.35,-17.76197 -5.01,-20.6745z"/></g></g><g><path d="M449.72496,402.0667c3.36,-0.38535 6.89,-0.19716 10.38,0.57354c9.3,2.07014 14.68,9.7413 16.7,23.74834c0.72,4.94682 0.72,20.6745 0,25.50482c-1.43,9.78611 -4.21,16.53422 -8.41,20.3698c-4.42,3.99689 -9,5.49348 -16.87,5.49348c-3.87,0 -5.93,-0.16131 -7.78,-0.69004c-9.38,-2.6168 -13.88,-8.40602 -16.44,-21.14051c-1.1,-5.33218 -1.1,-23.51534 -0.04,-28.96401c3.02,-15.80833 9.88,-23.39883 22.46,-24.89542zM458.17496,410.66091c-4.33,-1.80129 -9.8,-1.53244 -13.71,0.72589c-3.96,2.26729 -7.32,7.06177 -8.88,12.58214c-3.02,10.81669 -1.89,29.46587 2.32,37.52238c2.1,4.05962 3.87,5.86987 7.23,7.35751c2.57,1.15605 3.11,1.27256 6.81,1.27256c3.5,0 4.34,-0.15235 6.61,-1.11124c7.27,-3.038 10.97,-11.01385 11.73,-25.24493c0.34,-6.10287 -0.33,-14.15939 -1.55,-18.72086c-1.86,-6.98111 -5.85,-12.39394 -10.56,-14.38342z" fill="#000000" stroke="none"/><g fill-opacity="0" fill="#000000" stroke-opacity="0" stroke="#000000"><path d="M449.72496,402.0667c3.36,-0.38535 6.89,-0.19716 10.38,0.57354c9.3,2.07014 14.68,9.7413 16.7,23.74834c0.72,4.94682 0.72,20.6745 0,25.50482c-1.43,9.78611 -4.21,16.53422 -8.41,20.3698c-4.42,3.99689 -9,5.49348 -16.87,5.49348c-3.87,0 -5.93,-0.16131 -7.78,-0.69004c-9.38,-2.6168 -13.88,-8.40602 -16.44,-21.14051c-1.1,-5.33218 -1.1,-23.51534 -0.04,-28.96401c3.02,-15.80833 9.88,-23.39883 22.46,-24.89542zM458.17496,410.66091c-4.33,-1.80129 -9.8,-1.53244 -13.71,0.72589c-3.96,2.26729 -7.32,7.06177 -8.88,12.58214c-3.02,10.81669 -1.89,29.46587 2.32,37.52238c2.1,4.05962 3.87,5.86987 7.23,7.35751c2.57,1.15605 3.11,1.27256 6.81,1.27256c3.5,0 4.34,-0.15235 6.61,-1.11124c7.27,-3.038 10.97,-11.01385 11.73,-25.24493c0.34,-6.10287 -0.33,-14.15939 -1.55,-18.72086c-1.86,-6.98111 -5.85,-12.39394 -10.56,-14.38342z"/></g></g><g><path d="M449.00496,411.73631c4,-1.00371 8.87,0.34055 11.94,3.33373c5.22,5.09917 7.74,14.53577 7.28,27.23441c-0.67,17.87847 -5.68,25.74678 -16.44,25.70198c-7.78,-0.03584 -12.45,-4.98267 -14.77,-15.79936c-0.96,-4.37328 -1.34,-17.07192 -0.63,-22.06355c1.39,-10.279 5.81,-16.68657 12.62,-18.4072zM454.64496,419.71216c-0.8,-0.6542 -1.9,-1.19189 -2.44,-1.19189c-2.82,0 -5.68,3.68323 -6.77,8.82721c-0.93,4.25678 -1.27,15.03764 -0.68,20.52215c0.93,7.94001 2.53,12.23263 5.09,13.42453c2.9,1.38009 5.38,0.3047 7.15,-3.06488c1.98,-3.68324 2.65,-8.28951 2.65,-17.84262c0,-12.23264 -1.34,-17.76197 -5,-20.6745z" fill="#000000" stroke="none"/><g fill-opacity="0" fill="#000000" stroke-opacity="0" stroke="#000000"><path d="M449.00496,411.73631c4,-1.00371 8.87,0.34055 11.94,3.33373c5.22,5.09917 7.74,14.53577 7.28,27.23441c-0.67,17.87847 -5.68,25.74678 -16.44,25.70198c-7.78,-0.03584 -12.45,-4.98267 -14.77,-15.79936c-0.96,-4.37328 -1.34,-17.07192 -0.63,-22.06355c1.39,-10.279 5.81,-16.68657 12.62,-18.4072zM454.64496,419.71216c-0.8,-0.6542 -1.9,-1.19189 -2.44,-1.19189c-2.82,0 -5.68,3.68323 -6.77,8.82721c-0.93,4.25678 -1.27,15.03764 -0.68,20.52215c0.93,7.94001 2.53,12.23263 5.09,13.42453c2.9,1.38009 5.38,0.3047 7.15,-3.06488c1.98,-3.68324 2.65,-8.28951 2.65,-17.84262c0,-12.23264 -1.34,-17.76197 -5,-20.6745z"/></g></g><g><path d="M287.71495,405.36458c0.63,-1.83713 1.22,-3.33373 1.34,-3.33373c0.09,0 1.06,0.4212 2.15,0.91409c1.64,0.7707 5.38,2.23145 13.42,5.21567c0.88,0.34951 0.88,0.43016 -1.81,5.83402c-4,8.02067 -7.03,13.38869 -9.89,17.64547c-0.17,0.25092 -1.02,1.50556 -2.56,3.76389c1.46,3.26204 2.27,5.08125 2.44,5.44867c2.81,6.44342 8.45,17.10777 12.95,24.58177c3.07,5.02748 3.41,6.03118 2.19,6.03118c-0.72,0 -9.59,3.10073 -13.38,4.67798c-0.21,0.08961 -1.28,0.54666 -3.19,1.38009c-0.31,-1.05748 -0.47,-1.64894 -0.51,-1.76544c-1.01,-3.60258 -10.64,-25.78263 -11.23,-25.78263c-0.12,0 -0.75,0.31366 -1.47,0.6542c-0.08,0.04481 -0.49,0.27781 -1.22,0.69005l0.13,12.58213l0.12,12.54629l-8.83,-0.08065l-8.83,-0.10754c0.13,-3.10969 0.2,-4.83929 0.21,-5.17982c0.34,-8.20886 0.25,-47.18302 -0.13,-57.77568c-0.02,-0.64524 -0.13,-3.8535 -0.33,-9.6248c4.99,-0.1165 7.77,-0.17923 8.32,-0.19716c4.59,-0.1165 8.63,-0.34054 9,-0.45704c0.64,-0.26885 0.68,0.76174 0.51,11.73974c-0.21,13.77404 -0.42,13.34388 3.45,6.44342c2.69,-4.87513 5.59,-11.23789 7.15,-15.84418zM269.54496,413.80645c-0.17,-1.99845 -0.38,-2.57199 -0.93,-2.57199c-0.63,0 -0.67,2.60783 -0.67,28.57866c0,1.90883 0,11.43505 0,28.57867h0.97h0.92v-10.01015v-9.9743c1.72,-1.77441 2.67,-2.76018 2.86,-2.95734c1.56,-1.61309 3.75,-4.05962 4.92,-5.36802c0.14,-0.16131 0.83,-0.98578 2.06,-2.45549c0.53,0.61836 0.83,0.96785 0.89,1.03955c1.93,2.18664 8.83,14.65228 14.93,26.92972c1.47,2.91253 1.51,2.98422 2.48,2.45549c0.5,-0.31365 0.29,-1.03955 -1.22,-4.33743c-3.36,-7.13347 -11.94,-22.5206 -15.1,-27.01038c-0.55,-0.72589 -0.25,-1.29943 3.2,-6.32691c4.67,-6.79292 6.77,-10.32381 8.7,-14.46408c1.73,-3.68324 1.77,-3.79973 0.8,-3.98793c-0.59,-0.1165 -1.26,0.8424 -3.11,4.29262c-2.82,5.26048 -6.9,11.62324 -11.35,17.65443c-3.62,4.86617 -8.71,10.77188 -9.55,11.04073c-0.38,0.1165 -0.51,-2.94837 -0.51,-14.18627c0,-7.86832 -0.12,-15.46779 -0.29,-16.91957z" fill="#000000" stroke="none"/><g fill-opacity="0" fill="#000000" stroke-opacity="0" stroke="#000000"><path d="M287.71495,405.36458c0.63,-1.83713 1.22,-3.33373 1.34,-3.33373c0.09,0 1.06,0.4212 2.15,0.91409c1.64,0.7707 5.38,2.23145 13.42,5.21567c0.88,0.34951 0.88,0.43016 -1.81,5.83402c-4,8.02067 -7.03,13.38869 -9.89,17.64547c-0.17,0.25092 -1.02,1.50556 -2.56,3.76389c1.46,3.26204 2.27,5.08125 2.44,5.44867c2.81,6.44342 8.45,17.10777 12.95,24.58177c3.07,5.02748 3.41,6.03118 2.19,6.03118c-0.72,0 -9.59,3.10073 -13.38,4.67798c-0.21,0.08961 -1.28,0.54666 -3.19,1.38009c-0.31,-1.05748 -0.47,-1.64894 -0.51,-1.76544c-1.01,-3.60258 -10.64,-25.78263 -11.23,-25.78263c-0.12,0 -0.75,0.31366 -1.47,0.6542c-0.08,0.04481 -0.49,0.27781 -1.22,0.69005l0.13,12.58213l0.12,12.54629l-8.83,-0.08065l-8.83,-0.10754c0.13,-3.10969 0.2,-4.83929 0.21,-5.17982c0.34,-8.20886 0.25,-47.18302 -0.13,-57.77568c-0.02,-0.64524 -0.13,-3.8535 -0.33,-9.6248c4.99,-0.1165 7.77,-0.17923 8.32,-0.19716c4.59,-0.1165 8.63,-0.34054 9,-0.45704c0.64,-0.26885 0.68,0.76174 0.51,11.73974c-0.21,13.77404 -0.42,13.34388 3.45,6.44342c2.69,-4.87513 5.59,-11.23789 7.15,-15.84418zM269.54496,413.80645c-0.17,-1.99845 -0.38,-2.57199 -0.93,-2.57199c-0.63,0 -0.67,2.60783 -0.67,28.57866c0,1.90883 0,11.43505 0,28.57867h0.97h0.92v-10.01015v-9.9743c1.72,-1.77441 2.67,-2.76018 2.86,-2.95734c1.56,-1.61309 3.75,-4.05962 4.92,-5.36802c0.14,-0.16131 0.83,-0.98578 2.06,-2.45549c0.53,0.61836 0.83,0.96785 0.89,1.03955c1.93,2.18664 8.83,14.65228 14.93,26.92972c1.47,2.91253 1.51,2.98422 2.48,2.45549c0.5,-0.31365 0.29,-1.03955 -1.22,-4.33743c-3.36,-7.13347 -11.94,-22.5206 -15.1,-27.01038c-0.55,-0.72589 -0.25,-1.29943 3.2,-6.32691c4.67,-6.79292 6.77,-10.32381 8.7,-14.46408c1.73,-3.68324 1.77,-3.79973 0.8,-3.98793c-0.59,-0.1165 -1.26,0.8424 -3.11,4.29262c-2.82,5.26048 -6.9,11.62324 -11.35,17.65443c-3.62,4.86617 -8.71,10.77188 -9.55,11.04073c-0.38,0.1165 -0.51,-2.94837 -0.51,-14.18627c0,-7.86832 -0.12,-15.46779 -0.29,-16.91957z"/></g></g><g><path d="M572.65496,403.75149c1.98,-0.45704 3.79,-0.87824 4,-0.92305c0.25,0 0.88,1.72959 1.43,3.88039c0.54,2.1508 1.51,5.56518 2.18,7.55466c1.81,5.44867 5.98,16.14887 6.27,16.14887c0.46,0 5.93,-11.39024 7.86,-16.41772c1.01,-2.67953 2.23,-6.21041 2.65,-7.90416c0.47,-1.64894 0.89,-3.06489 1.01,-3.18139c0.09,-0.08065 0.72,0.08066 1.39,0.38535c1.73,0.80655 8.16,2.91253 12.37,4.06858c0.24,0.06273 1.44,0.39431 3.61,0.99474c-3.13,5.40386 -4.86,8.41498 -5.21,9.01541c-8.25,14.19524 -15.69,28.22915 -16.11,30.37995c-0.59,2.805 -0.5,12.85098 0.21,20.82684c0.34,3.79973 0.63,7.09762 0.63,7.33062c0,0.26885 -2.56,0.50185 -7.65,0.69005c-4.25,0.15235 -8.25,0.30469 -8.96,0.3495c-1.18,0.07169 -1.26,0 -1.18,-1.07539c0.67,-7.44712 1.01,-17.64547 0.76,-22.43994c-0.3,-5.79818 -0.34,-6.10287 -2.32,-11.31855c-3.28,-8.71071 -6.98,-16.76723 -14.04,-30.69361c-1.31,-2.52718 -2.36,-4.79447 -2.36,-4.98267c0,-0.233 2.23,-0.72589 4.96,-1.11124c2.7,-0.38535 6.52,-1.11124 8.5,-1.57725zM573.70496,415.72424c-1.6,-4.14924 -2.14,-5.26049 -2.77,-5.26049c-0.42,0 -0.84,0.15235 -0.97,0.34951c-0.51,0.72589 5.93,16.26538 11.69,28.19331c0.19,0.38535 1.11,2.28522 2.78,5.71752c0,5.10814 0,7.94897 0,8.51355c0,4.67798 0.12,10.35966 0.29,12.58214c0.25,3.83558 0.3,4.10443 1.14,4.10443c0.88,0 0.88,0 0.75,-12.85099c0,-0.85136 -0.05,-5.13502 -0.12,-12.85099c1.87,-2.92149 2.9,-4.54355 3.11,-4.86617c6.69,-10.47616 15.56,-26.62502 14.93,-27.19857c-0.08,-0.08065 -0.59,-0.19716 -1.14,-0.233c-0.79,-0.1165 -1.09,0.18819 -1.8,1.91779c-2.11,5.06333 -15.23,27.88862 -16.07,27.88862c-0.67,0 -8.37,-16.83891 -11.82,-26.00667z" fill="#000000" stroke="none"/><g fill-opacity="0" fill="#000000" stroke-opacity="0" stroke="#000000"><path d="M572.65496,403.75149c1.98,-0.45704 3.79,-0.87824 4,-0.92305c0.25,0 0.88,1.72959 1.43,3.88039c0.54,2.1508 1.51,5.56518 2.18,7.55466c1.81,5.44867 5.98,16.14887 6.27,16.14887c0.46,0 5.93,-11.39024 7.86,-16.41772c1.01,-2.67953 2.23,-6.21041 2.65,-7.90416c0.47,-1.64894 0.89,-3.06489 1.01,-3.18139c0.09,-0.08065 0.72,0.08066 1.39,0.38535c1.73,0.80655 8.16,2.91253 12.37,4.06858c0.24,0.06273 1.44,0.39431 3.61,0.99474c-3.13,5.40386 -4.86,8.41498 -5.21,9.01541c-8.25,14.19524 -15.69,28.22915 -16.11,30.37995c-0.59,2.805 -0.5,12.85098 0.21,20.82684c0.34,3.79973 0.63,7.09762 0.63,7.33062c0,0.26885 -2.56,0.50185 -7.65,0.69005c-4.25,0.15235 -8.25,0.30469 -8.96,0.3495c-1.18,0.07169 -1.26,0 -1.18,-1.07539c0.67,-7.44712 1.01,-17.64547 0.76,-22.43994c-0.3,-5.79818 -0.34,-6.10287 -2.32,-11.31855c-3.28,-8.71071 -6.98,-16.76723 -14.04,-30.69361c-1.31,-2.52718 -2.36,-4.79447 -2.36,-4.98267c0,-0.233 2.23,-0.72589 4.96,-1.11124c2.7,-0.38535 6.52,-1.11124 8.5,-1.57725zM573.70496,415.72424c-1.6,-4.14924 -2.14,-5.26049 -2.77,-5.26049c-0.42,0 -0.84,0.15235 -0.97,0.34951c-0.51,0.72589 5.93,16.26538 11.69,28.19331c0.19,0.38535 1.11,2.28522 2.78,5.71752c0,5.10814 0,7.94897 0,8.51355c0,4.67798 0.12,10.35966 0.29,12.58214c0.25,3.83558 0.3,4.10443 1.14,4.10443c0.88,0 0.88,0 0.75,-12.85099c0,-0.85136 -0.05,-5.13502 -0.12,-12.85099c1.87,-2.92149 2.9,-4.54355 3.11,-4.86617c6.69,-10.47616 15.56,-26.62502 14.93,-27.19857c-0.08,-0.08065 -0.59,-0.19716 -1.14,-0.233c-0.79,-0.1165 -1.09,0.18819 -1.8,1.91779c-2.11,5.06333 -15.23,27.88862 -16.07,27.88862c-0.67,0 -8.37,-16.83891 -11.82,-26.00667z"/></g></g><g><path d="M677.00898,403.44679c1.52,-0.08065 10.18,-0.15235 19.31,-0.1882c1.1,-0.00896 6.62,-0.03585 16.57,-0.08066c-0.18,1.20086 -0.28,1.86402 -0.3,1.99845c-0.12,1.11124 -0.38,4.67798 -0.54,7.89521c-0.02,0.39431 -0.11,2.34794 -0.26,5.86987c-1.03,-0.10754 -1.61,-0.17924 -1.72,-0.1882c-2.27,-0.26885 -11.4,-0.42119 -17.79,-0.30469c-0.35,0 -2.07,0.02688 -5.17,0.07169v7.13347v7.09762l10.97,-0.10754l10.98,-0.1165c-0.15,1.72064 -0.24,2.67953 -0.25,2.87669c-0.13,1.56829 -0.38,5.09917 -0.51,7.85935c-0.02,0.33158 -0.12,1.99845 -0.29,4.99163l-10.39,-0.1165l-10.39,-0.1165c-0.15,0.87824 -0.23,1.36216 -0.25,1.46074c-0.17,0.80655 -0.3,3.75493 -0.3,6.59577c0,0.34054 0,2.05221 0,5.14398l12.41,-0.19716l12.41,-0.15234c0,4.25678 0,6.62265 0,7.09761c0,3.95208 0.12,7.51882 0.25,7.94001c0.02,0.05377 0.1,0.34055 0.25,0.8424c-11.83,-0.01792 -18.41,-0.03585 -19.72,-0.03585c-10.81,0 -20.32,0.1165 -21.11,0.26885c-0.1,0.01792 -0.58,0.12546 -1.43,0.30469c0.17,-2.71537 0.27,-4.22093 0.29,-4.52563c0.13,-2.52718 0.38,-19.02555 0.5,-36.67102c0.02,-2.14183 0.12,-12.84203 0.3,-32.10955c1.03,-0.14339 1.61,-0.21508 1.72,-0.233c0.97,-0.1165 2.95,-0.26885 4.46,-0.30469zM705.60898,411.04626v-0.9589h-14.3h-14.3c0.18,1.64894 0.28,2.57199 0.3,2.76019c0.21,1.53244 0.33,14.88527 0.33,29.65405c0,1.78337 0,10.73605 0,26.84907h14.39h14.42v-0.87825v-0.85135c-6.99,0 -10.87,0 -11.65,0c-6.43,0 -12.41,-0.10754 -13.25,-0.22404c-0.1,-0.01792 -0.64,-0.10754 -1.59,-0.26885v-13.15568v-13.20049c6.93,0 10.79,0 11.56,0c11.27,0 11.57,0 11.57,-0.7707c0,-0.76174 -0.3,-0.76174 -11.36,-0.76174c-8.75,0 -11.44,-0.1165 -11.52,-0.50185c-0.13,-0.233 -0.3,-6.36277 -0.42,-13.61273c-0.02,-0.87824 -0.1,-5.25152 -0.26,-13.11984h13.04h13.04z" fill="#000000" stroke="none"/><g fill-opacity="0" fill="#000000" stroke-opacity="0" stroke="#000000"><path d="M677.00898,403.44679c1.52,-0.08065 10.18,-0.15235 19.31,-0.1882c1.1,-0.00896 6.62,-0.03585 16.57,-0.08066c-0.18,1.20086 -0.28,1.86402 -0.3,1.99845c-0.12,1.11124 -0.38,4.67798 -0.54,7.89521c-0.02,0.39431 -0.11,2.34794 -0.26,5.86987c-1.03,-0.10754 -1.61,-0.17924 -1.72,-0.1882c-2.27,-0.26885 -11.4,-0.42119 -17.79,-0.30469c-0.35,0 -2.07,0.02688 -5.17,0.07169v7.13347v7.09762l10.97,-0.10754l10.98,-0.1165c-0.15,1.72064 -0.24,2.67953 -0.25,2.87669c-0.13,1.56829 -0.38,5.09917 -0.51,7.85935c-0.02,0.33158 -0.12,1.99845 -0.29,4.99163l-10.39,-0.1165l-10.39,-0.1165c-0.15,0.87824 -0.23,1.36216 -0.25,1.46074c-0.17,0.80655 -0.3,3.75493 -0.3,6.59577c0,0.34054 0,2.05221 0,5.14398l12.41,-0.19716l12.41,-0.15234c0,4.25678 0,6.62265 0,7.09761c0,3.95208 0.12,7.51882 0.25,7.94001c0.02,0.05377 0.1,0.34055 0.25,0.8424c-11.83,-0.01792 -18.41,-0.03585 -19.72,-0.03585c-10.81,0 -20.32,0.1165 -21.11,0.26885c-0.1,0.01792 -0.58,0.12546 -1.43,0.30469c0.17,-2.71537 0.27,-4.22093 0.29,-4.52563c0.13,-2.52718 0.38,-19.02555 0.5,-36.67102c0.02,-2.14183 0.12,-12.84203 0.3,-32.10955c1.03,-0.14339 1.61,-0.21508 1.72,-0.233c0.97,-0.1165 2.95,-0.26885 4.46,-0.30469zM705.60898,411.04626v-0.9589h-14.3h-14.3c0.18,1.64894 0.28,2.57199 0.3,2.76019c0.21,1.53244 0.33,14.88527 0.33,29.65405c0,1.78337 0,10.73605 0,26.84907h14.39h14.42v-0.87825v-0.85135c-6.99,0 -10.87,0 -11.65,0c-6.43,0 -12.41,-0.10754 -13.25,-0.22404c-0.1,-0.01792 -0.64,-0.10754 -1.59,-0.26885v-13.15568v-13.20049c6.93,0 10.79,0 11.56,0c11.27,0 11.57,0 11.57,-0.7707c0,-0.76174 -0.3,-0.76174 -11.36,-0.76174c-8.75,0 -11.44,-0.1165 -11.52,-0.50185c-0.13,-0.233 -0.3,-6.36277 -0.42,-13.61273c-0.02,-0.87824 -0.1,-5.25152 -0.26,-13.11984h13.04h13.04z"/></g></g><g><path d="M722.57198,407.58707l-0.16,-4.22093h24.85h24.86v8.79137v8.74656c-1.69,-0.14339 -2.63,-0.21508 -2.82,-0.233c-1.6,-0.1165 -5.05,-0.30469 -7.74,-0.45704c-0.32,-0.01792 -1.95,-0.09858 -4.88,-0.233c-0.2,1.81921 -0.31,2.83188 -0.33,3.02903c-0.17,1.64894 -0.3,14.15939 -0.3,27.81693c0,1.64894 0.02,9.91157 0.04,24.77892c-2.7,0.13443 -4.2,0.21508 -4.5,0.23301c-2.48,0.15235 -6.56,0.42119 -9.04,0.64523c-2.52,0.233 -4.62,0.34951 -4.71,0.26885c-0.08,-0.03584 0.04,-5.01852 0.21,-11.0497c0.21,-6.02222 0.38,-18.67605 0.42,-28.15746c0,-1.14709 0,-6.88254 0,-17.22427c-4.34,0.16131 -6.75,0.25092 -7.23,0.26885c-4,0.1165 -7.74,0.3495 -8.29,0.50185c-0.06,0.01792 -0.38,0.08961 -0.96,0.233c0.2,-2.85876 0.31,-4.44498 0.33,-4.75863c0.14,-1.73856 0.23,-4.73174 0.25,-8.97956zM766.52198,412.1575c-0.08,-0.08065 -8.53,-0.26884 -18.71,-0.4212c-1.24,-0.01792 -7.44,-0.09858 -18.59,-0.233v0.99474v1.03955h8.87h8.92c-0.15,9.02437 -0.24,14.03392 -0.25,15.03762c-0.17,8.28055 -0.34,20.59384 -0.38,27.35092c-0.09,12.04444 -0.04,12.27745 0.8,12.39395c0.8,0.10754 0.84,-0.11651 1.09,-7.68013c0.13,-4.29262 0.25,-16.48941 0.3,-27.15376c0.04,-10.6285 0.12,-19.45571 0.25,-19.56325c0.12,-0.1165 4.08,-0.11651 8.79,-0.04481c8.45,0.1165 8.54,0.11651 8.83,-0.72589c0.17,-0.45704 0.21,-0.87824 0.08,-0.99474z" fill="#000000" stroke="none"/><g fill-opacity="0" fill="#000000" stroke-opacity="0" stroke="#000000"><path d="M722.57198,407.58707l-0.16,-4.22093h24.85h24.86v8.79137v8.74656c-1.69,-0.14339 -2.63,-0.21508 -2.82,-0.233c-1.6,-0.1165 -5.05,-0.30469 -7.74,-0.45704c-0.32,-0.01792 -1.95,-0.09858 -4.88,-0.233c-0.2,1.81921 -0.31,2.83188 -0.33,3.02903c-0.17,1.64894 -0.3,14.15939 -0.3,27.81693c0,1.64894 0.02,9.91157 0.04,24.77892c-2.7,0.13443 -4.2,0.21508 -4.5,0.23301c-2.48,0.15235 -6.56,0.42119 -9.04,0.64523c-2.52,0.233 -4.62,0.34951 -4.71,0.26885c-0.08,-0.03584 0.04,-5.01852 0.21,-11.0497c0.21,-6.02222 0.38,-18.67605 0.42,-28.15746c0,-1.14709 0,-6.88254 0,-17.22427c-4.34,0.16131 -6.75,0.25092 -7.23,0.26885c-4,0.1165 -7.74,0.3495 -8.29,0.50185c-0.06,0.01792 -0.38,0.08961 -0.96,0.233c0.2,-2.85876 0.31,-4.44498 0.33,-4.75863c0.14,-1.73856 0.23,-4.73174 0.25,-8.97956zM766.52198,412.1575c-0.08,-0.08065 -8.53,-0.26884 -18.71,-0.4212c-1.24,-0.01792 -7.44,-0.09858 -18.59,-0.233v0.99474v1.03955h8.87h8.92c-0.15,9.02437 -0.24,14.03392 -0.25,15.03762c-0.17,8.28055 -0.34,20.59384 -0.38,27.35092c-0.09,12.04444 -0.04,12.27745 0.8,12.39395c0.8,0.10754 0.84,-0.11651 1.09,-7.68013c0.13,-4.29262 0.25,-16.48941 0.3,-27.15376c0.04,-10.6285 0.12,-19.45571 0.25,-19.56325c0.12,-0.1165 4.08,-0.11651 8.79,-0.04481c8.45,0.1165 8.54,0.11651 8.83,-0.72589c0.17,-0.45704 0.21,-0.87824 0.08,-0.99474z"/></g></g><g><path d="M378.43496,404.21749c0.75,-0.1165 5.93,-0.16131 11.52,-0.08065c11.52,0.15235 12.2,0.30469 17.37,3.41438c3.83,2.33898 6.81,5.41283 8.88,9.24841c2.14,3.90728 2.94,6.74811 3.23,11.30959c0.38,5.56518 -1.43,13.23634 -4.2,18.26382c-2.11,3.79973 -9.38,8.7824 -16.91,11.54259c-0.22,0.08961 -1.35,0.49289 -3.36,1.22775c-0.08,2.25833 -0.12,3.51296 -0.13,3.76389c-0.04,2.07014 0.08,5.75337 0.25,8.17301c0.21,2.41068 0.25,4.52563 0.13,4.64213c-0.13,0.15235 -4.12,0.34054 -8.88,0.49289c-0.57,0.01792 -3.44,0.10754 -8.62,0.26885c-0.02,-16.64176 -0.04,-25.88121 -0.04,-27.73627c0,-15.26167 -0.17,-31.4912 -0.34,-36.05267c-0.02,-0.55562 -0.13,-3.33373 -0.33,-8.32536c0.76,-0.08065 1.24,-0.13443 1.43,-0.15235zM397.90496,410.96561c-2.27,-0.5377 -8.79,-0.92305 -11.1,-0.61836c-0.1,0.01792 -0.58,0.06273 -1.43,0.16131c0.17,2.48237 0.27,3.86247 0.29,4.14028c0.34,5.29633 0.34,50.21206 0,52.2105c-0.25,1.46074 -0.21,1.53244 0.76,1.53244c1.43,0 1.6,-0.92305 1.6,-8.47771c0,-0.40328 0,-2.43757 0,-6.10287c0.7,0 1.1,0 1.17,0c0.63,0 2.36,-0.26886 3.87,-0.6094c9.59,-2.03429 16.74,-8.71071 18.76,-17.41246c0.93,-3.88039 0.59,-10.44031 -0.63,-13.62169c-2.23,-5.68168 -6.86,-9.58895 -13.29,-11.20204z" fill="#000000" stroke="none"/><g fill-opacity="0" fill="#000000" stroke-opacity="0" stroke="#000000"><path d="M378.43496,404.21749c0.75,-0.1165 5.93,-0.16131 11.52,-0.08065c11.52,0.15235 12.2,0.30469 17.37,3.41438c3.83,2.33898 6.81,5.41283 8.88,9.24841c2.14,3.90728 2.94,6.74811 3.23,11.30959c0.38,5.56518 -1.43,13.23634 -4.2,18.26382c-2.11,3.79973 -9.38,8.7824 -16.91,11.54259c-0.22,0.08961 -1.35,0.49289 -3.36,1.22775c-0.08,2.25833 -0.12,3.51296 -0.13,3.76389c-0.04,2.07014 0.08,5.75337 0.25,8.17301c0.21,2.41068 0.25,4.52563 0.13,4.64213c-0.13,0.15235 -4.12,0.34054 -8.88,0.49289c-0.57,0.01792 -3.44,0.10754 -8.62,0.26885c-0.02,-16.64176 -0.04,-25.88121 -0.04,-27.73627c0,-15.26167 -0.17,-31.4912 -0.34,-36.05267c-0.02,-0.55562 -0.13,-3.33373 -0.33,-8.32536c0.76,-0.08065 1.24,-0.13443 1.43,-0.15235zM397.90496,410.96561c-2.27,-0.5377 -8.79,-0.92305 -11.1,-0.61836c-0.1,0.01792 -0.58,0.06273 -1.43,0.16131c0.17,2.48237 0.27,3.86247 0.29,4.14028c0.34,5.29633 0.34,50.21206 0,52.2105c-0.25,1.46074 -0.21,1.53244 0.76,1.53244c1.43,0 1.6,-0.92305 1.6,-8.47771c0,-0.40328 0,-2.43757 0,-6.10287c0.7,0 1.1,0 1.17,0c0.63,0 2.36,-0.26886 3.87,-0.6094c9.59,-2.03429 16.74,-8.71071 18.76,-17.41246c0.93,-3.88039 0.59,-10.44031 -0.63,-13.62169c-2.23,-5.68168 -6.86,-9.58895 -13.29,-11.20204z"/></g></g><g><path d="M387.72496,415.15069l-0.25,-3.14553c1.61,0 2.51,0 2.69,0c12.66,0.03584 20.1,6.78396 20.15,18.25486c0,7.63531 -3.58,14.15939 -9.89,17.99497c-2.65,1.61309 -7.4,3.21723 -10.39,3.53089c-0.13,0.00896 -0.8,0.08961 -2.01,0.22404c0,-10.09976 0,-15.71872 0,-16.83892c0,-6.16561 -0.1,-12.84202 -0.3,-20.02029zM398.45496,419.82867c-2.57,-2.49133 -3.62,-3.10969 -3.91,-2.3838c-0.13,0.26885 -0.17,6.79291 -0.13,14.49993c0.01,0.94097 0.05,5.60102 0.13,14.00704c1.51,-1.38009 2.35,-2.15079 2.52,-2.30314c4.63,-4.22093 6.64,-9.6696 5.72,-15.34232c-0.63,-3.91623 -1.64,-5.86987 -4.33,-8.47771z" fill="#000000" stroke="none"/><g fill-opacity="0" fill="#000000" stroke-opacity="0" stroke="#000000"><path d="M387.72496,415.15069l-0.25,-3.14553c1.61,0 2.51,0 2.69,0c12.66,0.03584 20.1,6.78396 20.15,18.25486c0,7.63531 -3.58,14.15939 -9.89,17.99497c-2.65,1.61309 -7.4,3.21723 -10.39,3.53089c-0.13,0.00896 -0.8,0.08961 -2.01,0.22404c0,-10.09976 0,-15.71872 0,-16.83892c0,-6.16561 -0.1,-12.84202 -0.3,-20.02029zM398.45496,419.82867c-2.57,-2.49133 -3.62,-3.10969 -3.91,-2.3838c-0.13,0.26885 -0.17,6.79291 -0.13,14.49993c0.01,0.94097 0.05,5.60102 0.13,14.00704c1.51,-1.38009 2.35,-2.15079 2.52,-2.30314c4.63,-4.22093 6.64,-9.6696 5.72,-15.34232c-0.63,-3.91623 -1.64,-5.86987 -4.33,-8.47771z"/></g></g><text transform="translate(142.28215,174.08989) scale(2.25,2.25)" font-size="40" xml:space="preserve" fill="#000000" fill-rule="nonzero" stroke="none" stroke-width="1" stroke-linecap="butt" stroke-linejoin="miter" stroke-miterlimit="10" stroke-dasharray="" stroke-dashoffset="0" font-family="&quot;Jurassic Park&quot;" font-weight="normal" text-anchor="start" style="mix-blend-mode: normal"><tspan x="0" dy="0">gg</tspan></text></g></g></svg>