<svg version="1.1" xmlns="http://www.w3.org/2000/svg" xmlns:xlink="http://www.w3.org/1999/xlink" width="926.8" height="427.02996" viewBox="0,0,926.8,427.02996"><g transform="translate(-25.98498,-99.18776)"><g data-paper-data="{&quot;isPaintingLayer&quot;:true}" fill="#000000" fill-rule="nonzero" stroke="none" stroke-width="1" stroke-linecap="butt" stroke-linejoin="miter" stroke-miterlimit="10" stroke-dasharray="" stroke-dashoffset="0" style="mix-blend-mode: normal"><g><path d="M735.98498,99.19249c32.3,-0.2 49.2,17.7 55.7,59c2.5,16.1 2.5,58.6 0,74.9c-5.4,35.1 -15.8,51.7 -37.3,59.7c-5.5,2 -9.3,2.6 -18.9,3c-36.1,1.5 -53.5,-14.8 -61,-57.2c-2.2,-12.2 -3,-44.8 -1.6,-60.5c4.2,-45.6 18.8,-69.8 46.3,-77c4.6,-1.2 10.8,-1.9 16.8,-1.9zM727.88498,144.39249c-4.3,2.9 -8.5,11.3 -10.4,20.9c-2.2,10.9 -3,39.1 -1.6,53.3c2.2,20.7 6,31.9 12.1,35c6.9,3.6 12.8,0.8 17,-8c5,-10.3 6.4,-20.9 6.3,-47c0,-25.5 -1.3,-35.7 -5.7,-44.7c-2.8,-6 -4.1,-7.7 -7.6,-10.1c-3.3,-2.3 -6.1,-2.1 -10.1,0.6z"/><path d="M859.68498,99.19249c0.6,-0.1 1.5,1.4 1.8,3.1c2.5,11.7 12.4,41.3 19,57.2l1.7,3.9l3.4,-6.3c5.8,-10.4 12.2,-25.5 17.5,-40.9c2.7,-8 5.1,-15.1 5.4,-15.8c0.3,-0.9 1.9,-0.6 5.7,1.1c2.9,1.3 11.2,4.2 18.3,6.6c7.2,2.3 13.4,4.6 13.8,5c1.2,1.1 -16.9,37.7 -28.4,57.5c-5.1,8.8 -10.2,17.7 -11.3,19.8l-2.1,3.7l7.4,14.3c11.8,22.4 24.5,45 33.1,58.3l7.8,12.3l-5.6,1.6c-3.2,0.8 -12.5,4.5 -20.9,8c-8.3,3.6 -15.5,6.5 -16,6.5c-0.5,0 -3.1,-5.7 -5.7,-12.8c-5.2,-13.8 -22,-49.2 -23.4,-49.2c-1.7,0 -17.9,36.4 -25.6,57.7l-3.8,10.2l-5.1,-2.1c-11.9,-4.7 -21.2,-7.9 -29.2,-9.9c-4.7,-1.2 -8.5,-2.5 -8.5,-2.9c0,-1.4 13.5,-29.1 22.9,-47c5.1,-9.6 12.8,-22.8 17.1,-29.3c4.4,-6.5 8,-12.2 8,-12.8c0,-2.6 -16.1,-35.3 -28.4,-57.4c-7.5,-13.7 -13.8,-25.2 -13.9,-25.7c-0.1,-0.5 5.7,-2.4 12.9,-4.3c7.2,-1.8 17.1,-4.9 22,-6.9c4.9,-1.9 9.4,-3.5 10.1,-3.5z"/><path d="M255.98498,101.29249l30.2,0.5c16.7,0.3 30.6,0.8 30.9,1.2c0.3,0.3 1.2,5.3 1.8,11.1c4.1,35.4 15.1,102.8 24.5,149.2l6.2,30.6l-11.1,0.6c-6,0.3 -16.4,0.7 -23,0.8l-12,0.3l-0.2,-7c-0.2,-3.9 -0.8,-12 -1.4,-18.1l-1.1,-11.2l-4.5,-0.6c-8.6,-1.1 -29.3,-0.7 -29.8,0.6c-0.2,0.7 -1.1,8 -1.9,16.2c-1,9.6 -2,15.2 -2.8,15.8c-0.7,0.4 -5.8,0.8 -11.3,0.9c-5.5,0 -13.8,0.4 -18.5,0.8c-4.7,0.4 -8.6,0.7 -8.7,0.6c-0.1,-0.1 3.1,-17 7.2,-37.6c8.4,-42.7 15.7,-85.5 21,-123.9c2,-14.6 3.8,-27.5 4.1,-28.7zM284.98498,155.79249c-0.7,-0.8 -7,30.2 -10.5,51.3c-0.8,5.2 -1.7,10.7 -2,12.2l-0.4,2.8h7.3c4,0 9.4,-0.3 12,-0.6l4.7,-0.7l-0.6,-5.1c-0.4,-2.8 -2.7,-17.3 -5.2,-32.1c-2.4,-14.9 -4.8,-27.4 -5.3,-27.8z"/><path d="M483.88498,101.19249l2.4,-0.1l-0.6,52.7c-0.4,29.1 -1,63.3 -1.4,76.2l-0.6,23.4l20.2,-0.5l20.3,-0.4l-0.6,5.5c-0.5,4.6 -2.6,32.8 -2.6,35.3c0,0.5 -18.1,0.8 -40.1,0.8h-40.2l0.7,-6.8c1.7,-18.9 2.8,-85 2.2,-131.8l-0.6,-51.1l14.7,-0.7c8.2,-0.4 16.8,-1.1 19.3,-1.5c2.5,-0.5 5.6,-0.9 6.9,-1z"/><path d="M82.98498,102.09249h23v3.3c0,10.8 12.3,82.8 14.9,87.5c1.3,2.3 15.3,-57.5 19.1,-82.1l1.3,-7.7h20.3h20.3l0.6,3.2c0.3,1.8 1.4,10.7 2.5,19.8c5.6,44.6 17.4,115.2 26,154.5c1.7,7.5 3,13.8 3,14c0,0.3 -10.1,0.5 -22.4,0.5h-22.5l-0.5,-4.3c-0.3,-2.3 -1.2,-12.1 -2.1,-21.7c-2.4,-26.2 -8.7,-65 -10.5,-65c-2,0 -15.5,67.6 -17.2,86.5l-0.3,3l-18.5,-0.4c-10.2,-0.2 -18.8,-0.5 -19.1,-0.7c-0.4,-0.2 -0.9,-3.6 -1.3,-7.6c-1.3,-13 -5.7,-41.8 -9.2,-60.3c-3.6,-18.8 -4.2,-21.1 -4.9,-20.4c-0.7,0.8 -8.4,36.3 -10.5,48.5c-1.1,6.5 -2.9,18.8 -3.9,27.3c-1.1,8.4 -2.2,15.5 -2.4,15.7c-0.2,0.2 -5.9,-0.1 -12.8,-0.6c-6.8,-0.5 -16.3,-1 -21.1,-1c-4.9,0 -8.8,-0.2 -8.8,-0.4c0,-0.3 2,-9.6 4.4,-20.8c8.2,-37.4 18.6,-96 26.1,-146.1c1.9,-13.1 3.5,-24 3.5,-24.3c0,-0.2 10.4,-0.4 23,-0.4z"/><path d="M594.48498,103.19249c16.3,1.1 17.3,1.3 24.3,4.7c9.2,4.4 21.2,15.4 26.5,24.3c3.8,6.3 3.8,6.5 3.3,13.9c-1.2,15.2 -5,24.5 -13.7,33.5c-3.4,3.6 -8.4,7.9 -11.1,9.6l-4.8,3.1l9.8,4.8c11.6,5.7 18.8,12.3 23.4,21.3c2.8,5.7 3,6.7 2.5,13.2c-2.5,29.2 -12.6,45.3 -35.2,56.1c-14.3,6.9 -20.2,7.8 -47,7.8c-13.2,0 -25.3,-0.3 -26.9,-0.7l-2.9,-0.8l0.7,-17.2c1.8,-46.4 2.5,-91.2 1.9,-129.8l-0.6,-42.7l7.9,-0.6c4.3,-0.4 9,-0.8 10.4,-1c5.9,-0.7 15.6,-0.6 31.5,0.5zM585.78498,136.49249l-2.8,-0.6v23.2v23.2l2.8,-0.6c4.7,-1.2 11.5,-6 14.7,-10.5c2.7,-3.8 3,-5.1 3,-11.5c0,-6.3 -0.4,-7.9 -3,-12.2c-1.8,-2.9 -4.9,-6 -7.5,-7.6c-2.5,-1.5 -5.7,-3 -7.2,-3.4zM589.08498,213.19249l-4.1,-0.9v24v23.9l3.8,-0.7c19.4,-3.4 27.8,-23.9 15.5,-37.5c-2,-2.2 -5.3,-4.9 -7.4,-5.9c-2,-1.1 -5.6,-2.4 -7.8,-2.9z"/><path d="M369.08498,103.09249l21.2,0.6c11.7,0.4 21.2,0.7 21.3,0.8c0.1,0 -0.2,15.6 -0.6,34.6c-0.4,19 -0.5,61.3 -0.2,94.1l0.5,59.6l-21.3,0.7c-11.6,0.4 -21.3,0.6 -21.4,0.4c0,-0.2 0,-43.2 0.2,-95.6z"/></g><g><path d="M867.51352,320.61772l6.7,5.9c3.8,3.3 12.8,10.5 20,16l13.2,10.1l-6.3,4.1c-12.8,8.4 -23.3,22.3 -25,32.9c-1.2,8.1 -0.6,9.4 17.8,34.3c4.9,6.6 10,14.8 11.4,18.2c2.4,6 2.5,6.6 1.4,15.2c-1.3,10.2 -3.7,17.9 -8.8,28c-6.8,13.4 -19.7,28 -32.8,37l-5.7,3.9l-4.2,-2.2c-9.4,-5 -36.5,-27.9 -34.2,-28.8c4.5,-1.8 18.3,-12.1 24.1,-17.9c9.3,-9.3 13.4,-17.4 13.4,-26.1c0,-10.2 -1.6,-13.8 -19.3,-41.7c-7.5,-11.9 -9.1,-17 -8.4,-26.6c1.4,-18 12.2,-38.5 28.7,-54.5z"/><path d="M125.51352,322.91772c32.3,-0.2 49.2,17.7 55.7,59c2.5,16.1 2.5,58.6 0,74.9c-5.4,35.1 -15.8,51.7 -37.3,59.7c-5.5,2 -9.3,2.6 -18.9,3c-36.1,1.5 -53.5,-14.8 -61,-57.2c-2.2,-12.2 -3,-44.8 -1.6,-60.5c4.2,-45.6 18.8,-69.8 46.3,-77c4.6,-1.2 10.8,-1.9 16.8,-1.9zM117.41352,368.11772c-4.3,2.9 -8.5,11.3 -10.4,20.9c-2.2,10.9 -3,39.1 -1.6,53.3c2.2,20.7 6,31.9 12.1,35c6.9,3.6 12.8,0.8 17,-8c5,-10.3 6.4,-20.9 6.3,-47c0,-25.5 -1.3,-35.7 -5.7,-44.7c-2.8,-6 -4.1,-7.7 -7.6,-10.1c-3.3,-2.3 -6.1,-2.1 -10.1,0.6z"/><path d="M593.51352,322.91772c32.3,-0.2 49.2,17.7 55.7,59c2.5,16.1 2.5,58.6 0,74.9c-5.4,35.1 -15.8,51.7 -37.3,59.7c-5.5,2 -9.3,2.6 -18.9,3c-36.1,1.5 -53.5,-14.8 -61,-57.2c-2.2,-12.2 -3,-44.8 -1.6,-60.5c4.2,-45.6 18.8,-69.8 46.3,-77c4.6,-1.2 10.8,-1.9 16.8,-1.9zM585.41352,368.11772c-4.3,2.9 -8.5,11.3 -10.4,20.9c-2.2,10.9 -3,39.1 -1.6,53.3c2.2,20.7 6,31.9 12.1,35c6.9,3.6 12.8,0.8 17,-8c5,-10.3 6.4,-20.9 6.3,-47c0,-25.5 -1.3,-35.7 -5.7,-44.7c-2.8,-6 -4.1,-7.7 -7.6,-10.1c-3.3,-2.3 -6.1,-2.1 -10.1,0.6z"/><path d="M724.21352,325.31772c0,0 2.2,6.4 4.8,14.3c7.2,22 25.4,66.6 33.3,81.7l2.1,4l0.1,-24.5c0,-13.5 -0.5,-35.4 -1.2,-48.7c-0.6,-13.3 -1,-24.4 -0.7,-24.6c0.2,-0.2 9.2,-0.7 19.9,-1l19.5,-0.6v78.7c0,73.9 0.6,93.3 3.1,107.7l0.5,3l-14.6,2.4c-8,1.3 -17.1,3 -20.2,3.8c-3.1,0.8 -5.9,1.1 -6.4,0.6c-0.4,-0.4 -2.8,-6.2 -5.2,-12.8c-10.5,-28.1 -28.2,-67.2 -39.6,-87.5l-4.2,-7.5l0.6,20.5c0.3,11.3 1.3,33.7 2.1,49.8c0.8,16.1 1.2,29.7 0.9,30.2c-0.3,0.6 -3,1 -6,1c-2.9,0 -11.9,0.9 -20.1,2c-8.1,1.1 -14.9,1.8 -15,1.7c-0.7,-0.7 -0.8,-13.8 -0.6,-100.5l0.2,-92.2l18.3,-0.1c10,0 20.5,-0.4 23.2,-0.8c2.8,-0.4 5.1,-0.7 5.2,-0.6z"/><path d="M321.41352,326.31772h59.5c49.2,0 59.5,0.2 59.1,1.3c-0.3,0.8 -0.5,10.9 -0.5,22.5v21.2l-8.7,-0.7c-4.9,-0.3 -13.1,-0.7 -18.4,-0.7l-9.6,-0.1l-0.6,11.2c-0.4,6.2 -0.7,38.9 -0.7,72.5v61.3h-7.7c-4.3,0 -14.1,0.7 -21.7,1.5c-7.7,0.8 -14,1.4 -14.2,1.2c-0.1,-0.1 0.2,-11.5 0.7,-25.2c0.4,-13.8 0.8,-47 0.8,-73.8l0.1,-48.8l-9.2,0.5c-5.1,0.3 -14,0.8 -19.7,1.1l-10.3,0.6l0.8,-11.8c0.5,-6.5 0.8,-16.8 0.6,-22.8z"/><path d="M249.31352,327.71772c15.9,0.8 16.4,0.9 23.5,4.4c17,8.5 29.1,23.5 34.3,42.7c1.3,4.6 1.8,10.3 1.8,19.5c0.1,11.2 -0.3,14.5 -2.8,24c-5.2,20.4 -10,27.7 -24.1,37.4c-7.9,5.5 -26.8,15.1 -29.7,15.1c-1.6,0 -1.8,1.2 -1.7,12.7c0,7.1 0.4,17 0.7,22.2c0.5,6 0.3,9.5 -0.3,9.6c-0.5,0.2 -10,0.6 -21,1l-20,0.6l-0.1,-72.8c0,-40 -0.4,-82.6 -0.8,-94.5l-0.8,-21.7l5.4,-0.4c9.9,-0.6 19.2,-0.6 35.6,0.2zM250.81352,361.81772c-1,0 -1.3,7.7 -1.3,37.6v37.5l3,-2.1c7.3,-5.2 15.2,-18.9 17.2,-29.8c1.5,-7.8 0,-20 -3.3,-26.4c-1.1,-2.4 -4.9,-7.1 -8.2,-10.6c-3.4,-3.4 -6.7,-6.2 -7.4,-6.2z"/><path d="M461.61352,326.81772l21.2,0.6c11.7,0.4 21.2,0.7 21.3,0.8c0.1,0 -0.2,15.6 -0.6,34.6c-0.4,19 -0.5,61.3 -0.2,94.1l0.5,59.6l-21.3,0.7c-11.6,0.4 -21.3,0.6 -21.4,0.4c0,-0.2 0,-43.2 0.2,-95.6z"/></g></g></g></svg>