<svg version="1.1" xmlns="http://www.w3.org/2000/svg" xmlns:xlink="http://www.w3.org/1999/xlink" width="926.60444" height="429.02673" viewBox="0,0,926.60444,429.02673"><g transform="translate(-41.19556,-67.16096)"><g data-paper-data="{&quot;isPaintingLayer&quot;:true}" fill="#000000" fill-rule="nonzero" stroke="none" stroke-width="1" stroke-linecap="butt" stroke-linejoin="miter" stroke-miterlimit="10" stroke-dasharray="" stroke-dashoffset="0" style="mix-blend-mode: normal"><path d="M888.63453,291.59137l11.2,9.3c6.2,5.1 14.8,11.9 19.2,15.2c4.4,3.2 8.4,6.2 8.8,6.5c0.4,0.4 -1.8,2.4 -5,4.5c-7.8,5.1 -18.2,15.8 -21.7,22.4c-3.8,7 -4.7,17 -2.1,22.2c1,1.9 6.7,10 12.7,18.1c13.8,18.7 16.1,23.1 16.6,31.8c0.7,11.9 -5.2,29.7 -14.5,43.7c-7,10.7 -23.9,26.9 -31.7,30.4c-2.4,1.1 -3.4,0.8 -12.4,-5.4c-9.7,-6.6 -27.5,-22.3 -27,-23.7c0.2,-0.4 4.4,-3.5 9.4,-6.8c10.9,-7.3 21.1,-17.8 25,-25.8c2.4,-4.9 2.8,-7.1 2.8,-13.1c-0.1,-6.3 -0.6,-8.3 -3.7,-14.5c-2,-4 -6.8,-12.3 -10.8,-18.3c-3.9,-6.1 -8.5,-13.9 -10.3,-17.5c-2.7,-5.7 -3.1,-7.5 -3,-14.5c0.2,-17.9 12.7,-42.3 29.9,-58.4zM886.73453,326.09137c-13,14.8 -16.7,35.3 -9.2,51.3c1.7,3.7 6.2,11.7 10.1,17.9c12.2,19.6 14.2,26 12,38.9c-2.3,13.3 -7.6,21.8 -19.1,30.5c-6.5,5 -6.8,5.4 -4.9,6.7c1.8,1.2 2.5,0.9 8.3,-3.7c14.9,-11.8 21.1,-23.9 21.1,-41.1c0,-8.9 -0.3,-10 -3.7,-17.3c-2.1,-4.2 -6.4,-11.9 -9.7,-17c-3.3,-5 -7.4,-12.3 -9.2,-16.1c-7.5,-16.1 -3.7,-34.7 9.7,-47.9c3.8,-3.7 3.8,-3.9 2,-5.3c-2.8,-2 -3,-1.9 -7.4,3.1z"/><path d="M162.93453,295.19137c22.1,5.4 34.9,25.4 39.7,61.9c1.7,12.9 1.7,53.9 0,66.5c-3.4,25.5 -10,43.1 -20,53.1c-10.5,10.4 -21.4,14.3 -40.1,14.3c-9.2,0 -14.1,-0.4 -18.5,-1.8c-22.3,-6.8 -33,-21.9 -39.1,-55.1c-2.6,-13.9 -2.6,-61.3 -0.1,-75.5c7.2,-41.2 23.5,-61 53.4,-64.9c8,-1 16.4,-0.5 24.7,1.5zM125.73453,317.99137c-9.4,5.9 -17.4,18.4 -21.1,32.8c-7.2,28.2 -4.5,76.8 5.5,97.8c5,10.6 9.2,15.3 17.2,19.2c6.1,3 7.4,3.3 16.2,3.3c8.3,0 10.3,-0.4 15.7,-2.9c17.3,-7.9 26.1,-28.7 27.9,-65.8c0.8,-15.9 -0.8,-36.9 -3.7,-48.8c-4.4,-18.2 -13.9,-32.3 -25.1,-37.5c-10.3,-4.7 -23.3,-4 -32.6,1.9z"/><path d="M164.93453,327.59137c12.4,13.3 18.4,37.9 17.3,71c-1.6,46.6 -13.5,67.1 -39.1,67c-18.5,-0.1 -29.6,-13 -35.1,-41.2c-2.3,-11.4 -3.2,-44.5 -1.5,-57.5c3.3,-26.8 13.8,-43.5 30,-48c9.5,-2.6 21.1,0.9 28.4,8.7zM144.13453,336.59137c-6.7,0 -13.5,9.6 -16.1,23c-2.2,11.1 -3,39.2 -1.6,53.5c2.2,20.7 6,31.9 12.1,35c6.9,3.6 12.8,0.8 17,-8c4.7,-9.6 6.3,-21.6 6.3,-46.5c0,-31.9 -3.2,-46.3 -11.9,-53.9c-1.9,-1.7 -4.5,-3.1 -5.8,-3.1z"/><path d="M630.93453,295.19137c22.1,5.4 34.9,25.4 39.7,61.9c1.7,12.9 1.7,53.9 0,66.5c-3.4,25.5 -10,43.1 -20,53.1c-10.5,10.4 -21.4,14.3 -40.1,14.3c-9.2,0 -14.1,-0.4 -18.5,-1.8c-22.3,-6.8 -33,-21.9 -39.1,-55.1c-2.6,-13.9 -2.6,-61.3 -0.1,-75.5c7.2,-41.2 23.5,-61 53.4,-64.9c8,-1 16.4,-0.5 24.7,1.5zM593.73453,317.99137c-9.4,5.9 -17.4,18.4 -21.1,32.8c-7.2,28.2 -4.5,76.8 5.5,97.8c5,10.6 9.2,15.3 17.2,19.2c6.1,3 7.4,3.3 16.2,3.3c8.3,0 10.3,-0.4 15.7,-2.9c17.3,-7.9 26.1,-28.7 27.9,-65.8c0.8,-15.9 -0.8,-36.9 -3.7,-48.8c-4.4,-18.2 -13.9,-32.3 -25.1,-37.5c-10.3,-4.7 -23.3,-4 -32.6,1.9z"/><path d="M632.93453,327.59137c12.4,13.3 18.4,37.9 17.3,71c-1.6,46.6 -13.5,67.1 -39.1,67c-18.5,-0.1 -29.6,-13 -35.1,-41.2c-2.3,-11.4 -3.2,-44.5 -1.5,-57.5c3.3,-26.8 13.8,-43.5 30,-48c9.5,-2.6 21.1,0.9 28.4,8.7zM612.13453,336.59137c-6.7,0 -13.5,9.6 -16.1,23c-2.2,11.1 -3,39.2 -1.6,53.5c2.2,20.7 6,31.9 12.1,35c6.9,3.6 12.8,0.8 17,-8c4.7,-9.6 6.3,-21.6 6.3,-46.5c0,-31.9 -3.2,-46.3 -11.9,-53.9c-1.9,-1.7 -4.5,-3.1 -5.8,-3.1z"/><path d="M823.03453,295.79137c0,-0.1 0,36.1 0,80.6c0,75.8 0.7,99 3.1,107.7c0.5,1.9 -0.2,2.2 -8.8,3.4c-7.7,1.1 -19.7,3.4 -30.4,5.8c-1.9,0.4 -2.4,-0.3 -3.9,-4.9c-6,-18.2 -26.2,-64.6 -37.8,-86.8c-9.7,-18.4 -9,-19.3 -8.2,11c0.3,14.6 1.3,36.8 2,49.5c1.2,18.1 1.2,23.1 0.2,23.7c-0.6,0.4 -3.3,0.8 -5.8,0.8c-2.6,0 -11.3,0.9 -19.5,2c-8.1,1.1 -15,1.7 -15.2,1.5c-0.3,-0.3 -0.5,-43.6 -0.4,-96.2c0,-79.4 0.2,-95.8 1.4,-96c0.7,-0.1 11.3,-0.4 23.4,-0.6l22.1,-0.4l4,12.1c8,24.1 25.2,66.1 33.4,81.6l3,5.5l-0.6,-37c-0.3,-20.4 -0.8,-42.5 -1.1,-49.3l-0.6,-12.2l13.3,-0.1c7.4,-0.1 16.3,-0.5 19.9,-0.9c3.6,-0.4 6.5,-0.8 6.5,-0.8zM719.73453,315.59137c-1.6,0 -1.7,5.6 -1.7,76c0,66.5 0.2,76 1.5,75.8c0.8,-0.2 1.8,-2.2 2.3,-4.8c0.5,-2.5 1,-33.8 1,-69.7l0.2,-65.2l2.9,4.7c11.9,19 45.9,80.7 62.4,113.2c13.4,26.4 14.7,27.6 15.6,14.8c1.2,-16.8 2.6,-74.8 2.6,-109.3v-35.5h-2.4h-2.3l0.5,15.7c0.5,17.4 -1.5,121.1 -2.5,122.6c-0.3,0.5 -4.1,-6 -8.5,-14.5c-11.4,-21.8 -31.6,-58 -49.6,-88.8c-8.6,-14.6 -16.6,-28.4 -18,-30.8c-1.3,-2.3 -3.1,-4.2 -4,-4.2z"/><path d="M342.33453,297.09137h59.1h59.1v22.9v22.8l-6.7,-0.6c-3.8,-0.3 -12,-0.8 -18.4,-1.2l-11.6,-0.6l-0.8,7.9c-0.4,4.3 -0.7,36.9 -0.7,72.5l0.1,64.6l-10.7,0.6c-5.9,0.4 -15.6,1.1 -21.5,1.7c-6,0.6 -11,0.9 -11.2,0.7c-0.2,-0.1 0.1,-13.1 0.5,-28.8c0.5,-15.7 0.9,-48.7 1,-73.4v-44.9l-17.2,0.7c-9.5,0.3 -18.4,0.9 -19.7,1.3l-2.3,0.6l0.8,-12.4c0.5,-6.8 0.7,-17.4 0.6,-23.4zM402.73453,318.89137l-44.2,-0.6v2.6v2.7h21.1h21.2l-0.6,39.2c-0.4,21.6 -0.8,53.7 -0.9,71.3c-0.2,31.4 -0.1,32 1.9,32.3c1.9,0.3 2,-0.3 2.6,-20c0.3,-11.2 0.6,-43 0.7,-70.8c0.1,-27.7 0.3,-50.7 0.6,-51c0.3,-0.3 9.7,-0.3 20.9,-0.1c20.1,0.3 20.3,0.3 21,-1.9c0.4,-1.2 0.5,-2.3 0.2,-2.6c-0.2,-0.2 -20.3,-0.7 -44.5,-1.1z"/><path d="M482.73453,298.09137l20.6,0.3c11.4,0.2 21,0.7 21.3,1c0.3,0.4 0.1,12.6 -0.3,27.2c-0.5,14.6 -0.6,56.7 -0.3,93.6l0.6,67.1l-21.2,0.7c-11.6,0.4 -21.2,0.6 -21.3,0.4c-0.1,-0.2 0,-43.1 0.2,-95.3zM506.43453,317.59137h-2.5h-2.4v41.3c0,22.8 0.3,56.3 0.7,74.5c0.6,31.5 0.7,33.2 2.5,33.2c1.8,0 1.9,-2.4 1.8,-74.5z"/><path d="M260.13453,299.09137c27.4,0.4 29,0.8 41.3,8.9c9.1,6.1 16.2,14.1 21.1,24.1c5.1,10.2 7,17.6 7.7,29.5c0.9,14.5 -3.4,34.5 -10,47.6c-5,9.9 -22.3,22.9 -40.2,30.1l-8,3.2l-0.3,9.8c-0.1,5.4 0.2,15 0.6,21.3c0.5,6.3 0.6,11.8 0.3,12.1c-0.3,0.4 -9.8,0.9 -21.1,1.3l-20.5,0.7l-0.1,-72.3c0,-39.8 -0.4,-82.1 -0.8,-94l-0.8,-21.7l3.4,-0.4c1.8,-0.3 14.1,-0.4 27.4,-0.2zM252.63453,315.29137l-3.4,0.4l0.7,10.8c0.8,13.8 0.8,130.9 0,136.1c-0.6,3.8 -0.5,4 1.8,4c3.4,0 3.8,-2.4 3.8,-22.1v-15.9h2.8c1.5,0 5.6,-0.7 9.2,-1.6c22.8,-5.3 39.8,-22.7 44.6,-45.4c2.2,-10.1 1.4,-27.2 -1.5,-35.5c-5.3,-14.8 -16.3,-25 -31.6,-29.2c-5.4,-1.4 -20.9,-2.4 -26.4,-1.6z"/><path d="M254.23453,319.59137h6.4c30.1,0.1 47.8,17.7 47.9,47.6c0,19.9 -8.5,36.9 -23.5,46.9c-6.3,4.2 -17.6,8.4 -24.7,9.2l-4.8,0.6v-43.9c0,-24.1 -0.3,-47.6 -0.7,-52.2zM271.03453,333.79137c-0.3,0.7 -0.4,17.7 -0.3,37.8l0.3,36.5l6,-6c11,-11 15.8,-25.2 13.6,-40c-1.5,-10.2 -3.9,-15.3 -10.3,-22.1c-6.1,-6.5 -8.6,-8.1 -9.3,-6.2z"/><path d="M767.4,69.16096c22.1,5.4 34.9,25.4 39.7,61.9c1.7,12.9 1.7,53.9 0,66.5c-3.4,25.5 -10,43.1 -20,53.1c-10.5,10.4 -21.4,14.3 -40.1,14.3c-9.2,0 -14.1,-0.4 -18.5,-1.8c-22.3,-6.8 -33,-21.9 -39.1,-55.1c-2.6,-13.9 -2.6,-61.3 -0.1,-75.5c7.2,-41.2 23.5,-61 53.4,-64.9c8,-1 16.4,-0.5 24.7,1.5zM730.2,91.96096c-9.4,5.9 -17.4,18.4 -21.1,32.8c-7.2,28.2 -4.5,76.8 5.5,97.8c5,10.6 9.2,15.3 17.2,19.2c6.1,3 7.4,3.3 16.2,3.3c8.3,0 10.3,-0.4 15.7,-2.9c17.3,-7.9 26.1,-28.7 27.9,-65.8c0.8,-15.9 -0.8,-36.9 -3.7,-48.8c-4.4,-18.2 -13.9,-32.3 -25.1,-37.5c-10.3,-4.7 -23.3,-4 -32.6,1.9z"/><path d="M769.4,101.56096c12.4,13.3 18.4,37.9 17.3,71c-1.6,46.6 -13.5,67.1 -39.1,67c-18.5,-0.1 -29.6,-13 -35.1,-41.2c-2.3,-11.4 -3.2,-44.5 -1.5,-57.5c3.3,-26.8 13.8,-43.5 30,-48c9.5,-2.6 21.1,0.9 28.4,8.7zM748.6,110.56096c-6.7,0 -13.5,9.6 -16.1,23c-2.2,11.1 -3,39.2 -1.6,53.5c2.2,20.7 6,31.9 12.1,35c6.9,3.6 12.8,0.8 17,-8c4.7,-9.6 6.3,-21.6 6.3,-46.5c0,-31.9 -3.2,-46.3 -11.9,-53.9c-1.9,-1.7 -4.5,-3.1 -5.8,-3.1z"/><path d="M874.7,67.66096c0.6,-0.1 1.5,1.4 1.8,3.1c2.5,11.7 12.4,41.3 19,57.2l1.7,3.9l3.4,-6.3c5.8,-10.4 12.2,-25.5 17.5,-40.9c2.7,-8 5.1,-15.1 5.4,-15.8c0.3,-0.9 1.9,-0.6 5.7,1.1c2.9,1.3 11.2,4.2 18.3,6.6c7.2,2.3 13.4,4.6 13.8,5c1.2,1.1 -16.9,37.7 -28.4,57.5c-5.1,8.8 -10.2,17.7 -11.3,19.8l-2.1,3.7l7.4,14.3c11.8,22.4 24.5,45 33.1,58.3l7.8,12.3l-5.6,1.6c-3.2,0.8 -12.5,4.5 -20.9,8c-8.3,3.6 -15.5,6.5 -16,6.5c-0.5,0 -3.1,-5.7 -5.7,-12.8c-5.2,-13.8 -22,-49.2 -23.4,-49.2c-1.7,0 -17.9,36.4 -25.6,57.7l-3.8,10.2l-5.1,-2.1c-11.9,-4.7 -21.2,-7.9 -29.2,-9.9c-4.7,-1.2 -8.5,-2.5 -8.5,-2.9c0,-1.4 13.5,-29.1 22.9,-47c5.1,-9.6 12.8,-22.8 17.1,-29.3c4.4,-6.5 8,-12.2 8,-12.8c0,-2.6 -16.1,-35.3 -28.4,-57.4c-7.5,-13.7 -13.8,-25.2 -13.9,-25.7c-0.1,-0.5 5.7,-2.4 12.9,-4.3c7.2,-1.8 17.1,-4.9 22,-6.9c4.9,-1.9 9.4,-3.5 10.1,-3.5zM934.8,90.56096c-0.2,0 -3.3,5.7 -6.9,12.7c-5.4,10.3 -30.3,54.9 -31.4,56.1c-0.5,0.6 -23.8,-45.1 -28.7,-56.3c-4.5,-10.4 -5.8,-11.8 -8.1,-9.5c-0.9,0.8 3.5,10.5 21.8,47.3c9.5,19 11.7,24.2 10.9,25.5c-16.8,27.1 -42.7,75.1 -42.2,78.2c0.2,0.8 1,1.5 1.9,1.5c1,0 3.9,-4.5 8.1,-12.5c6.6,-12.6 16.2,-29.7 29,-51.3l7.1,-11.9l6.9,13.4c9.1,17.3 23.1,42.8 27.5,50c3.1,5.1 3.7,5.6 5.4,4.5c2.1,-1.3 2.4,-2.8 1,-4.2c-1.6,-1.8 -20.8,-35.9 -29.4,-52.5l-8.6,-16.5l14.5,-25.5c8,-14 17,-30.3 20,-36.2c5.1,-10.2 5.3,-10.8 3.5,-11.8c-1.1,-0.5 -2.1,-1 -2.3,-1z"/><path d="M271.1,69.66096l9.2,0.4c5.1,0.3 18.9,0.8 30.7,1.1l21.6,0.6l1.2,10.7c4.3,36.4 14.4,98 23.7,144.7c3.6,17.6 6.7,32.8 7,33.6c0.6,1.4 -1.8,1.7 -18.2,2.2c-10.3,0.4 -20.8,0.8 -23.3,0.9l-4.5,0.2l-0.7,-13.5c-0.4,-7.4 -1.1,-15.8 -1.5,-18.5l-0.8,-5l-16.4,-0.3c-9.1,-0.1 -16.8,0.1 -17.2,0.5c-0.4,0.5 -1.2,6 -1.8,12.3c-0.6,6.3 -1.4,13.6 -1.7,16.2l-0.6,4.8l-10.1,0.1c-5.6,0 -14.5,0.4 -19.7,0.8c-5.2,0.4 -9.6,0.7 -9.7,0.6c-0.2,-0.1 3.1,-17 7.2,-37.6c8.3,-42 15.7,-85 20.9,-122.9c2,-14 3.8,-26.9 4.1,-28.7zM301.2,91.56096h-15.8l-4.2,24.7c-9.6,56.7 -17,95.7 -22.3,118.2c-3.5,14.9 -3.5,15.3 -0.7,14.9c2.5,-0.4 2.6,-0.5 7.6,-22.8l3.8,-16.5l30,-0.3l30,-0.2l1.2,8.2c0.8,4.6 2.3,13.1 3.4,19c1.9,10.1 2.2,10.8 4.4,10.8c1.3,0 2.4,-0.1 2.4,-0.3c0,-0.1 -0.9,-4.9 -2,-10.7c-3.1,-16 -8.5,-49.7 -12.5,-78.5c-2,-14.3 -4.7,-34.1 -6.1,-44c-1.3,-9.9 -2.7,-19 -2.9,-20.3c-0.5,-2.2 -0.8,-2.2 -16.3,-2.2z"/><path d="M301.4,96.56096h11.3l0.7,3.7c2.8,17.3 14.6,103.6 14.2,104c-0.3,0.3 -13.4,0.8 -29.2,1.1c-27.8,0.5 -28.6,0.4 -28.1,-1.4c1.7,-5.9 14,-72.6 17.2,-93.4c0.9,-5.8 1.9,-11.3 2.1,-12.3c0.5,-1.5 1.9,-1.7 11.8,-1.7zM300,124.26096c-0.7,-0.8 -7.4,32 -10.5,51.3c-0.8,5.2 -1.7,10.8 -2,12.4l-0.5,2.9l11.5,-0.5c6.4,-0.3 11.8,-0.8 12.1,-1.1c0.7,-0.6 -1.5,-15.6 -6.3,-43.2c-1.9,-11.6 -3.9,-21.4 -4.3,-21.8z"/><path d="M499.4,69.66096c1.9,-0.1 1.9,1.1 1.3,52.6c-0.4,29.1 -1,63.3 -1.4,76.1l-0.6,23.3l19.7,-0.2c10.8,-0.1 19.9,0 20.1,0.3c0.4,0.3 -0.2,9.4 -2.1,33.5l-0.6,7.3h-40h-40.1l0.7,-9.8c1.7,-26.8 2.8,-91.2 2.1,-131.2c-0.4,-23.9 -0.8,-44.6 -0.9,-46l-0.1,-2.5l14,-0.7c7.7,-0.4 16.7,-1.1 20,-1.6c3.3,-0.5 6.9,-1 7.9,-1.1zM481.1,101.56096c-0.6,-10.2 -0.7,-10.5 -2.9,-10.2l-2.2,0.3l0.7,23.7c0.5,13 0.8,47.2 0.8,75.8v52.1l9.5,0.7c5.2,0.3 15.3,0.6 22.3,0.6c12.7,0 12.8,0 12.5,-2.3c-0.3,-2.5 0.1,-2.5 -23.4,-2.6l-15.1,-0.1l-0.7,-63.8c-0.5,-35 -1.1,-68.4 -1.5,-74.2z"/><path d="M98,70.56096h23v3.3c0,10.8 12.3,82.8 14.9,87.5c1.4,2.5 16.5,-62.8 19.6,-85.1l0.7,-4.7h20.4h20.3l0.6,3.2c0.3,1.8 1.4,10.7 2.5,19.8c5.6,44.8 17.5,115.8 26.1,154.9c1.6,7.4 2.9,13.7 2.9,14c0,0.6 -44.2,0.2 -44.8,-0.4c-0.2,-0.1 -1.2,-9.7 -2.2,-21.1c-1.1,-11.5 -2.7,-25.6 -3.5,-31.4c-2.1,-14.6 -6.7,-38 -7.5,-38c-0.7,0 -6.1,23.4 -10.5,45c-3.1,14.8 -6.5,37.1 -6.5,41.9v3.4l-8.2,-0.6c-4.6,-0.4 -13.3,-0.7 -19.3,-0.7h-11.1l-1.8,-15.8c-1.8,-15.5 -5.7,-39.7 -9.7,-60.2c-2.2,-11.3 -2.7,-13.5 -3.3,-12.9c-0.8,0.8 -8.5,36.5 -10.5,48.4c-1.2,6.6 -3,18.9 -4,27.4c-1.1,8.4 -2.2,15.5 -2.4,15.8c-0.5,0.4 -41.9,-1.7 -42.5,-2.2c-0.1,-0.1 1.5,-8.3 3.7,-18.1c5.1,-22.9 13.8,-69 19,-100.4c3.3,-20.2 11.1,-70.9 11.1,-72.6c0,-0.2 10.4,-0.4 23,-0.4zM98.4,91.56096c-2,0 -2.4,0.8 -3.4,5.7c-4.1,20.9 -21.2,101.1 -26,122.3c-5.9,25.4 -6,26.9 -2.4,27c1.4,0 20.9,-85.6 30,-132.3c0.9,-4.8 2,-8.4 2.4,-8c1.9,2.2 21.6,82.2 29.5,120.3c1.9,9.1 3.5,16.6 3.5,16.8c0,0.2 1,0.2 2.2,0c1.8,-0.2 2.4,-1.4 3.4,-6.7c2.5,-12.2 15.6,-58.3 33,-116.4c2.7,-8.8 5.1,-15.2 5.5,-14.5c2.1,3.9 15.8,82.5 20.4,117.3c1.5,11 2.9,20.6 3.1,21.2c0.2,0.7 1.3,1.3 2.4,1.3c1.4,0 2,-0.7 2,-2.4c0,-8 -18.2,-117.5 -24,-144.4c-1.1,-4.8 -1.4,-5.3 -3.7,-5c-2.2,0.3 -2.8,1.4 -5.4,9.3c-9.6,29.4 -33.7,112.2 -35.4,121.7c-0.9,4.7 -2,4.1 -2.9,-1.4c-1.1,-6.8 -6.8,-30.7 -19.8,-83.1c-11.5,-46.4 -12.2,-48.7 -14.4,-48.7z"/><path d="M631.8,74.56096c11.4,5.1 24.2,17.2 29.8,28.3c2.4,4.6 2.6,5.9 2,12c-1.4,14.9 -4.9,23.7 -13,32.5c-3.2,3.4 -8,7.8 -10.7,9.8l-5,3.6l9.3,4.5c11,5.4 19.1,12.9 23.1,21.5c3.1,6.5 3.3,10.1 1.2,22.4c-4.2,24.3 -13.2,37.1 -33,46.5c-15.2,7.3 -20.9,8.3 -47,8.3c-12.6,0 -24.7,-0.3 -26.8,-0.7l-3.8,-0.8l0.5,-8.7c1.8,-25.7 2.7,-77 2.4,-126.2l-0.3,-55.5l7,-0.6c23.5,-1.9 56.5,-0.3 64.3,3.1zM582.8,87.26096l-3.8,0.4v52.3c0,28.8 0.3,63.8 0.7,77.9l0.6,25.6l5.6,1.3c3.1,0.7 11,1.2 17.6,1.2c13.6,-0.1 20.8,-2 29.9,-7.8c20.2,-12.9 23.1,-42.8 5.8,-58.7c-7,-6.6 -22.7,-12.6 -33.2,-12.9c-1.6,-0.1 0.3,-1.1 5,-2.8c10.1,-3.7 15.7,-7.1 21.1,-12.9c8.2,-8.8 11.7,-19.7 10.4,-33.1c-0.8,-8.5 -4.9,-17.7 -9.8,-21.8c-4.8,-4.1 -12.4,-7.2 -20.2,-8.4c-6.7,-0.9 -22,-1.1 -29.7,-0.3z"/><path d="M584,91.56096h9.3c26.9,0.1 40,6.3 44.1,20.9c1.9,6.6 2,11.7 0.6,19.2c-3.6,18.9 -19.7,30.1 -48.2,33.5l-5.8,0.6v-37.1zM599,127.46096v23l2.8,-0.8c12.5,-3.6 19.7,-14.5 17.3,-26c-1.5,-7.4 -5.1,-12.5 -11.4,-16.1c-9.2,-5.3 -8.7,-6.3 -8.7,19.9z"/><path d="M616.5,171.56096c9.2,2.3 14.5,5 20,10.1c6.9,6.3 8.9,11.6 9,22.9c0,8.2 -0.4,10.3 -2.7,15.1c-7,15 -22.9,22.8 -44.3,21.5c-5.5,-0.3 -11,-0.8 -12.2,-1.2l-2.3,-0.6v-34.7c0,-19.1 0.3,-35.1 0.8,-35.5c1.2,-1.3 23.9,0.4 31.7,2.4zM600.6,182.06096c-0.3,0.9 -0.6,11.8 -0.6,24.2v22.5l4.3,-0.7c11.7,-2 19.4,-9.2 21,-19.9c1.5,-9.6 -3.9,-19.3 -13.2,-24c-6.7,-3.4 -10.7,-4.1 -11.5,-2.1z"/><path d="M384.2,72.06096l20.6,0.3c11.4,0.2 21,0.7 21.3,1c0.3,0.4 0.1,12.6 -0.3,27.2c-0.5,14.6 -0.6,56.7 -0.3,93.6l0.6,67.1l-21.2,0.7c-11.6,0.4 -21.2,0.6 -21.3,0.4c-0.1,-0.2 0,-43.1 0.2,-95.3zM407.9,91.56096h-2.5h-2.4v41.3c0,22.8 0.3,56.3 0.7,74.5c0.6,31.5 0.7,33.2 2.5,33.2c1.8,0 1.9,-2.4 1.8,-74.5z"/></g></g></svg>